<svg width="24" height="24" viewBox="0 0 24 24" fill="none" xmlns="http://www.w3.org/2000/svg">
<mask id="mask0_whatsapp" style="mask-type:alpha" maskUnits="userSpaceOnUse" x="0" y="0" width="24" height="24">
<rect width="24" height="24" fill="#D9D9D9"/>
</mask>
<g mask="url(#mask0_whatsapp)">
<path d="M3.48849 16.2615C3.17183 15.5847 2.92791 14.891 2.75674 14.1805C2.58558 13.4702 2.49999 12.7433 2.49999 12C2.49999 10.6858 2.74933 9.45083 3.24799 8.295C3.74666 7.13917 4.42341 6.13375 5.27824 5.27875C6.13308 4.42375 7.13833 3.74692 8.29399 3.24825C9.44966 2.74942 10.6844 2.5 11.9982 2.5C13.3122 2.5 14.5473 2.74933 15.7035 3.248C16.8597 3.74667 17.8653 4.42342 18.7205 5.27825C19.5757 6.13308 20.2527 7.13833 20.7517 8.294C21.2506 9.44967 21.5 10.6844 21.5 11.9983C21.5 13.3123 21.2506 14.5473 20.7517 15.7035C20.2531 16.8597 19.5762 17.8653 18.7212 18.7205C17.8662 19.5757 16.8608 20.2528 15.705 20.7518C14.5492 21.2506 13.3142 21.5 12 21.5C11.2567 21.5 10.5298 21.4144 9.81949 21.2433C9.10899 21.0721 8.41533 20.8282 7.73849 20.5115L3.31399 21.807C2.97133 21.9113 2.67274 21.8363 2.41824 21.5818C2.16374 21.3273 2.08866 21.0287 2.19299 20.686L3.48849 16.2615ZM3.94999 20.05L7.14999 19.1C7.39616 19.0333 7.63366 19.0052 7.86249 19.0155C8.09133 19.0257 8.32049 19.0872 8.54999 19.2C9.08333 19.4667 9.64166 19.6667 10.225 19.8C10.8083 19.9333 11.4 20 12 20C14.2333 20 16.125 19.225 17.675 17.675C19.225 16.125 20 14.2333 20 12C20 9.76667 19.225 7.875 17.675 6.325C16.125 4.775 14.2333 4 12 4C9.76666 4 7.87499 4.775 6.32499 6.325C4.77499 7.875 3.99999 9.76667 3.99999 12C3.99999 12.6 4.06666 13.1917 4.19999 13.775C4.33333 14.3583 4.53333 14.9167 4.79999 15.45C4.91666 15.6667 4.98074 15.8958 4.99224 16.1375C5.00374 16.3792 4.97299 16.6167 4.89999 16.85L3.94999 20.05Z" fill="#8893A8"/>
<path fill-rule="evenodd" clip-rule="evenodd" d="M9.5035 7.76701C9.32211 7.35342 9.12063 7.34337 8.94929 7.34337C8.79803 7.33333 8.63614 7.33333 8.4648 7.33333C8.30409 7.33333 8.03171 7.3936 7.8001 7.64588C7.5679 7.89758 6.93333 8.49256 6.93333 9.71206C6.93333 10.9322 7.82019 12.1115 7.94131 12.2728C8.06184 12.4341 9.65475 15.0143 12.1753 16.0128C14.2716 16.8394 14.6953 16.6781 15.149 16.6273C15.6022 16.5771 16.6108 16.0329 16.8223 15.448C17.0238 14.8737 17.0238 14.3697 16.9635 14.2686C16.9032 14.1682 16.7313 14.1073 16.4897 13.9762C16.2374 13.8556 15.0279 13.2506 14.7963 13.1697C14.5641 13.0893 14.4028 13.0491 14.2415 13.2908C14.0802 13.5431 13.6063 14.0973 13.4557 14.2586C13.3139 14.4199 13.1632 14.44 12.921 14.3189C12.6693 14.1983 11.8728 13.936 10.9251 13.0893C10.1889 12.4335 9.69493 11.6175 9.54367 11.3759C9.40305 11.1236 9.52358 10.9924 9.65475 10.8713C9.76583 10.7608 9.90704 10.5794 10.0282 10.4382C10.1487 10.2964 10.1889 10.1859 10.2799 10.0246C10.3603 9.86331 10.3201 9.71206 10.2598 9.59153C10.199 9.48045 9.72565 8.26095 9.5035 7.76701Z" fill="#8893A8"/>
</g>
</svg>
