<svg width="24" height="20" viewBox="0 0 24 20" fill="none" xmlns="http://www.w3.org/2000/svg">
<path d="M21.1482 4.82685C21.0296 4.75522 20.8944 4.71525 20.7558 4.7108C20.6171 4.70635 20.4797 4.73756 20.3567 4.80143C20.3237 4.81852 20.292 4.8379 20.2618 4.85942L20.257 4.86419C20.1881 4.91391 20.1235 4.96945 20.0641 5.0302C19.5906 5.49966 18.8277 6.27653 18.3566 6.74757C18.3231 6.78186 18.2874 6.81397 18.2498 6.84369L18.237 6.85322C18.2019 6.82992 18.1691 6.80332 18.139 6.77379C18.0322 6.66814 17.927 6.5617 17.8201 6.45605C17.734 6.36947 17.6487 6.28288 17.5619 6.19709L17.2749 5.91113C16.9775 5.61484 16.6802 5.31776 16.3797 5.02464L16.3685 5.01591C16.293 4.92098 16.1969 4.84436 16.0875 4.7918C15.978 4.73924 15.8579 4.71211 15.7364 4.71247H15.7276C15.6017 4.71441 15.4779 4.74512 15.3657 4.80223C15.3328 4.81931 15.3011 4.83869 15.2709 4.86021L15.2653 4.86498C15.1967 4.91465 15.1325 4.96991 15.0732 5.0302C14.8547 5.24626 14.5749 5.52826 14.2912 5.81501L13.3346 6.76823C13.3048 6.79833 13.2731 6.82645 13.2397 6.85243C13.2063 6.82909 13.1753 6.80248 13.1472 6.77299C13.0404 6.66735 12.9352 6.5609 12.8284 6.45526L12.5701 6.1963L12.2831 5.91034C11.9858 5.61405 11.6885 5.31696 11.3871 5.02385C11.2498 4.87812 11.0723 4.77613 10.877 4.73074C10.8618 4.73074 10.8459 4.73074 10.8307 4.72518C10.8028 4.72022 10.7746 4.71677 10.7462 4.71485C10.7439 4.71445 10.7414 4.71445 10.7391 4.71485H10.7247C10.7151 4.71485 10.7056 4.71485 10.6952 4.71485C10.6825 4.71403 10.6697 4.71403 10.657 4.71485H10.6514H10.6314C10.6095 4.71706 10.5877 4.72051 10.5661 4.72518C10.5509 4.72518 10.5366 4.73471 10.5214 4.73868C10.3737 4.78477 10.2398 4.86665 10.1316 4.97698C9.98337 5.12235 9.81278 5.29472 9.63342 5.47186C9.26939 5.83937 8.90137 6.20583 8.52937 6.57123L8.27189 6.82701C8.26203 6.83608 8.25165 6.84457 8.2408 6.85243L8.22884 6.84369C8.20706 6.82869 8.18653 6.81195 8.16746 6.79365C8.13239 6.76187 8.09811 6.72692 8.06463 6.69276L7.51699 6.14546C7.13967 5.76735 6.76156 5.39057 6.38265 5.01511C6.16662 4.80223 5.93704 4.70293 5.70348 4.71008C5.69047 4.70927 5.67742 4.70927 5.66442 4.71008H5.65963H5.6397C5.61774 4.7123 5.59591 4.71575 5.57434 4.72041C5.55919 4.72041 5.54484 4.72994 5.5297 4.73391C5.38182 4.78016 5.24767 4.862 5.13909 4.97222C4.99162 5.11758 4.82024 5.28995 4.64167 5.46709C4.27445 5.83249 3.90697 6.19789 3.53922 6.56329L3.02027 7.0804C2.97222 7.12681 2.92773 7.17672 2.88715 7.22974L2.69265 7.42436C2.54159 7.56368 2.44925 7.75495 2.43428 7.95951C2.41931 8.16407 2.48283 8.36667 2.612 8.52636C2.74118 8.68604 2.92637 8.79091 3.13015 8.81977C3.33393 8.84862 3.54111 8.79931 3.70981 8.6818L3.71459 8.67704C3.78355 8.62731 3.8481 8.57177 3.9075 8.51102C4.38419 8.04871 5.14547 7.27264 5.61738 6.80159C5.65115 6.76733 5.68681 6.73497 5.7242 6.70468L5.73935 6.69833C5.77469 6.72137 5.80755 6.74799 5.8374 6.77776C5.94421 6.88261 6.04944 6.98905 6.15626 7.0955C6.24235 7.18208 6.32764 7.26866 6.41453 7.35525L6.70151 7.64121C6.99884 7.9375 7.29618 8.23379 7.5967 8.5269L7.60786 8.53644C7.68374 8.63088 7.78012 8.70697 7.88974 8.75897C7.99936 8.81098 8.11939 8.83755 8.2408 8.8367H8.24957C8.37469 8.83506 8.49773 8.80461 8.60908 8.74773C8.64203 8.73064 8.67373 8.71127 8.70394 8.68974L8.70873 8.68498C8.77769 8.63526 8.84223 8.57971 8.90164 8.51896C9.11926 8.3029 9.39906 8.02091 9.68284 7.73494L10.6394 6.78173C10.6692 6.7519 10.7009 6.72404 10.7343 6.69833C10.7675 6.72188 10.7985 6.74847 10.8267 6.77776C10.9336 6.88261 11.0388 6.98905 11.1456 7.0955C11.2317 7.18208 11.317 7.26866 11.4039 7.35525L11.6909 7.64121C11.9882 7.9375 12.2855 8.23379 12.5861 8.5269C12.7237 8.67273 12.9014 8.77494 13.097 8.82081C13.1122 8.82081 13.1281 8.82081 13.1433 8.82637C13.1712 8.83116 13.1994 8.83434 13.2278 8.8359H13.2325H13.2477C13.2573 8.8359 13.2668 8.8359 13.2764 8.8359H13.3154H13.321H13.341C13.3629 8.83357 13.3847 8.83012 13.4063 8.82558C13.4215 8.82558 13.4358 8.81605 13.451 8.81207C13.5985 8.7655 13.7323 8.68369 13.8408 8.57377C13.9882 8.42841 14.1596 8.25603 14.3374 8.07969C14.7057 7.71429 15.0737 7.34863 15.4414 6.9827L15.6989 6.72613C15.7101 6.71659 15.7212 6.70706 15.7292 6.7015C15.7336 6.70386 15.7379 6.70652 15.742 6.70945C15.7636 6.72437 15.7841 6.74083 15.8033 6.7587C15.8384 6.79126 15.8727 6.82542 15.9062 6.85958L16.4538 7.40767C16.8311 7.78525 17.2093 8.16177 17.5882 8.53723C17.8034 8.75011 18.0338 8.8502 18.2673 8.84305H18.3056H18.3112H18.3311C18.3531 8.84084 18.3749 8.83739 18.3965 8.83273C18.4116 8.83273 18.426 8.82319 18.4411 8.81922C18.5887 8.77283 18.7226 8.691 18.8309 8.58092C18.9792 8.43555 19.1498 8.26318 19.3275 8.08684C19.6958 7.72144 20.0638 7.35578 20.4316 6.98985L20.9513 6.46002C20.9992 6.41312 21.0436 6.36295 21.0845 6.30989L21.279 6.11607C21.3716 6.03071 21.443 5.92508 21.4876 5.80752C21.5323 5.68995 21.5489 5.56366 21.5363 5.43859C21.5236 5.31353 21.482 5.1931 21.4146 5.08681C21.3473 4.98051 21.2561 4.89125 21.1482 4.82606V4.82685Z" fill="#00DED2"/>
<path d="M21.1483 15.6591C21.0296 15.7307 20.8945 15.7707 20.7558 15.7752C20.6172 15.7796 20.4797 15.7484 20.3567 15.6845C20.3238 15.6674 20.2921 15.6481 20.2618 15.6265L20.2571 15.6218C20.1881 15.5721 20.1236 15.5165 20.0642 15.4558C19.5906 14.9863 18.8278 14.2094 18.3567 13.7384C18.3229 13.7041 18.2872 13.6718 18.2498 13.6415L18.2371 13.632C18.2017 13.655 18.1689 13.6816 18.139 13.7114C18.0322 13.817 17.927 13.9235 17.8202 14.0291C17.7341 14.1157 17.6488 14.2031 17.5619 14.2889L17.2749 14.5748C16.9776 14.8711 16.6803 15.1682 16.3797 15.4613L16.3686 15.4701C16.2927 15.5645 16.1963 15.6406 16.0867 15.6926C15.9771 15.7446 15.857 15.7712 15.7356 15.7703H15.7269C15.6009 15.7684 15.4771 15.7377 15.365 15.6806C15.332 15.6635 15.3003 15.6441 15.2701 15.6226L15.2645 15.6178C15.196 15.5679 15.1317 15.5124 15.0724 15.4518C14.854 15.2357 14.5742 14.9537 14.2904 14.667L13.3338 13.7138C13.3041 13.6837 13.2724 13.6555 13.239 13.6296C13.2056 13.6529 13.1746 13.6795 13.1465 13.709C13.0397 13.8146 12.9345 13.9211 12.8276 14.0267L12.5694 14.2865L12.2824 14.5725C11.9851 14.8687 11.6877 15.1658 11.3864 15.4589C11.2489 15.6044 11.0715 15.7063 10.8762 15.752C10.8611 15.752 10.8451 15.7521 10.83 15.7576C10.8013 15.7576 10.7734 15.7671 10.7455 15.7679H10.7383H10.724C10.7144 15.7679 10.7048 15.7679 10.6945 15.7679H10.6562H10.6506H10.6307C10.6087 15.7657 10.5869 15.7623 10.5653 15.7576C10.5502 15.7576 10.5358 15.7481 10.5207 15.7441C10.3731 15.6977 10.2393 15.6159 10.1309 15.5058C9.98262 15.3604 9.81203 15.1881 9.63267 15.0109L8.52942 13.9147L8.27194 13.6582L8.24085 13.6335L8.22889 13.6415C8.20727 13.6564 8.18676 13.6729 8.16751 13.6907C8.13244 13.7233 8.09816 13.7583 8.06468 13.7924L7.51704 14.3397C7.13999 14.717 6.76294 15.0951 6.3827 15.4693C6.16667 15.6829 5.93709 15.7822 5.70353 15.7751C5.68997 15.7751 5.67722 15.7751 5.66446 15.7751H5.65968H5.63975C5.61779 15.7729 5.59596 15.7694 5.57439 15.7648C5.55924 15.7648 5.54489 15.7552 5.52975 15.7513C5.38201 15.7047 5.24792 15.6229 5.13914 15.513C4.99167 15.3676 4.82028 15.1952 4.64172 15.0181L3.53927 13.9219L3.02032 13.4048C2.97228 13.3581 2.92778 13.3079 2.8872 13.2546L2.69509 13.0529C2.54403 12.9136 2.45169 12.7223 2.43672 12.5177C2.42175 12.3132 2.48527 12.1106 2.61445 11.9509C2.74362 11.7912 2.92881 11.6863 3.13259 11.6575C3.33637 11.6286 3.54355 11.6779 3.71225 11.7954L3.71703 11.8002C3.786 11.8499 3.85054 11.9055 3.90994 11.9662C4.38424 12.4365 5.14552 13.2117 5.61743 13.6883C5.6512 13.7226 5.68686 13.755 5.72425 13.7853L5.73701 13.7948C5.77235 13.7717 5.8052 13.7451 5.83505 13.7154C5.94187 13.6097 6.0471 13.5033 6.15391 13.3976C6.24001 13.3118 6.3253 13.2245 6.41219 13.1387L6.69916 12.8527C6.9965 12.5564 7.29384 12.2593 7.59436 11.9662L7.60552 11.9575C7.6814 11.863 7.77777 11.7869 7.8874 11.7349C7.99702 11.6829 8.11705 11.6564 8.23846 11.6572H8.24723C8.37316 11.6592 8.49697 11.6899 8.60913 11.747C8.64208 11.7641 8.67378 11.7834 8.70399 11.805L8.70877 11.8097C8.77774 11.8595 8.84228 11.915 8.90168 11.9757C9.11931 12.1918 9.39911 12.473 9.68289 12.7598L10.6395 13.713C10.6692 13.7431 10.7009 13.7712 10.7343 13.7972C10.7676 13.7736 10.7985 13.747 10.8268 13.7177C10.9336 13.6121 11.0388 13.5057 11.1457 13.4C11.2317 13.3142 11.317 13.2268 11.4039 13.141L11.6909 12.8551C11.9882 12.5588 12.2856 12.2617 12.5861 11.9686C12.724 11.8233 12.9017 11.7214 13.0971 11.6755C13.1122 11.6755 13.1282 11.6755 13.1433 11.6699C13.1713 11.6649 13.1995 11.6614 13.2278 11.6596H13.2326H13.2477H13.2764C13.29 11.6596 13.3035 11.6596 13.3155 11.6596H13.3211H13.341C13.363 11.6619 13.3848 11.6654 13.4064 11.6699C13.4215 11.6699 13.4359 11.6795 13.451 11.6834C13.5985 11.73 13.7323 11.8118 13.8408 11.9217C13.9883 12.0671 14.1597 12.2395 14.3374 12.4158C14.7057 12.7812 15.0737 13.1469 15.4415 13.5128L15.699 13.7694L15.7293 13.794L15.742 13.7861C15.7636 13.7711 15.7842 13.7547 15.8034 13.7368C15.8385 13.7042 15.8727 13.6693 15.9062 13.6351L16.4539 13.0878C16.8309 12.7105 17.208 12.3324 17.5882 11.9583C17.8034 11.7446 18.0338 11.6453 18.2674 11.6524H18.3056H18.3112H18.3312C18.3531 11.6547 18.3749 11.6581 18.3965 11.6628C18.4117 11.6628 18.426 11.6723 18.4412 11.6763C18.5887 11.7227 18.7226 11.8045 18.831 11.9146C18.9792 12.0599 19.1498 12.2323 19.3276 12.4087C19.6959 12.7741 20.0639 13.1397 20.4316 13.5057L20.9506 14.0228C20.9984 14.0697 21.0429 14.1198 21.0837 14.1729L21.2782 14.3667C21.3708 14.4521 21.4422 14.5577 21.4869 14.6753C21.5315 14.7928 21.5482 14.9191 21.5355 15.0442C21.5228 15.1693 21.4812 15.2897 21.4139 15.396C21.3465 15.5023 21.2553 15.5915 21.1475 15.6567L21.1483 15.6591Z" fill="#00DED2"/>
<path d="M5.72442 11.0554C6.1748 11.0554 6.5399 10.6916 6.5399 10.2428C6.5399 9.794 6.1748 9.43018 5.72442 9.43018C5.27404 9.43018 4.90894 9.794 4.90894 10.2428C4.90894 10.6916 5.27404 11.0554 5.72442 11.0554Z" fill="#00DED2"/>
<path d="M10.7369 11.0554C11.1872 11.0554 11.5524 10.6916 11.5524 10.2428C11.5524 9.794 11.1872 9.43018 10.7369 9.43018C10.2865 9.43018 9.92139 9.794 9.92139 10.2428C9.92139 10.6916 10.2865 11.0554 10.7369 11.0554Z" fill="#00DED2"/>
<path d="M15.743 11.0554C16.1934 11.0554 16.5585 10.6916 16.5585 10.2428C16.5585 9.794 16.1934 9.43018 15.743 9.43018C15.2926 9.43018 14.9275 9.794 14.9275 10.2428C14.9275 10.6916 15.2926 11.0554 15.743 11.0554Z" fill="#00DED2"/>
<path d="M20.7491 11.0554C21.1995 11.0554 21.5646 10.6916 21.5646 10.2428C21.5646 9.794 21.1995 9.43018 20.7491 9.43018C20.2987 9.43018 19.9336 9.794 19.9336 10.2428C19.9336 10.6916 20.2987 11.0554 20.7491 11.0554Z" fill="#00DED2"/>
</svg>
