<svg width="85" height="24" viewBox="0 0 85 24" fill="none" xmlns="http://www.w3.org/2000/svg">
<path d="M26.5094 5.43663C26.3607 5.34658 26.1913 5.29633 26.0175 5.29073C25.8437 5.28514 25.6714 5.32438 25.5172 5.40467C25.4759 5.42615 25.4361 5.45051 25.3983 5.47757L25.3923 5.48356C25.3058 5.54607 25.2249 5.6159 25.1505 5.69228C24.5569 6.28246 23.6007 7.25912 23.0101 7.85131C22.9681 7.89441 22.9234 7.93477 22.8762 7.97214L22.8602 7.98412C22.8162 7.95483 22.775 7.92139 22.7373 7.88426C22.6034 7.75144 22.4715 7.61763 22.3376 7.48481C22.2297 7.37596 22.1228 7.26711 22.0139 7.15926L21.6542 6.79975C21.2815 6.42727 20.9088 6.05378 20.532 5.68529L20.5181 5.6743C20.4234 5.55497 20.303 5.45863 20.1657 5.39256C20.0285 5.32648 19.878 5.29238 19.7257 5.29283H19.7147C19.5568 5.29527 19.4016 5.33388 19.261 5.40567C19.2197 5.42715 19.18 5.45151 19.1421 5.47857L19.1351 5.48456C19.0492 5.547 18.9687 5.61648 18.8943 5.69228C18.6205 5.9639 18.2698 6.31841 17.9141 6.67892L16.715 7.87727C16.6777 7.91511 16.638 7.95047 16.5961 7.98313C16.5542 7.95378 16.5154 7.92033 16.4802 7.88326C16.3463 7.75045 16.2144 7.61663 16.0805 7.48381L15.7568 7.15826L15.397 6.79875C15.0243 6.42627 14.6516 6.05278 14.2739 5.68429C14.1018 5.50108 13.8793 5.37286 13.6344 5.31579C13.6154 5.31579 13.5954 5.31579 13.5765 5.3088C13.5414 5.30257 13.506 5.29824 13.4705 5.29582C13.4676 5.29532 13.4645 5.29532 13.4615 5.29582H13.4436C13.4316 5.29582 13.4196 5.29582 13.4066 5.29582C13.3906 5.2948 13.3746 5.2948 13.3586 5.29582H13.3516H13.3266C13.2991 5.29861 13.2718 5.30294 13.2447 5.3088C13.2257 5.3088 13.2077 5.32079 13.1888 5.32578C13.0036 5.38372 12.8357 5.48666 12.7001 5.62537C12.5143 5.80812 12.3004 6.02482 12.0756 6.24751C11.6193 6.70954 11.158 7.17024 10.6917 7.62961L10.3689 7.95117C10.3566 7.96257 10.3436 7.97325 10.33 7.98313L10.315 7.97214C10.2877 7.95328 10.262 7.93224 10.238 7.90923C10.1941 7.86928 10.1511 7.82534 10.1091 7.7824L9.42268 7.09435C8.94972 6.619 8.47575 6.14532 8.00079 5.6733C7.73 5.40567 7.44222 5.28084 7.14945 5.28983C7.13315 5.28881 7.11679 5.28881 7.10049 5.28983H7.09449H7.06951C7.04198 5.29262 7.01462 5.29695 6.98758 5.30281C6.96859 5.30281 6.9506 5.3148 6.93162 5.31979C6.74626 5.37792 6.57809 5.48082 6.442 5.61938C6.25714 5.80213 6.04231 6.01883 5.81848 6.24152C5.35818 6.70089 4.89753 7.16026 4.43656 7.61963L3.78607 8.26973C3.72584 8.32807 3.67006 8.39082 3.6192 8.45747L3.37538 8.70214C3.18604 8.87729 3.07029 9.11775 3.05153 9.37492C3.03276 9.63209 3.11238 9.88679 3.2743 10.0875C3.43622 10.2883 3.66835 10.4201 3.92379 10.4564C4.17923 10.4927 4.43893 10.4307 4.65039 10.283L4.65639 10.277C4.74283 10.2145 4.82374 10.1446 4.8982 10.0683C5.49574 9.48706 6.44999 8.5114 7.04153 7.91921C7.08386 7.87614 7.12856 7.83547 7.17543 7.79738L7.19441 7.78939C7.23872 7.81836 7.2799 7.85182 7.31732 7.88925C7.45122 8.02107 7.58311 8.15489 7.71701 8.28871C7.82492 8.39756 7.93184 8.50641 8.04076 8.61526L8.40048 8.97476C8.77319 9.34725 9.1459 9.71974 9.5226 10.0882L9.53659 10.1002C9.63171 10.219 9.75251 10.3146 9.88992 10.38C10.0273 10.4454 10.1778 10.4788 10.33 10.4777H10.341C10.4978 10.4756 10.652 10.4374 10.7916 10.3658C10.8329 10.3444 10.8726 10.32 10.9105 10.2929L10.9165 10.287C11.003 10.2244 11.0839 10.1546 11.1583 10.0782C11.4311 9.80662 11.7818 9.45211 12.1376 9.0926L13.3366 7.89425C13.374 7.85675 13.4137 7.82172 13.4555 7.78939C13.4972 7.819 13.536 7.85243 13.5715 7.88925C13.7054 8.02107 13.8372 8.15489 13.9711 8.28871C14.0791 8.39756 14.186 8.50641 14.2949 8.61526L14.6546 8.97476C15.0273 9.34725 15.4 9.71974 15.7767 10.0882C15.9493 10.2716 16.1721 10.4001 16.4172 10.4577C16.4362 10.4577 16.4562 10.4577 16.4752 10.4647C16.5102 10.4707 16.5456 10.4747 16.5811 10.4767H16.5871H16.6061C16.6181 10.4767 16.6301 10.4767 16.6421 10.4767H16.691H16.698H16.723C16.7505 10.4738 16.7779 10.4694 16.8049 10.4637C16.8239 10.4637 16.8419 10.4517 16.8609 10.4467C17.0458 10.3882 17.2135 10.2853 17.3495 10.1471C17.5344 9.9644 17.7492 9.7477 17.972 9.526C18.4337 9.06664 18.895 8.60693 19.356 8.1469L19.6787 7.82434C19.6927 7.81236 19.7067 7.80038 19.7167 7.79339C19.7222 7.79635 19.7276 7.79969 19.7327 7.80337C19.7598 7.82213 19.7855 7.84283 19.8096 7.86529C19.8536 7.90623 19.8965 7.94917 19.9385 7.99211L20.625 8.68117C21.0979 9.15585 21.5719 9.6292 22.0469 10.1012C22.3167 10.3688 22.6054 10.4947 22.8982 10.4857H22.9462H22.9532H22.9781C23.0057 10.4829 23.033 10.4786 23.0601 10.4727C23.0791 10.4727 23.097 10.4607 23.116 10.4557C23.301 10.3974 23.4688 10.2945 23.6047 10.1561C23.7905 9.97339 24.0043 9.75669 24.2272 9.53499C24.6888 9.07562 25.1501 8.61592 25.6111 8.15589L26.2626 7.4898C26.3225 7.43084 26.3783 7.36777 26.4295 7.30106L26.6733 7.0574C26.7893 6.95008 26.8789 6.81729 26.9349 6.66949C26.9908 6.52169 27.0117 6.36292 26.9958 6.20569C26.9799 6.04846 26.9277 5.89707 26.8433 5.76344C26.7589 5.6298 26.6446 5.51759 26.5094 5.43563V5.43663Z" fill="#00DED2"/>
<path d="M26.5093 19.0548C26.3606 19.1449 26.1912 19.1951 26.0174 19.2007C25.8436 19.2063 25.6713 19.1671 25.5171 19.0868C25.4758 19.0653 25.4361 19.0409 25.3982 19.0139L25.3922 19.0079C25.3057 18.9454 25.2248 18.8755 25.1504 18.7992C24.5568 18.209 23.6006 17.2323 23.01 16.6401C22.9677 16.5971 22.923 16.5564 22.8762 16.5183L22.8602 16.5063C22.8159 16.5353 22.7747 16.5687 22.7373 16.6062C22.6034 16.739 22.4715 16.8728 22.3376 17.0056C22.2297 17.1145 22.1227 17.2243 22.0138 17.3322L21.6541 17.6917C21.2814 18.0642 20.9087 18.4377 20.532 18.8061L20.518 18.8171C20.4229 18.9359 20.3021 19.0315 20.1647 19.0969C20.0272 19.1623 19.8768 19.1957 19.7246 19.1946H19.7136C19.5558 19.1922 19.4006 19.1536 19.26 19.0818C19.2187 19.0603 19.1789 19.0359 19.1411 19.0089L19.1341 19.0029C19.0481 18.9401 18.9676 18.8703 18.8933 18.7942C18.6195 18.5225 18.2687 18.168 17.913 17.8075L16.7139 16.6092C16.6767 16.5713 16.6369 16.536 16.595 16.5033C16.5532 16.5327 16.5143 16.5661 16.4791 16.6032C16.3452 16.736 16.2133 16.8698 16.0794 17.0026L15.7557 17.3292L15.396 17.6887C15.0233 18.0612 14.6505 18.4347 14.2728 18.8031C14.1005 18.986 13.8781 19.1142 13.6333 19.1716C13.6144 19.1716 13.5944 19.1716 13.5754 19.1786C13.5394 19.1786 13.5044 19.1906 13.4695 19.1916H13.4605H13.4425C13.4305 19.1916 13.4185 19.1916 13.4055 19.1916H13.3576H13.3506H13.3256C13.298 19.1888 13.2707 19.1845 13.2436 19.1786C13.2247 19.1786 13.2067 19.1667 13.1877 19.1617C13.0027 19.1033 12.8349 19.0005 12.6991 18.8621C12.5132 18.6793 12.2994 18.4626 12.0746 18.2399L10.6916 16.8618L10.3689 16.5393L10.3299 16.5083L10.3149 16.5183C10.2878 16.5371 10.2621 16.5577 10.238 16.5802C10.194 16.6212 10.151 16.6651 10.1091 16.708L9.42262 17.3961C8.94998 17.8704 8.47735 18.3458 8.00072 18.8161C7.72993 19.0848 7.44216 19.2096 7.14938 19.2006C7.1324 19.2006 7.11641 19.2006 7.10042 19.2006H7.09443H7.06944C7.04191 19.1978 7.01455 19.1935 6.98751 19.1876C6.96852 19.1876 6.95054 19.1756 6.93155 19.1706C6.74636 19.1121 6.57828 19.0093 6.44193 18.8711C6.25708 18.6883 6.04224 18.4716 5.81842 18.2489L4.43649 16.8708L3.786 16.2207C3.72577 16.162 3.67 16.0989 3.61913 16.032L3.37831 15.7783C3.18897 15.6032 3.07322 15.3627 3.05446 15.1055C3.03569 14.8484 3.11531 14.5937 3.27723 14.3929C3.43915 14.1922 3.67128 14.0603 3.92672 14.024C4.18216 13.9878 4.44186 14.0498 4.65332 14.1975L4.65932 14.2035C4.74576 14.266 4.82667 14.3358 4.90113 14.4122C5.49567 15.0034 6.44993 15.978 7.04147 16.5772C7.08379 16.6203 7.12849 16.661 7.17536 16.699L7.19135 16.711C7.23565 16.6821 7.27684 16.6486 7.31425 16.6112C7.44815 16.4783 7.58005 16.3445 7.71394 16.2117C7.82186 16.1039 7.92878 15.994 8.03769 15.8862L8.39741 15.5267C8.77012 15.1542 9.14283 14.7807 9.51954 14.4122L9.53353 14.4012C9.62864 14.2825 9.74945 14.1868 9.88686 14.1214C10.0243 14.0561 10.1747 14.0227 10.3269 14.0237H10.3379C10.4958 14.0262 10.651 14.0648 10.7916 14.1366C10.8328 14.1581 10.8726 14.1824 10.9105 14.2095L10.9165 14.2155C11.0029 14.278 11.0838 14.3478 11.1583 14.4242C11.4311 14.6958 11.7818 15.0493 12.1375 15.4098L13.3366 16.6082C13.3739 16.646 13.4136 16.6814 13.4555 16.714C13.4971 16.6844 13.5359 16.651 13.5714 16.6142C13.7053 16.4813 13.8372 16.3475 13.9711 16.2147C14.079 16.1069 14.1859 15.997 14.2948 15.8892L14.6545 15.5297C15.0273 15.1572 15.4 14.7837 15.7767 14.4152C15.9496 14.2325 16.1722 14.1044 16.4172 14.0467C16.4362 14.0467 16.4561 14.0467 16.4751 14.0397C16.5102 14.0334 16.5455 14.029 16.581 14.0267H16.587H16.606H16.642C16.659 14.0267 16.676 14.0267 16.691 14.0267H16.698H16.7229C16.7505 14.0297 16.7778 14.034 16.8049 14.0397C16.8239 14.0397 16.8418 14.0517 16.8608 14.0567C17.0457 14.1152 17.2135 14.2181 17.3495 14.3563C17.5343 14.539 17.7491 14.7557 17.972 14.9774C18.4336 15.4368 18.8949 15.8965 19.3559 16.3565L19.6786 16.6791L19.7166 16.71L19.7326 16.7C19.7597 16.6813 19.7854 16.6606 19.8095 16.6381C19.8535 16.5972 19.8965 16.5532 19.9384 16.5103L20.6249 15.8223C21.0975 15.3479 21.5702 14.8726 22.0468 14.4022C22.3166 14.1336 22.6054 14.0087 22.8981 14.0177H22.9461H22.9531H22.9781C23.0056 14.0205 23.033 14.0249 23.06 14.0307C23.079 14.0307 23.097 14.0427 23.116 14.0477C23.301 14.106 23.4688 14.2089 23.6046 14.3473C23.7904 14.53 24.0043 14.7467 24.2271 14.9684C24.6887 15.4278 25.1501 15.8875 25.611 16.3475L26.2615 16.9976C26.3215 17.0566 26.3772 17.1197 26.4284 17.1864L26.6722 17.43C26.7883 17.5374 26.8778 17.6701 26.9338 17.8179C26.9898 17.9657 27.0106 18.1245 26.9947 18.2817C26.9789 18.439 26.9266 18.5904 26.8422 18.724C26.7578 18.8576 26.6435 18.9698 26.5083 19.0518L26.5093 19.0548Z" fill="#00DED2"/>
<path d="M7.17552 13.2668C7.74007 13.2668 8.19773 12.8094 8.19773 12.2452C8.19773 11.681 7.74007 11.2236 7.17552 11.2236C6.61098 11.2236 6.15332 11.681 6.15332 12.2452C6.15332 12.8094 6.61098 13.2668 7.17552 13.2668Z" fill="#00DED2"/>
<path d="M13.4585 13.2668C14.023 13.2668 14.4807 12.8094 14.4807 12.2452C14.4807 11.681 14.023 11.2236 13.4585 11.2236C12.8939 11.2236 12.4363 11.681 12.4363 12.2452C12.4363 12.8094 12.8939 13.2668 13.4585 13.2668Z" fill="#00DED2"/>
<path d="M19.7336 13.2668C20.2982 13.2668 20.7558 12.8094 20.7558 12.2452C20.7558 11.681 20.2982 11.2236 19.7336 11.2236C19.1691 11.2236 18.7114 11.681 18.7114 12.2452C18.7114 12.8094 19.1691 13.2668 19.7336 13.2668Z" fill="#00DED2"/>
<path d="M26.0088 13.2668C26.5733 13.2668 27.031 12.8094 27.031 12.2452C27.031 11.681 26.5733 11.2236 26.0088 11.2236C25.4442 11.2236 24.9866 11.681 24.9866 12.2452C24.9866 12.8094 25.4442 13.2668 26.0088 13.2668Z" fill="#00DED2"/>
<path d="M53.4964 13.2098C54.1309 12.9461 54.9953 12.8103 56.0524 12.8103C56.6418 12.808 57.2306 12.773 57.8161 12.7055C59.3829 12.5287 60.427 12.0064 61.0136 11.1147C61.3372 10.6001 61.5178 10.0087 61.537 9.4013C61.5561 8.79387 61.4131 8.1923 61.1225 7.65842C60.8454 7.14991 60.4595 6.7087 59.9924 6.36619C59.4968 6.00935 58.9425 5.74201 58.3547 5.57628C56.6899 5.08595 54.9023 5.23575 53.4584 5.98871C51.9406 6.77663 50.7845 8.30353 50.2869 10.176C49.6974 12.3969 50.151 15.0203 51.444 16.8578C52.4872 18.3397 54.2528 19.1906 56.2903 19.1906C57.2435 19.2037 58.1867 18.9948 59.0451 18.5804C59.6868 18.2645 60.2714 17.844 60.7748 17.3361C60.855 17.2542 60.9196 17.1585 60.9656 17.0535C61.0548 16.8883 61.0994 16.7028 61.0953 16.5151C61.0911 16.3275 61.0382 16.1441 60.9418 15.983C60.8454 15.8219 60.7088 15.6887 60.5453 15.5962C60.3819 15.5038 60.1972 15.4554 60.0094 15.4557C59.7908 15.4553 59.5774 15.5218 59.3978 15.6464C59.3728 15.664 59.3491 15.6834 59.3269 15.7044L59.2839 15.7403C59.2658 15.7546 59.2484 15.77 59.232 15.7862L59.211 15.8042C58.9783 16.0526 58.7178 16.2735 58.4346 16.4623C58.1256 16.6684 57.7936 16.8376 57.4454 16.9666C56.6488 17.2451 55.7785 17.2271 54.9943 16.9157C54.5668 16.7528 54.1678 16.5232 53.8122 16.2356C53.4787 15.9685 53.1946 15.6451 52.9728 15.2799C52.7805 14.9681 52.6769 14.6097 52.6731 14.2434C52.6721 13.781 52.9418 13.4415 53.4964 13.2098ZM56.4182 10.6703C56.0644 10.6703 55.6547 10.6863 55.1991 10.7192C54.7428 10.7519 54.2895 10.8186 53.8431 10.9189C53.4031 11.0172 52.975 11.1625 52.5661 11.3523C52.4526 11.4051 52.3418 11.4638 52.2344 11.5281C52.2684 11.3953 52.3013 11.1996 52.3423 10.9289C52.3633 10.7841 52.3823 10.6593 52.3973 10.6044C52.4958 10.2406 52.6385 9.89011 52.8219 9.5608C53.1753 8.91197 53.6893 8.36459 54.3148 7.97099C54.9063 7.60649 55.7547 7.37181 56.596 7.37181C57.5813 7.37181 58.5565 7.69537 59.0941 8.51424C59.3599 8.91968 59.4588 9.58277 59.1161 10.0122C58.7493 10.4716 58.0249 10.5824 57.5113 10.6263C57.1476 10.6543 56.7799 10.6703 56.4182 10.6703Z" fill="#00DED2"/>
<path d="M48.3624 5.35374C48.1017 5.26244 47.8153 5.27837 47.5663 5.39803C47.3172 5.5177 47.126 5.73129 47.0345 5.99186L43.8829 14.8986L41.0162 6.05078C40.9976 5.99876 40.9756 5.94804 40.9502 5.89899L40.9422 5.88301C40.9312 5.86204 40.9192 5.84207 40.9052 5.8201C40.7839 5.60426 40.5888 5.43938 40.3557 5.35574C40.2264 5.30986 40.0893 5.28992 39.9522 5.29707C39.8152 5.30422 39.681 5.33832 39.5571 5.39741C39.4333 5.4565 39.3224 5.53942 39.2307 5.64143C39.139 5.74343 39.0683 5.86252 39.0227 5.99186L35.8722 14.8966L32.9854 6.01683C32.8995 5.75396 32.7127 5.53595 32.466 5.41075C32.2193 5.28556 31.9329 5.26343 31.6699 5.34925C31.4069 5.43506 31.1888 5.62178 31.0635 5.86833C30.9382 6.11488 30.9161 6.40107 31.0019 6.66394L34.836 18.4747C34.9022 18.6822 35.032 18.8637 35.207 18.9936C35.3819 19.1235 35.5933 19.1952 35.8112 19.1987H35.8282C36.0441 19.1978 36.2545 19.1302 36.4303 19.005C36.6062 18.8798 36.739 18.7033 36.8104 18.4997L39.969 9.58093L42.8507 18.4687C42.917 18.6761 43.0466 18.8574 43.2213 18.9873C43.3961 19.1172 43.6072 19.189 43.825 19.1927H43.842C44.058 19.1918 44.2684 19.1241 44.4444 18.9989C44.6205 18.8738 44.7535 18.6973 44.8252 18.4937L48.9999 6.6909C49.0925 6.42908 49.0774 6.14126 48.9578 5.89058C48.8383 5.6399 48.6242 5.44684 48.3624 5.35374Z" fill="#00DED2"/>
<path d="M78.63 5.29272C78.3455 5.29431 78.0733 5.40849 77.8729 5.61026C77.6725 5.81204 77.5603 6.08495 77.5608 6.36924V18.1191C77.5608 18.4025 77.6734 18.6743 77.8739 18.8746C78.0745 19.075 78.3464 19.1876 78.63 19.1876C78.9135 19.1876 79.1855 19.075 79.386 18.8746C79.5865 18.6743 79.6991 18.4025 79.6991 18.1191V6.36924C79.6997 6.08495 79.5874 5.81204 79.3871 5.61026C79.1867 5.40849 78.9144 5.29431 78.63 5.29272Z" fill="#00DED2"/>
<path d="M69.2802 5.29275C66.2426 5.39261 63.7715 8.03597 63.7715 11.1846V18.1011C63.7671 18.2469 63.792 18.3921 63.8448 18.5281C63.8975 18.6641 63.9771 18.7881 64.0787 18.8928C64.1803 18.9974 64.3019 19.0807 64.4364 19.1375C64.5708 19.1943 64.7152 19.2236 64.8611 19.2236C65.0071 19.2236 65.1515 19.1943 65.2859 19.1375C65.4203 19.0807 65.542 18.9974 65.6436 18.8928C65.7452 18.7881 65.8248 18.6641 65.8775 18.5281C65.9303 18.3921 65.9552 18.2469 65.9508 18.1011V11.1107C65.9508 9.17541 67.4606 7.53367 69.3162 7.45178C69.7933 7.42856 70.2702 7.50363 70.7171 7.67233C71.164 7.84103 71.5715 8.09975 71.9141 8.43243C72.2603 8.76384 72.5354 9.1622 72.7227 9.60324C72.9099 10.0443 73.0054 10.5188 73.0033 10.9979V18.1011C73.0033 18.3898 73.118 18.6667 73.3223 18.8708C73.5265 19.075 73.8036 19.1896 74.0924 19.1896C74.3813 19.1896 74.6583 19.075 74.8626 18.8708C75.0668 18.6667 75.1816 18.3898 75.1816 18.1011V11.0349C75.1848 10.2652 75.0325 9.5028 74.7337 8.79341C74.435 8.08401 73.9959 7.44222 73.4429 6.90653C72.8957 6.36828 72.2442 5.94748 71.5283 5.66997C70.8125 5.39246 70.0475 5.26409 69.2802 5.29275Z" fill="#00DED2"/>
</svg>
