<svg width="32" height="32" viewBox="0 0 32 32" fill="none" xmlns="http://www.w3.org/2000/svg">
<path d="M27.0533 5H7.63823C6.13281 5 5.16869 6.6559 5.87302 8.03268L7.81475 11.8378H4.29429C3.57941 11.8378 3 12.4379 3 13.1776C3 13.3948 3.05102 13.609 3.14896 13.8013L9.39523 26.034C9.7301 26.6875 10.5136 26.9369 11.1452 26.591C11.3745 26.4654 11.5622 26.2712 11.6836 26.034L13.3802 22.7294L15.5084 26.8986C16.2573 28.3652 18.2864 28.3676 19.0383 26.9029L28.7697 7.95562C29.4582 6.61585 28.52 5 27.0533 5ZM18.3321 13.0956L14.1361 21.2671C13.9132 21.7021 13.3913 21.8678 12.9708 21.6373C12.8184 21.5536 12.694 21.4249 12.6131 21.2671L8.4575 13.1302C8.23465 12.6952 8.39534 12.1557 8.81582 11.9252C8.93956 11.8572 9.07679 11.822 9.21636 11.8214H17.5914C18.0547 11.8214 18.4301 12.2097 18.4301 12.6891C18.4301 12.8305 18.3967 12.97 18.3321 13.0956Z" fill="#F71963"/>
<path d="M22 20.5454C27.5228 20.5454 32 16.0683 32 10.5454C32 5.02256 27.5228 0.54541 22 0.54541C16.4772 0.54541 12 5.02256 12 10.5454C12 16.0683 16.4772 20.5454 22 20.5454Z" fill="#EC3727"/>
<path d="M22.365 5.67892C22.8191 5.68223 23.2665 5.76509 23.7073 5.9275C24.1481 6.08991 24.5459 6.35506 24.9005 6.72295C25.2585 7.09085 25.5435 7.58801 25.7556 8.21443C25.9711 8.83754 26.0804 9.61311 26.0838 10.5411C26.0838 11.4327 25.9943 12.2265 25.8153 12.9225C25.6363 13.6152 25.3794 14.2002 25.0447 14.6775C24.7132 15.1548 24.3106 15.5177 23.8366 15.7663C23.3626 16.0149 22.829 16.1391 22.2357 16.1391C21.6292 16.1391 21.0906 16.0198 20.62 15.7812C20.1493 15.5426 19.7665 15.2128 19.4715 14.7918C19.1766 14.3676 18.9926 13.8804 18.9197 13.3302H20.436C20.5355 13.7677 20.7376 14.1223 21.0426 14.3941C21.3508 14.6626 21.7485 14.7968 22.2357 14.7968C22.9815 14.7968 23.5632 14.472 23.9808 13.8224C24.3984 13.1695 24.6088 12.258 24.6122 11.088H24.5326C24.3603 11.373 24.1448 11.6183 23.8863 11.8238C23.6311 12.0293 23.3444 12.1884 23.0262 12.3011C22.708 12.4138 22.3683 12.4701 22.007 12.4701C21.4204 12.4701 20.8868 12.3259 20.4062 12.0376C19.9256 11.7492 19.5428 11.3532 19.2578 10.8494C18.9727 10.3456 18.8302 9.77054 18.8302 9.12423C18.8302 8.48124 18.976 7.89791 19.2677 7.37423C19.5627 6.85056 19.9737 6.43626 20.5007 6.13134C21.031 5.8231 21.6524 5.67229 22.365 5.67892ZM22.37 6.97153C21.9822 6.97153 21.6325 7.06765 21.321 7.25989C21.0127 7.44881 20.7691 7.70567 20.5901 8.03048C20.4112 8.35198 20.3217 8.70993 20.3217 9.10435C20.3217 9.49876 20.4079 9.85671 20.5802 10.1782C20.7559 10.4964 20.9945 10.7499 21.2961 10.9389C21.601 11.1245 21.949 11.2173 22.3401 11.2173C22.6318 11.2173 22.9036 11.1609 23.1555 11.0482C23.4074 10.9355 23.6278 10.7798 23.8167 10.5809C24.0056 10.3787 24.1531 10.15 24.2592 9.89483C24.3652 9.63962 24.4183 9.37115 24.4183 9.08943C24.4183 8.7149 24.3288 8.36689 24.1498 8.0454C23.9741 7.7239 23.7322 7.46538 23.424 7.26983C23.1157 7.07097 22.7644 6.97153 22.37 6.97153Z" fill="white"/>
</svg>
