<svg width="32" height="32" viewBox="0 0 32 32" fill="none" xmlns="http://www.w3.org/2000/svg">
<path d="M27.0533 5H7.63823C6.13281 5 5.16869 6.6559 5.87302 8.03268L7.81475 11.8378H4.29429C3.57941 11.8378 3 12.4379 3 13.1776C3 13.3948 3.05102 13.609 3.14896 13.8013L9.39523 26.034C9.7301 26.6875 10.5136 26.9369 11.1452 26.591C11.3745 26.4654 11.5622 26.2712 11.6836 26.034L13.3802 22.7294L15.5084 26.8986C16.2573 28.3652 18.2864 28.3676 19.0383 26.9029L28.7697 7.95562C29.4582 6.61585 28.52 5 27.0533 5ZM18.3321 13.0956L14.1361 21.2671C13.9132 21.7021 13.3913 21.8678 12.9708 21.6373C12.8184 21.5536 12.694 21.4249 12.6131 21.2671L8.4575 13.1302C8.23465 12.6952 8.39534 12.1557 8.81582 11.9252C8.93956 11.8572 9.07679 11.822 9.21636 11.8214H17.5914C18.0547 11.8214 18.4301 12.2097 18.4301 12.6891C18.4301 12.8305 18.3967 12.97 18.3321 13.0956Z" fill="#F71963"/>
<path d="M22 20.5454C27.5228 20.5454 32 16.0683 32 10.5454C32 5.02256 27.5228 0.54541 22 0.54541C16.4772 0.54541 12 5.02256 12 10.5454C12 16.0683 16.4772 20.5454 22 20.5454Z" fill="#EC3727"/>
<path d="M22.3402 16.1394C21.7171 16.1394 21.157 16.0201 20.6598 15.7814C20.166 15.5395 19.7716 15.208 19.4766 14.7871C19.1816 14.3662 19.0242 13.8856 19.0043 13.3453H20.4957C20.5322 13.7828 20.7261 14.1425 21.0774 14.4242C21.4288 14.7059 21.8497 14.8468 22.3402 14.8468C22.7313 14.8468 23.0777 14.7573 23.3793 14.5783C23.6842 14.396 23.9228 14.1458 24.0952 13.8276C24.2708 13.5094 24.3587 13.1465 24.3587 12.7388C24.3587 12.3245 24.2692 11.955 24.0902 11.6301C23.9112 11.3053 23.6643 11.0501 23.3494 10.8645C23.0379 10.6789 22.6799 10.5845 22.2756 10.5811C21.9673 10.5811 21.6574 10.6342 21.3459 10.7402C21.0343 10.8463 20.7824 10.9855 20.5902 11.1578L19.1832 10.949L19.755 5.81836H25.353V7.13583H21.0327L20.7095 9.98455H20.7692C20.9681 9.79232 21.2315 9.63157 21.5597 9.50231C21.8911 9.37305 22.2457 9.30842 22.6236 9.30842C23.2434 9.30842 23.7952 9.45591 24.2791 9.75089C24.7663 10.0459 25.1492 10.4486 25.4276 10.959C25.7093 11.4661 25.8485 12.0494 25.8452 12.709C25.8485 13.3685 25.6993 13.9569 25.3977 14.4739C25.0994 14.9909 24.6851 15.3986 24.1548 15.6969C23.6279 15.9919 23.023 16.1394 22.3402 16.1394Z" fill="white"/>
</svg>
