<svg width="32" height="32" viewBox="0 0 32 32" fill="none" xmlns="http://www.w3.org/2000/svg">
<path d="M27.0533 5H7.63823C6.13281 5 5.16869 6.6559 5.87302 8.03268L7.81475 11.8378H4.29429C3.57941 11.8378 3 12.4379 3 13.1776C3 13.3948 3.05102 13.609 3.14896 13.8013L9.39523 26.034C9.7301 26.6875 10.5136 26.9369 11.1452 26.591C11.3745 26.4654 11.5622 26.2712 11.6836 26.034L13.3802 22.7294L15.5084 26.8986C16.2573 28.3652 18.2864 28.3676 19.0383 26.9029L28.7697 7.95562C29.4582 6.61585 28.52 5 27.0533 5ZM18.3321 13.0956L14.1361 21.2671C13.9132 21.7021 13.3913 21.8678 12.9708 21.6373C12.8184 21.5536 12.694 21.4249 12.6131 21.2671L8.4575 13.1302C8.23465 12.6952 8.39534 12.1557 8.81582 11.9252C8.93956 11.8572 9.07679 11.822 9.21636 11.8214H17.5914C18.0547 11.8214 18.4301 12.2097 18.4301 12.6891C18.4301 12.8305 18.3967 12.97 18.3321 13.0956Z" fill="#F71963"/>
<path d="M22 20.5454C27.5228 20.5454 32 16.0683 32 10.5454C32 5.02256 27.5228 0.54541 22 0.54541C16.4772 0.54541 12 5.02256 12 10.5454C12 16.0683 16.4772 20.5454 22 20.5454Z" fill="#EC3727"/>
<path d="M22.8424 5.81836V16.0002H21.3012V7.35955H21.2415L18.8054 8.95046V7.47887L21.3459 5.81836H22.8424Z" fill="white"/>
</svg>
