<svg width="32" height="32" viewBox="0 0 32 32" fill="none" xmlns="http://www.w3.org/2000/svg">
<g clip-path="url(#clip0_16_2078)">
<path d="M28.2766 8.88957C28.1179 8.79201 27.9372 8.73758 27.7518 8.73152C27.5665 8.72545 27.3827 8.76796 27.2182 8.85495C27.1741 8.87822 27.1317 8.90461 27.0913 8.93392L27.085 8.94041C26.9927 9.00813 26.9064 9.08378 26.827 9.16652C26.1939 9.80589 25.1739 10.8639 24.544 11.5055C24.4992 11.5522 24.4515 11.5959 24.4012 11.6364V11.6364L24.3841 11.6494C24.3371 11.6176 24.2932 11.5814 24.253 11.5412C24.1102 11.3973 23.9695 11.2523 23.8267 11.1084C23.7116 10.9905 23.5975 10.8726 23.4814 10.7558L23.0977 10.3663C22.7001 9.96276 22.3025 9.55815 21.9007 9.15895L21.8858 9.14705C21.7849 9.01777 21.6564 8.91341 21.51 8.84183C21.3636 8.77024 21.2031 8.7333 21.0406 8.73378H21.0289C20.8605 8.73643 20.6949 8.77826 20.545 8.85603C20.5009 8.8793 20.4585 8.90569 20.4181 8.93501L20.4107 8.9415C20.3191 9.00914 20.2331 9.08441 20.1538 9.16652C19.8618 9.46078 19.4877 9.84484 19.1082 10.2354L17.8292 11.5336C17.7894 11.5746 17.7471 11.6129 17.7024 11.6483C17.6577 11.6165 17.6163 11.5802 17.5787 11.5401C17.4359 11.3962 17.2952 11.2512 17.1524 11.1074L16.8071 10.7547L16.4234 10.3652C16.0258 9.96168 15.6283 9.55707 15.2254 9.15787C15.0418 8.95939 14.8044 8.82049 14.5432 8.75866C14.523 8.75866 14.5017 8.75866 14.4814 8.75109C14.444 8.74434 14.4063 8.73964 14.3684 8.73703C14.3653 8.73648 14.362 8.73648 14.3588 8.73703H14.3397C14.3269 8.73703 14.3141 8.73703 14.3002 8.73703C14.2832 8.73592 14.2661 8.73592 14.2491 8.73703H14.2416H14.215C14.1856 8.74005 14.1564 8.74474 14.1276 8.75109C14.1073 8.75109 14.0881 8.76407 14.0679 8.76948C13.8704 8.83225 13.6913 8.94377 13.5467 9.09404C13.3484 9.29201 13.1203 9.52678 12.8805 9.76803C12.3938 10.2686 11.9017 10.7677 11.4043 11.2653L11.0601 11.6137C11.0469 11.626 11.033 11.6376 11.0185 11.6483L11.0025 11.6364C10.9734 11.6159 10.946 11.5931 10.9205 11.5682C10.8736 11.5249 10.8277 11.4773 10.783 11.4308L10.0507 10.6854C9.54623 10.1705 9.04067 9.65732 8.53404 9.14597C8.2452 8.85603 7.93824 8.7208 7.62595 8.73054C7.60856 8.72943 7.59111 8.72943 7.57372 8.73054H7.56733H7.54068C7.51131 8.73355 7.48213 8.73825 7.45328 8.7446C7.43303 8.7446 7.41385 8.75758 7.3936 8.76299C7.19588 8.82597 7.0165 8.93744 6.87134 9.08755C6.67416 9.28552 6.445 9.52028 6.20625 9.76154C5.71526 10.2592 5.22391 10.7568 4.7322 11.2545L4.03834 11.9588C3.97409 12.022 3.9146 12.0899 3.86034 12.1622L3.60028 12.4272C3.39831 12.617 3.27485 12.8775 3.25483 13.1561C3.23482 13.4347 3.31975 13.7106 3.49246 13.9281C3.66517 14.1455 3.91278 14.2884 4.18525 14.3277C4.45772 14.367 4.73473 14.2998 4.96029 14.1398L4.96668 14.1333C5.05889 14.0656 5.14519 13.9899 5.22462 13.9072C5.86199 13.2775 6.87986 12.2206 7.51084 11.579C7.55599 11.5324 7.60367 11.4883 7.65366 11.4471L7.67391 11.4384C7.72117 11.4698 7.7651 11.506 7.80501 11.5466C7.94783 11.6894 8.08852 11.8344 8.23135 11.9793C8.34646 12.0972 8.4605 12.2152 8.57668 12.3331L8.96038 12.7225C9.35794 13.1261 9.75549 13.5296 10.1573 13.9288L10.1722 13.9418C10.2737 14.0704 10.4025 14.174 10.5491 14.2449C10.6957 14.3157 10.8562 14.3519 11.0185 14.3507H11.0302C11.1975 14.3485 11.362 14.307 11.5109 14.2296C11.555 14.2063 11.5974 14.1799 11.6378 14.1506L11.6442 14.1441C11.7364 14.0764 11.8227 14.0007 11.9021 13.918C12.1931 13.6237 12.5672 13.2397 12.9466 12.8502L14.2256 11.552C14.2654 11.5114 14.3078 11.4734 14.3525 11.4384C14.3969 11.4705 14.4383 11.5067 14.4761 11.5466C14.6189 11.6894 14.7596 11.8344 14.9024 11.9793C15.0175 12.0972 15.1316 12.2152 15.2478 12.3331L15.6315 12.7225C16.029 13.1261 16.4266 13.5296 16.8284 13.9288C17.0125 14.1274 17.2501 14.2666 17.5116 14.3291C17.5318 14.3291 17.5532 14.3291 17.5734 14.3367C17.6108 14.3432 17.6485 14.3475 17.6864 14.3496H17.6928H17.713C17.7258 14.3496 17.7386 14.3496 17.7514 14.3496H17.8036H17.8111H17.8377C17.8671 14.3465 17.8963 14.3418 17.9251 14.3356C17.9454 14.3356 17.9646 14.3226 17.9848 14.3172C18.182 14.2538 18.361 14.1423 18.506 13.9926C18.7032 13.7947 18.9324 13.5599 19.17 13.3197C19.6625 12.8221 20.1545 12.3241 20.6462 11.8257L20.9905 11.4763C21.0054 11.4633 21.0203 11.4503 21.031 11.4427C21.0369 11.4459 21.0426 11.4496 21.048 11.4535V11.4535C21.077 11.4739 21.1044 11.4963 21.1301 11.5206C21.177 11.565 21.2228 11.6115 21.2676 11.658L21.9998 12.4045C22.5043 12.9187 23.0099 13.4315 23.5165 13.9429C23.8043 14.2328 24.1123 14.3691 24.4246 14.3594H24.4758H24.4832H24.5099C24.5393 14.3564 24.5684 14.3517 24.5973 14.3453C24.6175 14.3453 24.6367 14.3323 24.657 14.3269C24.8543 14.2637 25.0333 14.1523 25.1782 14.0024C25.3764 13.8044 25.6045 13.5696 25.8422 13.3295C26.3346 12.8318 26.8267 12.3338 27.3184 11.8354L28.0133 11.1138C28.0772 11.05 28.1367 10.9816 28.1913 10.9094L28.4514 10.6454C28.5752 10.5291 28.6707 10.3853 28.7304 10.2252C28.7901 10.0651 28.8123 9.89305 28.7954 9.72272C28.7784 9.55239 28.7228 9.38838 28.6327 9.24361C28.5427 9.09884 28.4208 8.97728 28.2766 8.88849V8.88957Z" fill="#00DED2"/>
<path d="M28.2768 23.6427C28.1181 23.7403 27.9374 23.7947 27.7521 23.8007C27.5667 23.8068 27.3829 23.7643 27.2184 23.6773C27.1744 23.654 27.132 23.6277 27.0916 23.5983L27.0852 23.5918C26.993 23.5241 26.9067 23.4485 26.8272 23.3657C26.1941 22.7264 25.1741 21.6683 24.5442 21.0268C24.4991 20.9801 24.4514 20.9361 24.4014 20.8948L24.3843 20.8818C24.3371 20.9132 24.2932 20.9495 24.2532 20.99C24.1104 21.1339 23.9697 21.2789 23.8269 21.4227C23.7118 21.5407 23.5978 21.6597 23.4816 21.7765L23.0979 22.166C22.7003 22.5695 22.3028 22.9741 21.9009 23.3733L21.886 23.3852C21.7846 23.5138 21.6557 23.6175 21.5091 23.6883C21.3626 23.7591 21.2021 23.7953 21.0397 23.7942H21.028C20.8596 23.7915 20.6941 23.7497 20.5441 23.6719C20.5001 23.6486 20.4577 23.6222 20.4173 23.5929L20.4098 23.5864C20.3182 23.5184 20.2322 23.4428 20.153 23.3603C19.8609 23.0661 19.4868 22.682 19.1074 22.2915L17.8284 20.9933C17.7886 20.9523 17.7462 20.914 17.7015 20.8786C17.6569 20.9104 17.6155 20.9466 17.5779 20.9868C17.4351 21.1306 17.2944 21.2756 17.1516 21.4195L16.8062 21.7733L16.4225 22.1627C16.025 22.5663 15.6274 22.9709 15.2245 23.3701C15.0407 23.5682 14.8034 23.707 14.5424 23.7693C14.5221 23.7693 14.5008 23.7693 14.4806 23.7768C14.4422 23.7768 14.4049 23.7898 14.3676 23.7909H14.358H14.3388C14.326 23.7909 14.3132 23.7909 14.2994 23.7909H14.2482H14.2408H14.2141C14.1847 23.7879 14.1556 23.7832 14.1267 23.7768C14.1065 23.7768 14.0873 23.7639 14.067 23.7585C13.8697 23.6953 13.6907 23.5838 13.5458 23.4339C13.3476 23.2359 13.1195 23.0012 12.8797 22.7599L11.4046 21.267L11.0603 20.9175L11.0187 20.884L11.0027 20.8948C10.9738 20.9151 10.9464 20.9375 10.9207 20.9619C10.8738 21.0062 10.8279 21.0538 10.7832 21.1004L10.051 21.8457C9.54681 22.3596 9.04267 22.8746 8.53426 23.3841C8.24542 23.6751 7.93846 23.8104 7.62617 23.8006C7.60805 23.8006 7.591 23.8006 7.57394 23.8006H7.56755H7.5409C7.51153 23.7976 7.48235 23.7929 7.4535 23.7866C7.43325 23.7866 7.41407 23.7736 7.39382 23.7682C7.19628 23.7048 7.017 23.5934 6.87156 23.4436C6.67438 23.2457 6.44522 23.0109 6.20647 22.7696L4.73242 21.2767L4.03856 20.5724C3.97432 20.5088 3.91483 20.4405 3.86057 20.3679L3.6037 20.0932C3.40173 19.9034 3.27826 19.6429 3.25825 19.3643C3.23823 19.0857 3.32316 18.8098 3.49588 18.5923C3.66859 18.3748 3.9162 18.232 4.18867 18.1927C4.46114 18.1534 4.73815 18.2206 4.96371 18.3806L4.9701 18.3871C5.06231 18.4548 5.14861 18.5305 5.22803 18.6132C5.86221 19.2536 6.88008 20.3095 7.51106 20.9586C7.55621 21.0053 7.60389 21.0494 7.65388 21.0906V21.0906L7.67094 21.1036C7.71819 21.0722 7.76212 21.036 7.80203 20.9954C7.94486 20.8515 8.08555 20.7066 8.22837 20.5627C8.34348 20.4458 8.45752 20.3268 8.5737 20.21L8.9574 19.8205C9.35496 19.417 9.75252 19.0124 10.1543 18.6132L10.1693 18.6013C10.2707 18.4727 10.3996 18.369 10.5461 18.2982C10.6927 18.2274 10.8532 18.1912 11.0155 18.1924H11.0273C11.1956 18.195 11.3612 18.2368 11.5111 18.3146C11.5552 18.3379 11.5976 18.3643 11.638 18.3936L11.6444 18.4001C11.7366 18.4678 11.8229 18.5434 11.9023 18.6262C12.1933 18.9204 12.5674 19.3034 12.9468 19.694L14.2258 20.9922C14.2656 21.0332 14.308 21.0715 14.3527 21.1068C14.3971 21.0748 14.4385 21.0386 14.4763 20.9987C14.6191 20.8548 14.7598 20.7098 14.9026 20.5659C15.0178 20.4491 15.1318 20.3301 15.248 20.2132L15.6317 19.8238C16.0292 19.4203 16.4268 19.0156 16.8286 18.6164C17.013 18.4185 17.2506 18.2797 17.5118 18.2172C17.5321 18.2172 17.5534 18.2172 17.5736 18.2097C17.611 18.2028 17.6487 18.1981 17.6866 18.1956H17.693H17.7133H17.7516C17.7697 18.1956 17.7879 18.1956 17.8039 18.1956H17.8113H17.838C17.8673 18.1988 17.8965 18.2035 17.9254 18.2097C17.9456 18.2097 17.9648 18.2226 17.985 18.2281C18.1823 18.2915 18.3612 18.4029 18.5062 18.5526C18.7034 18.7506 18.9326 18.9854 19.1703 19.2255C19.6627 19.7232 20.1547 20.2212 20.6464 20.7195L20.9907 21.069L21.0312 21.1025L21.0483 21.0917C21.0772 21.0714 21.1046 21.049 21.1303 21.0246C21.1772 20.9803 21.2231 20.9327 21.2678 20.8862L22.0001 20.1408C22.5042 19.6269 23.0083 19.1119 23.5167 18.6024C23.8045 18.3114 24.1126 18.1761 24.4248 18.1859H24.476H24.4835H24.5101C24.5395 18.1889 24.5687 18.1936 24.5975 18.1999C24.6178 18.1999 24.6369 18.2129 24.6572 18.2183C24.8545 18.2815 25.0335 18.393 25.1784 18.5429C25.3766 18.7409 25.6047 18.9756 25.8424 19.2158C26.3348 19.7134 26.8269 20.2114 27.3186 20.7098L28.0125 21.4141C28.0764 21.478 28.1359 21.5463 28.1904 21.6186L28.4505 21.8825C28.5743 21.9988 28.6698 22.1426 28.7295 22.3028C28.7892 22.4629 28.8115 22.6349 28.7945 22.8052C28.7776 22.9755 28.7219 23.1396 28.6319 23.2843C28.5418 23.4291 28.4199 23.5507 28.2757 23.6394L28.2768 23.6427Z" fill="#00DED2"/>
<path d="M7.65383 17.3723C8.25601 17.3723 8.74418 16.8768 8.74418 16.2656C8.74418 15.6544 8.25601 15.1589 7.65383 15.1589C7.05164 15.1589 6.56348 15.6544 6.56348 16.2656C6.56348 16.8768 7.05164 17.3723 7.65383 17.3723Z" fill="#00DED2"/>
<path d="M14.3557 17.3723C14.9579 17.3723 15.4461 16.8768 15.4461 16.2656C15.4461 15.6544 14.9579 15.1589 14.3557 15.1589C13.7535 15.1589 13.2654 15.6544 13.2654 16.2656C13.2654 16.8768 13.7535 17.3723 14.3557 17.3723Z" fill="#00DED2"/>
<path d="M21.0493 17.3723C21.6515 17.3723 22.1397 16.8768 22.1397 16.2656C22.1397 15.6544 21.6515 15.1589 21.0493 15.1589C20.4472 15.1589 19.959 15.6544 19.959 16.2656C19.959 16.8768 20.4472 17.3723 21.0493 17.3723Z" fill="#00DED2"/>
<path d="M27.7427 17.3723C28.3449 17.3723 28.833 16.8768 28.833 16.2656C28.833 15.6544 28.3449 15.1589 27.7427 15.1589C27.1405 15.1589 26.6523 15.6544 26.6523 16.2656C26.6523 16.8768 27.1405 17.3723 27.7427 17.3723Z" fill="#00DED2"/>
<ellipse cx="22" cy="10.5454" rx="10" ry="10" fill="#FF4545"/>
<path d="M21.9993 13.6727C22.2756 13.6727 22.5156 13.6315 22.7193 13.5491C22.9278 13.4666 23.0999 13.3551 23.2356 13.2145C23.3714 13.0691 23.4732 12.8994 23.5411 12.7054C23.609 12.5066 23.6429 12.2933 23.6429 12.0654C23.6429 11.5418 23.5072 11.1369 23.2356 10.8509C22.969 10.56 22.5569 10.4145 21.9993 10.4145C21.4417 10.4145 21.0272 10.56 20.7556 10.8509C20.489 11.1369 20.3556 11.5418 20.3556 12.0654C20.3556 12.2933 20.3896 12.5066 20.4575 12.7054C20.5253 12.8994 20.6272 13.0691 20.7629 13.2145C20.8987 13.3551 21.0684 13.4666 21.272 13.5491C21.4805 13.6315 21.7229 13.6727 21.9993 13.6727ZM21.9993 5.90543C21.752 5.90543 21.5387 5.94422 21.3593 6.02179C21.1847 6.09937 21.0393 6.20361 20.9229 6.33452C20.8114 6.46058 20.729 6.60846 20.6756 6.77816C20.6223 6.94785 20.5956 7.12482 20.5956 7.30906C20.5956 7.50785 20.6175 7.70179 20.6611 7.89088C20.7047 8.07512 20.7799 8.23997 20.8866 8.38543C20.9932 8.53088 21.1362 8.64725 21.3156 8.73452C21.495 8.82179 21.7229 8.86543 21.9993 8.86543C22.2756 8.86543 22.5035 8.82179 22.6829 8.73452C22.8623 8.64725 23.0053 8.53088 23.112 8.38543C23.2187 8.23997 23.2938 8.07512 23.3375 7.89088C23.3811 7.70179 23.4029 7.50785 23.4029 7.30906C23.4029 7.12482 23.3762 6.94785 23.3229 6.77816C23.2696 6.60846 23.1847 6.46058 23.0684 6.33452C22.9569 6.20361 22.8114 6.09937 22.632 6.02179C22.4575 5.94422 22.2466 5.90543 21.9993 5.90543ZM23.8756 9.5927C24.5156 9.80603 24.9811 10.1285 25.272 10.56C25.5629 10.9866 25.7084 11.5006 25.7084 12.1018C25.7084 12.5721 25.6187 12.9988 25.4393 13.3818C25.2599 13.7648 25.0078 14.0921 24.6829 14.3636C24.3581 14.6303 23.9678 14.8388 23.512 14.9891C23.0562 15.1345 22.552 15.2072 21.9993 15.2072C21.4466 15.2072 20.9423 15.1345 20.4866 14.9891C20.0308 14.8388 19.6405 14.6303 19.3156 14.3636C18.9908 14.0921 18.7387 13.7648 18.5593 13.3818C18.3799 12.9988 18.2902 12.5721 18.2902 12.1018C18.2902 11.5006 18.4356 10.9866 18.7266 10.56C19.0175 10.1285 19.4829 9.80603 20.1229 9.5927C19.6235 9.37452 19.2502 9.06906 19.0029 8.67634C18.7605 8.28361 18.6393 7.81573 18.6393 7.2727C18.6393 6.86543 18.7217 6.48967 18.8866 6.14543C19.0514 5.79634 19.2817 5.49573 19.5775 5.24361C19.8781 4.98664 20.2344 4.78543 20.6466 4.63997C21.0587 4.49452 21.5096 4.42179 21.9993 4.42179C22.489 4.42179 22.9399 4.49452 23.352 4.63997C23.7641 4.78543 24.1181 4.98664 24.4138 5.24361C24.7144 5.49573 24.9472 5.79634 25.112 6.14543C25.2769 6.48967 25.3593 6.86543 25.3593 7.2727C25.3593 7.81573 25.2356 8.28361 24.9884 8.67634C24.7459 9.06906 24.375 9.37452 23.8756 9.5927Z" fill="white"/>
</g>
<defs>
<clipPath id="clip0_16_2078">
<rect width="32" height="32" fill="white"/>
</clipPath>
</defs>
</svg>
