<svg width="32" height="32" viewBox="0 0 32 32" fill="none" xmlns="http://www.w3.org/2000/svg">
<g clip-path="url(#clip0_16_2034)">
<path d="M28.2767 8.88957C28.1181 8.79201 27.9373 8.73758 27.752 8.73152C27.5666 8.72545 27.3828 8.76796 27.2183 8.85495C27.1743 8.87822 27.1319 8.90461 27.0915 8.93392L27.0851 8.94041C26.9929 9.00813 26.9066 9.08378 26.8271 9.16652C26.194 9.80589 25.174 10.8639 24.5441 11.5055C24.4993 11.5522 24.4516 11.5959 24.4013 11.6364V11.6364L24.3842 11.6494C24.3372 11.6176 24.2933 11.5814 24.2531 11.5412C24.1103 11.3973 23.9696 11.2523 23.8268 11.1084C23.7117 10.9905 23.5977 10.8726 23.4815 10.7558L23.0978 10.3663C22.7002 9.96276 22.3027 9.55815 21.9008 9.15895L21.8859 9.14705C21.785 9.01777 21.6565 8.91341 21.5101 8.84183C21.3637 8.77024 21.2032 8.7333 21.0407 8.73378H21.029C20.8606 8.73643 20.6951 8.77826 20.5451 8.85603C20.501 8.8793 20.4587 8.90569 20.4183 8.93501L20.4108 8.9415C20.3192 9.00914 20.2333 9.08441 20.1539 9.16652C19.8619 9.46078 19.4878 9.84484 19.1083 10.2354L17.8293 11.5336C17.7896 11.5746 17.7472 11.6129 17.7025 11.6483C17.6578 11.6165 17.6164 11.5802 17.5789 11.5401C17.436 11.3962 17.2954 11.2512 17.1525 11.1074L16.8072 10.7547L16.4235 10.3652C16.0259 9.96168 15.6284 9.55707 15.2255 9.15787C15.0419 8.95939 14.8046 8.82049 14.5434 8.75866C14.5231 8.75866 14.5018 8.75866 14.4815 8.75109C14.4442 8.74434 14.4064 8.73964 14.3686 8.73703C14.3654 8.73648 14.3621 8.73648 14.359 8.73703H14.3398C14.327 8.73703 14.3142 8.73703 14.3003 8.73703C14.2833 8.73592 14.2662 8.73592 14.2492 8.73703H14.2417H14.2151C14.1857 8.74005 14.1565 8.74474 14.1277 8.75109C14.1074 8.75109 14.0882 8.76407 14.068 8.76948C13.8705 8.83225 13.6914 8.94377 13.5468 9.09404C13.3486 9.29201 13.1205 9.52678 12.8807 9.76803C12.3939 10.2686 11.9019 10.7677 11.4045 11.2653L11.0602 11.6137C11.047 11.626 11.0331 11.6376 11.0186 11.6483L11.0026 11.6364C10.9735 11.6159 10.9461 11.5931 10.9206 11.5682C10.8737 11.5249 10.8278 11.4773 10.7831 11.4308L10.0509 10.6854C9.54636 10.1705 9.04079 9.65732 8.53417 9.14597C8.24532 8.85603 7.93836 8.7208 7.62607 8.73054C7.60868 8.72943 7.59124 8.72943 7.57385 8.73054H7.56745H7.5408C7.51143 8.73355 7.48226 8.73825 7.45341 8.7446C7.43316 8.7446 7.41397 8.75758 7.39372 8.76299C7.196 8.82597 7.01663 8.93744 6.87146 9.08755C6.67428 9.28552 6.44512 9.52028 6.20638 9.76154C5.71538 10.2592 5.22403 10.7568 4.73232 11.2545L4.03846 11.9588C3.97422 12.022 3.91472 12.0899 3.86047 12.1622L3.6004 12.4272C3.39844 12.617 3.27497 12.8775 3.25495 13.1561C3.23494 13.4347 3.31987 13.7106 3.49258 13.9281C3.66529 14.1455 3.9129 14.2884 4.18537 14.3277C4.45784 14.367 4.73485 14.2998 4.96041 14.1398L4.96681 14.1333C5.05902 14.0656 5.14531 13.9899 5.22474 13.9072C5.86211 13.2775 6.87999 12.2206 7.51096 11.579C7.55611 11.5324 7.60379 11.4883 7.65378 11.4471L7.67403 11.4384C7.72129 11.4698 7.76522 11.506 7.80513 11.5466C7.94796 11.6894 8.08865 11.8344 8.23147 11.9793C8.34658 12.0972 8.46062 12.2152 8.5768 12.3331L8.9605 12.7225C9.35806 13.1261 9.75562 13.5296 10.1574 13.9288L10.1724 13.9418C10.2738 14.0704 10.4027 14.174 10.5492 14.2449C10.6958 14.3157 10.8563 14.3519 11.0186 14.3507H11.0304C11.1976 14.3485 11.3622 14.307 11.5111 14.2296C11.5551 14.2063 11.5975 14.1799 11.6379 14.1506L11.6443 14.1441C11.7365 14.0764 11.8228 14.0007 11.9022 13.918C12.1932 13.6237 12.5673 13.2397 12.9467 12.8502L14.2257 11.552C14.2655 11.5114 14.3079 11.4734 14.3526 11.4384C14.397 11.4705 14.4384 11.5067 14.4762 11.5466C14.619 11.6894 14.7597 11.8344 14.9025 11.9793C15.0177 12.0972 15.1317 12.2152 15.2479 12.3331L15.6316 12.7225C16.0291 13.1261 16.4267 13.5296 16.8285 13.9288C17.0126 14.1274 17.2502 14.2666 17.5117 14.3291C17.532 14.3291 17.5533 14.3291 17.5735 14.3367C17.6109 14.3432 17.6486 14.3475 17.6865 14.3496H17.6929H17.7132C17.726 14.3496 17.7387 14.3496 17.7515 14.3496H17.8038H17.8112H17.8379C17.8672 14.3465 17.8964 14.3418 17.9253 14.3356C17.9455 14.3356 17.9647 14.3226 17.985 14.3172C18.1822 14.2538 18.3611 14.1423 18.5061 13.9926C18.7033 13.7947 18.9325 13.5599 19.1702 13.3197C19.6626 12.8221 20.1546 12.3241 20.6463 11.8257L20.9906 11.4763C21.0055 11.4633 21.0205 11.4503 21.0311 11.4427C21.037 11.4459 21.0427 11.4496 21.0482 11.4535V11.4535C21.0771 11.4739 21.1045 11.4963 21.1302 11.5206C21.1771 11.565 21.223 11.6115 21.2677 11.658L22 12.4045C22.5045 12.9187 23.01 13.4315 23.5166 13.9429C23.8044 14.2328 24.1125 14.3691 24.4247 14.3594H24.4759H24.4834H24.51C24.5394 14.3564 24.5686 14.3517 24.5974 14.3453C24.6177 14.3453 24.6368 14.3323 24.6571 14.3269C24.8544 14.2637 25.0334 14.1523 25.1783 14.0024C25.3765 13.8044 25.6046 13.5696 25.8423 13.3295C26.3347 12.8318 26.8268 12.3338 27.3185 11.8354L28.0134 11.1138C28.0774 11.05 28.1368 10.9816 28.1914 10.9094L28.4515 10.6454C28.5753 10.5291 28.6708 10.3853 28.7305 10.2252C28.7902 10.0651 28.8125 9.89305 28.7955 9.72272C28.7786 9.55239 28.7229 9.38838 28.6329 9.24361C28.5428 9.09884 28.4209 8.97728 28.2767 8.88849V8.88957Z" fill="#00DED2"/>
<path d="M28.2767 23.6427C28.118 23.7403 27.9373 23.7947 27.7519 23.8007C27.5666 23.8068 27.3828 23.7643 27.2183 23.6773C27.1742 23.654 27.1318 23.6277 27.0914 23.5983L27.085 23.5918C26.9928 23.5241 26.9065 23.4485 26.8271 23.3657C26.194 22.7264 25.174 21.6683 24.5441 21.0268C24.4989 20.9801 24.4513 20.9361 24.4013 20.8948L24.3842 20.8818C24.337 20.9132 24.293 20.9495 24.2531 20.99C24.1103 21.1339 23.9696 21.2789 23.8268 21.4227C23.7117 21.5407 23.5976 21.6597 23.4815 21.7765L23.0978 22.166C22.7002 22.5695 22.3026 22.9741 21.9008 23.3733L21.8859 23.3852C21.7844 23.5138 21.6556 23.6175 21.509 23.6883C21.3624 23.7591 21.2019 23.7953 21.0396 23.7942H21.0279C20.8595 23.7915 20.694 23.7497 20.544 23.6719C20.5 23.6486 20.4576 23.6222 20.4172 23.5929L20.4097 23.5864C20.318 23.5184 20.2321 23.4428 20.1528 23.3603C19.8608 23.0661 19.4867 22.682 19.1073 22.2915L17.8282 20.9933C17.7885 20.9523 17.7461 20.914 17.7014 20.8786C17.6568 20.9104 17.6153 20.9466 17.5778 20.9868C17.435 21.1306 17.2943 21.2756 17.1514 21.4195L16.8061 21.7733L16.4224 22.1627C16.0249 22.5663 15.6273 22.9709 15.2244 23.3701C15.0405 23.5682 14.8033 23.707 14.5423 23.7693C14.522 23.7693 14.5007 23.7693 14.4805 23.7768C14.4421 23.7768 14.4048 23.7898 14.3675 23.7909H14.3579H14.3387C14.3259 23.7909 14.3131 23.7909 14.2993 23.7909H14.2481H14.2406H14.214C14.1846 23.7879 14.1554 23.7832 14.1266 23.7768C14.1063 23.7768 14.0872 23.7639 14.0669 23.7585C13.8696 23.6953 13.6906 23.5838 13.5457 23.4339C13.3475 23.2359 13.1194 23.0012 12.8796 22.7599L11.4044 21.267L11.0602 20.9175L11.0186 20.884L11.0026 20.8948C10.9737 20.9151 10.9463 20.9375 10.9206 20.9619C10.8737 21.0062 10.8278 21.0538 10.7831 21.1004L10.0508 21.8457C9.54669 22.3596 9.04255 22.8746 8.53414 23.3841C8.2453 23.6751 7.93834 23.8104 7.62605 23.8006C7.60793 23.8006 7.59088 23.8006 7.57382 23.8006H7.56743H7.54078C7.51141 23.7976 7.48223 23.7929 7.45338 23.7866C7.43313 23.7866 7.41395 23.7736 7.3937 23.7682C7.19616 23.7048 7.01687 23.5934 6.87144 23.4436C6.67426 23.2457 6.4451 23.0109 6.20635 22.7696L4.7323 21.2767L4.03844 20.5724C3.9742 20.5088 3.91471 20.4405 3.86044 20.3679L3.60358 20.0932C3.40161 19.9034 3.27814 19.6429 3.25813 19.3643C3.23811 19.0857 3.32304 18.8098 3.49575 18.5923C3.66847 18.3748 3.91608 18.232 4.18855 18.1927C4.46102 18.1534 4.73802 18.2206 4.96359 18.3806L4.96998 18.3871C5.06219 18.4548 5.14849 18.5305 5.22791 18.6132C5.86209 19.2536 6.87996 20.3095 7.51094 20.9586C7.55609 21.0053 7.60377 21.0494 7.65376 21.0906V21.0906L7.67081 21.1036C7.71807 21.0722 7.762 21.036 7.80191 20.9954C7.94473 20.8515 8.08542 20.7066 8.22825 20.5627C8.34336 20.4458 8.4574 20.3268 8.57358 20.21L8.95728 19.8205C9.35484 19.417 9.75239 19.0124 10.1542 18.6132L10.1691 18.6013C10.2706 18.4727 10.3995 18.369 10.546 18.2982C10.6926 18.2274 10.8531 18.1912 11.0154 18.1924H11.0271C11.1955 18.195 11.3611 18.2368 11.511 18.3146C11.5551 18.3379 11.5975 18.3643 11.6379 18.3936L11.6443 18.4001C11.7365 18.4678 11.8228 18.5434 11.9022 18.6262C12.1932 18.9204 12.5673 19.3034 12.9467 19.694L14.2257 20.9922C14.2655 21.0332 14.3079 21.0715 14.3526 21.1068C14.397 21.0748 14.4384 21.0386 14.4762 20.9987C14.619 20.8548 14.7597 20.7098 14.9025 20.5659C15.0176 20.4491 15.1317 20.3301 15.2479 20.2132L15.6316 19.8238C16.0291 19.4203 16.4267 19.0156 16.8285 18.6164C17.0129 18.4185 17.2504 18.2797 17.5117 18.2172C17.5319 18.2172 17.5533 18.2172 17.5735 18.2097C17.6109 18.2028 17.6486 18.1981 17.6865 18.1956H17.6929H17.7131H17.7515C17.7696 18.1956 17.7877 18.1956 17.8037 18.1956H17.8112H17.8378C17.8672 18.1988 17.8964 18.2035 17.9252 18.2097C17.9455 18.2097 17.9647 18.2226 17.9849 18.2281C18.1821 18.2915 18.3611 18.4029 18.5061 18.5526C18.7033 18.7506 18.9325 18.9854 19.1701 19.2255C19.6626 19.7232 20.1546 20.2212 20.6463 20.7195L20.9906 21.069L21.0311 21.1025L21.0481 21.0917C21.0771 21.0714 21.1045 21.049 21.1302 21.0246C21.1771 20.9803 21.2229 20.9327 21.2677 20.8862L21.9999 20.1408C22.5041 19.6269 23.0082 19.1119 23.5166 18.6024C23.8044 18.3114 24.1124 18.1761 24.4247 18.1859H24.4759H24.4833H24.51C24.5394 18.1889 24.5685 18.1936 24.5974 18.1999C24.6176 18.1999 24.6368 18.2129 24.6571 18.2183C24.8544 18.2815 25.0334 18.393 25.1783 18.5429C25.3765 18.7409 25.6046 18.9756 25.8423 19.2158C26.3347 19.7134 26.8268 20.2114 27.3185 20.7098L28.0123 21.4141C28.0763 21.478 28.1357 21.5463 28.1903 21.6186L28.4504 21.8825C28.5742 21.9988 28.6697 22.1426 28.7294 22.3028C28.7891 22.4629 28.8114 22.6349 28.7944 22.8052C28.7775 22.9755 28.7218 23.1396 28.6318 23.2843C28.5417 23.4291 28.4198 23.5507 28.2756 23.6394L28.2767 23.6427Z" fill="#00DED2"/>
<path d="M7.65383 17.3723C8.25601 17.3723 8.74418 16.8768 8.74418 16.2656C8.74418 15.6544 8.25601 15.1589 7.65383 15.1589C7.05164 15.1589 6.56348 15.6544 6.56348 16.2656C6.56348 16.8768 7.05164 17.3723 7.65383 17.3723Z" fill="#00DED2"/>
<path d="M14.3557 17.3723C14.9579 17.3723 15.4461 16.8768 15.4461 16.2656C15.4461 15.6544 14.9579 15.1589 14.3557 15.1589C13.7535 15.1589 13.2654 15.6544 13.2654 16.2656C13.2654 16.8768 13.7535 17.3723 14.3557 17.3723Z" fill="#00DED2"/>
<path d="M21.0492 17.3723C21.6514 17.3723 22.1396 16.8768 22.1396 16.2656C22.1396 15.6544 21.6514 15.1589 21.0492 15.1589C20.447 15.1589 19.9589 15.6544 19.9589 16.2656C19.9589 16.8768 20.447 17.3723 21.0492 17.3723Z" fill="#00DED2"/>
<path d="M27.7427 17.3723C28.3449 17.3723 28.833 16.8768 28.833 16.2656C28.833 15.6544 28.3449 15.1589 27.7427 15.1589C27.1405 15.1589 26.6523 15.6544 26.6523 16.2656C26.6523 16.8768 27.1405 17.3723 27.7427 17.3723Z" fill="#00DED2"/>
<ellipse cx="22" cy="10.5454" rx="10" ry="10" fill="#FF4545"/>
<path d="M22.9012 11.0618V7.91997C22.9012 7.75512 22.9061 7.58058 22.9158 7.39634C22.9303 7.20725 22.9497 7.01088 22.9739 6.80725L19.9194 11.0618H22.9012ZM25.8685 11.0618V12.1963C25.8685 12.303 25.8321 12.3951 25.7594 12.4727C25.6915 12.5454 25.5946 12.5818 25.4685 12.5818H24.6467V15.0909H22.9012V12.5818H18.5449C18.4188 12.5818 18.3024 12.543 18.1958 12.4654C18.0939 12.3879 18.0309 12.286 18.0067 12.16L17.7958 11.1563L22.7412 4.53088H24.6467V11.0618H25.8685Z" fill="white"/>
</g>
<defs>
<clipPath id="clip0_16_2034">
<rect width="32" height="32" fill="white"/>
</clipPath>
</defs>
</svg>
