<svg width="32" height="32" viewBox="0 0 32 32" fill="none" xmlns="http://www.w3.org/2000/svg">
<path d="M27.0533 5H7.63823C6.13281 5 5.16869 6.6559 5.87302 8.03268L7.81475 11.8378H4.29429C3.57941 11.8378 3 12.4379 3 13.1776C3 13.3948 3.05102 13.609 3.14896 13.8013L9.39523 26.034C9.7301 26.6875 10.5136 26.9369 11.1452 26.591C11.3745 26.4654 11.5622 26.2712 11.6836 26.034L13.3802 22.7294L15.5084 26.8986C16.2573 28.3652 18.2864 28.3676 19.0383 26.9029L28.7697 7.95562C29.4582 6.61585 28.52 5 27.0533 5ZM18.3321 13.0956L14.1361 21.2671C13.9132 21.7021 13.3913 21.8678 12.9708 21.6373C12.8184 21.5536 12.694 21.4249 12.6131 21.2671L8.4575 13.1302C8.23465 12.6952 8.39534 12.1557 8.81582 11.9252C8.93956 11.8572 9.07679 11.822 9.21636 11.8214H17.5914C18.0547 11.8214 18.4301 12.2097 18.4301 12.6891C18.4301 12.8305 18.3967 12.97 18.3321 13.0956Z" fill="#F71963"/>
<path d="M22 20.5454C27.5228 20.5454 32 16.0683 32 10.5454C32 5.02256 27.5228 0.54541 22 0.54541C16.4772 0.54541 12 5.02256 12 10.5454C12 16.0683 16.4772 20.5454 22 20.5454Z" fill="#EC3727"/>
<path d="M22.4198 16.1394C21.7072 16.1394 21.0775 16.0168 20.5306 15.7715C19.987 15.5263 19.5611 15.1882 19.2529 14.7573C18.9446 14.3265 18.7922 13.8359 18.7955 13.2857C18.7922 12.8549 18.88 12.4588 19.059 12.0975C19.2413 11.7329 19.4882 11.4297 19.7998 11.1877C20.1113 10.9425 20.4593 10.7867 20.8438 10.7204V10.6607C20.3367 10.5381 19.9307 10.2663 19.6258 9.84539C19.3208 9.42446 19.17 8.94056 19.1733 8.39369C19.17 7.87333 19.3076 7.40931 19.586 7.00164C19.8677 6.59066 20.2538 6.2675 20.7444 6.03218C21.2349 5.79686 21.7934 5.6792 22.4198 5.6792C23.0396 5.6792 23.5931 5.79852 24.0803 6.03715C24.5708 6.27248 24.957 6.59563 25.2387 7.00661C25.5204 7.41428 25.6629 7.87664 25.6662 8.39369C25.6629 8.94056 25.5071 9.42446 25.1989 9.84539C24.8907 10.2663 24.4896 10.5381 23.9958 10.6607V10.7204C24.3769 10.7867 24.72 10.9425 25.0249 11.1877C25.3331 11.4297 25.5784 11.7329 25.7607 12.0975C25.9463 12.4588 26.0408 12.8549 26.0441 13.2857C26.0408 13.8359 25.885 14.3265 25.5768 14.7573C25.2685 15.1882 24.841 15.5263 24.2941 15.7715C23.7505 16.0168 23.1258 16.1394 22.4198 16.1394ZM22.4198 14.8816C22.8407 14.8816 23.2053 14.812 23.5135 14.6728C23.8218 14.5303 24.0604 14.3331 24.2294 14.0812C24.3985 13.826 24.4847 13.5277 24.488 13.1863C24.4847 12.8317 24.3919 12.5185 24.2096 12.2467C24.0306 11.9749 23.787 11.7611 23.4787 11.6053C23.1705 11.4496 22.8175 11.3717 22.4198 11.3717C22.0187 11.3717 21.6625 11.4496 21.3509 11.6053C21.0393 11.7611 20.7941 11.9749 20.6151 12.2467C20.4361 12.5185 20.3483 12.8317 20.3516 13.1863C20.3483 13.5277 20.4295 13.826 20.5952 14.0812C20.7643 14.3331 21.0045 14.5303 21.3161 14.6728C21.6277 14.812 21.9955 14.8816 22.4198 14.8816ZM22.4198 10.1437C22.7579 10.1437 23.0578 10.0757 23.3196 9.93985C23.5815 9.80396 23.787 9.61504 23.9361 9.37309C24.0886 9.13114 24.1665 8.84776 24.1698 8.52295C24.1665 8.20477 24.0902 7.92636 23.9411 7.68772C23.7953 7.44909 23.5914 7.26514 23.3296 7.13588C23.0678 7.0033 22.7645 6.93701 22.4198 6.93701C22.0685 6.93701 21.7602 7.0033 21.4951 7.13588C21.2332 7.26514 21.0294 7.44909 20.8836 7.68772C20.7377 7.92636 20.6665 8.20477 20.6698 8.52295C20.6665 8.84776 20.7394 9.13114 20.8885 9.37309C21.0377 9.61504 21.2432 9.80396 21.505 9.93985C21.7702 10.0757 22.0751 10.1437 22.4198 10.1437Z" fill="white"/>
</svg>
