<svg width="32" height="32" viewBox="0 0 32 32" fill="none" xmlns="http://www.w3.org/2000/svg">
<path d="M27.0533 5H7.63823C6.13281 5 5.16869 6.6559 5.87302 8.03268L7.81475 11.8378H4.29429C3.57941 11.8378 3 12.4379 3 13.1776C3 13.3948 3.05102 13.609 3.14896 13.8013L9.39523 26.034C9.7301 26.6875 10.5136 26.9369 11.1452 26.591C11.3745 26.4654 11.5622 26.2712 11.6836 26.034L13.3802 22.7294L15.5084 26.8986C16.2573 28.3652 18.2864 28.3676 19.0383 26.9029L28.7697 7.95562C29.4582 6.61585 28.52 5 27.0533 5ZM18.3321 13.0956L14.1361 21.2671C13.9132 21.7021 13.3913 21.8678 12.9708 21.6373C12.8184 21.5536 12.694 21.4249 12.6131 21.2671L8.4575 13.1302C8.23465 12.6952 8.39534 12.1557 8.81582 11.9252C8.93956 11.8572 9.07679 11.822 9.21636 11.8214H17.5914C18.0547 11.8214 18.4301 12.2097 18.4301 12.6891C18.4301 12.8305 18.3967 12.97 18.3321 13.0956Z" fill="#F71963"/>
<path d="M22 20.5454C27.5228 20.5454 32 16.0683 32 10.5454C32 5.02256 27.5228 0.54541 22 0.54541C16.4772 0.54541 12 5.02256 12 10.5454C12 16.0683 16.4772 20.5454 22 20.5454Z" fill="#EC3727"/>
<path d="M22.5341 16.1394C22.08 16.1328 21.6326 16.0499 21.1918 15.8908C20.7543 15.7318 20.3565 15.4666 19.9986 15.0954C19.6406 14.7242 19.3539 14.2254 19.1385 13.5989C18.9264 12.9725 18.8203 12.1903 18.8203 11.2524C18.8203 10.3641 18.9081 9.57527 19.0838 8.88588C19.2628 8.19648 19.5196 7.61481 19.8544 7.14085C20.1892 6.66357 20.5935 6.30065 21.0675 6.05207C21.5414 5.80349 22.0734 5.6792 22.6634 5.6792C23.2699 5.6792 23.8085 5.79852 24.2791 6.03715C24.7498 6.27579 25.1309 6.60557 25.4226 7.0265C25.7176 7.44743 25.9048 7.92636 25.9844 8.46329H24.468C24.3653 8.03905 24.1615 7.69269 23.8565 7.42423C23.5516 7.15576 23.1539 7.02153 22.6634 7.02153C21.9176 7.02153 21.3359 7.34634 20.9183 7.99596C20.504 8.64558 20.2952 9.54875 20.2919 10.7055H20.3665C20.5421 10.4171 20.7576 10.1719 21.0128 9.96968C21.2713 9.76419 21.5597 9.60676 21.8778 9.49738C22.1993 9.38469 22.5374 9.32835 22.892 9.32835C23.482 9.32835 24.0156 9.47252 24.4929 9.76088C24.9735 10.0459 25.3563 10.4403 25.6413 10.9441C25.9264 11.4479 26.0689 12.0246 26.0689 12.6742C26.0689 13.3238 25.9214 13.9122 25.6264 14.4391C25.3348 14.9661 24.9238 15.3837 24.3935 15.692C23.8632 15.9969 23.2434 16.1461 22.5341 16.1394ZM22.5291 14.8468C22.9202 14.8468 23.2699 14.7507 23.5781 14.5585C23.8864 14.3662 24.13 14.1077 24.3089 13.7829C24.4879 13.4581 24.5774 13.0952 24.5774 12.6941C24.5774 12.303 24.4896 11.9467 24.3139 11.6252C24.1416 11.3037 23.9029 11.0485 23.598 10.8596C23.2964 10.6707 22.9517 10.5762 22.5639 10.5762C22.2689 10.5762 21.9955 10.6326 21.7436 10.7453C21.495 10.8579 21.2763 11.0137 21.0874 11.2126C20.8984 11.4114 20.7493 11.6401 20.6399 11.8987C20.5339 12.1539 20.4808 12.424 20.4808 12.709C20.4808 13.0902 20.5687 13.4432 20.7443 13.768C20.9233 14.0928 21.1669 14.3546 21.4751 14.5535C21.7867 14.749 22.138 14.8468 22.5291 14.8468Z" fill="white"/>
</svg>
