<svg width="279" height="239" viewBox="0 0 279 239" fill="none" xmlns="http://www.w3.org/2000/svg">
<path d="M257.788 0H49.7097C33.5755 0 23.2427 17.1523 30.7912 31.4134L51.6015 70.8279H13.8714C6.20977 70.8279 0 77.044 0 84.7057C0 86.9558 0.546808 89.1744 1.59644 91.1669L68.5401 217.877C72.129 224.646 80.526 227.229 87.2952 223.646C89.7527 222.345 91.764 220.334 93.065 217.877L111.248 183.647L134.057 226.833C142.083 242.024 163.83 242.049 171.888 226.877L276.184 30.6152C283.563 16.7375 273.507 0 257.788 0ZM164.32 83.8572L119.35 168.5C116.961 173.006 111.367 174.722 106.861 172.334C105.227 171.467 103.894 170.134 103.027 168.5L58.4901 84.2154C56.1017 79.7089 57.8239 74.1214 62.3303 71.733C63.6565 71.0291 65.1273 70.6645 66.6231 70.6582H156.382C161.347 70.6582 165.37 74.6808 165.37 79.6461C165.37 81.1105 165.012 82.5561 164.32 83.8572Z" fill="#F71963"/>
</svg>
