<svg width="32" height="32" viewBox="0 0 32 32" fill="none" xmlns="http://www.w3.org/2000/svg">
<path d="M27.0533 5H7.63823C6.13281 5 5.16869 6.6559 5.87302 8.03268L7.81475 11.8378H4.29429C3.57941 11.8378 3 12.4379 3 13.1776C3 13.3948 3.05102 13.609 3.14896 13.8013L9.39523 26.034C9.7301 26.6875 10.5136 26.9369 11.1452 26.591C11.3745 26.4654 11.5622 26.2712 11.6836 26.034L13.3802 22.7294L15.5084 26.8986C16.2573 28.3652 18.2864 28.3676 19.0383 26.9029L28.7697 7.95562C29.4582 6.61585 28.52 5 27.0533 5ZM18.3321 13.0956L14.1361 21.2671C13.9132 21.7021 13.3913 21.8678 12.9708 21.6373C12.8184 21.5536 12.694 21.4249 12.6131 21.2671L8.4575 13.1302C8.23465 12.6952 8.39534 12.1557 8.81582 11.9252C8.93956 11.8572 9.07679 11.822 9.21636 11.8214H17.5914C18.0547 11.8214 18.4301 12.2097 18.4301 12.6891C18.4301 12.8305 18.3967 12.97 18.3321 13.0956Z" fill="#F71963"/>
<path d="M22 20.5454C27.5228 20.5454 32 16.0683 32 10.5454C32 5.02256 27.5228 0.54541 22 0.54541C16.4772 0.54541 12 5.02256 12 10.5454C12 16.0683 16.4772 20.5454 22 20.5454Z" fill="#EC3727"/>
<path d="M22.5241 16.1394C21.8414 16.1394 21.2315 16.0218 20.6946 15.7864C20.161 15.5511 19.7384 15.2247 19.4268 14.807C19.1186 14.3861 18.9529 13.8989 18.9297 13.3454H20.4908C20.5107 13.647 20.6117 13.9088 20.794 14.1309C20.9796 14.3497 21.2216 14.5187 21.5199 14.638C21.8182 14.7573 22.1496 14.817 22.5142 14.817C22.9152 14.817 23.2699 14.7474 23.5781 14.6082C23.8897 14.469 24.1333 14.2751 24.3089 14.0265C24.4846 13.7746 24.5724 13.4846 24.5724 13.1565C24.5724 12.8151 24.4846 12.5151 24.3089 12.2566C24.1366 11.9948 23.883 11.7893 23.5483 11.6401C23.2169 11.491 22.8158 11.4164 22.3452 11.4164H21.4851V10.1636H22.3452C22.723 10.1636 23.0545 10.0956 23.3395 9.95974C23.6278 9.82385 23.8532 9.63493 24.0156 9.39298C24.178 9.14771 24.2592 8.86102 24.2592 8.53289C24.2592 8.21803 24.188 7.94459 24.0455 7.71258C23.9063 7.47726 23.7074 7.29331 23.4489 7.16073C23.1937 7.02816 22.892 6.96187 22.544 6.96187C22.2126 6.96187 21.9027 7.02319 21.6143 7.14582C21.3293 7.26514 21.0973 7.43749 20.9183 7.66286C20.7393 7.88493 20.6432 8.15174 20.63 8.46329H19.1435C19.16 7.9131 19.3224 7.4292 19.6307 7.01159C19.9422 6.59397 20.3532 6.2675 20.8636 6.03218C21.3741 5.79686 21.9408 5.6792 22.5639 5.6792C23.2169 5.6792 23.7803 5.8068 24.2543 6.06201C24.7315 6.31391 25.0994 6.65032 25.358 7.07124C25.6198 7.49217 25.7491 7.95287 25.7457 8.45335C25.7491 9.02342 25.59 9.50732 25.2685 9.90505C24.9503 10.3028 24.526 10.5696 23.9957 10.7055V10.785C24.6719 10.8878 25.1955 11.1562 25.5668 11.5904C25.9413 12.0246 26.1269 12.5632 26.1236 13.2062C26.1269 13.7663 25.9711 14.2685 25.6562 14.7126C25.3447 15.1567 24.9188 15.5064 24.3786 15.7616C23.8383 16.0135 23.2202 16.1394 22.5241 16.1394Z" fill="white"/>
</svg>
