<svg width="32" height="32" viewBox="0 0 32 32" fill="none" xmlns="http://www.w3.org/2000/svg">
<path d="M27.0533 5H7.63823C6.13281 5 5.16869 6.6559 5.87302 8.03268L7.81475 11.8378H4.29429C3.57941 11.8378 3 12.4379 3 13.1776C3 13.3948 3.05102 13.609 3.14896 13.8013L9.39523 26.034C9.7301 26.6875 10.5136 26.9369 11.1452 26.591C11.3745 26.4654 11.5622 26.2712 11.6836 26.034L13.3802 22.7294L15.5084 26.8986C16.2573 28.3652 18.2864 28.3676 19.0383 26.9029L28.7697 7.95562C29.4582 6.61585 28.52 5 27.0533 5ZM18.3321 13.0956L14.1361 21.2671C13.9132 21.7021 13.3913 21.8678 12.9708 21.6373C12.8184 21.5536 12.694 21.4249 12.6131 21.2671L8.4575 13.1302C8.23465 12.6952 8.39534 12.1557 8.81582 11.9252C8.93956 11.8572 9.07679 11.822 9.21636 11.8214H17.5914C18.0547 11.8214 18.4301 12.2097 18.4301 12.6891C18.4301 12.8305 18.3967 12.97 18.3321 13.0956Z" fill="#F71963"/>
<path d="M22 20.5454C27.5228 20.5454 32 16.0683 32 10.5454C32 5.02256 27.5228 0.54541 22 0.54541C16.4772 0.54541 12 5.02256 12 10.5454C12 16.0683 16.4772 20.5454 22 20.5454Z" fill="#EC3727"/>
<path d="M18.9794 16.0002V14.8866L22.4247 11.317C22.7926 10.9292 23.0959 10.5895 23.3345 10.2978C23.5765 10.0028 23.7571 9.72276 23.8764 9.45761C23.9958 9.19246 24.0554 8.91073 24.0554 8.61244C24.0554 8.27437 23.9759 7.9827 23.8168 7.73744C23.6577 7.48886 23.4406 7.29828 23.1655 7.16571C22.8904 7.02981 22.5805 6.96187 22.2358 6.96187C21.8712 6.96187 21.5531 7.03644 21.2813 7.18559C21.0095 7.33474 20.8007 7.5452 20.6549 7.81698C20.509 8.08876 20.4361 8.40695 20.4361 8.77153H18.9695C18.9695 8.15174 19.112 7.60983 19.397 7.14582C19.6821 6.6818 20.0732 6.32219 20.5703 6.06698C21.0675 5.80846 21.6326 5.6792 22.2656 5.6792C22.9053 5.6792 23.4688 5.8068 23.956 6.06201C24.4465 6.31391 24.8293 6.6586 25.1044 7.0961C25.3795 7.53029 25.5171 8.02082 25.5171 8.56769C25.5171 8.94553 25.4458 9.31509 25.3033 9.67636C25.1641 10.0376 24.9205 10.4403 24.5725 10.8845C24.2245 11.3253 23.7406 11.8605 23.1208 12.4903L21.0973 14.6082V14.6828H25.6811V16.0002H18.9794Z" fill="white"/>
</svg>
