<svg width="32" height="32" viewBox="0 0 32 32" fill="none" xmlns="http://www.w3.org/2000/svg">
<path d="M27.0533 5H7.63823C6.13281 5 5.16869 6.6559 5.87302 8.03268L7.81475 11.8378H4.29429C3.57941 11.8378 3 12.4379 3 13.1776C3 13.3948 3.05102 13.609 3.14896 13.8013L9.39523 26.034C9.7301 26.6875 10.5136 26.9369 11.1452 26.591C11.3745 26.4654 11.5622 26.2712 11.6836 26.034L13.3802 22.7294L15.5084 26.8986C16.2573 28.3652 18.2864 28.3676 19.0383 26.9029L28.7697 7.95562C29.4582 6.61585 28.52 5 27.0533 5ZM18.3321 13.0956L14.1361 21.2671C13.9132 21.7021 13.3913 21.8678 12.9708 21.6373C12.8184 21.5536 12.694 21.4249 12.6131 21.2671L8.4575 13.1302C8.23465 12.6952 8.39534 12.1557 8.81582 11.9252C8.93956 11.8572 9.07679 11.822 9.21636 11.8214H17.5914C18.0547 11.8214 18.4301 12.2097 18.4301 12.6891C18.4301 12.8305 18.3967 12.97 18.3321 13.0956Z" fill="#F71963"/>
<path d="M22 20.5454C27.5228 20.5454 32 16.0683 32 10.5454C32 5.02256 27.5228 0.54541 22 0.54541C16.4772 0.54541 12 5.02256 12 10.5454C12 16.0683 16.4772 20.5454 22 20.5454Z" fill="#EC3727"/>
<path d="M25.7526 14.29V7.56836H27.09V14.29H25.7526ZM23.063 11.5953V10.263H29.7846V11.5953H23.063Z" fill="white"/>
<path d="M17.365 5.67892C17.8191 5.68223 18.2665 5.76509 18.7073 5.9275C19.1481 6.08991 19.5459 6.35506 19.9005 6.72295C20.2585 7.09085 20.5435 7.58801 20.7556 8.21443C20.9711 8.83754 21.0804 9.61311 21.0838 10.5411C21.0838 11.4327 20.9943 12.2265 20.8153 12.9225C20.6363 13.6152 20.3794 14.2002 20.0447 14.6775C19.7132 15.1548 19.3106 15.5177 18.8366 15.7663C18.3626 16.0149 17.829 16.1391 17.2357 16.1391C16.6292 16.1391 16.0906 16.0198 15.62 15.7812C15.1493 15.5426 14.7665 15.2128 14.4715 14.7918C14.1766 14.3676 13.9926 13.8804 13.9197 13.3302H15.436C15.5355 13.7677 15.7376 14.1223 16.0426 14.3941C16.3508 14.6626 16.7485 14.7968 17.2357 14.7968C17.9815 14.7968 18.5632 14.472 18.9808 13.8224C19.3984 13.1695 19.6088 12.258 19.6122 11.088H19.5326C19.3603 11.373 19.1448 11.6183 18.8863 11.8238C18.6311 12.0293 18.3444 12.1884 18.0262 12.3011C17.708 12.4138 17.3683 12.4701 17.007 12.4701C16.4204 12.4701 15.8868 12.3259 15.4062 12.0376C14.9256 11.7492 14.5428 11.3532 14.2578 10.8494C13.9727 10.3456 13.8302 9.77054 13.8302 9.12423C13.8302 8.48124 13.976 7.89791 14.2677 7.37423C14.5627 6.85056 14.9737 6.43626 15.5007 6.13134C16.031 5.8231 16.6524 5.67229 17.365 5.67892ZM17.37 6.97153C16.9822 6.97153 16.6325 7.06765 16.321 7.25989C16.0127 7.44881 15.7691 7.70567 15.5901 8.03048C15.4112 8.35198 15.3217 8.70993 15.3217 9.10435C15.3217 9.49876 15.4079 9.85671 15.5802 10.1782C15.7559 10.4964 15.9945 10.7499 16.2961 10.9389C16.601 11.1245 16.949 11.2173 17.3401 11.2173C17.6318 11.2173 17.9036 11.1609 18.1555 11.0482C18.4074 10.9355 18.6278 10.7798 18.8167 10.5809C19.0056 10.3787 19.1531 10.15 19.2592 9.89483C19.3652 9.63962 19.4183 9.37115 19.4183 9.08943C19.4183 8.7149 19.3288 8.36689 19.1498 8.0454C18.9741 7.7239 18.7322 7.46538 18.424 7.26983C18.1157 7.07097 17.7644 6.97153 17.37 6.97153Z" fill="white"/>
</svg>
