<svg width="44" height="43" viewBox="0 0 44 43" fill="none" xmlns="http://www.w3.org/2000/svg">
<path d="M22 43C34.1503 43 44 33.3741 44 21.5C44 9.62588 34.1503 0 22 0C9.84974 0 0 9.62588 0 21.5C0 33.3741 9.84974 43 22 43Z" fill="#039BE5"/>
<path d="M10.0668 21.0344L31.2785 13.0418C32.263 12.6942 33.1228 13.2765 32.8038 14.7313L32.8057 14.7295L29.194 31.358C28.9263 32.5369 28.2095 32.8236 27.2067 32.2682L21.7067 28.3068L19.0538 30.8044C18.7605 31.091 18.513 31.3329 17.9447 31.3329L18.3352 25.863L28.5285 16.8634C28.9722 16.4818 28.4295 16.2668 27.8447 16.6466L15.2478 24.3974L9.81749 22.7419C8.63866 22.3764 8.61299 21.5898 10.0668 21.0344Z" fill="white"/>
</svg>
