<svg width="42" height="42" viewBox="0 0 42 42" fill="none" xmlns="http://www.w3.org/2000/svg">
<path d="M21.0055 0H20.9945C9.41571 0 0 9.41829 0 21C0 25.5938 1.48028 29.8519 3.99769 33.3088L1.38091 41.1096L9.45303 38.5296C12.7733 40.7295 16.7344 42 21.0055 42C32.5843 42 42 32.5787 42 21C42 9.4211 32.5842 0 21.0055 0Z" fill="#5ACF5F"/>
<path d="M33.2247 29.6538C32.7179 31.0849 30.7072 32.271 29.1036 32.6181C28.0059 32.8513 26.5729 33.0381 21.7486 31.0376C15.5768 28.481 11.6026 22.2097 11.2932 21.8028C10.9962 21.3958 8.79932 18.4826 8.79932 15.4686C8.79932 12.4552 10.3295 10.9875 10.9466 10.3581C11.4528 9.8405 12.2903 9.60474 13.0936 9.60474C13.3536 9.60474 13.587 9.61755 13.7974 9.62817C14.4142 9.65468 14.7237 9.69111 15.1309 10.6651C15.6375 11.8859 16.8709 14.8992 17.0183 15.2092C17.168 15.5191 17.3172 15.9387 17.1074 16.3455C16.9103 16.7657 16.7373 16.952 16.4275 17.3088C16.1176 17.6663 15.8233 17.9392 15.5139 18.3221C15.2305 18.6554 14.9102 19.0126 15.2673 19.6295C15.6242 20.2333 16.8577 22.2463 18.674 23.8634C21.0187 25.9502 22.9188 26.617 23.5989 26.9007C24.1055 27.1109 24.7092 27.0606 25.0789 26.667C25.5489 26.1601 26.1296 25.3203 26.7199 24.4937C27.1398 23.9004 27.67 23.8267 28.2266 24.0366C28.7935 24.2336 31.7938 25.7169 32.4108 26.0239C33.0274 26.3337 33.4348 26.4806 33.5843 26.7406C33.7313 27 33.7313 28.2209 33.2247 29.6538Z" fill="#FCFCFC"/>
<rect x="9.25" y="28.25" width="23.5" height="8.5" rx="1.75" fill="white" stroke="#5ACF5F" stroke-width="0.5"/>
<path d="M16.335 32.831C16.335 33.149 16.282 33.441 16.176 33.707C16.07 33.973 15.921 34.202 15.729 34.394C15.537 34.586 15.306 34.735 15.036 34.841C14.766 34.947 14.466 35 14.136 35H12.483V30.662H14.136C14.466 30.662 14.766 30.716 15.036 30.824C15.306 30.93 15.537 31.079 15.729 31.271C15.921 31.461 16.07 31.689 16.176 31.955C16.282 32.221 16.335 32.513 16.335 32.831ZM15.507 32.831C15.507 32.593 15.475 32.38 15.411 32.192C15.349 32.002 15.258 31.842 15.138 31.712C15.02 31.58 14.876 31.479 14.706 31.409C14.538 31.339 14.348 31.304 14.136 31.304H13.293V34.358H14.136C14.348 34.358 14.538 34.323 14.706 34.253C14.876 34.183 15.02 34.083 15.138 33.953C15.258 33.821 15.349 33.661 15.411 33.473C15.475 33.283 15.507 33.069 15.507 32.831ZM17.8575 31.304V32.507H19.3755V33.128H17.8575V34.355H19.7835V35H17.0475V30.662H19.7835V31.304H17.8575ZM25.2026 30.662V35H24.4916V32.198C24.4916 32.086 24.4976 31.965 24.5096 31.835L23.1986 34.298C23.1366 34.416 23.0416 34.475 22.9136 34.475H22.7996C22.6716 34.475 22.5766 34.416 22.5146 34.298L21.1886 31.826C21.1946 31.892 21.1996 31.957 21.2036 32.021C21.2076 32.085 21.2096 32.144 21.2096 32.198V35H20.4986V30.662H21.1076C21.1436 30.662 21.1746 30.663 21.2006 30.665C21.2266 30.667 21.2496 30.672 21.2696 30.68C21.2916 30.688 21.3106 30.701 21.3266 30.719C21.3446 30.737 21.3616 30.761 21.3776 30.791L22.6766 33.2C22.7106 33.264 22.7416 33.33 22.7696 33.398C22.7996 33.466 22.8286 33.536 22.8566 33.608C22.8846 33.534 22.9136 33.463 22.9436 33.395C22.9736 33.325 23.0056 33.258 23.0396 33.194L24.3206 30.791C24.3366 30.761 24.3536 30.737 24.3716 30.719C24.3896 30.701 24.4086 30.688 24.4286 30.68C24.4506 30.672 24.4746 30.667 24.5006 30.665C24.5266 30.663 24.5576 30.662 24.5936 30.662H25.2026ZM30.3075 32.831C30.3075 33.149 30.2545 33.444 30.1485 33.716C30.0445 33.986 29.8965 34.22 29.7045 34.418C29.5125 34.616 29.2815 34.771 29.0115 34.883C28.7415 34.993 28.4415 35.048 28.1115 35.048C27.7835 35.048 27.4845 34.993 27.2145 34.883C26.9445 34.771 26.7125 34.616 26.5185 34.418C26.3265 34.22 26.1775 33.986 26.0715 33.716C25.9655 33.444 25.9125 33.149 25.9125 32.831C25.9125 32.513 25.9655 32.219 26.0715 31.949C26.1775 31.677 26.3265 31.442 26.5185 31.244C26.7125 31.046 26.9445 30.892 27.2145 30.782C27.4845 30.67 27.7835 30.614 28.1115 30.614C28.3315 30.614 28.5385 30.64 28.7325 30.692C28.9265 30.742 29.1045 30.814 29.2665 30.908C29.4285 31 29.5735 31.113 29.7015 31.247C29.8315 31.379 29.9415 31.527 30.0315 31.691C30.1215 31.855 30.1895 32.033 30.2355 32.225C30.2835 32.417 30.3075 32.619 30.3075 32.831ZM29.4825 32.831C29.4825 32.593 29.4505 32.38 29.3865 32.192C29.3225 32.002 29.2315 31.841 29.1135 31.709C28.9955 31.577 28.8515 31.476 28.6815 31.406C28.5135 31.336 28.3235 31.301 28.1115 31.301C27.8995 31.301 27.7085 31.336 27.5385 31.406C27.3705 31.476 27.2265 31.577 27.1065 31.709C26.9885 31.841 26.8975 32.002 26.8335 32.192C26.7695 32.38 26.7375 32.593 26.7375 32.831C26.7375 33.069 26.7695 33.283 26.8335 33.473C26.8975 33.661 26.9885 33.821 27.1065 33.953C27.2265 34.083 27.3705 34.183 27.5385 34.253C27.7085 34.323 27.8995 34.358 28.1115 34.358C28.3235 34.358 28.5135 34.323 28.6815 34.253C28.8515 34.183 28.9955 34.083 29.1135 33.953C29.2315 33.821 29.3225 33.661 29.3865 33.473C29.4505 33.283 29.4825 33.069 29.4825 32.831Z" fill="#5ACF5F"/>
</svg>
