<svg xmlns="http://www.w3.org/2000/svg" xmlns:xlink="http://www.w3.org/1999/xlink" version="1.1" id="Camada_1" x="0px" y="0px" style="enable-background:new 0 0 1524 837;" xml:space="preserve" viewBox="240.96 240.57 1042.13 379.05">
<style type="text/css">
	.st0{fill:#F71963;}
	.st1{fill:#FFFFFF;}
</style>
<g>
	<g>
		<path class="st0" d="M651.11,240.57H320.05c-25.67,0-42.11,27.29-30.1,49.98l33.11,62.71h-60.03c-12.19,0-22.07,9.89-22.07,22.08    c0,3.58,0.87,7.11,2.54,10.28l106.51,201.6c5.71,10.77,19.07,14.88,29.84,9.18c3.91-2.07,7.11-5.27,9.18-9.18l28.93-54.46    l36.29,68.71c12.77,24.17,47.37,24.21,60.19,0.07l165.94-312.26C692.12,267.2,676.12,240.57,651.11,240.57 M502.4,373.99    l-71.55,134.67c-3.8,7.17-12.7,9.9-19.87,6.1c-2.6-1.38-4.72-3.5-6.1-6.1l-70.86-134.1c-3.8-7.17-1.06-16.06,6.11-19.86    c2.11-1.12,4.45-1.7,6.83-1.71h142.81c7.9,0,14.3,6.4,14.3,14.3C504.07,369.62,503.5,371.92,502.4,373.99 M1003.23,385.43h-36.21    v124.11c-0.01,2.35-1.91,4.26-4.27,4.27h-27.93c-2.35-0.01-4.26-1.91-4.27-4.27V385.43h-36.43c-2.26,0.09-4.17-1.67-4.26-3.93    c0-0.04,0-0.08,0-0.13v-21.95c0.02-2.26,1.87-4.08,4.14-4.06c0.04,0,0.09,0,0.13,0h109.09c2.35-0.11,4.36,1.7,4.48,4.05v21.96    C1007.58,383.74,1005.58,385.54,1003.23,385.43 M1119.48,512.92c-7.46,1.06-20.01,2.77-43.04,2.77c-27.5,0-51.8-7.04-51.8-45.83    v-70.81c0-38.8,24.52-45.62,52.01-45.62c23.01,0,35.36,1.71,42.83,2.77c2.98,0.42,4.27,1.5,4.27,4.27v19.85    c-0.01,2.35-1.91,4.26-4.27,4.27h-44.95c-10.02,0-13.64,3.41-13.64,14.5v19.4h56.89c2.35,0,4.26,1.91,4.27,4.27V443    c0,2.35-1.91,4.26-4.27,4.27h-56.89v22.6c0,11.08,3.62,14.5,13.64,14.5h44.95c2.35,0.01,4.26,1.91,4.27,4.27v19.83    C1123.75,511.21,1122.47,512.49,1119.48,512.92 M1280.33,513.77h-33.89c-2.77,0-4.05-0.89-5.54-3.19l-29.39-46.66l-26.63,45.63    c-1.5,2.56-2.98,4.27-5.31,4.27h-31.55c-2.13,0-3.2-1.28-3.2-2.77c0.04-0.52,0.19-1.03,0.42-1.5l46.18-77.01l-46.66-73.12    c-0.24-0.39-0.38-0.83-0.42-1.28c0.16-1.63,1.56-2.84,3.19-2.77h34.32c2.34,0,4.05,2.13,5.31,4.05l27.27,43.06l26.4-43.06    c1.06-1.92,2.98-4.05,5.31-4.05h31.55c1.63-0.07,3.04,1.14,3.2,2.77c-0.04,0.45-0.19,0.89-0.43,1.28l-46.43,73.58l48.42,76.56    c0.38,0.65,0.6,1.38,0.64,2.13C1283.11,512.92,1282.04,513.77,1280.33,513.77 M869.06,355.77c0.25,0,0.49,0.03,0.73,0.08    c1.77,0.41,2.88,2.17,2.47,3.94c0,0-36.96,130.93-37.56,132.7c-5.06,15.25-18.01,23.09-32.85,23.09    c-15.58,0-27.82-7.48-32.87-23.13c-0.42-1.29-38.21-132.64-38.21-132.64c-0.06-0.24-0.08-0.49-0.08-0.74    c0-1.82,1.47-3.29,3.29-3.3h30.46c1.57,0,2.92,1.12,3.22,2.66l30.98,114.56c0.43,2.31,1.06,3.19,2.98,3.19s2.56-0.85,2.98-3.19    l30.95-114.53c0.3-1.54,1.65-2.65,3.22-2.66L869.06,355.77z"/>
	</g>
</g>
</svg>