<svg width="70" height="20" viewBox="0 0 70 20" fill="none" xmlns="http://www.w3.org/2000/svg">
<path d="M22.0332 4.53044C21.9096 4.4554 21.7688 4.41353 21.6243 4.40886C21.4799 4.4042 21.3367 4.4369 21.2085 4.50381C21.1742 4.52171 21.1412 4.54201 21.1097 4.56456L21.1047 4.56955C21.0328 4.62165 20.9656 4.67984 20.9037 4.74348C20.4104 5.23531 19.6156 6.04919 19.1248 6.54267C19.0899 6.5786 19.0527 6.61223 19.0135 6.64337L19.0002 6.65336C18.9636 6.62894 18.9294 6.60107 18.8981 6.57014C18.7868 6.45946 18.6771 6.34794 18.5659 6.23726C18.4762 6.14655 18.3873 6.05584 18.2968 5.96597L17.9978 5.66638C17.688 5.35597 17.3782 5.04473 17.0651 4.73766L17.0535 4.7285C16.9749 4.62906 16.8747 4.54878 16.7607 4.49372C16.6466 4.43865 16.5215 4.41024 16.3949 4.41061H16.3858C16.2546 4.41265 16.1256 4.44482 16.0087 4.50464C15.9744 4.52255 15.9414 4.54285 15.9099 4.56539L15.9041 4.57039C15.8327 4.62242 15.7658 4.68032 15.7039 4.74348C15.4764 4.96984 15.1849 5.26526 14.8892 5.56568L13.8926 6.56431C13.8616 6.59585 13.8286 6.62531 13.7938 6.65252C13.759 6.62807 13.7267 6.60019 13.6974 6.5693C13.5862 6.45862 13.4765 6.34711 13.3652 6.23643L13.0962 5.96514L12.7972 5.66555C12.4874 5.35514 12.1776 5.0439 11.8637 4.73682C11.7207 4.58415 11.5357 4.4773 11.3322 4.42975C11.3164 4.42975 11.2998 4.42975 11.284 4.42392C11.2549 4.41873 11.2255 4.41512 11.196 4.4131C11.1935 4.41268 11.191 4.41268 11.1885 4.4131H11.1736C11.1636 4.4131 11.1536 4.4131 11.1428 4.4131C11.1295 4.41225 11.1162 4.41225 11.103 4.4131H11.0971H11.0764C11.0535 4.41542 11.0308 4.41904 11.0083 4.42392C10.9925 4.42392 10.9776 4.43391 10.9618 4.43807C10.8079 4.48635 10.6683 4.57213 10.5557 4.68773C10.4012 4.84002 10.2235 5.0206 10.0366 5.20618C9.65733 5.59121 9.27392 5.97512 8.88635 6.35793L8.6181 6.62589C8.60783 6.6354 8.59702 6.64429 8.58571 6.65252L8.57325 6.64337C8.55056 6.62765 8.52917 6.61012 8.5093 6.59094C8.47276 6.55765 8.43705 6.52104 8.40217 6.48525L7.83161 5.91188C7.43851 5.51575 7.04457 5.12102 6.64981 4.72767C6.42474 4.50464 6.18556 4.40062 5.94222 4.40811C5.92867 4.40726 5.91508 4.40726 5.90153 4.40811H5.89654H5.87578C5.85289 4.41043 5.83016 4.41404 5.80768 4.41893C5.7919 4.41893 5.77695 4.42891 5.76117 4.43308C5.60711 4.48152 5.46734 4.56727 5.35422 4.68273C5.20058 4.83502 5.02202 5.01561 4.83599 5.20119C4.45341 5.58399 4.07055 5.9668 3.68741 6.34961L3.14675 6.89136C3.09669 6.93997 3.05033 6.99227 3.00806 7.04781L2.80541 7.2517C2.64804 7.39766 2.55183 7.59805 2.53624 7.81235C2.52064 8.02666 2.58682 8.23891 2.7214 8.40621C2.85598 8.5735 3.04891 8.68336 3.26122 8.71359C3.47353 8.74382 3.68938 8.69216 3.86513 8.56905L3.87012 8.56406C3.94197 8.51197 4.00921 8.45378 4.0711 8.39013C4.56774 7.9058 5.36087 7.09275 5.85253 6.59926C5.8877 6.56337 5.92486 6.52947 5.96381 6.49774L5.97959 6.49108C6.01641 6.51522 6.05065 6.54311 6.08174 6.5743C6.19303 6.68415 6.30266 6.79566 6.41395 6.90717C6.50364 6.99788 6.5925 7.08859 6.68303 7.1793L6.98201 7.47889C7.29179 7.78929 7.60156 8.0997 7.91466 8.40678L7.92629 8.41676C8.00534 8.51571 8.10575 8.59542 8.21996 8.6499C8.33417 8.70438 8.45922 8.73222 8.58571 8.73133H8.59484C8.7252 8.72961 8.85339 8.69772 8.9694 8.63813C9.00373 8.62022 9.03675 8.59992 9.06823 8.57738L9.07321 8.57238C9.14506 8.52029 9.2123 8.4621 9.27419 8.39846C9.50092 8.1721 9.79243 7.87667 10.0881 7.57709L11.0847 6.57846C11.1157 6.54721 11.1487 6.51802 11.1835 6.49108C11.2181 6.51575 11.2504 6.54361 11.2799 6.5743C11.3911 6.68415 11.5008 6.79566 11.6121 6.90717C11.7018 6.99788 11.7906 7.08859 11.8811 7.1793L12.1801 7.47889C12.4899 7.78929 12.7997 8.0997 13.1128 8.40678C13.2562 8.55955 13.4414 8.66663 13.6451 8.71469C13.6609 8.71469 13.6775 8.71469 13.6933 8.72051C13.7224 8.72553 13.7518 8.72886 13.7813 8.7305H13.7863H13.8021C13.8121 8.7305 13.822 8.7305 13.832 8.7305H13.8727H13.8785H13.8993C13.9221 8.72805 13.9449 8.72444 13.9674 8.71968C13.9831 8.71968 13.9981 8.70969 14.0139 8.70553C14.1675 8.65675 14.307 8.57104 14.42 8.45588C14.5736 8.30359 14.7522 8.123 14.9374 7.93826C15.3211 7.55545 15.7045 7.17236 16.0876 6.789L16.3559 6.52021C16.3675 6.51022 16.3791 6.50023 16.3874 6.49441C16.3921 6.49688 16.3965 6.49966 16.4007 6.50273C16.4233 6.51836 16.4446 6.53561 16.4647 6.55433C16.5012 6.58844 16.5369 6.62423 16.5718 6.66001L17.1424 7.23422C17.5355 7.62979 17.9294 8.02425 18.3242 8.4176C18.5484 8.64062 18.7884 8.74548 19.0318 8.73799H19.0716H19.0774H19.0982C19.1211 8.73567 19.1438 8.73206 19.1663 8.72717C19.1821 8.72717 19.197 8.71718 19.2128 8.71302C19.3666 8.66442 19.506 8.57869 19.6189 8.46337C19.7734 8.31108 19.9511 8.13049 20.1363 7.94575C20.52 7.56294 20.9034 7.17985 21.2866 6.79649L21.8281 6.24142C21.8779 6.19229 21.9242 6.13973 21.9668 6.08414L22.1694 5.88108C22.2659 5.79165 22.3403 5.68099 22.3868 5.55783C22.4333 5.43466 22.4507 5.30235 22.4375 5.17133C22.4243 5.0403 22.3809 4.91414 22.3107 4.80278C22.2406 4.69142 22.1456 4.59791 22.0332 4.52961V4.53044Z" fill="#00A49F"/>
<path d="M22.0328 15.879C21.9092 15.954 21.7684 15.9959 21.624 16.0005C21.4795 16.0052 21.3363 15.9725 21.2082 15.9056C21.1738 15.8877 21.1408 15.8674 21.1093 15.8448L21.1043 15.8399C21.0325 15.7878 20.9653 15.7296 20.9034 15.6659C20.41 15.1741 19.6153 14.3602 19.1244 13.8667C19.0892 13.8308 19.0521 13.7969 19.0131 13.7652L18.9999 13.7552C18.963 13.7794 18.9288 13.8072 18.8977 13.8384C18.7864 13.9491 18.6768 14.0606 18.5655 14.1713C18.4758 14.262 18.3869 14.3536 18.2964 14.4434L17.9974 14.743C17.6877 15.0534 17.3779 15.3647 17.0648 15.6717L17.0532 15.6809C16.9741 15.7798 16.8737 15.8596 16.7595 15.914C16.6453 15.9685 16.5202 15.9964 16.3937 15.9955H16.3846C16.2534 15.9934 16.1244 15.9613 16.0076 15.9014C15.9732 15.8835 15.9402 15.8632 15.9087 15.8407L15.9029 15.8357C15.8315 15.7834 15.7645 15.7252 15.7028 15.6618C15.4752 15.4354 15.1837 15.14 14.888 14.8396L13.8914 13.8409C13.8604 13.8094 13.8274 13.7799 13.7926 13.7527C13.7578 13.7772 13.7255 13.8051 13.6963 13.8359C13.585 13.9466 13.4754 14.0581 13.3641 14.1688L13.095 14.4409L12.796 14.7405C12.4862 15.0509 12.1764 15.3622 11.8625 15.6693C11.7193 15.8217 11.5344 15.9284 11.331 15.9763C11.3152 15.9763 11.2986 15.9763 11.2828 15.9822C11.2529 15.9822 11.2239 15.9921 11.1948 15.993H11.1873H11.1724C11.1624 15.993 11.1524 15.993 11.1416 15.993H11.1018H11.096H11.0752C11.0523 15.9907 11.0296 15.987 11.0071 15.9822C10.9913 15.9822 10.9764 15.9722 10.9606 15.968C10.8068 15.9194 10.6674 15.8337 10.5545 15.7184C10.4 15.5661 10.2223 15.3855 10.0354 15.1999L8.886 14.0515L8.61774 13.7827L8.58535 13.7569L8.5729 13.7652C8.55037 13.7808 8.529 13.7981 8.50895 13.8168C8.47241 13.8509 8.43669 13.8875 8.40181 13.9233L7.83126 14.4967C7.43843 14.892 7.0456 15.2881 6.64945 15.6801C6.42439 15.9039 6.1852 16.008 5.94187 16.0005C5.92775 16.0005 5.91446 16.0005 5.90117 16.0005H5.89619H5.87543C5.85254 15.9981 5.8298 15.9945 5.80732 15.9896C5.79154 15.9896 5.7766 15.9797 5.76082 15.9755C5.6069 15.9267 5.4672 15.841 5.35387 15.7258C5.20023 15.5736 5.02167 15.393 4.83564 15.2074L3.68705 14.059L3.14639 13.5172C3.09634 13.4683 3.04998 13.4157 3.0077 13.3599L2.80755 13.1486C2.65018 13.0026 2.55397 12.8022 2.53838 12.5879C2.52278 12.3736 2.58896 12.1613 2.72353 11.994C2.85811 11.8268 3.05105 11.7169 3.26336 11.6867C3.47567 11.6564 3.69151 11.7081 3.86727 11.8312L3.87225 11.8362C3.9441 11.8883 4.01135 11.9465 4.07324 12.0101C4.56738 12.5028 5.36051 13.315 5.85217 13.8143C5.88735 13.8502 5.9245 13.8841 5.96346 13.9158L5.97675 13.9258C6.01357 13.9017 6.0478 13.8738 6.0789 13.8426C6.19019 13.7319 6.29981 13.6204 6.4111 13.5097C6.50079 13.4198 6.58966 13.3283 6.68018 13.2384L6.97916 12.9388C7.28894 12.6284 7.59872 12.3172 7.91182 12.0101L7.92344 12.001C8.0025 11.902 8.1029 11.8223 8.21711 11.7678C8.33133 11.7133 8.45637 11.6855 8.58286 11.6864H8.592C8.7232 11.6884 8.85219 11.7206 8.96905 11.7804C9.00337 11.7983 9.0364 11.8186 9.06788 11.8412L9.07286 11.8462C9.14471 11.8983 9.21195 11.9565 9.27384 12.0201C9.50057 12.2465 9.79207 12.5411 10.0877 12.8415L11.0843 13.8401C11.1153 13.8716 11.1483 13.9011 11.1832 13.9283C11.2178 13.9036 11.25 13.8758 11.2795 13.8451C11.3908 13.7344 11.5004 13.6229 11.6117 13.5122C11.7014 13.4223 11.7903 13.3308 11.8808 13.2409L12.1798 12.9413C12.4895 12.6309 12.7993 12.3197 13.1124 12.0126C13.2561 11.8603 13.4412 11.7536 13.6448 11.7055C13.6606 11.7055 13.6772 11.7055 13.6929 11.6997C13.7221 11.6944 13.7514 11.6908 13.781 11.6889H13.786H13.8017H13.8316C13.8458 11.6889 13.8599 11.6889 13.8723 11.6889H13.8781H13.8989C13.9218 11.6913 13.9445 11.695 13.967 11.6997C13.9828 11.6997 13.9977 11.7097 14.0135 11.7139C14.1672 11.7626 14.3066 11.8484 14.4196 11.9635C14.5733 12.1158 14.7518 12.2964 14.937 12.4811C15.3207 12.8639 15.7041 13.247 16.0873 13.6304L16.3555 13.8992L16.3871 13.925L16.4004 13.9167C16.4229 13.901 16.4443 13.8838 16.4643 13.8651C16.5009 13.8309 16.5366 13.7943 16.5715 13.7585L17.142 13.1852C17.5348 12.7899 17.9277 12.3938 18.3238 12.0018C18.5481 11.7779 18.7881 11.6739 19.0314 11.6814H19.0713H19.0771H19.0979C19.1207 11.6837 19.1435 11.6873 19.166 11.6922C19.1817 11.6922 19.1967 11.7022 19.2125 11.7064C19.3662 11.755 19.5057 11.8407 19.6186 11.956C19.7731 12.1083 19.9508 12.2889 20.136 12.4736C20.5197 12.8565 20.9031 13.2395 21.2862 13.6229L21.8269 14.1647C21.8767 14.2138 21.923 14.2663 21.9656 14.3219L22.1682 14.525C22.2647 14.6144 22.3391 14.7251 22.3856 14.8482C22.4322 14.9714 22.4495 15.1037 22.4363 15.2347C22.4231 15.3658 22.3797 15.4919 22.3095 15.6033C22.2394 15.7147 22.1444 15.8082 22.032 15.8765L22.0328 15.879Z" fill="#00A49F"/>
<path d="M5.96386 11.0556C6.43308 11.0556 6.81347 10.6745 6.81347 10.2043C6.81347 9.73412 6.43308 9.35297 5.96386 9.35297C5.49464 9.35297 5.11426 9.73412 5.11426 10.2043C5.11426 10.6745 5.49464 11.0556 5.96386 11.0556Z" fill="#00A49F"/>
<path d="M11.1865 11.0557C11.6557 11.0557 12.0361 10.6745 12.0361 10.2044C12.0361 9.73418 11.6557 9.35303 11.1865 9.35303C10.7173 9.35303 10.3369 9.73418 10.3369 10.2044C10.3369 10.6745 10.7173 11.0557 11.1865 11.0557Z" fill="#00A49F"/>
<path d="M16.4016 11.0556C16.8708 11.0556 17.2512 10.6745 17.2512 10.2043C17.2512 9.73412 16.8708 9.35297 16.4016 9.35297C15.9324 9.35297 15.552 9.73412 15.552 10.2043C15.552 10.6745 15.9324 11.0556 16.4016 11.0556Z" fill="#00A49F"/>
<path d="M21.6171 11.0556C22.0863 11.0556 22.4667 10.6745 22.4667 10.2043C22.4667 9.73412 22.0863 9.35297 21.6171 9.35297C21.1479 9.35297 20.7675 9.73412 20.7675 10.2043C20.7675 10.6745 21.1479 11.0556 21.6171 11.0556Z" fill="#00A49F"/>
<path d="M44.4634 11.0082C44.9908 10.7885 45.7092 10.6753 46.5878 10.6753C47.0777 10.6733 47.567 10.6442 48.0537 10.5879C49.3559 10.4406 50.2238 10.0054 50.7113 9.26227C50.9802 8.83348 51.1304 8.34066 51.1463 7.83446C51.1622 7.32827 51.0433 6.82696 50.8018 6.38206C50.5715 5.9583 50.2508 5.59063 49.8625 5.30521C49.4506 5.00784 48.9899 4.78505 48.5013 4.64695C47.1177 4.23834 45.6319 4.36317 44.4319 4.99064C43.1703 5.64724 42.2094 6.91965 41.7958 8.48001C41.3058 10.3308 41.6829 12.517 42.7576 14.0482C43.6246 15.2832 45.0921 15.9922 46.7855 15.9922C47.5778 16.0032 48.3617 15.8291 49.0752 15.4837C49.6085 15.2205 50.0944 14.87 50.5128 14.4468C50.5795 14.3786 50.6332 14.2988 50.6714 14.2113C50.7455 14.0736 50.7826 13.919 50.7792 13.7626C50.7757 13.6063 50.7318 13.4535 50.6516 13.3192C50.5715 13.185 50.4579 13.0739 50.3221 12.9969C50.1862 12.9199 50.0327 12.8795 49.8766 12.8798C49.695 12.8794 49.5176 12.9349 49.3684 13.0387C49.3476 13.0534 49.3279 13.0695 49.3094 13.087L49.2737 13.117C49.2586 13.1289 49.2442 13.1417 49.2305 13.1552L49.2131 13.1702C49.0197 13.3772 48.8031 13.5613 48.5678 13.7186C48.311 13.8903 48.035 14.0314 47.7456 14.1389C47.0835 14.371 46.3602 14.3559 45.7083 14.0965C45.3531 13.9607 45.0215 13.7694 44.7259 13.5297C44.4487 13.3071 44.2126 13.0376 44.0282 12.7333C43.8684 12.4734 43.7823 12.1748 43.7791 11.8695C43.7783 11.4842 44.0025 11.2013 44.4634 11.0082ZM46.8918 8.89194C46.5978 8.89194 46.2573 8.90526 45.8786 8.93272C45.4993 8.95992 45.1226 9.01556 44.7516 9.09916C44.3859 9.18103 44.03 9.30212 43.6902 9.46033C43.5958 9.5043 43.5038 9.55319 43.4145 9.60679C43.4427 9.49611 43.4701 9.333 43.5042 9.10748C43.5216 8.98681 43.5374 8.88279 43.5499 8.83702C43.6318 8.53384 43.7503 8.2418 43.9028 7.96738C44.1965 7.42669 44.6237 6.97053 45.1436 6.64254C45.6353 6.33879 46.3404 6.14322 47.0396 6.14322C47.8585 6.14322 48.6691 6.41285 49.1159 7.09525C49.3368 7.43312 49.419 7.98569 49.1342 8.34353C48.8294 8.72634 48.2272 8.81871 47.8004 8.85533C47.4981 8.87863 47.1924 8.89194 46.8918 8.89194Z" fill="#00A49F"/>
<path d="M40.1966 4.46141C39.9798 4.38533 39.7418 4.3986 39.5348 4.49832C39.3279 4.59804 39.1689 4.77604 39.0928 4.99318L36.4734 12.4155L34.0907 5.04228C34.0753 4.99892 34.057 4.95666 34.0359 4.91578L34.0293 4.90247C34.0201 4.88499 34.0102 4.86835 33.9985 4.85004C33.8977 4.67017 33.7355 4.53278 33.5417 4.46307C33.4343 4.42484 33.3203 4.40823 33.2064 4.41419C33.0926 4.42014 32.981 4.44856 32.878 4.4978C32.7751 4.54704 32.6829 4.61615 32.6067 4.70115C32.5305 4.78615 32.4717 4.88539 32.4339 4.99318L29.8153 12.4138L27.416 5.01398C27.3446 4.79493 27.1893 4.61325 26.9843 4.50892C26.7792 4.40459 26.5412 4.38615 26.3226 4.45766C26.104 4.52917 25.9227 4.68477 25.8186 4.89023C25.7145 5.0957 25.6961 5.33419 25.7674 5.55324L28.9541 15.3955C29.0091 15.5685 29.117 15.7197 29.2624 15.8279C29.4078 15.9362 29.5835 15.996 29.7646 15.9989H29.7787C29.9582 15.9982 30.133 15.9418 30.2792 15.8375C30.4254 15.7332 30.5358 15.586 30.5951 15.4163L33.2203 7.98406L35.6155 15.3905C35.6706 15.5633 35.7783 15.7145 35.9235 15.8227C36.0688 15.9309 36.2443 15.9908 36.4253 15.9939H36.4394C36.6189 15.9931 36.7938 15.9367 36.9401 15.8324C37.0864 15.7281 37.197 15.5811 37.2566 15.4114L40.7264 5.57571C40.8034 5.35753 40.7908 5.11767 40.6914 4.90878C40.5921 4.69988 40.4141 4.53899 40.1966 4.46141Z" fill="#00A49F"/>
<path d="M65.3535 4.41064C65.1171 4.41197 64.8908 4.50712 64.7242 4.67526C64.5577 4.8434 64.4644 5.07083 64.4648 5.30774V15.0993C64.4648 15.3354 64.5585 15.5619 64.7251 15.7289C64.8918 15.8959 65.1178 15.9897 65.3535 15.9897C65.5892 15.9897 65.8152 15.8959 65.9818 15.7289C66.1485 15.5619 66.2421 15.3354 66.2421 15.0993V5.30774C66.2426 5.07083 66.1493 4.8434 65.9827 4.67526C65.8162 4.50712 65.5899 4.41197 65.3535 4.41064Z" fill="#00A49F"/>
<path d="M57.582 4.41061C55.0573 4.49383 53.0035 6.69663 53.0035 9.32052V15.0843C52.9998 15.2058 53.0205 15.3267 53.0644 15.4401C53.1082 15.5534 53.1743 15.6567 53.2588 15.744C53.3433 15.8312 53.4444 15.9005 53.5561 15.9479C53.6678 15.9953 53.7878 16.0197 53.9091 16.0197C54.0304 16.0197 54.1505 15.9953 54.2622 15.9479C54.3739 15.9005 54.475 15.8312 54.5594 15.744C54.6439 15.6567 54.71 15.5534 54.7539 15.4401C54.7978 15.3267 54.8185 15.2058 54.8148 15.0843V9.25894C54.8148 7.64616 56.0697 6.27804 57.6119 6.2098C58.0085 6.19045 58.4049 6.25301 58.7763 6.39359C59.1478 6.53417 59.4864 6.74978 59.7712 7.02701C60.059 7.30319 60.2876 7.63515 60.4432 8.00269C60.5989 8.37022 60.6782 8.76565 60.6765 9.1649V15.0843C60.6765 15.3248 60.7718 15.5556 60.9416 15.7257C61.1114 15.8958 61.3416 15.9914 61.5817 15.9914C61.8218 15.9914 62.0521 15.8958 62.2218 15.7257C62.3916 15.5556 62.487 15.3248 62.487 15.0843V9.19569C62.4896 8.55431 62.363 7.91898 62.1147 7.32782C61.8664 6.73666 61.5015 6.20184 61.0419 5.75542C60.5871 5.30688 60.0455 4.95622 59.4506 4.72496C58.8556 4.4937 58.2197 4.38673 57.582 4.41061Z" fill="#00A49F"/>
</svg>
