<svg width="582" height="336" viewBox="0 0 582 336" fill="none" xmlns="http://www.w3.org/2000/svg">
<ellipse rx="83.7447" ry="93.6011" transform="matrix(0.875003 -0.484117 0.485807 0.874066 288 212.999)" fill="white"/>
<path d="M368.431 213C368.431 258.758 332.396 295.808 288 295.808C243.603 295.808 207.569 258.758 207.569 213C207.569 167.241 243.603 130.192 288 130.192C332.396 130.192 368.431 167.241 368.431 213Z" stroke="#4E5666" stroke-width="1.8"/>
<path d="M368.431 213C368.431 258.759 332.396 295.809 288 295.809C243.603 295.809 207.569 258.759 207.569 213C207.569 167.242 243.603 130.192 288 130.192C332.396 130.192 368.431 167.242 368.431 213Z" stroke="#4E5666" stroke-width="1.8"/>
<path d="M246.377 244.612L223.746 222.07C222.186 220.515 219.661 220.515 218.101 222.07L192.856 247.215C191.289 248.776 191.286 251.313 192.85 252.877L250.504 310.541C252.064 312.101 254.593 312.104 256.156 310.547L386.614 180.601C388.18 179.042 388.185 176.509 386.625 174.944L357.238 145.455C355.679 143.89 353.147 143.885 351.582 145.444L252.023 244.612C250.462 246.166 247.938 246.166 246.377 244.612Z" fill="#C4EAF5"/>
<path d="M248.146 241.746L227.433 221.081C225.872 219.523 223.344 219.523 221.783 221.081L198.631 244.18C197.065 245.743 197.065 248.28 198.631 249.843L250.598 301.692C252.159 303.25 254.687 303.25 256.249 301.692L377.495 180.722C379.061 179.159 379.061 176.621 377.495 175.059L351.89 149.513C350.329 147.955 347.801 147.955 346.24 149.513L253.796 241.746C252.235 243.304 249.707 243.304 248.146 241.746Z" stroke="#4E5666" stroke-width="1.8"/>
<circle cx="576.5" cy="61.5" r="5" stroke="#00DED2"/>
<circle cx="140" cy="117" r="5.5" stroke="#00DED2"/>
<circle cx="86" cy="13" r="13" fill="white"/>
<circle cx="257" cy="45" r="8" fill="white"/>
<circle cx="434.5" cy="66.5" r="13.5" fill="white"/>
<circle cx="535.5" cy="200.5" r="12.5" fill="white"/>
<circle cx="47.5" cy="212.5" r="12.5" fill="white"/>
<circle cx="3.5" cy="107.5" r="3" stroke="#00DED2"/>
<circle cx="447.5" cy="170.5" r="2" stroke="#00DED2"/>
</svg>
