<svg width="140" height="106" viewBox="0 0 140 106" fill="none" xmlns="http://www.w3.org/2000/svg">
<path d="M91.35 31.1074H55.377V59.2544H100.775V39.8084C100.775 35.0099 96.5545 31.1074 91.35 31.1074Z" fill="#C4EAF5"/>
<path d="M100.775 59.4087H55.377C55.3349 59.4078 55.2948 59.3904 55.2654 59.3603C55.2359 59.3302 55.2195 59.2898 55.2195 59.2477V31.1077C55.2195 31.0659 55.2361 31.0259 55.2656 30.9963C55.2951 30.9668 55.3352 30.9502 55.377 30.9502H91.35C96.635 30.9502 100.936 34.9297 100.936 39.8192V59.2547C100.934 59.2959 100.916 59.3346 100.886 59.3631C100.856 59.3916 100.817 59.4079 100.775 59.4087ZM55.538 59.0867H100.614V39.8087C100.614 35.0942 96.46 31.2582 91.35 31.2582H55.538V59.0867Z" fill="#4E5666"/>
<path d="M64.8024 59.4329H45.9514C45.9052 59.432 45.8612 59.4133 45.8286 59.3806C45.796 59.348 45.7773 59.304 45.7764 59.2579V40.1584C45.7773 37.709 46.7507 35.3602 48.4827 33.6282C50.2147 31.8962 52.5635 30.9228 55.0129 30.9219H55.8179C57.6765 30.939 59.4868 31.5159 61.0127 32.5773C62.5386 33.6387 63.7092 35.1353 64.3719 36.8719C64.5127 37.2134 64.6296 37.5642 64.7219 37.9219C64.7366 37.9673 64.746 38.0143 64.7499 38.0619C64.9125 38.7417 64.9936 39.4384 64.9914 40.1374V59.2264C64.9964 59.2531 64.9951 59.2806 64.9877 59.3067C64.9802 59.3328 64.9668 59.3568 64.9485 59.3769C64.9301 59.3969 64.9074 59.4124 64.882 59.4221C64.8567 59.4318 64.8294 59.4355 64.8024 59.4329ZM46.1264 59.0829H64.6274V40.1584C64.6286 39.4783 64.5499 38.8005 64.3929 38.1389C64.3958 38.111 64.3958 38.0828 64.3929 38.0549V38.0164C64.2993 37.6736 64.1848 37.337 64.0499 37.0084C63.4099 35.3395 62.2825 33.9019 60.8143 32.8825C59.3461 31.8632 57.6051 31.3093 55.8179 31.2929H55.0164C53.8503 31.2906 52.6953 31.5181 51.6173 31.9626C50.5392 32.407 49.5594 33.0595 48.7337 33.8829C48.0477 34.567 47.4793 35.3579 47.0501 36.2235C46.9627 36.3997 46.8811 36.579 46.8054 36.7611C46.358 37.8379 46.1273 38.9923 46.1264 40.1584V59.0829Z" fill="#4E5666"/>
<path d="M46.1264 59.0829H64.6274V40.1584C64.6286 39.4783 64.5499 38.8005 64.3929 38.1389C64.3958 38.111 64.3958 38.0828 64.3929 38.0549V38.0164C64.2993 37.6736 64.1848 37.337 64.0499 37.0084C63.4099 35.3395 62.2825 33.9019 60.8143 32.8825C59.3461 31.8632 57.6051 31.3093 55.8179 31.2929H55.0164C53.8503 31.2906 52.6953 31.5181 51.6173 31.9626C50.5392 32.407 49.5594 33.0595 48.7337 33.8829C48.0477 34.567 47.4793 35.3579 47.0501 36.2235C46.5235 37.3158 46.1799 38.6179 46.1264 40.1584V59.0829Z" fill="#4E5666"/>
<path d="M45.9549 59.2549H64.8024V75.9569C64.8024 78.2348 63.8975 80.4195 62.2868 82.0302C60.676 83.641 58.4914 84.5459 56.2134 84.5459H54.5404C52.2625 84.5459 50.0778 83.641 48.4671 82.0302C46.8563 80.4195 45.9514 78.2348 45.9514 75.9569V59.2549H45.9549Z" fill="white"/>
<path d="M56.2134 84.7068H54.5439C52.2233 84.7068 49.9977 83.7849 48.3568 82.1439C46.7158 80.503 45.7939 78.2774 45.7939 75.9568V59.2547C45.7948 59.2123 45.8121 59.1719 45.8421 59.1419C45.8721 59.1119 45.9125 59.0946 45.9549 59.0938H64.8024C64.8449 59.0946 64.8853 59.1119 64.9153 59.1419C64.9453 59.1719 64.9626 59.2123 64.9634 59.2547V75.9568C64.9634 78.2774 64.0416 80.503 62.4006 82.1439C60.7597 83.7849 58.5341 84.7068 56.2134 84.7068ZM46.1124 59.4087V75.9498C46.1152 78.1847 47.0045 80.3274 48.5853 81.9074C50.166 83.4875 52.3089 84.3759 54.5439 84.3778H56.2134C58.4481 84.3759 60.5907 83.4874 62.1709 81.9072C63.7511 80.327 64.6396 78.1844 64.6414 75.9498V59.4087H46.1124Z" fill="#4E5666"/>
<path d="M60.0354 74.56H50.7219C50.6755 74.56 50.631 74.5415 50.5981 74.5087C50.5653 74.4759 50.5469 74.4314 50.5469 74.385C50.5469 74.3385 50.5653 74.294 50.5981 74.2612C50.631 74.2284 50.6755 74.21 50.7219 74.21H60.0354C60.0818 74.21 60.1263 74.2284 60.1591 74.2612C60.1919 74.294 60.2104 74.3385 60.2104 74.385C60.2104 74.4314 60.1919 74.4759 60.1591 74.5087C60.1263 74.5415 60.0818 74.56 60.0354 74.56Z" fill="#D0D3D9"/>
<path d="M74.9209 45.2681C75.9164 45.2681 76.7234 44.4611 76.7234 43.4656C76.7234 42.4701 75.9164 41.6631 74.9209 41.6631C73.9254 41.6631 73.1184 42.4701 73.1184 43.4656C73.1184 44.4611 73.9254 45.2681 74.9209 45.2681Z" fill="white"/>
<path d="M74.9209 45.426C74.5322 45.4267 74.1521 45.3121 73.8287 45.0966C73.5052 44.8811 73.253 44.5745 73.104 44.2155C72.9549 43.8566 72.9158 43.4615 72.9914 43.0803C73.0671 42.6991 73.2541 42.3489 73.529 42.0741C73.8038 41.7993 74.154 41.6122 74.5352 41.5366C74.9164 41.4609 75.3115 41.5001 75.6704 41.6492C76.0293 41.7982 76.3359 42.0504 76.5514 42.3738C76.7669 42.6973 76.8816 43.0774 76.8809 43.466C76.8799 43.9856 76.6731 44.4836 76.3058 44.8509C75.9384 45.2183 75.4404 45.4251 74.9209 45.426ZM74.9209 41.8245C74.5962 41.8245 74.2788 41.9208 74.0089 42.1012C73.7389 42.2815 73.5285 42.5379 73.4043 42.8378C73.2801 43.1378 73.2476 43.4678 73.3109 43.7863C73.3742 44.1047 73.5306 44.3972 73.7601 44.6267C73.9897 44.8563 74.2822 45.0126 74.6006 45.076C74.919 45.1393 75.2491 45.1068 75.549 44.9826C75.849 44.8583 76.1053 44.6479 76.2857 44.378C76.4661 44.108 76.5624 43.7907 76.5624 43.466C76.5624 43.2505 76.5199 43.037 76.4374 42.8378C76.3549 42.6387 76.234 42.4577 76.0816 42.3053C75.9291 42.1529 75.7482 42.032 75.549 41.9495C75.3499 41.867 75.1364 41.8245 74.9209 41.8245Z" fill="#4E5666"/>
<path d="M74.921 41.8246C74.8786 41.8237 74.8382 41.8064 74.8082 41.7764C74.7781 41.7464 74.7609 41.706 74.76 41.6636V19.4876C74.7609 19.4455 74.7783 19.4054 74.8084 19.376C74.8385 19.3465 74.8789 19.3301 74.921 19.3301C74.9628 19.3301 75.0028 19.3467 75.0324 19.3762C75.0619 19.4057 75.0785 19.4458 75.0785 19.4876V41.6636C75.0785 41.7057 75.062 41.7461 75.0326 41.7762C75.0032 41.8063 74.9631 41.8237 74.921 41.8246Z" fill="#4E5666"/>
<path d="M81.5464 21.1638L74.9209 24.1458V19.4873H81.5464V21.1638Z" fill="white"/>
<path d="M74.9209 24.321C74.8874 24.3209 74.8546 24.3112 74.8264 24.293C74.8013 24.2777 74.7806 24.2561 74.7665 24.2303C74.7524 24.2045 74.7453 24.1754 74.7459 24.146V19.4875C74.7459 19.4411 74.7643 19.3966 74.7971 19.3638C74.83 19.3309 74.8745 19.3125 74.9209 19.3125H81.5499C81.596 19.3134 81.64 19.3321 81.6726 19.3647C81.7053 19.3974 81.724 19.4414 81.7249 19.4875V21.1605C81.7246 21.1946 81.7145 21.2278 81.6959 21.2563C81.6773 21.2849 81.6509 21.3075 81.6199 21.3215L74.9909 24.3035C74.9692 24.3146 74.9452 24.3205 74.9209 24.321ZM75.0959 19.6625V23.8625L81.3714 21.038V19.638L75.0959 19.6625Z" fill="#4E5666"/>
<path d="M78.6905 59.2549H71.0955V61.0679H78.6905V59.2549Z" fill="white"/>
<path d="M78.6906 61.2253H71.0956C71.0535 61.2253 71.013 61.2088 70.9829 61.1793C70.9529 61.1499 70.9355 61.1098 70.9346 61.0678V59.2547C70.9355 59.2123 70.9527 59.1719 70.9827 59.1419C71.0127 59.1119 71.0532 59.0946 71.0956 59.0938H78.6906C78.733 59.0946 78.7734 59.1119 78.8034 59.1419C78.8334 59.1719 78.8507 59.2123 78.8516 59.2547V61.0678C78.8507 61.1098 78.8333 61.1499 78.8032 61.1793C78.7731 61.2088 78.7327 61.2253 78.6906 61.2253ZM71.2566 60.9067H78.5296V59.4087H71.2566V60.9067Z" fill="#4E5666"/>
<path d="M72.3169 86.4389V61.0674H76.8879V86.4389" fill="white"/>
<path d="M76.888 86.5998C76.8459 86.5988 76.8059 86.5815 76.7765 86.5514C76.747 86.5213 76.7305 86.4809 76.7305 86.4388V61.2387H72.4745V86.4388C72.478 86.4616 72.4764 86.485 72.4699 86.5072C72.4635 86.5295 72.4523 86.55 72.4372 86.5676C72.4221 86.5851 72.4034 86.5992 72.3824 86.6088C72.3613 86.6184 72.3384 86.6234 72.3153 86.6234C72.2922 86.6234 72.2693 86.6184 72.2482 86.6088C72.2272 86.5992 72.2085 86.5851 72.1934 86.5676C72.1783 86.55 72.1671 86.5295 72.1607 86.5072C72.1542 86.485 72.1526 86.4616 72.156 86.4388V61.0673C72.156 61.0461 72.1602 61.0252 72.1683 61.0056C72.1764 60.9861 72.1882 60.9684 72.2032 60.9534C72.2181 60.9385 72.2359 60.9266 72.2554 60.9185C72.275 60.9104 72.2959 60.9063 72.317 60.9063H76.888C76.9092 60.9062 76.9301 60.9104 76.9497 60.9185C76.9692 60.9266 76.9869 60.9385 77.0019 60.9534C77.0168 60.9684 77.0287 60.9861 77.0368 61.0056C77.0449 61.0252 77.049 61.0461 77.049 61.0673V86.4388C77.049 86.4599 77.0449 86.4808 77.0368 86.5004C77.0287 86.5199 77.0168 86.5376 77.0019 86.5526C76.9869 86.5675 76.9692 86.5794 76.9497 86.5875C76.9301 86.5956 76.9092 86.5998 76.888 86.5998Z" fill="#4E5666"/>
<path d="M72.3169 65.0294L76.8879 68.3929V61.0674H72.3169V65.0294Z" fill="#4E5666"/>
<path d="M76.8881 68.5681C76.8518 68.5684 76.8163 68.5574 76.7866 68.5366L72.2121 65.1731C72.1906 65.1566 72.1731 65.1354 72.1609 65.1112C72.1488 65.0869 72.1424 65.0602 72.1421 65.0331V61.0676C72.1421 61.0212 72.1605 60.9767 72.1933 60.9438C72.2262 60.911 72.2707 60.8926 72.3171 60.8926H76.8881C76.9345 60.8926 76.979 60.911 77.0118 60.9438C77.0446 60.9767 77.0631 61.0212 77.0631 61.0676V68.3931C77.0639 68.4256 77.0554 68.4577 77.0387 68.4856C77.022 68.5134 76.9976 68.536 76.9686 68.5506C76.9437 68.5633 76.916 68.5693 76.8881 68.5681ZM72.4921 64.9421L76.7131 68.0501V61.2426H72.4921V64.9421Z" fill="#4E5666"/>
<path d="M56.9939 47.9321H56.9624L56.6124 47.8691C56.5894 47.8652 56.5674 47.8568 56.5477 47.8444C56.5279 47.832 56.5108 47.8158 56.4973 47.7968C56.4838 47.7778 56.4742 47.7563 56.469 47.7336C56.4639 47.7109 56.4632 47.6873 56.4671 47.6644C56.471 47.6414 56.4794 47.6194 56.4918 47.5997C56.5042 47.5799 56.5204 47.5628 56.5394 47.5493C56.5584 47.5358 56.5799 47.5262 56.6026 47.521C56.6253 47.5159 56.6489 47.5152 56.6719 47.5191L57.0219 47.5786C57.0675 47.5879 57.1078 47.6148 57.1339 47.6533C57.1601 47.6919 57.1701 47.7392 57.1619 47.7851C57.156 47.8256 57.1359 47.8627 57.105 47.8897C57.0742 47.9166 57.0348 47.9317 56.9939 47.9321Z" fill="#D0D3D9"/>
<path d="M33.208 59.6216C33.1849 59.6265 33.161 59.6265 33.138 59.6216C33.1168 59.6125 33.0976 59.5993 33.0815 59.5827C33.0655 59.5661 33.0529 59.5465 33.0444 59.5251C33.0359 59.5036 33.0318 59.4807 33.0323 59.4576C33.0327 59.4345 33.0377 59.4118 33.047 59.3906C33.1415 59.1736 33.243 58.9601 33.348 58.7466C33.358 58.7259 33.3721 58.7074 33.3894 58.6922C33.4068 58.677 33.427 58.6655 33.4489 58.6583C33.4707 58.6511 33.4939 58.6484 33.5168 58.6504C33.5398 58.6523 33.5621 58.6589 33.5825 58.6696C33.6032 58.6797 33.6217 58.6938 33.637 58.711C33.6522 58.7283 33.6639 58.7484 33.6714 58.7702C33.6789 58.792 33.682 58.815 33.6805 58.838C33.6791 58.861 33.6731 58.8835 33.663 58.9041C33.558 59.1106 33.46 59.3206 33.369 59.5306C33.3533 59.5593 33.3299 59.5831 33.3015 59.5991C33.273 59.6152 33.2406 59.623 33.208 59.6216ZM33.838 58.3686C33.8073 58.3676 33.7773 58.3592 33.7505 58.3441C33.7108 58.3207 33.6818 58.2828 33.6694 58.2385C33.657 58.1941 33.6622 58.1467 33.684 58.1061C33.803 57.8996 33.9255 57.6966 34.055 57.4971C34.0812 57.4608 34.1203 57.4358 34.1643 57.4275C34.2083 57.4191 34.2539 57.428 34.2916 57.4522C34.3293 57.4764 34.3562 57.5142 34.3669 57.5577C34.3776 57.6013 34.3712 57.6472 34.349 57.6861C34.223 57.8821 34.104 58.0781 33.999 58.2776C33.9822 58.3047 33.9583 58.3265 33.9299 58.3407C33.9014 58.3549 33.8696 58.3609 33.838 58.3581V58.3686ZM34.5975 57.1856C34.5602 57.1855 34.5237 57.1746 34.4925 57.1541C34.4555 57.1262 34.4309 57.0851 34.4237 57.0394C34.4165 56.9937 34.4274 56.947 34.454 56.9091C34.594 56.7166 34.7375 56.5276 34.888 56.3456C34.9168 56.3096 34.9588 56.2864 35.0047 56.2811C35.0506 56.2759 35.0967 56.289 35.133 56.3176C35.169 56.3465 35.1922 56.3885 35.1974 56.4344C35.2027 56.4803 35.1896 56.5264 35.161 56.5626C35.014 56.7446 34.874 56.9126 34.7375 57.1156C34.7214 57.1376 34.7003 57.1554 34.6759 57.1675C34.6516 57.1797 34.6247 57.1859 34.5975 57.1856ZM42.245 57.1611C41.9912 57.1417 41.7426 57.079 41.51 56.9756C41.4673 56.9571 41.4337 56.9223 41.4166 56.879C41.3996 56.8357 41.4004 56.7873 41.419 56.7446C41.4375 56.7019 41.4723 56.6684 41.5156 56.6513C41.5589 56.6342 41.6073 56.6351 41.65 56.6536C41.8455 56.7423 42.0553 56.7957 42.2695 56.8111C42.2923 56.8125 42.3147 56.8183 42.3352 56.8284C42.3558 56.8385 42.3741 56.8526 42.3891 56.8699C42.4041 56.8872 42.4155 56.9073 42.4226 56.9291C42.4297 56.9509 42.4324 56.9738 42.4305 56.9966C42.4296 57.0198 42.424 57.0425 42.4141 57.0635C42.4042 57.0844 42.3902 57.1032 42.3729 57.1185C42.3555 57.1339 42.3353 57.1456 42.3133 57.1529C42.2913 57.1602 42.2681 57.163 42.245 57.1611ZM42.945 57.0771C42.8985 57.0841 42.8513 57.0723 42.8135 57.0444C42.7758 57.0165 42.7507 56.9748 42.7437 56.9284C42.7367 56.882 42.7485 56.8347 42.7764 56.7969C42.8043 56.7592 42.846 56.7341 42.8925 56.7271C43.0898 56.6661 43.2706 56.5608 43.421 56.4191C43.4372 56.4027 43.4566 56.3897 43.4779 56.3808C43.4992 56.3719 43.5221 56.3674 43.5452 56.3674C43.5683 56.3674 43.5912 56.3719 43.6125 56.3808C43.6338 56.3897 43.6532 56.4027 43.6695 56.4191C43.7017 56.4524 43.7198 56.497 43.7198 56.5434C43.7198 56.5898 43.7017 56.6343 43.6695 56.6676C43.4786 56.8483 43.2486 56.9824 42.9975 57.0596L42.945 57.0771ZM40.978 56.6221C40.9371 56.624 40.897 56.6102 40.866 56.5836C40.6737 56.4263 40.501 56.2465 40.3515 56.0481C40.3245 56.0107 40.3131 55.9643 40.3196 55.9186C40.3261 55.8729 40.3501 55.8315 40.3865 55.8031C40.4047 55.7889 40.4256 55.7785 40.4479 55.7725C40.4702 55.7665 40.4935 55.7651 40.5164 55.7684C40.5393 55.7717 40.5613 55.7795 40.5811 55.7915C40.6008 55.8035 40.618 55.8194 40.6315 55.8381C40.7648 56.0133 40.9175 56.173 41.0865 56.3141C41.1045 56.3284 41.1194 56.3461 41.1304 56.3663C41.1414 56.3864 41.1483 56.4086 41.1506 56.4314C41.1528 56.4543 41.1505 56.4774 41.1437 56.4993C41.1369 56.5212 41.1258 56.5416 41.111 56.5591C41.0928 56.5773 41.0708 56.5911 41.0465 56.5995C41.0223 56.608 40.9965 56.611 40.971 56.6081L40.978 56.6221ZM43.862 56.1146H43.834C43.7884 56.1069 43.7476 56.0818 43.7202 56.0445C43.6928 56.0073 43.6809 55.9609 43.687 55.9151C43.6922 55.8616 43.6922 55.8077 43.687 55.7541C43.6851 55.6025 43.6579 55.4523 43.6065 55.3096C43.5911 55.2632 43.5949 55.2126 43.6169 55.169C43.6389 55.1253 43.6773 55.0922 43.7237 55.0769C43.7701 55.0616 43.8207 55.0653 43.8644 55.0873C43.908 55.1093 43.9411 55.1477 43.9565 55.1941C44.0189 55.3744 44.052 55.5634 44.0545 55.7541C44.0595 55.8264 44.0595 55.8989 44.0545 55.9711C44.0467 56.0165 44.0215 56.0569 43.9841 56.0838C43.9468 56.1106 43.9004 56.1217 43.855 56.1146H43.862ZM35.4865 56.0971C35.4428 56.0959 35.4008 56.0799 35.3675 56.0516C35.3511 56.0354 35.338 56.016 35.3292 55.9947C35.3203 55.9734 35.3157 55.9505 35.3157 55.9274C35.3157 55.9043 35.3203 55.8814 35.3292 55.8601C35.338 55.8388 35.3511 55.8194 35.3675 55.8031C35.525 55.6281 35.693 55.4531 35.861 55.2886C35.8944 55.2561 35.9393 55.2383 35.9859 55.2389C36.0325 55.2396 36.077 55.2587 36.1095 55.2921C36.142 55.3256 36.1598 55.3705 36.1592 55.4171C36.1585 55.4637 36.1394 55.5081 36.106 55.5406C35.9415 55.7016 35.7805 55.8661 35.6265 56.0376C35.6084 56.0584 35.5856 56.0746 35.5601 56.085C35.5345 56.0953 35.5069 56.0995 35.4795 56.0971H35.4865ZM40.138 55.5126C40.1042 55.513 40.071 55.5037 40.0425 55.4857C40.0139 55.4677 39.9911 55.4418 39.977 55.4111C39.8753 55.1876 39.8013 54.9526 39.7565 54.7111C39.7481 54.6647 39.7585 54.6169 39.7854 54.5782C39.8124 54.5394 39.8535 54.513 39.9 54.5046C39.9464 54.4963 39.9942 54.5067 40.0329 54.5336C40.0717 54.5605 40.0981 54.6017 40.1065 54.6481C40.1438 54.8654 40.2085 55.0771 40.299 55.2781C40.3179 55.3204 40.3193 55.3684 40.3029 55.4117C40.2865 55.455 40.2536 55.49 40.2115 55.5091C40.1852 55.5164 40.1577 55.5176 40.131 55.5126H40.138ZM36.4945 55.1171C36.4588 55.1168 36.4242 55.1056 36.3951 55.085C36.366 55.0644 36.3439 55.0354 36.3317 55.0019C36.3196 54.9685 36.3179 54.9321 36.327 54.8976C36.336 54.8631 36.3554 54.8323 36.3825 54.8091C36.568 54.6551 36.757 54.5046 36.9495 54.3716C36.968 54.3583 36.989 54.3488 37.0113 54.3437C37.0335 54.3386 37.0566 54.3379 37.079 54.3419C37.1015 54.3458 37.123 54.3541 37.1422 54.3665C37.1615 54.3788 37.178 54.3948 37.191 54.4136C37.2044 54.4324 37.214 54.4537 37.2191 54.4763C37.2243 54.4988 37.2249 54.5221 37.221 54.5449C37.2171 54.5677 37.2087 54.5894 37.1964 54.609C37.184 54.6285 37.1679 54.6454 37.149 54.6586C36.967 54.7846 36.799 54.9281 36.6065 55.0786C36.5732 55.1063 36.5306 55.1201 36.4875 55.1171H36.4945ZM43.4525 54.8091C43.4252 54.8094 43.3984 54.8032 43.374 54.791C43.3497 54.7789 43.3286 54.7611 43.3125 54.7391C43.1891 54.579 43.0456 54.4355 42.8855 54.3121L42.847 54.2841C42.8098 54.2563 42.7853 54.2148 42.7787 54.1689C42.7722 54.1229 42.7841 54.0763 42.812 54.0391C42.8398 54.0022 42.881 53.9776 42.9267 53.9704C42.9724 53.9632 43.0191 53.974 43.057 54.0006L43.099 54.0321C43.2836 54.1754 43.4484 54.3425 43.589 54.5291C43.6097 54.5545 43.6227 54.5853 43.6265 54.6178C43.6303 54.6504 43.6247 54.6834 43.6103 54.7128C43.596 54.7423 43.5735 54.767 43.5455 54.7841C43.5175 54.8011 43.4852 54.8098 43.4525 54.8091ZM37.6425 54.3121C37.6109 54.3126 37.5798 54.3044 37.5527 54.2883C37.5255 54.2722 37.5033 54.249 37.4885 54.2211C37.4667 54.1805 37.4615 54.1331 37.4739 54.0888C37.4863 54.0444 37.5153 54.0066 37.555 53.9831C37.7635 53.864 37.9785 53.7565 38.199 53.6611C38.2401 53.6482 38.2845 53.6509 38.3238 53.6687C38.363 53.6865 38.3943 53.7182 38.4117 53.7576C38.429 53.7971 38.4312 53.8416 38.4178 53.8825C38.4044 53.9235 38.3763 53.9581 38.339 53.9796C38.136 54.0706 37.9295 54.1721 37.7265 54.2876C37.6996 54.3056 37.6677 54.3142 37.6355 54.3121H37.6425ZM39.9 54.1581C39.8539 54.1545 39.8109 54.1332 39.7803 54.0986C39.7496 54.064 39.7335 54.0188 39.7355 53.9726C39.7541 53.7279 39.7951 53.4854 39.858 53.2481C39.8637 53.2258 39.8737 53.2049 39.8876 53.1864C39.9014 53.168 39.9187 53.1525 39.9386 53.1408C39.9584 53.1291 39.9803 53.1214 40.0031 53.1182C40.026 53.115 40.0492 53.1163 40.0715 53.1221C40.1015 53.1306 40.1289 53.1466 40.1509 53.1687C40.173 53.1907 40.189 53.2181 40.1975 53.2481C40.2133 53.2316 40.2324 53.2185 40.2534 53.2095C40.2744 53.2005 40.2971 53.1958 40.32 53.1956H40.432C40.6366 53.1949 40.8412 53.2066 41.0445 53.2306C41.0906 53.2368 41.1326 53.2607 41.1613 53.2973C41.1901 53.3339 41.2034 53.3803 41.1985 53.4266C41.1924 53.4726 41.1683 53.5142 41.1316 53.5424C41.0948 53.5706 41.0484 53.5831 41.0025 53.5771C40.813 53.556 40.6226 53.5455 40.432 53.5456H40.327C40.2941 53.5459 40.2618 53.5372 40.2334 53.5206C40.2051 53.504 40.1818 53.48 40.166 53.4511C40.1255 53.6309 40.0986 53.8134 40.0855 53.9971C40.0819 54.0429 40.0604 54.0855 40.0257 54.1156C39.991 54.1458 39.9458 54.161 39.9 54.1581ZM42.35 53.9691C42.3246 53.9744 42.2984 53.9744 42.273 53.9691C42.0717 53.8712 41.862 53.7915 41.6465 53.7311C41.6 53.7186 41.5605 53.6881 41.5366 53.6465C41.5126 53.6048 41.5062 53.5553 41.5187 53.5089C41.5312 53.4625 41.5617 53.4229 41.6034 53.399C41.6451 53.375 41.6945 53.3686 41.741 53.3811C41.9812 53.449 42.2154 53.5368 42.441 53.6436C42.4819 53.664 42.5132 53.6996 42.5283 53.7427C42.5433 53.7859 42.5409 53.8332 42.5215 53.8746C42.5033 53.9028 42.4776 53.9253 42.4473 53.9395C42.4169 53.9537 42.3832 53.9592 42.35 53.9551V53.9691ZM38.9235 53.7661C38.8855 53.7667 38.8483 53.7547 38.8179 53.7319C38.7875 53.709 38.7655 53.6768 38.7555 53.6401C38.7423 53.596 38.7471 53.5485 38.7687 53.5079C38.7903 53.4673 38.8271 53.4369 38.871 53.4231C39.1001 53.3525 39.334 53.2987 39.571 53.2621C39.5939 53.2585 39.6174 53.2593 39.6401 53.2647C39.6627 53.2701 39.6841 53.2799 39.7029 53.2936C39.7218 53.3072 39.7377 53.3245 39.7499 53.3443C39.7621 53.3641 39.7703 53.3861 39.774 53.4091C39.7776 53.4321 39.7768 53.4556 39.7714 53.4782C39.766 53.5009 39.7562 53.5222 39.7425 53.5411C39.7289 53.5599 39.7116 53.5759 39.6918 53.5881C39.672 53.6003 39.6499 53.6085 39.627 53.6121C39.4034 53.6494 39.1825 53.7008 38.9655 53.7661H38.9235ZM40.25 52.7931C40.2257 52.7979 40.2007 52.7979 40.1765 52.7931C40.1343 52.774 40.1014 52.739 40.085 52.6957C40.0686 52.6524 40.07 52.6044 40.089 52.5621C40.1897 52.3414 40.3067 52.1285 40.439 51.9251C40.4636 51.8857 40.5028 51.8576 40.5481 51.8471C40.5934 51.8366 40.641 51.8445 40.6805 51.8691C40.7199 51.8937 40.748 51.933 40.7585 51.9783C40.769 52.0236 40.7611 52.0712 40.7365 52.1106C40.6163 52.3018 40.5088 52.5005 40.4145 52.7056C40.3984 52.7345 40.3743 52.7581 40.3451 52.7737C40.3159 52.7892 40.2829 52.796 40.25 52.7931ZM40.9885 51.6031C40.949 51.6026 40.9109 51.5891 40.88 51.5646C40.8616 51.5503 40.8463 51.5325 40.8349 51.5121C40.8235 51.4918 40.8163 51.4694 40.8137 51.4463C40.8111 51.4231 40.8132 51.3997 40.8197 51.3773C40.8263 51.355 40.8373 51.3342 40.852 51.3161C40.9955 51.1341 41.1565 50.9661 41.3245 50.7771C41.357 50.7437 41.4014 50.7246 41.448 50.7239C41.4946 50.7233 41.5395 50.7411 41.573 50.7736C41.6064 50.8061 41.6255 50.8506 41.6262 50.8972C41.6268 50.9438 41.609 50.9887 41.5765 51.0221C41.4174 51.1859 41.2667 51.3576 41.125 51.5366C41.1076 51.5578 41.0857 51.5748 41.0608 51.5863C41.036 51.5978 41.0088 51.6036 40.9815 51.6031H40.9885ZM42.098 50.5286L41.9615 50.4166L41.846 50.2836C42.042 50.1156 42.217 49.9721 42.3955 49.8321C42.4322 49.8039 42.4785 49.7914 42.5245 49.7973C42.5704 49.8032 42.6121 49.827 42.6405 49.8636C42.6549 49.8816 42.6655 49.9023 42.6718 49.9245C42.678 49.9467 42.6797 49.97 42.6768 49.9928C42.6739 50.0157 42.6663 50.0377 42.6547 50.0576C42.643 50.0775 42.6275 50.0949 42.609 50.1086C42.4305 50.2451 42.259 50.3816 42.091 50.5286H42.098ZM43.0745 49.7376C43.0456 49.7374 43.0172 49.7302 42.9917 49.7169C42.9661 49.7035 42.9441 49.6842 42.9275 49.6606C42.9019 49.6215 42.8928 49.5739 42.9019 49.5281C42.9111 49.4823 42.9379 49.4419 42.9765 49.4156C43.1725 49.2826 43.372 49.1566 43.5785 49.0376C43.618 49.0144 43.6651 49.0076 43.7096 49.0187C43.7541 49.0298 43.7925 49.058 43.8165 49.0971C43.8399 49.1372 43.8468 49.1849 43.8357 49.2299C43.8246 49.275 43.7963 49.314 43.757 49.3386C43.5586 49.4553 43.3626 49.5778 43.169 49.7061C43.1397 49.7278 43.1039 49.7389 43.0675 49.7376H43.0745ZM44.282 49.0376C44.2496 49.0376 44.2179 49.0288 44.1901 49.0122C44.1624 48.9955 44.1397 48.9717 44.1245 48.9431C44.1037 48.9018 44.1002 48.8539 44.1146 48.81C44.129 48.7661 44.1602 48.7296 44.2015 48.7086C44.415 48.6001 44.6285 48.4986 44.8455 48.4006C44.8882 48.3829 44.9363 48.3824 44.9794 48.3994C45.0225 48.4164 45.0573 48.4494 45.0765 48.4916C45.0857 48.5128 45.0907 48.5355 45.0912 48.5586C45.0916 48.5817 45.0875 48.6046 45.079 48.6261C45.0706 48.6475 45.0579 48.6671 45.0419 48.6837C45.0258 48.7003 45.0067 48.7135 44.9855 48.7226C44.7755 48.8136 44.5655 48.9151 44.3625 49.0201C44.3338 49.027 44.3041 49.0282 44.275 49.0236L44.282 49.0376ZM45.5665 48.4706C45.52 48.479 45.4722 48.4686 45.4335 48.4416C45.3948 48.4147 45.3683 48.3735 45.36 48.3271C45.3516 48.2807 45.362 48.2329 45.3889 48.1942C45.4159 48.1554 45.457 48.129 45.5035 48.1206C45.724 48.0366 45.948 47.9596 46.1755 47.8861C46.2196 47.8718 46.2675 47.8755 46.3089 47.8965C46.3502 47.9175 46.3815 47.9541 46.396 47.9981C46.4092 48.0427 46.4046 48.0907 46.383 48.1318C46.3614 48.173 46.3246 48.2042 46.2805 48.2186C46.06 48.2886 45.843 48.3656 45.626 48.4461C45.6053 48.4562 45.5822 48.4598 45.5595 48.4566L45.5665 48.4706ZM46.9 48.0366C46.862 48.0372 46.8248 48.0252 46.7944 48.0024C46.764 47.9795 46.742 47.9473 46.732 47.9106C46.7201 47.8656 46.7262 47.8178 46.7491 47.7772C46.772 47.7367 46.8098 47.7067 46.8545 47.6936C47.082 47.6341 47.313 47.5746 47.5545 47.5256C47.577 47.5205 47.6003 47.5198 47.6231 47.5237C47.6459 47.5276 47.6677 47.536 47.6872 47.5484C47.7067 47.5607 47.7236 47.5768 47.7368 47.5958C47.7501 47.6147 47.7595 47.6361 47.7645 47.6586C47.7696 47.6809 47.7702 47.704 47.7663 47.7266C47.7623 47.7491 47.7539 47.7707 47.7415 47.7899C47.7291 47.8092 47.713 47.8257 47.6941 47.8387C47.6752 47.8516 47.6539 47.8606 47.6315 47.8651C47.404 47.9176 47.18 47.9701 46.956 48.0331L46.9 48.0366ZM55.965 47.7706H55.937L55.237 47.6726C55.2144 47.67 55.1925 47.663 55.1727 47.6519C55.1529 47.6407 55.1354 47.6258 55.1214 47.6079C55.1074 47.59 55.0971 47.5695 55.0911 47.5475C55.0851 47.5256 55.0835 47.5027 55.0865 47.4801C55.0926 47.434 55.1165 47.392 55.1531 47.3633C55.1897 47.3345 55.2362 47.3212 55.2825 47.3261L55.9825 47.4241C56.0289 47.4274 56.0721 47.4489 56.1026 47.4841C56.1331 47.5192 56.1485 47.565 56.1452 47.6114C56.142 47.6578 56.1204 47.701 56.0853 47.7315C56.0502 47.7621 56.0044 47.7774 55.958 47.7741L55.965 47.7706ZM48.265 47.7321C48.242 47.7342 48.2188 47.7317 48.1968 47.7248C48.1748 47.718 48.1543 47.7068 48.1366 47.692C48.1008 47.6621 48.0784 47.6193 48.0742 47.5729C48.07 47.5265 48.0845 47.4803 48.1143 47.4445C48.1442 47.4088 48.187 47.3863 48.2335 47.3821C48.4645 47.3401 48.699 47.3051 48.9335 47.2701C48.9798 47.2641 49.0266 47.2765 49.0639 47.3046C49.1012 47.3328 49.126 47.3744 49.133 47.4206C49.1389 47.4666 49.1264 47.513 49.0982 47.5497C49.07 47.5865 49.0284 47.6105 48.9825 47.6166L48.2825 47.7251L48.265 47.7321ZM54.565 47.5886H54.544L53.844 47.5221C53.7975 47.5184 53.7545 47.4964 53.7243 47.461C53.6941 47.4255 53.6792 47.3795 53.683 47.3331C53.6867 47.2867 53.7087 47.2437 53.7441 47.2135C53.7796 47.1833 53.8255 47.1684 53.872 47.1721C54.1065 47.1896 54.341 47.2106 54.572 47.2386C54.6178 47.2439 54.6598 47.2671 54.6886 47.3032C54.7175 47.3392 54.7309 47.3852 54.726 47.4311C54.7196 47.4699 54.7001 47.5052 54.6708 47.5314C54.6415 47.5575 54.6042 47.5727 54.565 47.5746V47.5886ZM49.665 47.5396C49.6185 47.542 49.5731 47.5257 49.5387 47.4946C49.5042 47.4634 49.4835 47.4198 49.4812 47.3734C49.4789 47.327 49.4951 47.2815 49.5263 47.2471C49.5575 47.2126 49.601 47.192 49.6475 47.1896C49.882 47.1651 50.12 47.1441 50.3475 47.1301C50.3707 47.1277 50.3941 47.1301 50.4163 47.1373C50.4385 47.1444 50.459 47.156 50.4764 47.1715C50.4939 47.187 50.5079 47.2059 50.5177 47.2271C50.5274 47.2483 50.5326 47.2713 50.533 47.2946C50.5359 47.3405 50.5206 47.3857 50.4905 47.4204C50.4603 47.4551 50.4178 47.4765 50.372 47.4801C50.1375 47.4801 49.9065 47.5151 49.672 47.5361L49.665 47.5396ZM53.165 47.4766C52.934 47.4766 52.6995 47.4556 52.465 47.4486C52.442 47.4482 52.4193 47.4432 52.3982 47.434C52.3772 47.4248 52.3582 47.4115 52.3422 47.3949C52.3263 47.3783 52.3138 47.3588 52.3054 47.3374C52.2971 47.316 52.293 47.2931 52.2935 47.2701C52.2969 47.2246 52.317 47.1819 52.3499 47.1503C52.3829 47.1186 52.4263 47.1002 52.472 47.0986C52.71 47.0986 52.9445 47.0986 53.172 47.1266C53.2187 47.1293 53.2625 47.1503 53.2939 47.185C53.3253 47.2197 53.3419 47.2654 53.34 47.3121C53.334 47.3542 53.313 47.3926 53.2808 47.4203C53.2486 47.448 53.2074 47.463 53.165 47.4626V47.4766ZM51.065 47.4486C51.0185 47.4486 50.974 47.4302 50.9412 47.3974C50.9084 47.3646 50.89 47.32 50.89 47.2736C50.89 47.2272 50.9084 47.1827 50.9412 47.1499C50.974 47.1171 51.0185 47.0986 51.065 47.0986H51.765C51.8114 47.0986 51.8559 47.1171 51.8887 47.1499C51.9215 47.1827 51.94 47.2272 51.94 47.2736C51.9404 47.2964 51.9363 47.3191 51.9279 47.3403C51.9195 47.3615 51.907 47.3809 51.891 47.3972C51.875 47.4135 51.8559 47.4264 51.8349 47.4352C51.8139 47.4441 51.7913 47.4486 51.7685 47.4486C51.534 47.4486 51.303 47.4486 51.0685 47.4486H51.065Z" fill="#D0D3D9"/>
<path d="M32.8194 60.6233H32.7634C32.72 60.6081 32.6843 60.5765 32.664 60.5353C32.6437 60.494 32.6404 60.4464 32.6549 60.4028C32.6934 60.2908 32.7319 60.1788 32.7739 60.0528C32.7904 60.0098 32.8232 59.975 32.8651 59.956C32.907 59.937 32.9548 59.9353 32.9979 59.9513C33.0416 59.9671 33.0771 59.9995 33.0968 60.0415C33.1165 60.0835 33.1187 60.1316 33.1029 60.1753C33.0609 60.2849 33.0224 60.3934 32.9874 60.5008C32.9762 60.5365 32.9538 60.5676 32.9236 60.5897C32.8934 60.6117 32.8569 60.6235 32.8194 60.6233Z" fill="#D0D3D9"/>
<path d="M52.5664 42.703C52.5257 42.7022 52.4865 42.6876 52.4554 42.6615C52.4242 42.6354 52.4028 42.5994 52.3949 42.5595C52.3867 42.5141 52.3968 42.4672 52.423 42.4292C52.4493 42.3912 52.4895 42.3651 52.5349 42.3565C52.6427 42.3337 52.7481 42.3008 52.8499 42.2585C52.8712 42.25 52.8941 42.2458 52.9171 42.2461C52.9401 42.2464 52.9628 42.2513 52.9839 42.2604C53.0051 42.2695 53.0242 42.2827 53.0402 42.2992C53.0563 42.3157 53.0689 42.3352 53.0774 42.3565C53.0936 42.3998 53.0925 42.4476 53.0742 42.4901C53.056 42.5325 53.022 42.5662 52.9794 42.584C52.8601 42.6296 52.7372 42.6648 52.6119 42.689L52.5664 42.703Z" fill="#D0D3D9"/>
<path d="M51.8806 42.7277C51.6438 42.7018 51.4097 42.6561 51.1806 42.5912C51.1576 42.5852 51.136 42.5748 51.1171 42.5604C51.0981 42.5461 51.0822 42.5282 51.0701 42.5077C51.0581 42.4873 51.0502 42.4646 51.047 42.4411C51.0437 42.4176 51.0451 42.3937 51.0511 42.3707C51.057 42.3477 51.0675 42.3261 51.0818 42.3072C51.0961 42.2882 51.114 42.2723 51.1345 42.2603C51.155 42.2482 51.1776 42.2404 51.2011 42.2371C51.2246 42.2338 51.2486 42.2352 51.2716 42.2412C51.4848 42.2998 51.7026 42.3408 51.9226 42.3637C51.9456 42.3659 51.968 42.3726 51.9884 42.3835C52.0088 42.3944 52.0268 42.4092 52.0415 42.4271C52.0561 42.445 52.0671 42.4656 52.0737 42.4878C52.0803 42.5099 52.0825 42.5332 52.0801 42.5562C52.0804 42.5813 52.0752 42.6061 52.0649 42.629C52.0546 42.6518 52.0394 42.6722 52.0204 42.6885C52.0014 42.7049 51.979 42.7169 51.9548 42.7236C51.9307 42.7304 51.9053 42.7318 51.8806 42.7277ZM50.5401 42.3777C50.5204 42.381 50.5003 42.381 50.4806 42.3777L49.8296 42.1432C49.8073 42.1358 49.7868 42.1241 49.7692 42.1087C49.7516 42.0933 49.7372 42.0745 49.727 42.0535C49.7168 42.0325 49.7109 42.0096 49.7097 41.9862C49.7084 41.9628 49.7119 41.9395 49.7198 41.9175C49.7278 41.8955 49.7401 41.8753 49.756 41.8581C49.7719 41.8409 49.7911 41.8271 49.8124 41.8175C49.8337 41.8079 49.8567 41.8026 49.8801 41.802C49.9035 41.8015 49.9268 41.8056 49.9486 41.8142L50.5996 42.0487C50.6225 42.0526 50.6445 42.061 50.6643 42.0734C50.684 42.0858 50.7011 42.102 50.7146 42.121C50.7281 42.14 50.7377 42.1615 50.7429 42.1842C50.7481 42.2069 50.7487 42.2304 50.7448 42.2534C50.7409 42.2764 50.7325 42.2984 50.7201 42.3181C50.7077 42.3379 50.6915 42.355 50.6725 42.3685C50.6535 42.3819 50.632 42.3916 50.6093 42.3967C50.5866 42.4019 50.563 42.4026 50.5401 42.3987V42.3777ZM49.2381 41.9087C49.2184 41.912 49.1983 41.912 49.1786 41.9087L48.5276 41.6637C48.506 41.6559 48.4862 41.6439 48.4694 41.6283C48.4525 41.6128 48.439 41.594 48.4295 41.5731C48.42 41.5522 48.4149 41.5297 48.4143 41.5067C48.4137 41.4838 48.4177 41.461 48.4261 41.4397C48.4342 41.418 48.4466 41.3981 48.4625 41.3812C48.4784 41.3644 48.4974 41.3508 48.5186 41.3414C48.5398 41.3319 48.5626 41.3268 48.5858 41.3262C48.6089 41.3257 48.632 41.3297 48.6536 41.3382L49.3011 41.5797C49.344 41.5962 49.3788 41.6289 49.3978 41.6708C49.4168 41.7128 49.4185 41.7605 49.4026 41.8037C49.3895 41.8361 49.3666 41.8637 49.3371 41.8825C49.3076 41.9013 49.273 41.9105 49.2381 41.9087ZM47.9501 41.4222C47.9282 41.4274 47.9054 41.4274 47.8836 41.4222C47.6701 41.3382 47.4531 41.2507 47.2396 41.1597C47.1976 41.1412 47.1644 41.1072 47.1468 41.0648C47.1292 41.0225 47.1286 40.975 47.1451 40.9322C47.1643 40.8899 47.1989 40.8567 47.2418 40.8391C47.2847 40.8215 47.3328 40.821 47.3761 40.8377C47.5861 40.9287 47.7996 41.0127 48.0131 41.0967C48.0344 41.1052 48.054 41.1178 48.0705 41.1338C48.087 41.1498 48.1001 41.169 48.1092 41.1901C48.1183 41.2112 48.1232 41.2339 48.1235 41.257C48.1238 41.28 48.1196 41.3028 48.1111 41.3242C48.0967 41.3544 48.0738 41.3799 48.0452 41.3973C48.0166 41.4147 47.9835 41.4233 47.9501 41.4222ZM46.6726 40.8867C46.6495 40.8919 46.6256 40.8919 46.6026 40.8867L45.9691 40.5962C45.948 40.5864 45.9292 40.5726 45.9136 40.5555C45.8979 40.5383 45.8859 40.5183 45.878 40.4965C45.8702 40.4747 45.8668 40.4515 45.868 40.4284C45.8692 40.4052 45.875 40.3826 45.8851 40.3617C45.9055 40.3199 45.9414 40.2877 45.9852 40.272C46.029 40.2563 46.0772 40.2583 46.1196 40.2777C46.3261 40.3792 46.5326 40.4737 46.7426 40.5647C46.789 40.574 46.8298 40.6013 46.8561 40.6407C46.8823 40.6801 46.8918 40.7283 46.8826 40.7747C46.8733 40.8211 46.8459 40.8619 46.8066 40.8882C46.7672 40.9144 46.719 40.924 46.6726 40.9147V40.8867ZM45.4231 40.2917C45.3949 40.2918 45.3671 40.2846 45.3426 40.2707C45.1361 40.1657 44.9296 40.0572 44.7266 39.9417C44.7062 39.9307 44.6883 39.9158 44.6739 39.8978C44.6595 39.8798 44.6489 39.859 44.6427 39.8368C44.6365 39.8146 44.6348 39.7914 44.6378 39.7685C44.6408 39.7456 44.6484 39.7236 44.6601 39.7037C44.6829 39.6633 44.7207 39.6337 44.7653 39.6212C44.8099 39.6088 44.8577 39.6145 44.8981 39.6372C45.0976 39.7492 45.3006 39.8577 45.5036 39.9627C45.524 39.973 45.5422 39.9873 45.557 40.0048C45.5718 40.0223 45.5829 40.0426 45.5898 40.0644C45.5966 40.0863 45.5991 40.1093 45.5969 40.1321C45.5947 40.1549 45.5879 40.177 45.5771 40.1972C45.5621 40.226 45.5395 40.2501 45.5117 40.2667C45.4839 40.2834 45.452 40.2921 45.4196 40.2917H45.4231ZM44.2156 39.6162C44.1837 39.6151 44.1526 39.6067 44.1246 39.5917C43.9251 39.4692 43.7291 39.3432 43.5331 39.2137C43.5139 39.2007 43.4974 39.184 43.4847 39.1646C43.472 39.1452 43.4633 39.1235 43.4591 39.1007C43.4548 39.0779 43.4552 39.0545 43.4601 39.0318C43.465 39.0092 43.4743 38.9877 43.4876 38.9687C43.5002 38.9496 43.5166 38.9332 43.5357 38.9206C43.5548 38.9079 43.5762 38.8992 43.5987 38.895C43.6212 38.8907 43.6444 38.891 43.6667 38.8959C43.6891 38.9007 43.7103 38.91 43.7291 38.9232C43.9181 39.0492 44.1106 39.1658 44.3066 39.2732C44.3397 39.2928 44.3654 39.3228 44.3797 39.3585C44.394 39.3943 44.3962 39.4337 44.3858 39.4708C44.3754 39.5079 44.3532 39.5405 44.3224 39.5636C44.2916 39.5867 44.2541 39.5991 44.2156 39.5987V39.6162ZM43.0501 38.8427C43.0121 38.8435 42.975 38.8311 42.9451 38.8077L42.7351 38.6467C42.6196 38.5592 42.5041 38.4682 42.3851 38.3737C42.3674 38.359 42.3527 38.3409 42.342 38.3206C42.3313 38.3002 42.3247 38.2779 42.3226 38.255C42.3205 38.2321 42.3229 38.209 42.3297 38.187C42.3365 38.165 42.3476 38.1446 42.3623 38.1269C42.377 38.1092 42.3951 38.0946 42.4154 38.0839C42.4358 38.0732 42.4581 38.0666 42.481 38.0644C42.5039 38.0623 42.527 38.0648 42.549 38.0716C42.5709 38.0784 42.5914 38.0895 42.6091 38.1042C42.7211 38.1952 42.8296 38.2862 42.9591 38.3702L43.1656 38.5277C43.1949 38.5497 43.2167 38.5804 43.2276 38.6155C43.2386 38.6506 43.2382 38.6882 43.2266 38.723C43.215 38.7579 43.1927 38.7882 43.1629 38.8096C43.1331 38.8311 43.0973 38.8427 43.0606 38.8427H43.0501ZM42.0001 37.9572C41.9557 37.9562 41.9133 37.9387 41.8811 37.9082C41.7096 37.7472 41.5311 37.5827 41.3841 37.4112C41.3678 37.3952 41.3548 37.3761 41.346 37.3551C41.3371 37.3341 41.3326 37.3115 41.3326 37.2887C41.3326 37.2659 41.3371 37.2433 41.346 37.2222C41.3548 37.2012 41.3678 37.1821 41.3841 37.1662C41.4003 37.1498 41.4197 37.1367 41.441 37.1279C41.4623 37.119 41.4852 37.1144 41.5083 37.1144C41.5314 37.1144 41.5543 37.119 41.5756 37.1279C41.5969 37.1367 41.6163 37.1498 41.6326 37.1662C41.7866 37.3307 41.9476 37.4917 42.1156 37.6457C42.132 37.6619 42.145 37.6813 42.1539 37.7026C42.1628 37.7239 42.1673 37.7468 42.1673 37.7699C42.1673 37.793 42.1628 37.8159 42.1539 37.8372C42.145 37.8585 42.132 37.8779 42.1156 37.8942C42.1014 37.9118 42.0839 37.9264 42.0641 37.9372C42.0443 37.948 42.0225 37.9548 42.0001 37.9572ZM41.0516 36.9492C41.0261 36.9495 41.0008 36.9439 40.9778 36.933C40.9548 36.9221 40.9345 36.9061 40.9186 36.8862C40.7681 36.7077 40.6211 36.5362 40.4846 36.3332C40.458 36.2953 40.4471 36.2486 40.4543 36.2029C40.4615 36.1572 40.4861 36.1161 40.5231 36.0882C40.5417 36.0746 40.5628 36.0648 40.5852 36.0593C40.6075 36.0539 40.6308 36.053 40.6536 36.0565C40.6763 36.0601 40.6982 36.0681 40.7178 36.0802C40.7375 36.0922 40.7545 36.108 40.7681 36.1267C40.9011 36.3087 41.0411 36.4767 41.1846 36.6622C41.2142 36.6981 41.2286 36.7443 41.2247 36.7907C41.2207 36.8371 41.1988 36.8802 41.1636 36.9107C41.1313 36.9352 41.0921 36.9487 41.0516 36.9492ZM40.2396 35.8292C40.2097 35.8294 40.1804 35.8221 40.1541 35.8081C40.1278 35.794 40.1054 35.7736 40.0891 35.7487C39.9631 35.5492 39.8441 35.3427 39.7391 35.1362C39.7177 35.0949 39.7136 35.0468 39.7278 35.0025C39.7419 34.9582 39.773 34.9213 39.8143 34.8999C39.8556 34.8786 39.9037 34.8745 39.948 34.8886C39.9923 34.9027 40.0292 34.9339 40.0506 34.9752C40.1556 35.1712 40.2676 35.3672 40.4006 35.5632C40.4128 35.5827 40.421 35.6044 40.4248 35.6272C40.4286 35.6499 40.4279 35.6731 40.4227 35.6955C40.4175 35.718 40.4079 35.7392 40.3945 35.7579C40.3811 35.7766 40.3641 35.7925 40.3446 35.8047C40.3162 35.822 40.2833 35.8305 40.2501 35.8292H40.2396ZM39.5921 34.6077C39.5579 34.6078 39.5245 34.5979 39.4959 34.5793C39.4672 34.5606 39.4447 34.534 39.4311 34.5027C39.3354 34.281 39.2514 34.0605 39.1791 33.8412C39.1684 33.8189 39.1625 33.7946 39.1619 33.7698C39.1613 33.7451 39.166 33.7205 39.1756 33.6977C39.1851 33.6749 39.1995 33.6544 39.2175 33.6376C39.2356 33.6207 39.2571 33.6079 39.2805 33.5999C39.3039 33.5919 39.3287 33.589 39.3534 33.5913C39.378 33.5937 39.4018 33.6012 39.4233 33.6134C39.4448 33.6256 39.4635 33.6422 39.4781 33.6622C39.4927 33.6822 39.5029 33.705 39.5081 33.7292C39.5781 33.9392 39.6621 34.1527 39.7531 34.3627C39.7708 34.4055 39.7713 34.4535 39.7543 34.4966C39.7373 34.5397 39.7042 34.5745 39.6621 34.5937C39.6395 34.6017 39.6159 34.6064 39.5921 34.6077ZM39.1511 33.2952C39.1121 33.2954 39.0743 33.2823 39.0437 33.2581C39.0132 33.234 38.9918 33.2001 38.9831 33.1622C38.9268 32.9313 38.8824 32.6976 38.8501 32.4622C38.8466 32.4394 38.8478 32.4161 38.8536 32.3937C38.8594 32.3714 38.8696 32.3505 38.8836 32.3322C38.8977 32.3139 38.9153 32.2986 38.9354 32.2872C38.9555 32.2759 38.9776 32.2687 39.0006 32.2662C39.046 32.2601 39.0919 32.2722 39.1286 32.2996C39.1652 32.3271 39.1896 32.3679 39.1966 32.4132C39.2281 32.6337 39.2701 32.8577 39.3226 33.0782C39.3322 33.1231 39.3241 33.17 39.2999 33.2091C39.2758 33.2483 39.2375 33.2766 39.1931 33.2882L39.1511 33.2952Z" fill="#D0D3D9"/>
<path d="M38.9618 31.9193C38.9166 31.9194 38.8731 31.9019 38.8405 31.8706C38.8078 31.8393 38.7886 31.7965 38.7868 31.7513C38.7868 31.6323 38.7868 31.5133 38.7868 31.4013C38.7858 31.3782 38.7896 31.3552 38.7981 31.3337C38.8066 31.3122 38.8195 31.2927 38.836 31.2765C38.8525 31.2603 38.8722 31.2478 38.8939 31.2398C38.9156 31.2317 38.9387 31.2283 38.9618 31.2298C39.0082 31.2298 39.0527 31.2483 39.0855 31.2811C39.1183 31.3139 39.1368 31.3584 39.1368 31.4048C39.1368 31.5203 39.1368 31.6323 39.1368 31.7548C39.1377 31.7778 39.1341 31.8008 39.1262 31.8224C39.1182 31.844 39.1061 31.8638 39.0905 31.8807C39.0749 31.8976 39.0561 31.9112 39.0352 31.9209C39.0144 31.9305 38.9918 31.9359 38.9688 31.9368L38.9618 31.9193Z" fill="#D0D3D9"/>
<path d="M39.361 27.1173C40.4051 26.1913 41.1365 24.9643 41.4543 23.6053C41.7721 22.2464 41.6607 20.8223 41.1355 19.5293C41.1355 19.5293 38.6855 19.5923 37.884 22.4518C37.0825 25.3113 39.361 27.1173 39.361 27.1173Z" fill="white"/>
<path d="M39.361 27.2925C39.3213 27.2938 39.2825 27.2801 39.2525 27.254C39.228 27.254 36.904 25.3465 37.7125 22.4065C38.521 19.4665 41.104 19.3545 41.132 19.3545C41.1683 19.3548 41.2037 19.3659 41.2337 19.3865C41.2636 19.4071 41.2867 19.4362 41.3 19.47C41.8303 20.7985 41.939 22.258 41.6116 23.6505C41.2841 25.043 40.5363 26.301 39.4695 27.254C39.4395 27.2801 39.4007 27.2938 39.361 27.2925ZM41.0165 19.715C40.5195 19.771 38.703 20.1315 38.052 22.515C37.401 24.8985 38.934 26.5015 39.361 26.9005C40.3319 26.0112 41.01 24.8481 41.3056 23.5651C41.6012 22.282 41.5004 20.9395 41.0165 19.715Z" fill="#D0D3D9"/>
<path d="M39.6724 28.9335C39.637 28.9333 39.6024 28.9225 39.5731 28.9026C39.5438 28.8826 39.5211 28.8544 39.5079 28.8215C38.1079 25.0485 40.8624 19.676 40.9779 19.4485C41.0002 19.4077 41.0375 19.3771 41.082 19.3634C41.1264 19.3497 41.1745 19.3539 41.2159 19.375C41.2565 19.3966 41.287 19.4333 41.3007 19.4772C41.3145 19.5211 41.3104 19.5686 41.2894 19.6095C41.2614 19.6655 38.4894 25.073 39.8369 28.7095C39.8453 28.7309 39.8493 28.7537 39.8487 28.7766C39.8481 28.7995 39.8429 28.8221 39.8335 28.843C39.824 28.8639 39.8104 28.8826 39.7936 28.8982C39.7768 28.9138 39.757 28.9258 39.7354 28.9335C39.7145 28.9369 39.6933 28.9369 39.6724 28.9335Z" fill="#D0D3D9"/>
<path d="M35.0666 62.709C36.1103 63.6353 36.8413 64.8623 37.1591 66.2211C37.4768 67.58 37.3657 69.0039 36.8411 70.297C36.8411 70.297 34.3911 70.2375 33.5896 67.3745C32.7881 64.5115 35.0666 62.709 35.0666 62.709Z" fill="white"/>
<path d="M36.841 70.4718C36.8165 70.4718 34.237 70.3738 33.425 67.4198C32.613 64.4658 34.937 62.5898 34.9615 62.5723C34.9927 62.547 35.0316 62.5332 35.0718 62.5332C35.1119 62.5332 35.1508 62.547 35.182 62.5723C36.2481 63.5265 36.9951 64.7854 37.3219 66.1783C37.6487 67.5713 37.5395 69.031 37.009 70.3598C36.996 70.3935 36.9729 70.4224 36.9428 70.4425C36.9127 70.4625 36.8771 70.4728 36.841 70.4718ZM35.0665 62.9398C34.4637 63.478 34.0222 64.1729 33.7911 64.9472C33.56 65.7215 33.5483 66.5448 33.7575 67.3253C34.412 69.6948 36.2285 70.0588 36.722 70.1253C37.1923 68.8988 37.286 67.5599 36.9911 66.2798C36.6962 64.9998 36.0261 63.8369 35.0665 62.9398Z" fill="#D0D3D9"/>
<path d="M36.8408 70.4724C36.809 70.4722 36.7778 70.4632 36.7507 70.4466C36.7236 70.4299 36.7015 70.4062 36.6868 70.3779C36.5678 70.1504 33.8273 64.7779 35.2168 61.0049C35.2333 60.9619 35.2661 60.9272 35.308 60.9082C35.3499 60.8892 35.3977 60.8875 35.4408 60.9034C35.4845 60.9192 35.52 60.9517 35.5397 60.9937C35.5594 61.0357 35.5616 61.0838 35.5458 61.1274C34.2088 64.7569 36.9703 70.1644 36.9983 70.2274C37.0191 70.2687 37.0226 70.3166 37.0082 70.3605C36.9938 70.4045 36.9625 70.4409 36.9213 70.4619C36.8958 70.4722 36.8681 70.4758 36.8408 70.4724Z" fill="#D0D3D9"/>
<path d="M36.4489 41.6175C35.34 42.4648 33.9958 42.9477 32.6013 42.9997C31.2067 43.0517 29.8303 42.6703 28.6614 41.908C28.6614 41.908 29.1899 39.5035 32.1614 39.276C35.1329 39.0485 36.4489 41.6175 36.4489 41.6175Z" fill="white"/>
<path d="M32.3365 43.1826C30.9995 43.1686 29.6934 42.7794 28.567 42.0591C28.5362 42.0402 28.5123 42.0121 28.4985 41.9788C28.4846 41.9455 28.4817 41.9087 28.49 41.8736C28.49 41.8456 29.0815 39.3361 32.137 39.1016C35.1925 38.8671 36.589 41.5096 36.603 41.5516C36.6217 41.5866 36.6278 41.627 36.6201 41.6659C36.6125 41.7048 36.5916 41.7399 36.561 41.7651C35.3398 42.6758 33.8597 43.1724 32.3365 43.1826ZM28.8645 41.8281C29.9721 42.5328 31.2671 42.8856 32.5791 42.84C33.891 42.7943 35.1584 42.3525 36.2145 41.5726C35.8006 40.8806 35.2032 40.3167 34.4884 39.9435C33.7736 39.5704 32.9693 39.4025 32.165 39.4586C29.715 39.6371 29.0115 41.3521 28.8645 41.8281Z" fill="#D0D3D9"/>
<path d="M37.9995 42.4127C37.9674 42.4134 37.9358 42.4049 37.9085 42.3882C34.6045 40.3827 28.77 42.0592 28.7105 42.0767C28.6641 42.0897 28.6144 42.0837 28.5724 42.0601C28.5304 42.0365 28.4995 41.9971 28.4865 41.9507C28.4735 41.9043 28.4794 41.8546 28.5031 41.8126C28.5267 41.7706 28.5661 41.7397 28.6125 41.7267C28.8575 41.6567 34.65 39.9767 38.0905 42.0767C38.1219 42.097 38.1461 42.1269 38.1593 42.1619C38.1725 42.1969 38.1742 42.2353 38.164 42.2713C38.1538 42.3074 38.1323 42.3392 38.1027 42.3621C38.0731 42.385 38.0369 42.3979 37.9995 42.3987V42.4127Z" fill="#D0D3D9"/>
</svg>
