<svg id="e73Uh42KxDC1" xmlns="http://www.w3.org/2000/svg" xmlns:xlink="http://www.w3.org/1999/xlink" viewBox="0 0 406 306" shape-rendering="geometricPrecision" text-rendering="geometricPrecision" width="406" height="306"><style><![CDATA[#e73Uh42KxDC52_tr {animation: e73Uh42KxDC52_tr__tr 3000ms linear infinite normal forwards}@keyframes e73Uh42KxDC52_tr__tr { 0% {transform: translate(323.776368px,216.991440px) rotate(0deg);animation-timing-function: cubic-bezier(0.420000,0,0.580000,1)} 50% {transform: translate(323.776368px,216.991440px) rotate(-6.174675deg);animation-timing-function: cubic-bezier(0.420000,0,0.580000,1)} 100% {transform: translate(323.776368px,216.991440px) rotate(0deg)}} #e73Uh42KxDC53_tr {animation: e73Uh42KxDC53_tr__tr 3000ms linear infinite normal forwards}@keyframes e73Uh42KxDC53_tr__tr { 0% {transform: translate(332.942826px,215.271957px) rotate(0deg);animation-timing-function: cubic-bezier(0.420000,0,0.580000,1)} 50% {transform: translate(332.942826px,215.271957px) rotate(4.574885deg);animation-timing-function: cubic-bezier(0.420000,0,0.580000,1)} 100% {transform: translate(332.942826px,215.271957px) rotate(0deg)}} #e73Uh42KxDC54_tr {animation: e73Uh42KxDC54_tr__tr 3000ms linear infinite normal forwards}@keyframes e73Uh42KxDC54_tr__tr { 0% {transform: translate(327.002500px,201.037109px) rotate(0deg);animation-timing-function: cubic-bezier(0.420000,0,0.580000,1)} 50% {transform: translate(327.002500px,201.037109px) rotate(4.861562deg);animation-timing-function: cubic-bezier(0.420000,0,0.580000,1)} 100% {transform: translate(327.002500px,201.037109px) rotate(0deg)}}]]></style><path id="e73Uh42KxDC2" d="M352.591000,244.157000L53.409400,244.157000C53.274800,244.157000,53.145700,244.104000,53.050500,244.008000C52.955300,243.913000,52.901900,243.784000,52.901900,243.650000C52.901900,243.515000,52.955300,243.386000,53.050500,243.291000C53.145700,243.196000,53.274800,243.142000,53.409400,243.142000L352.591000,243.142000C352.725000,243.142000,352.854000,243.196000,352.950000,243.291000C353.045000,243.386000,353.098000,243.515000,353.098000,243.650000C353.098000,243.784000,353.045000,243.913000,352.950000,244.008000C352.854000,244.104000,352.725000,244.157000,352.591000,244.157000Z" fill="rgb(208,211,217)" stroke="none" stroke-width="1"/><path id="e73Uh42KxDC3" d="M69,88.999500L337,88.999500L337,207C337,213.075000,332.075000,218,326,218L69,218L69,88.999500Z" fill="rgb(255,255,255)" stroke="none" stroke-width="1"/><path id="e73Uh42KxDC4" d="M325.663000,218.975000L80.337300,218.975000C77.170600,218.972000,74.134600,217.712000,71.896400,215.472000C69.658100,213.232000,68.400900,210.195000,68.400900,207.028000L68.400900,56.189200C68.400900,53.022600,69.658100,49.985400,71.896400,47.745300C74.134600,45.505200,77.170600,44.245400,80.337300,44.242700L325.663000,44.242700C328.829000,44.245400,331.865000,45.505200,334.104000,47.745300C336.342000,49.985400,337.599000,53.022600,337.599000,56.189200L337.599000,207.018000C337.601000,208.587000,337.293000,210.141000,336.694000,211.591000C336.095000,213.041000,335.216000,214.358000,334.107000,215.469000C332.999000,216.579000,331.683000,217.460000,330.234000,218.062000C328.785000,218.663000,327.232000,218.974000,325.663000,218.975000L325.663000,218.975000ZM80.337300,45.257700C77.440600,45.263000,74.664300,46.416800,72.617000,48.466000C70.569700,50.515200,69.418600,53.292600,69.415900,56.189200L69.415900,207.018000C69.415900,209.917000,70.565900,212.697000,72.613400,214.748000C74.661000,216.799000,77.438900,217.955000,80.337300,217.960000L325.663000,217.960000C328.559000,217.955000,331.336000,216.801000,333.383000,214.752000C335.430000,212.702000,336.581000,209.925000,336.584000,207.028000L336.584000,56.189200C336.581000,53.292600,335.430000,50.515200,333.383000,48.466000C331.336000,46.416800,328.559000,45.263000,325.663000,45.257700L80.337300,45.257700Z" fill="rgb(78,86,102)" stroke="none" stroke-width="1"/><path id="e73Uh42KxDC5" d="M337.092000,56.189300L337.092000,64.360000L68.908400,64.360000L68.908400,56.189300C68.908400,53.157200,70.112200,50.249200,72.255300,48.104300C74.398300,45.959300,77.305300,44.752900,80.337300,44.750200L325.663000,44.750200C328.695000,44.752900,331.602000,45.959300,333.745000,48.104300C335.888000,50.249200,337.092000,53.157200,337.092000,56.189300Z" fill="rgb(78,86,102)" stroke="none" stroke-width="1"/><path id="e73Uh42KxDC6" d="M337.092000,64.806500L68.908500,64.806500C68.790100,64.806500,68.676500,64.759400,68.592700,64.675700C68.509000,64.591900,68.461900,64.478300,68.461900,64.359900L68.461900,56.189100C68.464600,53.039400,69.716300,50.019400,71.942500,47.791200C74.168700,45.563100,77.187700,44.308800,80.337400,44.303500L325.663000,44.303500C328.813000,44.308800,331.832000,45.563100,334.058000,47.791200C336.284000,50.019400,337.536000,53.039400,337.538000,56.189100L337.538000,64.359900C337.538000,64.478300,337.491000,64.591900,337.408000,64.675700C337.324000,64.759400,337.210000,64.806500,337.092000,64.806500L337.092000,64.806500ZM69.355100,63.913300L336.645000,63.913300L336.645000,56.189100C336.643000,53.276300,335.485000,50.483400,333.426000,48.422800C331.368000,46.362200,328.576000,45.202000,325.663000,45.196700L80.337400,45.196700C77.424600,45.202000,74.632800,46.362200,72.574100,48.422800C70.515400,50.483400,69.357800,53.276300,69.355100,56.189100L69.355100,63.913300Z" fill="rgb(78,86,102)" stroke="none" stroke-width="1"/><rect id="e73Uh42KxDC7" width="268" height="23" rx="0" ry="0" transform="matrix(1 0 0 1 69 64.99950000000000)" fill="rgb(196,234,245)" stroke="none" stroke-width="1"/><path id="e73Uh42KxDC8" d="M337.092000,88.902800L68.908400,88.902800C68.773800,88.902800,68.644700,88.849300,68.549500,88.754100C68.454300,88.658900,68.400900,88.529900,68.400900,88.395300L68.400900,64.360100C68.400900,64.225500,68.454300,64.096400,68.549500,64.001200C68.644700,63.906000,68.773800,63.852600,68.908400,63.852600L105.651000,63.852600L116.339000,48.312900C116.385000,48.244100,116.447000,48.187700,116.519000,48.148700C116.592000,48.109700,116.673000,48.089400,116.755000,48.089600L168.399000,48.089600C168.486000,48.089100,168.572000,48.111300,168.649000,48.154000C168.725000,48.196600,168.790000,48.258400,168.835000,48.333200L178.366000,63.852600L337.092000,63.852600C337.226000,63.852600,337.355000,63.906000,337.451000,64.001200C337.546000,64.096400,337.599000,64.225500,337.599000,64.360100L337.599000,88.395300C337.599000,88.529900,337.546000,88.658900,337.451000,88.754100C337.355000,88.849300,337.226000,88.902800,337.092000,88.902800ZM69.415900,87.887800L336.584000,87.887800L336.584000,64.867600L178.082000,64.867600C177.995000,64.866200,177.909000,64.843200,177.833000,64.800700C177.757000,64.758200,177.692000,64.697500,177.645000,64.624000L168.114000,49.104600L117.019000,49.104600L106.331000,64.695000C106.286000,64.763800,106.224000,64.820200,106.152000,64.859200C106.079000,64.898200,105.998000,64.918500,105.915000,64.918300L69.375300,64.918300L69.415900,87.887800Z" fill="rgb(78,86,102)" stroke="none" stroke-width="1"/><path id="e73Uh42KxDC9" d="M81.321800,57.295700C82.835300,57.295700,84.062300,56.068700,84.062300,54.555200C84.062300,53.041700,82.835300,51.814700,81.321800,51.814700C79.808300,51.814700,78.581300,53.041700,78.581300,54.555200C78.581300,56.068700,79.808300,57.295700,81.321800,57.295700Z" fill="rgb(196,234,245)" stroke="none" stroke-width="1"/><path id="e73Uh42KxDC10" d="M90.538100,57.295700C92.051600,57.295700,93.278600,56.068700,93.278600,54.555200C93.278600,53.041700,92.051600,51.814700,90.538100,51.814700C89.024600,51.814700,87.797600,53.041700,87.797600,54.555200C87.797600,56.068700,89.024600,57.295700,90.538100,57.295700Z" fill="rgb(255,255,255)" stroke="none" stroke-width="1"/><path id="e73Uh42KxDC11" d="M99.754200,57.295700C101.268000,57.295700,102.495000,56.068700,102.495000,54.555200C102.495000,53.041700,101.268000,51.814700,99.754200,51.814700C98.240600,51.814700,97.013700,53.041700,97.013700,54.555200C97.013700,56.068700,98.240600,57.295700,99.754200,57.295700Z" fill="rgb(255,255,255)" stroke="none" stroke-width="1"/><path id="e73Uh42KxDC12" d="M308.915000,70.013400L110.676000,70.013400C107.335000,70.013400,104.626000,72.721800,104.626000,76.062800L104.626000,77.006800C104.626000,80.347800,107.335000,83.056200,110.676000,83.056200L308.915000,83.056200C312.256000,83.056200,314.965000,80.347800,314.965000,77.006800L314.965000,76.062800C314.965000,72.721800,312.256000,70.013400,308.915000,70.013400Z" fill="rgb(255,255,255)" stroke="none" stroke-width="1"/><path id="e73Uh42KxDC13" d="M305.515000,79.463200C305.407000,79.464100,305.300000,79.432300,305.210000,79.371900C305.134000,79.315500,305.075000,79.239300,305.039000,79.151600C305.004000,79.063900,304.993000,78.968000,305.007000,78.874500L305.383000,76.692300L303.800000,75.139300C303.731000,75.074500,303.682000,74.991400,303.658000,74.899700C303.635000,74.808000,303.638000,74.711600,303.668000,74.621700C303.698000,74.531400,303.754000,74.451400,303.827000,74.390500C303.901000,74.329600,303.989000,74.290100,304.084000,74.276600L306.276000,73.961900L307.291000,71.931900C307.334000,71.847200,307.399000,71.775900,307.480000,71.725800C307.560000,71.675700,307.653000,71.648700,307.748000,71.647700C307.843000,71.648700,307.936000,71.675700,308.016000,71.725800C308.097000,71.775900,308.162000,71.847200,308.205000,71.931900L309.220000,73.961900L311.412000,74.276600C311.507000,74.290100,311.595000,74.329600,311.669000,74.390500C311.742000,74.451400,311.797000,74.531400,311.828000,74.621700C311.858000,74.711600,311.861000,74.808000,311.838000,74.899700C311.814000,74.991400,311.765000,75.074500,311.696000,75.139300L310.113000,76.692300L310.488000,78.874500C310.503000,78.968000,310.492000,79.063900,310.457000,79.151600C310.421000,79.239300,310.362000,79.315500,310.285000,79.371900C310.204000,79.419100,310.111000,79.443900,310.016000,79.443900C309.922000,79.443900,309.829000,79.419100,309.748000,79.371900L307.789000,78.356900L305.830000,79.371900C305.735000,79.431000,305.626000,79.462600,305.515000,79.463200L305.515000,79.463200ZM305.241000,75.129200L306.256000,76.144200C306.315000,76.202700,306.359000,76.275100,306.384000,76.354700C306.409000,76.434400,306.414000,76.519000,306.398000,76.600900L306.154000,78.032100L307.443000,77.352000C307.516000,77.316900,307.596000,77.298700,307.677000,77.298700C307.758000,77.298700,307.838000,77.316900,307.910000,77.352000L309.199000,78.032100L308.956000,76.600900C308.940000,76.519000,308.945000,76.434400,308.970000,76.354700C308.994000,76.275100,309.039000,76.202700,309.098000,76.144200L310.113000,75.129200L308.672000,74.926200C308.590000,74.911100,308.513000,74.877700,308.446000,74.828400C308.379000,74.779200,308.324000,74.715400,308.286000,74.642000L307.646000,73.342800L307.007000,74.642000C306.968000,74.715400,306.914000,74.779200,306.847000,74.828400C306.780000,74.877700,306.703000,74.911100,306.621000,74.926200L305.241000,75.129200Z" fill="rgb(208,211,217)" stroke="none" stroke-width="1"/><path id="e73Uh42KxDC14" d="M330.809000,72.703200L323.196000,72.703200C323.062000,72.703200,322.933000,72.649800,322.838000,72.554600C322.742000,72.459400,322.689000,72.330300,322.689000,72.195700C322.689000,72.061100,322.742000,71.932100,322.838000,71.836900C322.933000,71.741700,323.062000,71.688200,323.196000,71.688200L330.809000,71.688200C330.944000,71.688200,331.073000,71.741700,331.168000,71.836900C331.263000,71.932100,331.316000,72.061100,331.316000,72.195700C331.316000,72.330300,331.263000,72.459400,331.168000,72.554600C331.073000,72.649800,330.944000,72.703200,330.809000,72.703200Z" fill="rgb(78,86,102)" stroke="none" stroke-width="1"/><path id="e73Uh42KxDC15" d="M330.809000,76.083100L323.196000,76.083100C323.062000,76.083100,322.933000,76.029600,322.838000,75.934500C322.742000,75.839300,322.689000,75.710200,322.689000,75.575600C322.692000,75.441800,322.746000,75.314200,322.840000,75.219600C322.935000,75.125000,323.063000,75.070700,323.196000,75.068100L330.809000,75.068100C330.944000,75.068100,331.073000,75.121600,331.168000,75.216800C331.263000,75.311900,331.316000,75.441000,331.316000,75.575600C331.316000,75.710200,331.263000,75.839300,331.168000,75.934500C331.073000,76.029600,330.944000,76.083100,330.809000,76.083100Z" fill="rgb(78,86,102)" stroke="none" stroke-width="1"/><path id="e73Uh42KxDC16" d="M330.809000,79.463200L323.196000,79.463200C323.062000,79.463200,322.933000,79.409800,322.838000,79.314600C322.742000,79.219400,322.689000,79.090300,322.689000,78.955700C322.692000,78.822000,322.746000,78.694400,322.840000,78.599800C322.935000,78.505100,323.063000,78.450800,323.196000,78.448200L330.809000,78.448200C330.944000,78.448200,331.073000,78.501700,331.168000,78.596900C331.263000,78.692100,331.316000,78.821100,331.316000,78.955700C331.316000,79.090300,331.263000,79.219400,331.168000,79.314600C331.073000,79.409800,330.944000,79.463200,330.809000,79.463200Z" fill="rgb(78,86,102)" stroke="none" stroke-width="1"/><path id="e73Uh42KxDC17" d="M82.803700,77.819000L75.587100,77.819000C75.452500,77.819000,75.323400,77.765500,75.228200,77.670300C75.133100,77.575100,75.079600,77.446100,75.079600,77.311500C75.079600,77.176900,75.133100,77.047800,75.228200,76.952600C75.323400,76.857400,75.452500,76.804000,75.587100,76.804000L82.803700,76.804000C82.937500,76.806600,83.065100,76.860900,83.159700,76.955500C83.254300,77.050100,83.308600,77.177700,83.311200,77.311500C83.311200,77.446100,83.257800,77.575100,83.162600,77.670300C83.067400,77.765500,82.938300,77.819000,82.803700,77.819000Z" fill="rgb(78,86,102)" stroke="none" stroke-width="1"/><path id="e73Uh42KxDC18" d="M77.525900,81.208900C77.449800,81.207800,77.374800,81.190000,77.306400,81.156600C77.238000,81.123300,77.177800,81.075300,77.130000,81.016000L74.389500,77.636100C74.313600,77.544900,74.272000,77.429900,74.272000,77.311300C74.272000,77.192600,74.313600,77.077600,74.389500,76.986500L77.353300,73.525300C77.440800,73.423000,77.565400,73.359700,77.699500,73.349200C77.766000,73.344000,77.832800,73.352000,77.896200,73.372600C77.959600,73.393200,78.018200,73.426200,78.068900,73.469500C78.119500,73.512800,78.161200,73.565700,78.191400,73.625100C78.221600,73.684500,78.239800,73.749300,78.245000,73.815700C78.250200,73.882200,78.242200,73.949000,78.221600,74.012300C78.201000,74.075700,78.168000,74.134400,78.124700,74.185100L75.435000,77.321400L77.911600,80.366400C77.954000,80.417900,77.985600,80.477500,78.004500,80.541500C78.023400,80.605400,78.029200,80.672600,78.021600,80.738900C78.014100,80.805200,77.993200,80.869300,77.960400,80.927300C77.927500,80.985400,77.883300,81.036300,77.830400,81.076900C77.747900,81.155900,77.639900,81.202700,77.525900,81.208900L77.525900,81.208900Z" fill="rgb(78,86,102)" stroke="none" stroke-width="1"/><path id="e73Uh42KxDC19" d="M93.958500,77.819000L86.741900,77.819000C86.607300,77.819000,86.478200,77.765500,86.383000,77.670300C86.287800,77.575100,86.234400,77.446100,86.234400,77.311500C86.234400,77.176900,86.287800,77.047800,86.383000,76.952600C86.478200,76.857400,86.607300,76.804000,86.741900,76.804000L93.958500,76.804000C94.092300,76.806600,94.219900,76.860900,94.314500,76.955500C94.409100,77.050100,94.463400,77.177700,94.466000,77.311500C94.466000,77.446100,94.412600,77.575100,94.317400,77.670300C94.222200,77.765500,94.093100,77.819000,93.958500,77.819000Z" fill="rgb(78,86,102)" stroke="none" stroke-width="1"/><path id="e73Uh42KxDC20" d="M92.020000,81.209000C91.901000,81.207000,91.786200,81.164000,91.695200,81.087200C91.592100,81.002000,91.526900,80.879600,91.513600,80.746600C91.500300,80.613500,91.540000,80.480600,91.624100,80.376700L94.100700,77.331700L91.411000,74.195400C91.363700,74.149100,91.326200,74.093800,91.300600,74.032800C91.274900,73.971800,91.261700,73.906300,91.261700,73.840100C91.261700,73.774000,91.274900,73.708400,91.300600,73.647400C91.326200,73.586400,91.363700,73.531200,91.411000,73.484900C91.507600,73.391200,91.636800,73.338900,91.771300,73.338900C91.905800,73.338900,92.035100,73.391200,92.131600,73.484900L95.095500,76.946000C95.169600,77.038000,95.210000,77.152600,95.210000,77.270800C95.210000,77.389000,95.169600,77.503600,95.095500,77.595600L92.354900,80.975600C92.317400,81.034800,92.268500,81.085900,92.211000,81.126000C92.153400,81.166100,92.088500,81.194300,92.020000,81.209000L92.020000,81.209000Z" fill="rgb(78,86,102)" stroke="none" stroke-width="1"/><path id="e73Uh42KxDC21" d="M125.130000,150.886000L120.120000,144.202000L110.910000,151.105000L115.920000,157.789000L125.130000,150.886000Z" fill="rgb(255,255,255)" stroke="none" stroke-width="1"/><path id="e73Uh42KxDC22" d="M115.913000,158.288000C115.834000,158.290000,115.756000,158.272000,115.685000,158.237000C115.614000,158.201000,115.553000,158.149000,115.507000,158.085000L110.493000,151.406000C110.415000,151.298000,110.382000,151.163000,110.400000,151.031000C110.419000,150.898000,110.489000,150.778000,110.594000,150.696000L119.811000,143.794000C119.918000,143.713000,120.054000,143.678000,120.187000,143.697000C120.320000,143.717000,120.440000,143.788000,120.521000,143.895000L125.525000,150.574000C125.566000,150.627000,125.596000,150.687000,125.613000,150.752000C125.631000,150.816000,125.635000,150.883000,125.626000,150.950000C125.618000,151.016000,125.595000,151.081000,125.560000,151.138000C125.525000,151.196000,125.479000,151.246000,125.423000,151.285000L116.217000,158.187000C116.130000,158.253000,116.023000,158.289000,115.913000,158.288000L115.913000,158.288000ZM111.609000,151.183000L116.014000,157.060000L124.408000,150.767000L120.014000,144.880000L111.609000,151.183000Z" fill="rgb(78,86,102)" stroke="none" stroke-width="1"/><path id="e73Uh42KxDC23" d="M115.053000,156.637000L111.754000,152.235000L100.497000,160.672000L103.796000,165.074000L115.053000,156.637000Z" fill="rgb(78,86,102)" stroke="none" stroke-width="1"/><path id="e73Uh42KxDC24" d="M103.804000,165.535000C103.733000,165.536000,103.663000,165.520000,103.599000,165.488000C103.536000,165.456000,103.481000,165.410000,103.439000,165.353000L100.140000,160.947000C100.104000,160.900000,100.078000,160.846000,100.064000,160.789000C100.050000,160.731000,100.048000,160.671000,100.059000,160.613000C100.075000,160.495000,100.137000,160.390000,100.231000,160.318000L111.488000,151.884000C111.535000,151.848000,111.589000,151.822000,111.646000,151.807000C111.703000,151.792000,111.763000,151.789000,111.821000,151.798000C111.880000,151.806000,111.936000,151.826000,111.987000,151.857000C112.038000,151.887000,112.082000,151.927000,112.117000,151.975000L115.416000,156.380000C115.452000,156.427000,115.478000,156.481000,115.492000,156.539000C115.506000,156.597000,115.507000,156.657000,115.497000,156.715000C115.491000,156.774000,115.473000,156.830000,115.443000,156.881000C115.413000,156.932000,115.373000,156.976000,115.324000,157.009000L104.068000,165.444000C103.992000,165.502000,103.900000,165.535000,103.804000,165.535000L103.804000,165.535000ZM101.125000,160.765000L103.885000,164.459000L114.431000,156.553000L111.650000,152.868000L101.125000,160.765000Z" fill="rgb(78,86,102)" stroke="none" stroke-width="1"/><path id="e73Uh42KxDC25" d="M122.886000,146.961000C120.697000,144.042000,119.423000,140.540000,119.225000,136.898000C119.027000,133.255000,119.913000,129.635000,121.772000,126.497000C123.631000,123.358000,126.379000,120.841000,129.669000,119.264000C132.959000,117.687000,136.642000,117.122000,140.253000,117.639000C143.865000,118.156000,147.241000,119.732000,149.957000,122.168000C152.672000,124.604000,154.604000,127.791000,155.508000,131.325000C156.411000,134.860000,156.247000,138.583000,155.035000,142.023000C153.823000,145.464000,151.617000,148.468000,148.698000,150.655000C146.760000,152.108000,144.556000,153.165000,142.210000,153.766000C139.864000,154.366000,137.423000,154.499000,135.026000,154.156000C132.629000,153.813000,130.323000,153.001000,128.240000,151.766000C126.157000,150.532000,124.338000,148.899000,122.886000,146.961000ZM155.924000,122.195000C153.213000,118.576000,149.490000,115.844000,145.225000,114.342000C140.961000,112.840000,136.347000,112.636000,131.966000,113.757000C127.586000,114.877000,123.637000,117.272000,120.618000,120.637000C117.598000,124.003000,115.645000,128.188000,115.005000,132.664000C114.364000,137.139000,115.066000,141.704000,117.020000,145.782000C118.974000,149.859000,122.094000,153.265000,125.984000,155.569000C129.874000,157.873000,134.360000,158.971000,138.875000,158.725000C143.389000,158.479000,147.730000,156.900000,151.347000,154.187000C153.748000,152.388000,155.772000,150.133000,157.302000,147.551000C158.832000,144.969000,159.838000,142.110000,160.263000,139.139000C160.689000,136.168000,160.524000,133.143000,159.780000,130.235000C159.035000,127.328000,157.725000,124.596000,155.924000,122.195000L155.924000,122.195000Z" fill="rgb(196,234,245)" stroke="none" stroke-width="1"/><path id="e73Uh42KxDC26" d="M137.685000,159.273000C136.561000,159.271000,135.438000,159.190000,134.325000,159.029000C128.380000,158.161000,123.004000,155.020000,119.328000,150.269000C115.651000,145.517000,113.961000,139.525000,114.613000,133.552000C115.264000,127.580000,118.207000,122.093000,122.822000,118.246000C127.437000,114.400000,133.364000,112.493000,139.357000,112.927000C145.349000,113.362000,150.939000,116.104000,154.950000,120.576000C158.962000,125.048000,161.083000,130.902000,160.866000,136.906000C160.650000,142.910000,158.113000,148.596000,153.789000,152.767000C149.466000,156.939000,143.693000,159.271000,137.685000,159.273000L137.685000,159.273000ZM137.614000,113.598000C132.585000,113.607000,127.707000,115.313000,123.769000,118.440000C119.831000,121.567000,117.063000,125.931000,115.915000,130.827000C114.766000,135.722000,115.303000,140.862000,117.440000,145.414000C119.576000,149.967000,123.187000,153.664000,127.686000,155.909000C132.186000,158.154000,137.312000,158.814000,142.233000,157.783000C147.155000,156.752000,151.584000,154.090000,154.805000,150.228000C158.025000,146.366000,159.847000,141.530000,159.977000,136.503000C160.106000,131.476000,158.535000,126.552000,155.518000,122.530000L155.518000,122.530000C153.437000,119.745000,150.735000,117.485000,147.627000,115.929000C144.519000,114.373000,141.090000,113.564000,137.614000,113.567000L137.614000,113.598000ZM137.614000,154.867000C134.661000,154.881000,131.746000,154.203000,129.103000,152.888000C126.459000,151.573000,124.160000,149.658000,122.389000,147.296000L122.389000,147.296000C119.822000,143.881000,118.483000,139.700000,118.588000,135.430000C118.694000,131.159000,120.237000,127.049000,122.969000,123.765000C125.701000,120.481000,129.461000,118.215000,133.641000,117.335000C137.821000,116.454000,142.176000,117.009000,146,118.912000C149.825000,120.814000,152.896000,123.951000,154.716000,127.816000C156.536000,131.681000,156.998000,136.046000,156.027000,140.206000C155.057000,144.366000,152.711000,148.077000,149.369000,150.738000C146.027000,153.399000,141.885000,154.854000,137.614000,154.867000L137.614000,154.867000ZM123.241000,146.687000C125.369000,149.518000,128.287000,151.655000,131.628000,152.829000C134.969000,154.004000,138.583000,154.162000,142.014000,153.284000C145.445000,152.406000,148.539000,150.532000,150.906000,147.897000C153.273000,145.263000,154.806000,141.987000,155.312000,138.482000C155.819000,134.976000,155.275000,131.400000,153.751000,128.203000C152.227000,125.007000,149.790000,122.333000,146.748000,120.520000C143.706000,118.708000,140.194000,117.836000,136.658000,118.017000C133.121000,118.197000,129.717000,119.422000,126.875000,121.535000C123.076000,124.391000,120.564000,128.637000,119.890000,133.343000C119.217000,138.048000,120.436000,142.828000,123.282000,146.636000L123.241000,146.687000Z" fill="rgb(78,86,102)" stroke="none" stroke-width="1"/><path id="e73Uh42KxDC27" d="M70.958700,188.373000L68.928700,185.652000C68.535600,185.128000,68.366200,184.470000,68.457500,183.821000C68.548800,183.173000,68.893400,182.586000,69.415900,182.191000L99.470000,159.668000C99.994100,159.275000,100.653000,159.106000,101.301000,159.197000C101.950000,159.289000,102.536000,159.633000,102.931000,160.156000L104.961000,162.886000C105.157000,163.146000,105.299000,163.441000,105.380000,163.756000C105.460000,164.071000,105.478000,164.398000,105.432000,164.720000C105.386000,165.042000,105.276000,165.351000,105.110000,165.630000C104.944000,165.909000,104.724000,166.153000,104.464000,166.347000L74.419800,188.870000C74.160200,189.065000,73.864600,189.208000,73.549800,189.288000C73.235100,189.369000,72.907500,189.387000,72.585900,189.341000C72.264300,189.294000,71.955000,189.185000,71.675700,189.019000C71.396500,188.853000,71.152800,188.633000,70.958700,188.373000L70.958700,188.373000Z" fill="rgb(255,255,255)" stroke="none" stroke-width="1"/><path id="e73Uh42KxDC28" d="M72.938100,189.875000L72.511800,189.875000C72.123900,189.821000,71.750700,189.690000,71.414200,189.489000C71.077800,189.289000,70.784900,189.023000,70.552800,188.708000L68.522800,185.987000C68.284900,185.675000,68.112000,185.319000,68.014400,184.939000C67.916700,184.559000,67.896300,184.163000,67.954400,183.775000C68.008700,183.388000,68.138900,183.016000,68.337500,182.680000C68.536100,182.344000,68.799100,182.050000,69.111500,181.816000L99.206300,159.293000C99.518300,159.055000,99.874900,158.882000,100.255000,158.784000C100.635000,158.687000,101.031000,158.666000,101.419000,158.724000C101.806000,158.779000,102.178000,158.909000,102.514000,159.108000C102.850000,159.306000,103.144000,159.569000,103.378000,159.882000L105.408000,162.612000C105.643000,162.925000,105.815000,163.281000,105.912000,163.660000C106.009000,164.040000,106.031000,164.435000,105.975000,164.822000C105.919000,165.210000,105.788000,165.582000,105.588000,165.919000C105.388000,166.256000,105.123000,166.549000,104.809000,166.784000L74.724500,189.276000C74.207300,189.659000,73.581900,189.869000,72.938100,189.875000L72.938100,189.875000ZM100.983000,159.679000C100.557000,159.676000,100.143000,159.816000,99.805100,160.074000L69.710400,182.597000C69.504400,182.751000,69.331000,182.944000,69.200300,183.165000C69.069600,183.387000,68.984200,183.632000,68.949100,183.886000C68.907200,184.143000,68.919000,184.405000,68.983600,184.656000C69.048200,184.908000,69.164400,185.143000,69.324700,185.348000L71.354700,188.068000C71.508200,188.275000,71.701100,188.450000,71.922300,188.582000C72.143500,188.715000,72.388700,188.802000,72.643700,188.839000C73.161100,188.907000,73.684500,188.772000,74.105300,188.464000L104.190000,165.941000C104.397000,165.787000,104.572000,165.593000,104.704000,165.372000C104.836000,165.150000,104.923000,164.904000,104.960000,164.648000C104.997000,164.392000,104.983000,164.132000,104.918000,163.882000C104.854000,163.632000,104.741000,163.397000,104.586000,163.190000L102.556000,160.460000C102.402000,160.254000,102.209000,160.081000,101.988000,159.950000C101.766000,159.819000,101.521000,159.734000,101.267000,159.699000C101.173000,159.682000,101.078000,159.676000,100.983000,159.679000Z" fill="rgb(78,86,102)" stroke="none" stroke-width="1"/><path id="e73Uh42KxDC29" d="M94.395000,172.721000L99.967300,178.476000C99.967300,178.476000,107.864000,166.702000,107.712000,165.332000C107.522000,162.850000,107.720000,160.354000,108.300000,157.933000C108.307000,157.858000,108.328000,157.786000,108.363000,157.719000C108.398000,157.653000,108.446000,157.594000,108.503000,157.547000C108.788000,157.364000,109.092000,157.750000,109.204000,158.075000C109.458000,158.846000,109.478000,159.699000,109.711000,160.440000C110.970000,159.719000,112.188000,158.846000,113.426000,158.065000C115.456000,156.776000,114.847000,161.729000,114.675000,162.409000C114.228000,164.236000,113.375000,166.378000,111.772000,167.484000C111.772000,167.484000,102.261000,188.657000,100.201000,188.423000C98.140300,188.190000,90.050800,179.035000,90.050800,179.035000L94.395000,172.721000Z" fill="rgb(255,255,255)" stroke="none" stroke-width="1"/><path id="e73Uh42KxDC30" d="M100.241000,188.941000L100.180000,188.941000C98.038800,188.697000,91.045500,180.943000,89.675200,179.390000C89.606100,179.300000,89.568600,179.189000,89.568600,179.075000C89.568600,178.961000,89.606100,178.851000,89.675200,178.761000L94.060000,172.437000C94.103000,172.375000,94.158800,172.323000,94.223600,172.285000C94.288400,172.246000,94.360600,172.222000,94.435600,172.214000C94.585500,172.210000,94.731100,172.265000,94.841600,172.366000L99.977500,177.674000C103.611000,172.214000,107.265000,166.246000,107.285000,165.373000C107.100000,162.840000,107.302000,160.293000,107.884000,157.821000C107.901000,157.679000,107.948000,157.543000,108.022000,157.420000C108.095000,157.298000,108.194000,157.192000,108.311000,157.111000C108.413000,157.044000,108.530000,157.003000,108.652000,156.991000C108.774000,156.978000,108.897000,156.995000,109.011000,157.040000C109.190000,157.124000,109.350000,157.245000,109.480000,157.396000C109.609000,157.546000,109.705000,157.722000,109.762000,157.912000C109.899000,158.343000,109.997000,158.784000,110.056000,159.232000C110.056000,159.374000,110.056000,159.516000,110.127000,159.658000C110.716000,159.293000,111.305000,158.897000,111.883000,158.521000C112.462000,158.146000,112.777000,157.923000,113.233000,157.638000C113.437000,157.461000,113.694000,157.356000,113.964000,157.340000C114.234000,157.323000,114.501000,157.396000,114.725000,157.547000C116.035000,158.481000,115.263000,162.490000,115.253000,162.531000C114.867000,164.576000,113.818000,166.438000,112.269000,167.829000C108.605000,175.807000,102.393000,188.941000,100.241000,188.941000ZM90.700400,179.014000C93.826600,182.506000,98.972600,187.784000,100.292000,187.926000C101.551000,187.571000,106.920000,177.147000,111.356000,167.291000C111.395000,167.207000,111.454000,167.134000,111.528000,167.078000C113.051000,166.002000,113.832000,163.881000,114.228000,162.287000C114.451000,161.374000,114.583000,158.714000,114.096000,158.369000C114.096000,158.369000,113.924000,158.369000,113.731000,158.491000L112.401000,159.364000C111.620000,159.882000,110.818000,160.379000,110.006000,160.886000C109.937000,160.916000,109.863000,160.932000,109.787000,160.932000C109.712000,160.932000,109.638000,160.916000,109.569000,160.886000C109.498000,160.857000,109.434000,160.813000,109.382000,160.757000C109.329000,160.701000,109.289000,160.634000,109.265000,160.562000C109.155000,160.168000,109.070000,159.768000,109.011000,159.364000C108.962000,158.990000,108.884000,158.620000,108.778000,158.258000C108.255000,160.549000,108.080000,162.907000,108.260000,165.251000C108.412000,166.692000,102.302000,175.929000,100.434000,178.730000C100.389000,178.792000,100.331000,178.843000,100.265000,178.882000C100.198000,178.920000,100.125000,178.945000,100.049000,178.953000C99.973900,178.958000,99.899100,178.947000,99.829100,178.921000C99.759200,178.895000,99.695500,178.854000,99.642500,178.801000L94.506600,173.493000L90.700400,179.014000Z" fill="rgb(78,86,102)" stroke="none" stroke-width="1"/><path id="e73Uh42KxDC31" d="M57.712900,255.210000C57.712900,255.210000,55.825000,260.590000,56.626900,261.047000C57.428700,261.503000,74.653300,261.047000,73.628100,260.032000C72.603000,259.017000,68.005000,255.515000,68.005000,255.515000" fill="rgb(255,255,255)" stroke="none" stroke-width="1"/><path id="e73Uh42KxDC32" d="M60.798700,261.747000C59.318300,261.826000,57.833700,261.738000,56.373300,261.483000C55.561300,260.996000,55.855600,258.834000,57.236000,255.038000C57.286100,254.912000,57.382400,254.811000,57.505200,254.754000C57.627900,254.697000,57.767700,254.690000,57.895800,254.733000C57.958300,254.756000,58.015700,254.791000,58.064600,254.836000C58.113400,254.881000,58.152700,254.935000,58.180200,254.996000C58.207600,255.056000,58.222600,255.122000,58.224300,255.188000C58.226100,255.255000,58.214400,255.321000,58.190100,255.383000C57.337500,257.728000,56.779300,260.062000,56.931500,260.620000C58.423600,260.955000,70.126500,260.620000,72.826400,259.981000C71.344500,258.692000,67.751400,255.992000,67.751400,255.921000C67.646000,255.838000,67.576500,255.718000,67.557500,255.586000C67.538600,255.454000,67.571700,255.319000,67.649900,255.210000C67.689900,255.157000,67.740000,255.112000,67.797400,255.078000C67.854700,255.044000,67.918200,255.022000,67.984100,255.012000C68.050100,255.003000,68.117300,255.007000,68.181900,255.023000C68.246400,255.040000,68.307100,255.069000,68.360400,255.109000C68.553300,255.251000,72.978700,258.580000,74.024100,259.615000C74.138300,259.720000,74.208200,259.865000,74.219500,260.019000C74.230900,260.174000,74.182700,260.327000,74.085000,260.448000C73.374500,261.341000,65.833100,261.747000,60.798700,261.747000Z" fill="rgb(78,86,102)" stroke="none" stroke-width="1"/><path id="e73Uh42KxDC33" d="M70.035000,154.857000C69.233100,154.969000,68.411000,154.969000,67.467000,155.060000C66.523100,155.152000,65.437000,155.060000,65.254300,154.157000C65.071600,153.254000,65.883600,152.655000,65.558800,151.975000C65.457900,151.795000,65.323500,151.637000,65.163000,151.508000C63.632800,150.077000,62.715000,148.109000,62.601500,146.017000C62.488000,143.925000,63.187600,141.870000,64.554000,140.282000C64.494200,140.306000,64.430100,140.316000,64.366000,140.312000C64.301900,140.309000,64.239300,140.292000,64.182500,140.262000C64.125600,140.232000,64.075900,140.190000,64.036700,140.139000C63.997400,140.089000,63.969600,140.030000,63.955100,139.967000C63.905800,139.707000,63.960400,139.437000,64.107400,139.216000C64.623200,138.396000,65.362800,137.741000,66.238900,137.328000C68.999400,135.912000,72.122600,135.360000,75.201300,135.745000C77.566300,135.999000,80.570700,137.298000,80.763500,140.059000C80.815600,140.554000,80.695800,141.053000,80.424100,141.470000C80.152500,141.888000,79.745500,142.199000,79.271500,142.353000C79.271500,145.337000,78.134700,147.590000,76.602000,150.036000C75.583400,151.708000,74.167900,153.103000,72.481100,154.096000C71.722000,154.504000,70.891600,154.763000,70.035000,154.857000Z" fill="rgb(255,255,255)" stroke="none" stroke-width="1"/><path id="e73Uh42KxDC34" d="M66.990200,155.588000C65.741700,155.588000,64.909400,155.111000,64.747000,154.258000C64.699200,153.827000,64.773000,153.391000,64.960200,153C65.102300,152.634000,65.173300,152.401000,65.102300,152.239000C65.033100,152.131000,64.947500,152.035000,64.848500,151.954000C63.304700,150.522000,62.337100,148.576000,62.127800,146.480000C61.918400,144.385000,62.481700,142.285000,63.711700,140.576000C63.594300,140.458000,63.510300,140.311000,63.468100,140.150000C63.423500,139.959000,63.417600,139.761000,63.450700,139.567000C63.483800,139.374000,63.555300,139.189000,63.661000,139.023000C64.224800,138.119000,65.034600,137.394000,65.995500,136.932000C68.848100,135.462000,72.075500,134.878000,75.262400,135.258000C78.104400,135.562000,81.068200,137.166000,81.271200,140.038000C81.315400,140.585000,81.197400,141.133000,80.932000,141.613000C80.666700,142.093000,80.265700,142.485000,79.779200,142.738000C79.593500,145.472000,78.643900,148.099000,77.038700,150.320000C75.972700,152.063000,74.490400,153.514000,72.724900,154.543000C71.918600,155.003000,71.028100,155.296000,70.106200,155.405000C69.619000,155.476000,69.091200,155.507000,68.624300,155.537000C68.269100,155.537000,67.903700,155.537000,67.518000,155.619000L66.990200,155.588000ZM64.554200,139.805000C64.630300,139.806000,64.705200,139.824000,64.773600,139.857000C64.842000,139.890000,64.902300,139.938000,64.950000,139.998000C65.026000,140.089000,65.067600,140.204000,65.067600,140.322000C65.067600,140.441000,65.026000,140.556000,64.950000,140.647000C63.666600,142.133000,63.008800,144.059000,63.114800,146.020000C63.220800,147.980000,64.082300,149.824000,65.518400,151.163000C65.724300,151.336000,65.896400,151.546000,66.025900,151.782000C66.117200,152.034000,66.155300,152.302000,66.137800,152.569000C66.120400,152.836000,66.047700,153.097000,65.924400,153.335000C65.806900,153.567000,65.751000,153.826000,65.762000,154.086000C65.863500,154.593000,66.858200,154.634000,67.426600,154.583000C67.832600,154.583000,68.208200,154.522000,68.573600,154.502000C68.939000,154.482000,69.517500,154.441000,69.974300,154.380000C70.770600,154.287000,71.540200,154.035000,72.237700,153.639000C73.853900,152.693000,75.210400,151.361000,76.186100,149.762000C77.840500,147.113000,78.794600,145.052000,78.774300,142.352000C78.769000,142.233000,78.805800,142.116000,78.878200,142.022000C78.950600,141.927000,79.053900,141.861000,79.170200,141.835000C79.525100,141.707000,79.826500,141.463000,80.025400,141.142000C80.224400,140.822000,80.309300,140.444000,80.266400,140.069000C80.083700,137.450000,76.977800,136.425000,75.191400,136.232000C72.199300,135.857000,69.163700,136.395000,66.482700,137.775000C65.688200,138.135000,65.017400,138.721000,64.554200,139.460000C64.486200,139.559000,64.447600,139.675000,64.442500,139.795000L64.554200,139.805000Z" fill="rgb(78,86,102)" stroke="none" stroke-width="1"/><path id="e73Uh42KxDC35" d="M60.270800,171.270000C60.270800,171.270000,53.916900,184.140000,54.434500,188.088000C54.952200,192.037000,68.005100,190.484000,68.005100,190.484000L67.325000,170.915000L60.270800,171.270000Z" fill="rgb(255,255,255)" stroke="none" stroke-width="1"/><path id="e73Uh42KxDC36" d="M62.656100,191.306000C58.789000,191.306000,54.272200,190.738000,53.927100,188.149000C53.399300,184.089000,59.550200,171.564000,59.814100,171.037000C59.853500,170.953000,59.915100,170.883000,59.992200,170.833000C60.069200,170.783000,60.158700,170.755000,60.250600,170.752000L67.284500,170.407000C67.351300,170.402000,67.418300,170.412000,67.481300,170.434000C67.544200,170.457000,67.601700,170.493000,67.649900,170.539000C67.700000,170.584000,67.740300,170.639000,67.768300,170.700000C67.796200,170.761000,67.811200,170.827000,67.812300,170.894000L68.502500,190.464000C68.508600,190.592000,68.465900,190.717000,68.383000,190.815000C68.300100,190.913000,68.183300,190.976000,68.055900,190.991000C66.262900,191.192000,64.460400,191.297000,62.656100,191.306000L62.656100,191.306000ZM60.626100,171.747000C59.722800,173.605000,54.536100,184.567000,54.962400,187.987000C55.287200,190.423000,62.635800,190.525000,67.507800,190.017000L66.848100,171.422000L60.626100,171.747000Z" fill="rgb(78,86,102)" stroke="none" stroke-width="1"/><path id="e73Uh42KxDC37" d="M85.513900,252.693000L85.848900,261.047000C85.848900,261.047000,101.531000,261.168000,100.617000,260.032000C99.703600,258.895000,92.608800,253.850000,92.608800,253.850000L91.461800,247.669000L85.513900,252.693000Z" fill="rgb(255,255,255)" stroke="none" stroke-width="1"/><path id="e73Uh42KxDC38" d="M88.031000,261.605000L85.848700,261.605000C85.717600,261.605000,85.591500,261.554000,85.496800,261.463000C85.402200,261.373000,85.346400,261.249000,85.341200,261.118000L85.006300,252.764000C85.001000,252.688000,85.014000,252.611000,85.043900,252.541000C85.073900,252.470000,85.120100,252.408000,85.178800,252.358000L91.136900,247.283000C91.203500,247.224000,91.285000,247.184000,91.372700,247.168000C91.460400,247.152000,91.550900,247.160000,91.634200,247.192000C91.717300,247.222000,91.790900,247.274000,91.847900,247.341000C91.904900,247.409000,91.943200,247.490000,91.959000,247.578000L93.065400,253.556000C94.313800,254.439000,100.170000,258.631000,101.013000,259.717000C101.091000,259.810000,101.141000,259.923000,101.157000,260.044000C101.174000,260.164000,101.155000,260.287000,101.104000,260.397000C100.952000,260.681000,100.485000,261.605000,88.031000,261.605000ZM86.335900,260.590000C92.070600,260.590000,98.170800,260.417000,99.865900,260.021000C98.455000,258.692000,94.070200,255.515000,92.365000,254.256000C92.311000,254.219000,92.265100,254.170000,92.230200,254.115000C92.195400,254.059000,92.172100,253.996000,92.162000,253.931000L91.147000,248.613000L86.072000,252.916000L86.335900,260.590000Z" fill="rgb(78,86,102)" stroke="none" stroke-width="1"/><path id="e73Uh42KxDC39" d="M88.305100,193.955000L94.395100,254.987000L84.752600,254.358000L75.465400,212.103000L69.162200,255.515000L57.489700,254.946000C57.489700,254.946000,58.504700,227.075000,59.590800,217.838000C60.676800,208.602000,60.697100,196.229000,60.697100,196.229000L88.305100,193.955000Z" fill="rgb(78,86,102)" stroke="none" stroke-width="1"/><path id="e73Uh42KxDC40" d="M80.804200,146.392000C80.804200,146.392000,83.483800,149.437000,83.128600,150.178000C82.773300,150.919000,81.179800,150.696000,81.179800,150.696000" fill="rgb(255,255,255)" stroke="none" stroke-width="1"/><path id="e73Uh42KxDC41" d="M81.738000,151.244000C81.527200,151.244000,81.316800,151.227000,81.108700,151.193000C80.974100,151.173000,80.853100,151.100000,80.772200,150.991000C80.691300,150.881000,80.657200,150.744000,80.677300,150.609000C80.697500,150.475000,80.770400,150.354000,80.879800,150.273000C80.989300,150.192000,81.126400,150.158000,81.261000,150.178000C81.768500,150.259000,82.550000,150.178000,82.671800,149.955000C82.110600,148.758000,81.352300,147.663000,80.428700,146.717000C80.346600,146.615000,80.307100,146.486000,80.318300,146.355000C80.329400,146.225000,80.390500,146.104000,80.488600,146.018000C80.586800,145.931000,80.714500,145.886000,80.845200,145.892000C80.975800,145.897000,81.099300,145.953000,81.189900,146.047000C82.509400,147.539000,84.001500,149.508000,83.585300,150.391000C83.385000,150.689000,83.106800,150.926000,82.781000,151.076000C82.455300,151.227000,82.094500,151.285000,81.738000,151.244000Z" fill="rgb(78,86,102)" stroke="none" stroke-width="1"/><path id="e73Uh42KxDC42" d="M79.718300,142.038000C81.281400,142.992000,81.210300,145.479000,81.423500,147.052000C81.721200,149.278000,81.964800,151.508000,82.154300,153.741000C82.276100,155.162000,78.642400,155.700000,77.942000,155.375000L79.292000,160.846000L71.172000,158.989000L70.512200,152.543000C71.339400,152.346000,72.096700,151.926000,72.701600,151.328000C73.306500,150.730000,73.735800,149.978000,73.942900,149.153000C74.957900,146.108000,74.277900,141.683000,74.277900,141.683000C74.277900,141.683000,78.155200,141.114000,79.718300,142.038000Z" fill="rgb(255,255,255)" stroke="none" stroke-width="1"/><path id="e73Uh42KxDC43" d="M79.291900,161.353000L79.170100,161.353000L71.050100,159.496000C70.946100,159.471000,70.852200,159.415000,70.781300,159.335000C70.710400,159.255000,70.666000,159.155000,70.654200,159.049000L70.035100,152.594000C70.025600,152.463000,70.065000,152.334000,70.145700,152.231000C70.226300,152.127000,70.342500,152.058000,70.471500,152.036000C71.213600,151.865000,71.892600,151.488000,72.431000,150.950000C72.969400,150.412000,73.345600,149.733000,73.516500,148.991000C74.531500,146.078000,73.851500,141.804000,73.841300,141.764000C73.830100,141.698000,73.832500,141.631000,73.848200,141.567000C73.863900,141.502000,73.892600,141.441000,73.932700,141.388000C73.972300,141.334000,74.022300,141.288000,74.079800,141.253000C74.137300,141.218000,74.201100,141.195000,74.267600,141.185000C74.683800,141.124000,78.327600,140.617000,79.982100,141.612000C81.636500,142.606000,81.697400,144.535000,81.849700,146.138000C81.849700,146.443000,81.900400,146.727000,81.941000,146.991000C82.235400,149.204000,82.479000,151.467000,82.671800,153.700000C82.686500,153.978000,82.622900,154.255000,82.488400,154.499000C82.353800,154.743000,82.153700,154.945000,81.910600,155.081000C80.915200,155.661000,79.784400,155.969000,78.632100,155.974000L79.809500,160.724000C79.828100,160.799000,79.829300,160.878000,79.812900,160.953000C79.796500,161.029000,79.763000,161.100000,79.715000,161.160000C79.667000,161.221000,79.605800,161.270000,79.535900,161.304000C79.466100,161.337000,79.389600,161.354000,79.312200,161.353000L79.291900,161.353000ZM71.689500,158.582000L78.601700,160.166000L77.444600,155.497000C77.423600,155.404000,77.428900,155.306000,77.459700,155.216000C77.490500,155.126000,77.545800,155.045000,77.619300,154.985000C77.692900,154.924000,77.781900,154.884000,77.876400,154.871000C77.971000,154.857000,78.067400,154.870000,78.155100,154.908000C79.261500,155.027000,80.377200,154.792000,81.342200,154.238000C81.565500,154.076000,81.667000,153.923000,81.656800,153.781000C81.464000,151.569000,81.210200,149.326000,80.926000,147.123000C80.926000,146.849000,80.855000,146.555000,80.824500,146.240000C80.692600,144.860000,80.530200,143.134000,79.454300,142.474000C78.378400,141.815000,76.165700,141.987000,74.896900,142.129000C75.228000,144.529000,75.083100,146.971000,74.470600,149.315000C74.241800,150.143000,73.817100,150.904000,73.232300,151.533000C72.647500,152.162000,71.919900,152.640000,71.111000,152.929000L71.689500,158.582000Z" fill="rgb(78,86,102)" stroke="none" stroke-width="1"/><path id="e73Uh42KxDC44" d="M95.978400,173.219000C95.978400,173.219000,86.975300,163.708000,83.412700,160.105000C80.103800,156.786000,70.481600,153.771000,66.106900,158.522000C66.106900,158.522000,58.900400,168.570000,57.520000,174.406000L61.732300,176.974000C60.807600,183.895000,60.262100,190.862000,60.098100,197.843000C68.005000,204.156000,88.305000,193.955000,88.305000,193.955000L86.467800,179.644000L89.756400,182.922000L95.978400,173.219000Z" fill="rgb(196,234,245)" stroke="none" stroke-width="1"/><path id="e73Uh42KxDC45" d="M81.869900,152.096000C81.674300,152.271000,81.443500,152.401000,81.193000,152.479000C80.942600,152.556000,80.678400,152.579000,80.418400,152.545000C80.158500,152.512000,79.908800,152.422000,79.686400,152.284000C79.464000,152.145000,79.274000,151.960000,79.129400,151.741000" fill="rgb(255,255,255)" stroke="none" stroke-width="1"/><path id="e73Uh42KxDC46" d="M80.560500,151.279000L80.286500,151.279000C79.968800,151.327000,79.665100,151.443000,79.395600,151.618000C79.126100,151.793000,78.896900,152.023000,78.723400,152.294000C78.646300,152.404000,78.614800,152.539000,78.635700,152.672000C78.656500,152.804000,78.728000,152.924000,78.835000,153.004000C78.946800,153.078000,79.082400,153.106000,79.214300,153.084000C79.346200,153.061000,79.464600,152.989000,79.545500,152.883000C79.639700,152.724000,79.766100,152.587000,79.916400,152.481000C80.066700,152.374000,80.237800,152.300000,80.418400,152.263000C80.825800,152.245000,81.226100,152.375000,81.545100,152.629000C81.651600,152.711000,81.785600,152.750000,81.919500,152.736000C82.053500,152.723000,82.177300,152.659000,82.265700,152.558000C82.349900,152.454000,82.389600,152.321000,82.376300,152.188000C82.363000,152.055000,82.297700,151.933000,82.194700,151.847000C81.723900,151.490000,81.151700,151.291000,80.560500,151.279000L80.560500,151.279000Z" fill="rgb(78,86,102)" stroke="none" stroke-width="1"/><path id="e73Uh42KxDC47" d="M76.754400,148.412000C76.607300,147.868000,76.316300,147.374000,75.912000,146.981000C75.649000,146.633000,75.330000,146.331000,74.968000,146.088000C74.787800,145.964000,74.582400,145.881000,74.366600,145.846000C74.150700,145.811000,73.929800,145.824000,73.719600,145.885000C73.541400,145.959000,73.380700,146.069000,73.247800,146.209000C73.115000,146.349000,73.012900,146.515000,72.948200,146.697000C72.821800,147.065000,72.780200,147.457000,72.826400,147.844000C72.905600,148.683000,73.205500,149.487000,73.695700,150.173000C74.186000,150.860000,74.849000,151.404000,75.617600,151.751000L75.475500,151.640000" fill="rgb(255,255,255)" stroke="none" stroke-width="1"/><path id="e73Uh42KxDC48" d="M75.617600,152.259000C75.550800,152.274000,75.481500,152.274000,75.414700,152.259000C74.570200,151.869000,73.843800,151.263000,73.309100,150.502000C72.774400,149.740000,72.450300,148.852000,72.369700,147.925000C72.322100,147.462000,72.374000,146.995000,72.521900,146.555000C72.612000,146.304000,72.754700,146.076000,72.940200,145.885000C73.125800,145.694000,73.350000,145.545000,73.597800,145.448000C73.879500,145.364000,74.176100,145.343000,74.467000,145.385000C74.757900,145.427000,75.036200,145.532000,75.282700,145.692000C75.670100,145.977000,76.012300,146.319000,76.297700,146.707000C76.767700,147.172000,77.098200,147.759000,77.251800,148.402000C77.261900,148.468000,77.258900,148.535000,77.242900,148.600000C77.226900,148.665000,77.198300,148.726000,77.158700,148.780000C77.119100,148.833000,77.069300,148.879000,77.012100,148.913000C76.954900,148.948000,76.891500,148.971000,76.825500,148.980000C76.693100,148.996000,76.559800,148.960000,76.452500,148.881000C76.345100,148.802000,76.271700,148.685000,76.246900,148.554000C76.120200,148.103000,75.870700,147.695000,75.526300,147.377000C75.294100,147.070000,75.017000,146.799000,74.704100,146.575000C74.587000,146.494000,74.454200,146.439000,74.314300,146.412000C74.174400,146.386000,74.030600,146.390000,73.892200,146.423000C73.782200,146.471000,73.683800,146.542000,73.603400,146.632000C73.522900,146.721000,73.462200,146.826000,73.425200,146.940000C73.328200,147.234000,73.297000,147.546000,73.333900,147.854000C73.402500,148.544000,73.635600,149.207000,74.013600,149.788000C74.391500,150.369000,74.903300,150.851000,75.506000,151.193000C75.612800,151.201000,75.715000,151.240000,75.800300,151.305000L75.942400,151.427000C76.027200,151.491000,76.089100,151.580000,76.119200,151.682000C76.149200,151.784000,76.145900,151.893000,76.109600,151.993000C76.073200,152.093000,76.005900,152.179000,75.917300,152.237000C75.828800,152.296000,75.723800,152.325000,75.617600,152.320000L75.617600,152.259000Z" fill="rgb(78,86,102)" stroke="none" stroke-width="1"/><path id="e73Uh42KxDC49" d="M86.762300,180.851000C86.695100,180.850000,86.628800,180.835000,86.567700,180.807000C86.506500,180.779000,86.451800,180.739000,86.407000,180.689000C84.112000,178.328000,81.950100,175.841000,79.931300,173.239000C79.850600,173.131000,79.815900,172.996000,79.834900,172.863000C79.854000,172.729000,79.925200,172.609000,80.032800,172.528000C80.141400,172.450000,80.276100,172.417000,80.408500,172.436000C80.541000,172.455000,80.661000,172.525000,80.743300,172.630000C82.737300,175.196000,84.868500,177.653000,87.127700,179.989000C87.174900,180.035000,87.212500,180.090000,87.238100,180.151000C87.263800,180.212000,87.277000,180.278000,87.277000,180.344000C87.277000,180.410000,87.263800,180.476000,87.238100,180.537000C87.212500,180.598000,87.174900,180.653000,87.127700,180.699000C87.081200,180.749000,87.024600,180.789000,86.961500,180.815000C86.898500,180.841000,86.830500,180.854000,86.762300,180.851000L86.762300,180.851000Z" fill="rgb(78,86,102)" stroke="none" stroke-width="1"/><path id="e73Uh42KxDC50" d="M79.640600,145.056000C79.652900,144.613000,79.522000,144.250000,79.348300,144.245000C79.174600,144.240000,79.023800,144.595000,79.011500,145.038000C78.999200,145.481000,79.130100,145.844000,79.303800,145.848000C79.477500,145.853000,79.628300,145.498000,79.640600,145.056000Z" fill="rgb(78,86,102)" stroke="none" stroke-width="1"/><path id="e73Uh42KxDC51" d="M61.641000,175.452000L61.559800,175.452000C61.427500,175.427000,61.310100,175.352000,61.232400,175.242000C61.154700,175.132000,61.122900,174.996000,61.143700,174.863000C61.214700,174.426000,62.899600,164.094000,64.807800,160.653000C64.839500,160.594000,64.882800,160.542000,64.935000,160.500000C64.987300,160.459000,65.047400,160.428000,65.111900,160.410000C65.176300,160.392000,65.243700,160.387000,65.310100,160.396000C65.376400,160.404000,65.440300,160.426000,65.498000,160.460000C65.556600,160.491000,65.608300,160.533000,65.650000,160.584000C65.691700,160.636000,65.722500,160.695000,65.740500,160.759000C65.758600,160.822000,65.763500,160.889000,65.754900,160.955000C65.746400,161.020000,65.724600,161.083000,65.690900,161.140000C63.874000,164.459000,62.158700,174.954000,62.148500,175.056000C62.122700,175.170000,62.058100,175.272000,61.965500,175.344000C61.873000,175.417000,61.758300,175.454000,61.641000,175.452000L61.641000,175.452000Z" fill="rgb(78,86,102)" stroke="none" stroke-width="1"/><g id="e73Uh42KxDC52_tr" transform="translate(323.776368,216.991440) rotate(0)"><path id="e73Uh42KxDC52" d="M328.048000,206.795000C328.148000,205.367000,327.845000,203.939000,327.175000,202.674000C326.617000,201.750000,325.774000,201.019000,325.318000,200.055000C324.536000,198.380000,325.084000,196.401000,324.901000,194.564000C324.735000,193.032000,324.055000,191.601000,322.973000,190.504000C322.009000,189.489000,320.770000,188.860000,319.847000,187.855000C318.334000,186.180000,317.908000,183.846000,317.045000,181.765000C315.834000,178.821000,313.724000,176.335000,311.016000,174.660000C312.661000,177.969000,308.915000,182.171000,310.610000,185.460000C311.148000,186.475000,312.184000,187.256000,312.579000,188.352000C313.523000,191.022000,310.357000,193.904000,311.372000,196.543000C311.879000,197.863000,313.290000,198.573000,313.950000,199.873000C314.833000,201.557000,314.132000,203.608000,314.203000,205.506000C314.305000,208.135000,315.909000,210.479000,317.807000,212.296000C318.984000,213.433000,320.304000,214.407000,321.572000,215.432000C323.105000,216.661000,323.755000,217.940000,325.094000,215.981000C326.953000,213.272000,327.979000,210.079000,328.048000,206.795000L328.048000,206.795000Z" transform="translate(-323.776368,-216.991440)" fill="rgb(78,86,102)" stroke="none" stroke-width="1"/></g><g id="e73Uh42KxDC53_tr" transform="translate(332.942826,215.271957) rotate(0)"><path id="e73Uh42KxDC53" d="M329.753000,208.287000C329.266000,206.257000,328.911000,204.055000,329.753000,202.136000C330.687000,199.974000,333.022000,198.442000,333.296000,196.097000C333.478000,194.554000,332.697000,193.001000,333.001000,191.479000C333.306000,189.956000,334.544000,188.931000,335.569000,187.815000C337.920000,185.226000,339.319000,181.915000,339.538000,178.426000C341.109000,180.301000,342.383000,182.406000,343.314000,184.668000C343.764000,185.807000,343.949000,187.033000,343.854000,188.253000C343.759000,189.474000,343.387000,190.657000,342.766000,191.712000C342.371000,192.188000,342.046000,192.718000,341.801000,193.285000C341.345000,194.777000,342.624000,196.178000,343.283000,197.589000C343.674000,198.398000,343.837000,199.297000,343.754000,200.191000C343.672000,201.085000,343.348000,201.940000,342.816000,202.664000C341.477000,204.339000,338.888000,204.988000,338.229000,207.028000C338.059000,207.788000,337.980000,208.565000,337.995000,209.343000C337.854000,210.690000,337.314000,211.964000,336.444000,213.002000C335.574000,214.039000,334.414000,214.794000,333.113000,215.169000C331.519000,215.554000,331.550000,214.925000,331.266000,213.585000C330.890000,211.870000,330.190000,210.084000,329.753000,208.287000Z" transform="translate(-332.942826,-215.271957)" fill="rgb(78,86,102)" stroke="none" stroke-width="1"/></g><g id="e73Uh42KxDC54_tr" transform="translate(327.002500,201.037109) rotate(0)"><path id="e73Uh42KxDC54" d="M324.699000,193.681000C323.572000,189.773000,323.125000,185.703000,321.928000,181.816000C320.916000,178.780000,319.684000,175.822000,318.243000,172.965000L323.085000,174.995000C324.638000,175.644000,326.312000,176.416000,327.043000,177.938000C328.322000,180.577000,326.028000,183.957000,327.368000,186.566000C327.946000,187.418000,328.588000,188.225000,329.286000,188.982000C330.707000,191.012000,330.494000,193.732000,329.713000,196.087000C329.378000,197.102000,327.906000,202.268000,326.597000,200.827000C326.069000,200.258000,326.028000,198.106000,325.805000,197.325000C325.470000,196.097000,325.054000,194.899000,324.699000,193.681000Z" transform="translate(-327.002500,-201.037109)" fill="rgb(78,86,102)" stroke="none" stroke-width="1"/></g><path id="e73Uh42KxDC55" d="M327.256000,245.538000C326.292000,239.163000,323.267000,216.681000,323.196000,216.448000L324.211000,216.316000C324.211000,216.539000,327.256000,239.021000,328.271000,245.385000L327.256000,245.538000Z" fill="rgb(78,86,102)" stroke="none" stroke-width="1"/><path id="e73Uh42KxDC56" d="M328.576000,251.546000L327.561000,251.546000C327.561000,243.964000,330.788000,215.006000,332.636000,212.976000L333.387000,213.667000C331.976000,215.199000,328.637000,243.162000,328.576000,251.546000Z" fill="rgb(78,86,102)" stroke="none" stroke-width="1"/><path id="e73Uh42KxDC57" d="M330.210000,250.105000L329.195000,250.105000C329.916000,233.784000,326.455000,199.497000,326.424000,199.152000L327.439000,199.051000C327.470000,199.355000,330.941000,233.713000,330.210000,250.105000Z" fill="rgb(78,86,102)" stroke="none" stroke-width="1"/><path id="e73Uh42KxDC58" d="M319.055000,227.247000L337.071000,227.247000L335.813000,247.709000C335.590000,251.252000,332.971000,254.002000,329.804000,254.002000L326.323000,254.002000C323.156000,254.002000,320.537000,251.252000,320.314000,247.709000L319.055000,227.247000Z" fill="rgb(255,255,255)" stroke="none" stroke-width="1"/><path id="e73Uh42KxDC59" d="M329.804000,254.500000L326.322000,254.500000C322.892000,254.500000,320.029000,251.526000,319.796000,247.720000L318.527000,227.257000C318.522000,227.115000,318.573000,226.976000,318.669000,226.872000C318.718000,226.818000,318.778000,226.775000,318.844000,226.745000C318.911000,226.715000,318.982000,226.700000,319.055000,226.699000L337.071000,226.699000C337.144000,226.700000,337.216000,226.715000,337.282000,226.745000C337.349000,226.775000,337.408000,226.818000,337.457000,226.872000C337.554000,226.976000,337.605000,227.115000,337.599000,227.257000L336.330000,247.720000C336.097000,251.546000,333.235000,254.500000,329.804000,254.500000ZM319.654000,227.755000L320.882000,247.659000C321.075000,250.907000,323.491000,253.454000,326.363000,253.454000L329.845000,253.454000C332.717000,253.454000,335.133000,250.907000,335.326000,247.659000L336.554000,227.755000L319.654000,227.755000Z" fill="rgb(78,86,102)" stroke="none" stroke-width="1"/><path id="e73Uh42KxDC60" d="M296.607000,104L245.393000,104C242.414000,104,240,107.439000,240,111.682000L240,117.317000C240,121.560000,242.414000,125,245.393000,125L296.607000,125C299.586000,125,302,121.560000,302,117.317000L302,111.682000C302,107.439000,299.586000,104,296.607000,104Z" fill="rgb(236,244,247)" stroke="none" stroke-width="1"/><path id="e73Uh42KxDC61" d="M296.607000,130L245.393000,130C242.414000,130,240,133.439000,240,137.682000L240,143.317000C240,147.560000,242.414000,151,245.393000,151L296.607000,151C299.586000,151,302,147.560000,302,143.317000L302,137.682000C302,133.439000,299.586000,130,296.607000,130Z" fill="rgb(236,244,247)" stroke="none" stroke-width="1"/><path id="e73Uh42KxDC62" d="M296.607000,156L245.393000,156C242.414000,156,240,159.439000,240,163.682000L240,169.317000C240,173.560000,242.414000,177,245.393000,177L296.607000,177C299.586000,177,302,173.560000,302,169.317000L302,163.682000C302,159.439000,299.586000,156,296.607000,156Z" fill="rgb(236,244,247)" stroke="none" stroke-width="1"/><path id="e73Uh42KxDC63" d="M296.607000,182L245.393000,182C242.414000,182,240,185.439000,240,189.682000L240,195.317000C240,199.560000,242.414000,203,245.393000,203L296.607000,203C299.586000,203,302,199.560000,302,195.317000L302,189.682000C302,185.439000,299.586000,182,296.607000,182Z" fill="rgb(236,244,247)" stroke="none" stroke-width="1"/></svg>