<svg width="403" height="306" viewBox="0 0 403 306" fill="none" xmlns="http://www.w3.org/2000/svg">
<path d="M250.515 84.7209C250.515 84.7209 254.696 81.8079 270.765 95.4089C286.835 109.01 287.48 121.312 287.48 121.312V67.5167C287.48 67.5167 279.118 44.1717 252.127 35.1382L250.515 84.7209Z" fill="#4DFBEA"/>
<path d="M287.48 121.819C287.35 121.822 287.225 121.774 287.131 121.685C287.037 121.595 286.981 121.472 286.976 121.342C286.976 121.221 286.13 109.071 270.443 95.7948C255.099 82.813 250.867 85.1272 250.787 85.1475C250.707 85.1948 250.617 85.2198 250.525 85.2198C250.432 85.2198 250.342 85.1948 250.263 85.1475C250.185 85.1023 250.121 85.0371 250.077 84.9586C250.032 84.8801 250.01 84.7911 250.011 84.7009L251.623 35.1587C251.623 35.0797 251.642 35.002 251.679 34.9319C251.715 34.8619 251.767 34.8016 251.831 34.7559C251.895 34.7103 251.969 34.6807 252.047 34.6695C252.124 34.6584 252.204 34.666 252.278 34.6918C279.198 43.7253 287.873 67.1718 287.953 67.3748C287.962 67.432 287.962 67.4902 287.953 67.5474V121.342C287.953 121.475 287.902 121.603 287.809 121.698C287.717 121.793 287.591 121.847 287.46 121.85L287.48 121.819ZM251.875 83.9802C254.323 83.9802 259.864 85.5636 271.088 95.064C281.364 103.763 285.394 111.883 286.976 116.724V67.659C283.735 60.2576 279.007 53.6127 273.091 48.1431C267.174 42.6736 260.198 38.4979 252.6 35.8794L251.038 83.9802C251.316 83.951 251.597 83.951 251.875 83.9802Z" fill="#028380"/>
<path d="M122.814 102.991V55.1134C141.276 48.6471 160.84 45.9859 180.343 47.2878V93.2267C180.343 93.2267 145.131 94.2011 122.814 102.991Z" fill="#4DFBEA"/>
<path d="M122.824 103.498C122.721 103.501 122.619 103.473 122.532 103.417C122.467 103.367 122.413 103.303 122.377 103.229C122.34 103.155 122.321 103.073 122.32 102.991V55.1132C122.319 55.0113 122.348 54.9113 122.404 54.8262C122.459 54.7411 122.539 54.6749 122.633 54.6361C141.184 48.1789 160.826 45.5082 180.413 46.78C180.539 46.7903 180.657 46.8482 180.743 46.9423C180.829 47.0364 180.877 47.1597 180.876 47.2875V93.2265C180.876 93.3576 180.826 93.4837 180.736 93.5783C180.646 93.6729 180.523 93.7287 180.393 93.734C180.04 93.734 144.979 94.8099 122.965 103.468C122.92 103.484 122.872 103.494 122.824 103.498ZM123.328 55.4583V102.25C144.052 94.3125 175.567 92.8814 179.869 92.719V47.7646C160.704 46.5909 141.497 49.2045 123.328 55.4583Z" fill="#028380"/>
<path d="M100.75 129.655C100.75 129.655 83.6221 136.821 77.1439 157.994V115.607C77.1439 115.607 76.7711 95.0839 100.75 82.0513V129.655Z" fill="#4DFBEA"/>
<path d="M77.0936 158.461H77.0231C76.9029 158.442 76.7934 158.38 76.7141 158.287C76.6347 158.194 76.5907 158.076 76.5898 157.953V115.608C76.5898 115.405 76.5898 94.6376 100.458 81.605C100.535 81.5624 100.621 81.54 100.709 81.54C100.797 81.54 100.884 81.5624 100.961 81.605C101.035 81.6513 101.096 81.7156 101.138 81.7919C101.18 81.8682 101.203 81.9541 101.203 82.0415V129.655C101.203 129.755 101.173 129.853 101.117 129.936C101.061 130.019 100.983 130.084 100.891 130.122C95.3185 132.934 90.3759 136.864 86.3667 141.671C82.3575 146.479 79.3664 152.061 77.5772 158.075C77.5504 158.184 77.4884 158.281 77.4008 158.351C77.3133 158.421 77.2052 158.46 77.0936 158.461ZM100.196 82.9651C77.5772 95.6526 77.5772 115.445 77.5772 115.597V154.898C81.6554 143.809 89.7213 134.669 100.175 129.29L100.196 82.9651Z" fill="#028380"/>
<path d="M77.0938 115.607C77.0938 115.607 81.295 134.02 97.4654 140.13V189.672C97.4654 189.672 79.0382 176.853 77.0938 157.953V115.607Z" fill="#C6FFF7"/>
<path d="M97.4659 190.179C97.3646 190.18 97.2657 190.148 97.1838 190.088C96.9924 189.956 78.535 176.893 76.6006 158.004V115.607C76.6022 115.482 76.649 115.361 76.7324 115.268C76.8159 115.174 76.9301 115.115 77.054 115.1C77.1775 115.085 77.3021 115.117 77.403 115.19C77.5039 115.264 77.5735 115.373 77.598 115.496C77.598 115.678 81.9403 133.766 97.6573 139.653C97.7528 139.69 97.8348 139.755 97.8924 139.841C97.95 139.926 97.9805 140.027 97.9797 140.13V189.672C97.979 189.764 97.9533 189.855 97.9054 189.933C97.8574 190.012 97.7891 190.076 97.7077 190.119C97.6342 190.161 97.5505 190.182 97.4659 190.179ZM77.5779 118.906V157.953C79.2402 174.122 93.4158 185.957 96.942 188.667V140.475C85.0737 135.816 79.5929 124.468 77.5779 118.906Z" fill="#028380"/>
<path d="M210.194 138.364C210.194 138.364 229.659 204.613 237.528 207.932C245.396 211.251 257.517 202.359 258.534 196.706C259.552 191.052 243.704 125.524 243.704 125.524L210.194 138.364Z" fill="#EEFFFC"/>
<path d="M241.327 209.17C239.945 209.192 238.574 208.93 237.297 208.399C233.891 206.968 228.229 194.747 220.391 172.072C214.608 155.274 209.721 138.668 209.671 138.506C209.632 138.383 209.642 138.25 209.698 138.135C209.754 138.019 209.853 137.93 209.973 137.887L243.483 125.057C243.548 125.029 243.618 125.015 243.689 125.015C243.76 125.015 243.83 125.029 243.896 125.057C243.959 125.091 244.015 125.139 244.058 125.196C244.102 125.254 244.132 125.321 244.148 125.392C244.802 128.072 260.026 191.073 258.998 196.777C258.414 199.974 254.636 204.044 249.81 206.683C247.219 208.182 244.311 209.035 241.327 209.17ZM210.809 138.668C211.625 141.439 216.139 156.512 221.388 171.737C231.463 201.101 235.967 206.724 237.73 207.465C240.813 208.774 245.064 208.165 249.376 205.81C253.88 203.354 257.527 199.477 258.041 196.615C258.827 192.26 248.853 148.991 243.342 126.204L210.809 138.668Z" fill="#028380"/>
<path d="M243.815 193.6C242.989 172.133 276.126 142.596 276.126 142.596L294.261 154.187C294.261 154.187 280.77 192.91 267.501 205.952C260.942 212.418 244.268 206.795 243.815 193.6Z" fill="#EEFFFC"/>
<path d="M260.176 209.18C257.995 209.159 255.838 208.721 253.819 207.891C248.902 205.922 243.542 201.141 243.26 193.63C242.908 184.597 248.298 173.199 259.219 159.74C264.306 153.515 269.828 147.663 275.742 142.231C275.829 142.165 275.935 142.129 276.044 142.129C276.153 142.129 276.26 142.165 276.347 142.231L294.482 153.812C294.579 153.873 294.654 153.965 294.692 154.074C294.731 154.183 294.731 154.302 294.693 154.411C294.552 154.797 281.022 193.397 267.813 206.419C265.721 208.306 262.982 209.296 260.176 209.18ZM244.268 193.6C244.53 200.624 249.567 205.1 254.192 206.957C259.129 208.937 264.337 208.419 267.138 205.648C279.48 193.468 292.195 158.461 293.635 154.411L276.135 143.246C272.921 146.179 243.502 173.696 244.268 193.59V193.6Z" fill="#028380"/>
<path d="M258.142 205.303C258.037 205.302 257.936 205.271 257.849 205.212C257.742 205.132 257.669 205.014 257.646 204.881C257.623 204.748 257.653 204.612 257.729 204.501C257.99 204.136 283.924 167.383 288.679 146.362C288.693 146.296 288.72 146.234 288.758 146.18C288.797 146.125 288.845 146.078 288.901 146.042C288.958 146.006 289.02 145.982 289.086 145.971C289.151 145.959 289.219 145.961 289.283 145.976C289.348 145.99 289.409 146.018 289.463 146.056C289.518 146.095 289.563 146.144 289.598 146.201C289.633 146.258 289.656 146.321 289.666 146.387C289.676 146.453 289.673 146.52 289.656 146.585C284.85 167.799 258.817 204.724 258.555 205.09C258.508 205.157 258.447 205.211 258.375 205.248C258.303 205.285 258.223 205.304 258.142 205.303Z" fill="#4DFBEA"/>
<path d="M216.864 152.229C231.71 152.229 243.745 140.105 243.745 125.149C243.745 110.193 231.71 98.0684 216.864 98.0684C202.019 98.0684 189.984 110.193 189.984 125.149C189.984 140.105 202.019 152.229 216.864 152.229Z" fill="#028380"/>
<path d="M216.864 152.736C211.448 152.736 206.154 151.118 201.651 148.087C197.147 145.055 193.638 140.747 191.565 135.706C189.492 130.665 188.95 125.118 190.007 119.766C191.063 114.415 193.671 109.499 197.501 105.641C201.331 101.783 206.21 99.1551 211.522 98.0907C216.834 97.0262 222.34 97.5725 227.344 99.6605C232.347 101.749 236.624 105.285 239.633 109.821C242.642 114.358 244.248 119.692 244.248 125.148C244.24 132.462 241.353 139.475 236.219 144.647C231.085 149.819 224.125 152.728 216.864 152.736ZM216.864 98.5756C211.648 98.5756 206.548 100.134 202.21 103.054C197.873 105.974 194.492 110.124 192.496 114.979C190.499 119.835 189.977 125.178 190.995 130.332C192.013 135.487 194.525 140.222 198.213 143.938C201.902 147.654 206.602 150.185 211.719 151.21C216.835 152.236 222.138 151.709 226.958 149.698C231.778 147.687 235.897 144.281 238.795 139.911C241.694 135.541 243.241 130.404 243.241 125.148C243.23 118.104 240.448 111.351 235.503 106.37C230.559 101.389 223.857 98.5863 216.864 98.5756Z" fill="#028380"/>
<path d="M178.74 105.295C178.74 105.295 140.687 116.368 133.252 135.907C125.816 155.446 149.825 254.662 149.825 254.662C149.825 254.662 191.032 276.667 232.44 253.546C232.44 253.546 244.077 169.494 237.941 148.321C231.806 127.148 217.62 106.381 208.814 103.265C200.009 100.149 178.74 105.295 178.74 105.295Z" fill="#EEFFFC"/>
<path d="M191.506 264.478C177.014 264.457 162.703 261.231 149.584 255.028C149.521 254.996 149.466 254.95 149.422 254.894C149.379 254.838 149.348 254.773 149.332 254.703C149.272 254.46 143.287 229.582 138.25 202.644C131.509 166.398 129.666 143.875 132.779 135.654C135.892 127.432 144.587 119.718 158.561 112.735C165.023 109.541 171.723 106.86 178.6 104.717C179.466 104.504 200.08 99.6417 208.946 102.778C218.437 106.097 232.451 127.686 238.365 148.067C244.47 169.108 233.327 250.065 232.884 253.495C232.876 253.574 232.849 253.65 232.805 253.715C232.761 253.781 232.702 253.834 232.632 253.871C220.053 260.901 205.891 264.554 191.506 264.478ZM150.259 254.236C153.412 255.83 192.826 274.851 231.957 253.14C232.652 248.065 243.312 168.641 237.438 148.382C231.05 126.377 216.976 106.676 208.654 103.722C200.14 100.748 179.487 105.549 178.872 105.691C178.026 105.935 140.94 117.049 133.726 135.999C126.603 154.766 148.99 248.938 150.259 254.236Z" fill="#028380"/>
<path d="M214.507 259.869C214.375 259.867 214.25 259.814 214.157 259.721C214.063 259.629 214.008 259.504 214.003 259.372C214.003 258.286 212.089 151.132 210.98 142.647C209.751 133.512 190.014 125.676 189.823 125.595C189.7 125.543 189.602 125.445 189.55 125.322C189.497 125.199 189.494 125.06 189.541 124.935C189.564 124.873 189.599 124.817 189.645 124.769C189.69 124.722 189.744 124.683 189.804 124.657C189.864 124.63 189.929 124.616 189.994 124.615C190.06 124.614 190.125 124.626 190.186 124.651C191.022 124.976 210.688 132.771 211.988 142.515C213.116 151.021 214.95 254.906 215.01 259.321C215.012 259.388 215 259.454 214.976 259.516C214.952 259.578 214.916 259.635 214.87 259.683C214.824 259.731 214.769 259.77 214.709 259.796C214.648 259.823 214.583 259.837 214.517 259.839L214.507 259.869Z" fill="#4DFBEA"/>
<path d="M169.038 103.265L170.65 126.722C170.65 126.722 180.241 137.054 189.984 135.857C200.583 134.537 208.19 126.722 208.19 126.722L206.709 110.299L169.038 103.265Z" fill="#028380"/>
<path d="M188.402 136.465C179.154 136.465 170.711 127.493 170.338 127.087C170.256 127.002 170.206 126.89 170.197 126.772L168.595 103.316C168.588 103.24 168.599 103.163 168.627 103.093C168.655 103.022 168.699 102.959 168.756 102.91C168.813 102.855 168.882 102.816 168.958 102.795C169.033 102.774 169.113 102.771 169.189 102.788L206.86 109.781C206.967 109.803 207.064 109.859 207.137 109.941C207.21 110.024 207.254 110.128 207.263 110.238L208.744 126.661C208.749 126.734 208.74 126.808 208.715 126.878C208.691 126.948 208.653 127.012 208.603 127.067C208.28 127.391 200.744 135.044 190.095 136.364C189.533 136.433 188.968 136.467 188.402 136.465ZM171.194 126.518C172.333 127.686 181.189 136.455 189.974 135.359C199.424 134.182 206.558 127.635 207.716 126.518L206.296 110.715L169.643 103.904L171.194 126.518Z" fill="#028380"/>
<path d="M215.282 154.431C215.282 154.431 194.004 161.272 193.782 188.941C193.561 216.61 212.451 210.256 223.362 201.121C234.274 191.986 235.976 178.487 235.009 170.336C234.042 162.186 228.863 150.524 215.282 154.431Z" fill="#EEFFFC"/>
<path d="M205.893 209.464C204.186 209.502 202.492 209.155 200.936 208.449C195.767 205.973 193.188 199.426 193.279 188.992C193.5 161.262 214.91 154.056 215.131 153.985C220.008 152.584 224.199 153.03 227.644 155.324C233.75 159.384 235.201 167.88 235.493 170.377C236.611 179.766 234.103 192.9 223.675 201.608C218.859 205.597 211.938 209.464 205.893 209.464ZM215.434 154.918C214.97 155.071 194.508 162.145 194.276 188.961C194.185 198.969 196.573 205.201 201.329 207.495C207.736 210.54 217.005 205.79 223 200.786C233.075 192.341 235.553 179.583 234.465 170.448C234.183 168.063 232.803 159.983 227.05 156.126C223.927 154.015 220.008 153.599 215.434 154.918Z" fill="#028380"/>
<path d="M229.831 177.888C229.438 186.008 221.116 197.975 215.293 200.218C211.737 201.598 206.971 202.796 203.868 199.345C201.903 197.142 200.604 193.072 200.735 185.987C201.057 167.717 214.517 162.693 218.346 161.881C220.12 161.602 221.935 161.939 223.494 162.835C226.93 164.713 230.244 169.179 229.831 177.888Z" fill="#EEFFFC"/>
<path d="M209.257 202.136C208.182 202.17 207.111 201.968 206.12 201.546C205.129 201.124 204.24 200.491 203.515 199.69C201.227 197.132 200.129 192.514 200.25 185.978C200.613 165.353 217.549 161.536 218.264 161.384C220.153 161.093 222.083 161.451 223.745 162.399C226.425 163.84 230.798 167.748 230.354 177.888C229.941 186.475 221.367 198.401 215.494 200.695C213.52 201.555 211.406 202.044 209.257 202.136ZM219.514 162.308C219.175 162.311 218.837 162.348 218.506 162.419C217.811 162.561 201.63 166.205 201.288 186.028C201.177 192.311 202.185 196.686 204.31 199.051C207.283 202.349 211.937 201.081 215.181 199.782C220.723 197.609 229.014 185.906 229.397 177.868C229.851 168.286 225.79 164.673 223.352 163.323C222.177 162.667 220.857 162.318 219.514 162.308Z" fill="#028380"/>
<path d="M229.83 177.888C229.438 186.008 221.116 197.975 215.292 200.218C211.736 201.598 206.97 202.796 203.867 199.345C207.303 199.721 212.411 198.462 217.972 190.981C225.428 180.963 226.032 170.052 223.483 162.835C226.929 164.713 230.244 169.179 229.83 177.888Z" fill="#028380"/>
<path d="M209.258 202.136C208.182 202.169 207.112 201.968 206.121 201.546C205.13 201.124 204.241 200.49 203.515 199.69C203.444 199.614 203.398 199.518 203.383 199.416C203.368 199.313 203.385 199.208 203.431 199.115C203.477 199.022 203.551 198.945 203.641 198.895C203.732 198.846 203.836 198.826 203.938 198.837C207.152 199.182 212.109 198.046 217.6 190.717C225.197 180.506 225.388 169.727 223.041 163.038C223.007 162.943 223.003 162.84 223.028 162.742C223.053 162.645 223.107 162.557 223.182 162.49C223.258 162.422 223.352 162.379 223.453 162.367C223.554 162.354 223.656 162.372 223.746 162.419C226.426 163.86 230.798 167.768 230.355 177.908C229.942 186.495 221.368 198.421 215.495 200.715C213.519 201.568 211.406 202.05 209.258 202.136ZM205.228 199.944C208.17 202.075 212.2 200.908 215.102 199.781C220.643 197.609 228.935 185.906 229.317 177.867C229.71 169.646 226.779 165.799 224.381 164.033C226.345 171.016 225.721 181.44 218.336 191.326C213.359 198.086 208.654 199.852 205.238 199.944H205.228Z" fill="#028380"/>
<path d="M117.626 173.98C117.626 173.98 119.893 243 126.693 248.247C133.494 253.495 147.428 247.923 149.866 242.706C152.304 237.488 153.312 170.062 153.312 170.062L117.626 173.98Z" fill="#EEFFFC"/>
<path d="M133.726 250.856C131.104 250.953 128.523 250.18 126.381 248.654C123.439 246.4 121.001 233.124 119.107 209.201C117.706 191.479 117.092 174.163 117.092 173.99C117.091 173.863 117.137 173.74 117.22 173.644C117.304 173.549 117.42 173.488 117.545 173.473L153.18 169.565C153.251 169.556 153.322 169.562 153.39 169.583C153.458 169.604 153.52 169.64 153.573 169.687C153.627 169.736 153.67 169.795 153.699 169.861C153.728 169.928 153.744 170 153.745 170.072C153.745 172.833 152.677 237.671 150.249 242.929C148.889 245.872 144.204 248.857 138.884 250.186C137.196 250.61 135.465 250.835 133.726 250.856ZM118.15 174.427C118.25 177.319 118.845 193.052 120.165 209.119C122.613 240.097 125.525 246.674 127.036 247.842C129.706 249.872 133.957 250.379 138.723 249.202C143.7 247.963 148.193 245.142 149.412 242.493C151.266 238.483 152.435 194.077 152.808 170.631L118.15 174.427Z" fill="#028380"/>
<path d="M141.967 228.851C156.595 213.21 200.724 216.326 200.724 216.326L205.258 237.499C205.258 237.499 168.393 254.957 149.845 254.581C140.717 254.409 132.99 238.443 141.967 228.851Z" fill="#EEFFFC"/>
<path d="M150.4 255.099H149.815C145.433 255.018 141.151 251.475 138.904 246.096C136.889 241.173 136.486 233.977 141.594 228.516C147.75 221.929 159.588 217.798 176.786 216.225C184.756 215.519 192.766 215.386 200.754 215.829C200.864 215.833 200.97 215.875 201.054 215.946C201.138 216.018 201.195 216.116 201.218 216.225L205.752 237.397C205.776 237.51 205.761 237.628 205.71 237.732C205.658 237.835 205.574 237.918 205.469 237.966C205.107 238.128 169.048 255.099 150.4 255.099ZM191.919 216.59C178.327 216.59 152.626 218.143 142.329 229.196C137.554 234.271 137.907 241.072 139.831 245.69C141.896 250.623 145.876 254.003 149.835 254.074C167.064 254.46 200.805 239.011 204.684 237.205L200.311 216.803C199.273 216.742 196.19 216.59 191.919 216.59Z" fill="#028380"/>
<path d="M145.08 247.679C144.964 247.679 144.851 247.639 144.761 247.565C144.671 247.491 144.609 247.388 144.586 247.273C144.562 247.14 144.591 247.003 144.667 246.891C144.742 246.779 144.858 246.701 144.989 246.674C145.412 246.593 187.919 238.057 201.248 229.419C201.36 229.355 201.492 229.336 201.618 229.367C201.743 229.398 201.852 229.476 201.921 229.586C201.991 229.695 202.017 229.827 201.993 229.955C201.969 230.082 201.897 230.196 201.792 230.272C188.302 239.031 146.934 247.334 145.181 247.679H145.08Z" fill="#4DFBEA"/>
<path d="M199.545 219.685C199.545 219.685 208.794 210.956 212.905 207.505C217.015 204.054 225.196 199.274 224.995 203.445C224.793 207.617 217.166 209.667 216.874 210.784C216.874 210.784 232.45 208.358 239.714 210.784C246.978 213.21 248.923 215.169 246.767 216.366C244.611 217.564 236.631 214.732 232.964 215.169C229.297 215.605 225.851 216.366 225.851 216.366C225.851 216.366 238.576 217.127 242.666 219.726C246.757 222.324 248.49 224.943 245.9 225.816C243.311 226.689 235.342 220.386 227.584 221.472C227.584 221.472 244.198 226.902 243.754 231.236C243.311 235.57 241.508 234.931 239.724 233.845C237.941 232.758 229.287 229.054 225.408 228.404C225.408 228.404 243.12 242.756 238.364 243.629C233.609 244.502 223.584 233.642 223.584 233.642C223.584 233.642 204.311 242.777 199.565 237.336C194.82 231.896 199.545 219.685 199.545 219.685Z" fill="#028380"/>
<path d="M237.77 244.137C233.055 244.137 224.974 235.855 223.413 234.2C220.733 235.438 203.777 242.929 199.132 237.621C194.246 232.018 198.85 220.011 199.041 219.503C199.07 219.432 199.115 219.37 199.172 219.32C199.263 219.229 208.482 210.53 212.552 207.14C215.262 204.867 222.033 200.289 224.531 201.548C224.864 201.729 225.132 202.01 225.298 202.352C225.464 202.694 225.52 203.08 225.458 203.456C225.297 206.501 221.64 208.47 219.222 209.759L218.778 209.992C223.252 209.424 234.032 208.358 239.835 210.297C247.895 212.977 248.006 214.631 248.056 215.179C248.107 215.727 247.935 216.265 246.968 216.803C245.638 217.534 242.827 217.016 239.573 216.407C237.416 215.886 235.202 215.637 232.984 215.666C231.775 215.808 230.586 215.991 229.538 216.164C233.669 216.59 240.117 217.524 242.898 219.29C244.742 220.467 247.814 222.731 247.573 224.679C247.512 225.197 247.19 225.887 246.021 226.283C244.852 226.679 242.918 225.897 240.309 224.791C237.367 223.553 233.85 222.061 230.234 221.858C235.049 223.634 244.59 227.613 244.218 231.287C244.006 233.317 243.492 234.505 242.596 234.951C241.699 235.398 240.48 234.951 239.422 234.271C235.558 232.296 231.529 230.665 227.382 229.399C239.694 239.62 239.714 242.594 239.593 243.132C239.528 243.407 239.377 243.653 239.163 243.835C238.95 244.018 238.684 244.127 238.404 244.147C238.193 244.165 237.98 244.161 237.77 244.137ZM223.564 233.084C223.634 233.083 223.703 233.096 223.768 233.124C223.832 233.152 223.89 233.194 223.937 233.246C226.667 236.21 234.576 243.761 238.253 243.081C238.606 243.021 238.636 242.899 238.646 242.858C239.089 241.082 230.979 233.54 225.075 228.76C224.987 228.689 224.925 228.591 224.898 228.481C224.87 228.371 224.88 228.255 224.924 228.151C224.969 228.048 225.048 227.963 225.146 227.91C225.245 227.856 225.358 227.838 225.468 227.856C229.317 228.506 238.052 232.211 239.966 233.368C240.752 233.845 241.628 234.292 242.172 234.018C242.545 233.825 243.039 233.175 243.24 231.145C243.533 228.283 233.689 223.959 227.413 221.909C227.346 221.903 227.282 221.883 227.223 221.852C227.164 221.821 227.112 221.779 227.07 221.728C226.984 221.624 226.942 221.49 226.954 221.355C226.966 221.221 227.031 221.096 227.134 221.01C227.237 220.923 227.37 220.881 227.503 220.894C232.279 220.224 237.165 222.284 240.732 223.796C242.958 224.74 244.873 225.552 245.769 225.258C246.313 225.075 246.605 224.822 246.646 224.497C246.736 223.756 245.638 222.162 242.434 220.092C238.495 217.585 225.982 216.803 225.851 216.803C225.73 216.796 225.617 216.744 225.531 216.658C225.446 216.572 225.395 216.458 225.387 216.336C225.375 216.213 225.408 216.09 225.481 215.991C225.554 215.891 225.66 215.823 225.78 215.798C225.78 215.798 229.297 215.027 232.944 214.59C235.26 214.548 237.573 214.804 239.825 215.352C242.505 215.849 245.537 216.367 246.555 215.849C246.827 215.697 247.139 215.463 247.119 215.21C247.099 214.956 246.626 213.545 239.593 211.2C232.561 208.856 217.136 211.2 216.985 211.2C216.902 211.21 216.818 211.201 216.739 211.172C216.661 211.144 216.59 211.098 216.532 211.038C216.478 210.974 216.44 210.899 216.42 210.818C216.401 210.737 216.401 210.652 216.421 210.571C216.562 210.003 217.257 209.617 218.819 208.785C221.035 207.597 224.39 205.801 224.521 203.324C224.521 202.583 224.269 202.431 224.158 202.38C222.607 201.588 217.035 204.674 213.267 207.841C209.499 211.007 200.956 219.006 200.019 219.929C199.575 221.117 195.707 232.018 199.958 236.9C201.762 238.93 206.346 238.93 213.217 236.9C216.69 235.843 220.089 234.554 223.393 233.043C223.452 233.044 223.51 233.058 223.564 233.084Z" fill="#028380"/>
<path d="M217.005 58.9805C217.005 58.9805 219.806 86.1317 219.161 100.464C218.517 114.795 212.915 119.353 201.026 121.779C189.138 124.204 170.408 113.74 159.85 100.058C149.291 86.3753 148.102 79.179 151.598 58.9805H217.005Z" fill="#EEFFFC"/>
<path d="M197.55 122.55C185.883 122.55 169.34 113.131 159.487 100.311C148.999 86.7612 147.508 79.3923 151.125 58.8893C151.144 58.772 151.204 58.6654 151.295 58.5891C151.385 58.5127 151.5 58.4716 151.618 58.4732H217.025C217.15 58.4726 217.271 58.519 217.365 58.6035C217.458 58.6879 217.516 58.8043 217.529 58.9299C217.529 59.204 220.33 86.274 219.685 100.484C218.99 115.78 212.632 119.931 201.177 122.246C199.981 122.464 198.766 122.566 197.55 122.55ZM152.021 59.4882C148.545 79.5344 150.006 86.3654 160.273 99.7126C171.043 113.659 189.672 123.525 200.956 121.251C211.927 119.038 218.002 115.07 218.657 100.443C219.252 87.3195 216.914 63.1016 216.552 59.4882H152.021Z" fill="#028380"/>
<path d="M151.599 58.9807C151.599 58.9807 153.845 68.3187 176.695 69.8412C199.546 71.3637 216.995 65.2838 216.995 58.9807C216.995 52.6776 200.734 46.8007 184.292 46.3846C167.85 45.9684 152.536 53.114 151.599 58.9807Z" fill="#EEFFFC"/>
<path d="M183.909 70.5922C181.591 70.5922 179.177 70.511 176.665 70.3486C153.704 68.8159 151.205 59.4982 151.125 59.1024C151.11 59.0356 151.11 58.9662 151.125 58.8994C152.132 52.6673 167.648 45.4506 184.372 45.8769C200.049 46.2931 217.569 51.9669 217.569 58.9806C217.523 59.7435 217.321 60.4885 216.974 61.1682C216.627 61.8479 216.144 62.4475 215.554 62.9289C211.313 66.857 199.958 70.5922 183.909 70.5922ZM152.132 58.9501C152.283 59.3967 153.079 61.3861 156.001 63.5075C159.074 65.7405 165.159 68.5825 176.745 69.3336C195.445 70.582 210.043 66.6743 214.809 62.2286C215.298 61.8413 215.702 61.3566 215.997 60.8047C216.292 60.2529 216.47 59.6457 216.521 59.0212C216.521 53.2458 200.865 47.369 184.281 46.9325C168.454 46.425 153.21 53.256 152.132 58.9501Z" fill="#028380"/>
<path d="M163.85 99.4485C167.668 100.951 176.645 101.326 175.345 89.1158C174.046 76.9053 169.3 70.1556 161.059 70.1353C152.818 70.115 152.717 79.9909 153.684 83.8987C154.651 87.8064 155.619 96.1599 163.85 99.4485Z" fill="#028380"/>
<path d="M167.91 100.697C166.461 100.692 165.025 100.427 163.669 99.9155C156.062 96.8705 154.46 89.7046 153.503 85.3909C153.402 84.8935 153.291 84.4368 153.191 84.0206C152.485 81.1786 152.375 75.7281 154.954 72.409C155.671 71.4963 156.593 70.7682 157.644 70.2846C158.695 69.8011 159.845 69.576 160.999 69.6279C169.331 69.6279 174.449 76.3675 175.789 89.0652C176.293 93.8661 175.315 97.2663 172.857 99.1542C171.419 100.198 169.682 100.74 167.91 100.697ZM164.041 98.9715C165.865 99.6922 169.673 100.372 172.313 98.3423C174.459 96.6878 175.335 93.6022 174.852 89.2073C173.552 76.9359 168.908 70.7038 161.059 70.6835C160.052 70.6291 159.046 70.8181 158.126 71.2347C157.206 71.6514 156.398 72.2837 155.77 73.0789C153.422 76.1239 153.553 81.2699 154.188 83.8176C154.299 84.2337 154.4 84.7007 154.51 85.2082C155.417 89.2682 156.949 96.2107 164.062 99.0121L164.041 98.9715Z" fill="#028380"/>
<path d="M170.65 92.0998C170.397 92.7622 169.991 93.3543 169.465 93.8273C168.939 94.3003 168.31 94.6405 167.628 94.82C162.127 96.1902 158.661 89.6029 157.684 86.2635C156.707 82.9242 157.281 74.3576 162.137 75.0072C162.778 75.0192 163.408 75.1752 163.981 75.4639C165.736 76.3329 167.241 77.6397 168.353 79.26C170.781 82.508 172.182 88.527 170.65 92.0998Z" fill="#EEFFFC"/>
<path d="M166.147 95.5103C161.542 95.5103 158.298 90.3034 157.16 86.3753C156.485 84.0205 156.414 78.4888 158.691 75.8092C159.101 75.3088 159.63 74.9221 160.23 74.6859C160.829 74.4496 161.479 74.3716 162.117 74.4592C162.817 74.4732 163.505 74.6431 164.132 74.9566C165.969 75.8573 167.547 77.2165 168.716 78.9049C171.164 82.1428 172.746 88.4155 171.114 92.2623C170.829 93.0071 170.371 93.6722 169.779 94.202C169.186 94.7318 168.476 95.1108 167.708 95.3073C167.198 95.4377 166.674 95.5059 166.147 95.5103ZM161.583 75.4844C161.175 75.4795 160.772 75.5684 160.403 75.7443C160.035 75.9202 159.711 76.1784 159.457 76.4994C157.613 78.6613 157.442 83.7059 158.127 86.1013C158.923 88.8316 162.157 95.6321 167.467 94.3025C168.081 94.1501 168.65 93.8498 169.123 93.4272C169.597 93.0047 169.962 92.4726 170.187 91.8766C171.698 88.3546 170.187 82.5488 167.91 79.5444C166.843 78.0005 165.409 76.7511 163.739 75.9107C163.241 75.6575 162.694 75.5156 162.137 75.4945H162.036L161.583 75.4844Z" fill="#028380"/>
<path d="M151.599 58.9804C151.599 58.9804 154.792 38.6804 173.764 35.6354C190.186 32.9964 211.303 40.7104 217.006 58.9804C217.006 58.9804 219.162 71.3634 186.176 71.1604C153.19 70.9574 151.599 58.9804 151.599 58.9804Z" fill="#028380"/>
<path d="M187.022 71.6577H186.176C153.14 71.4344 151.125 59.5589 151.125 59.0514V58.8992C151.125 58.6962 154.601 38.2338 173.713 35.1685C190.75 32.4483 211.797 40.548 217.519 58.8281C217.599 59.8089 217.47 60.7956 217.139 61.7217C216.809 62.6479 216.286 63.4921 215.605 64.1975C212.744 67.618 205.459 71.6577 187.022 71.6577ZM152.132 58.9804C152.344 59.9142 155.467 70.4296 186.206 70.6326H187.052C205.036 70.6326 212.079 66.806 214.829 63.5276C215.407 62.934 215.857 62.2263 216.15 61.4489C216.443 60.6715 216.573 59.8413 216.532 59.0108C212.179 45.1256 195.022 32.7223 173.854 36.1124C156.072 39.0255 152.364 57.5898 152.132 58.9804Z" fill="#028380"/>
<path d="M137.071 190.017C151.916 190.017 163.951 177.893 163.951 162.937C163.951 147.981 151.916 135.856 137.071 135.856C122.225 135.856 110.19 147.981 110.19 162.937C110.19 177.893 122.225 190.017 137.071 190.017Z" fill="#028380"/>
<path d="M137.07 190.555C131.654 190.555 126.36 188.937 121.857 185.905C117.353 182.874 113.844 178.565 111.771 173.524C109.698 168.483 109.156 162.936 110.213 157.585C111.269 152.234 113.877 147.318 117.707 143.46C121.537 139.601 126.416 136.974 131.728 135.909C137.04 134.845 142.546 135.391 147.55 137.479C152.553 139.567 156.83 143.103 159.839 147.64C162.848 152.177 164.454 157.511 164.454 162.967C164.446 170.281 161.559 177.294 156.425 182.466C151.291 187.638 144.331 190.547 137.07 190.555ZM137.07 136.394C131.854 136.394 126.754 137.953 122.416 140.873C118.079 143.793 114.698 147.943 112.702 152.798C110.705 157.654 110.183 162.997 111.201 168.151C112.219 173.306 114.731 178.041 118.419 181.757C122.108 185.473 126.808 188.004 131.925 189.029C137.041 190.055 142.345 189.528 147.164 187.517C151.984 185.506 156.103 182.1 159.002 177.73C161.9 173.36 163.447 168.223 163.447 162.967C163.444 155.918 160.665 149.157 155.72 144.17C150.775 139.182 144.068 136.375 137.07 136.364V136.394Z" fill="#028380"/>
<path d="M197.181 91.0185C198.634 91.0185 199.811 89.2235 199.811 87.0093C199.811 84.795 198.634 83 197.181 83C195.729 83 194.552 84.795 194.552 87.0093C194.552 89.2235 195.729 91.0185 197.181 91.0185Z" fill="#028380"/>
<path d="M212.814 86.2636C214.266 86.2636 215.444 84.4686 215.444 82.2544C215.444 80.0401 214.266 78.2451 212.814 78.2451C211.362 78.2451 210.185 80.0401 210.185 82.2544C210.185 84.4686 211.362 86.2636 212.814 86.2636Z" fill="#028380"/>
<path d="M171.275 94.9319C171.201 94.93 171.128 94.9118 171.062 94.8785C170.996 94.8451 170.938 94.7975 170.892 94.739L156.858 77.6972C156.815 77.6459 156.783 77.5867 156.764 77.5229C156.744 77.4592 156.737 77.3922 156.743 77.3257C156.749 77.2593 156.768 77.1947 156.799 77.1357C156.83 77.0766 156.872 77.0243 156.923 76.9816C156.974 76.939 157.033 76.9068 157.096 76.8871C157.159 76.8673 157.226 76.8603 157.292 76.8664C157.358 76.8725 157.422 76.8917 157.481 76.9228C157.539 76.9539 157.591 76.9963 157.633 77.0476L171.678 94.13C171.721 94.1809 171.753 94.2399 171.772 94.3035C171.792 94.3671 171.799 94.4341 171.792 94.5003C171.785 94.5666 171.766 94.6309 171.734 94.6893C171.702 94.7477 171.659 94.7992 171.608 94.8405C171.512 94.912 171.393 94.9446 171.275 94.9319Z" fill="#028380"/>
<path d="M294.251 154.198C290.957 154.46 287.643 154.276 284.397 153.65C278.09 152.635 274.856 148.879 274.695 141.551C274.534 134.223 272.438 124.621 274.695 122.083C276.952 119.546 286.342 113.527 286.785 116.46C287.228 119.393 280.801 123.25 280.478 125.149C280.156 127.047 282.584 128.518 282.423 132.588C282.423 132.588 285.949 114.187 294.21 112.228C302.472 110.269 303.278 114.674 301.172 116.135C299.066 117.597 295.329 117.932 294.21 119.718C293.092 121.505 292.286 128.518 292.286 128.518C292.286 128.518 300.85 114.836 306.19 117.932C311.529 121.028 311.68 124.935 309.091 124.448C306.502 123.961 303.6 123.19 301.978 125.524C300.356 127.859 298.099 131.614 298.099 131.614C298.099 131.614 307.832 125.747 310.723 127.209C313.615 128.671 316.214 133.299 312.658 133.025C309.101 132.751 305.696 132.588 304.084 134.375C302.472 136.161 301.978 139.917 300.689 143.825C299.399 147.732 298.915 154.147 294.251 154.198Z" fill="#028380"/>
<path d="M291.802 154.817C289.293 154.796 286.79 154.576 284.316 154.157C277.667 153.071 274.362 148.95 274.191 141.561C274.191 139.237 273.899 136.679 273.657 134.202C273.103 128.529 272.649 123.636 274.322 121.748C276.337 119.526 283.742 114.491 286.331 115.252C286.592 115.317 286.827 115.459 287.007 115.66C287.186 115.861 287.302 116.111 287.339 116.379C287.671 118.409 285.424 120.53 283.44 122.469C282.311 123.555 281.142 124.672 281.032 125.281C281.02 126.045 281.245 126.794 281.676 127.422C282.07 128.15 282.391 128.915 282.634 129.706C284.014 124.377 287.611 113.324 294.149 111.771C300.688 110.218 302.209 112.593 302.512 113.354C302.742 113.928 302.768 114.565 302.584 115.155C302.4 115.746 302.019 116.254 301.504 116.592C300.47 117.237 299.356 117.738 298.189 118.084C296.668 118.632 295.227 119.099 294.673 120.033C294.119 120.967 293.464 124.093 293.112 126.478C295.731 122.774 301.988 114.928 306.481 117.526C310.289 119.739 311.72 122.459 311.156 123.992C310.995 124.398 310.688 124.729 310.296 124.917C309.903 125.105 309.455 125.137 309.04 125.007L308.496 124.895C306.169 124.448 303.751 123.971 302.451 125.91C301.554 127.219 300.436 128.955 299.63 130.274C302.653 128.61 308.637 125.656 311.015 126.854C313.11 127.869 315.347 130.772 314.884 132.467C314.743 132.954 314.299 133.736 312.677 133.624C309.05 133.34 305.937 133.238 304.516 134.811C303.509 135.948 302.935 138.039 302.28 140.455C301.968 141.622 301.645 142.83 301.222 144.078C300.98 144.829 300.759 145.682 300.527 146.575C299.58 150.209 298.411 154.695 294.3 154.797C293.469 154.85 292.634 154.856 291.802 154.817ZM285.686 116.176C283.419 116.176 277.052 120.236 275.077 122.428C273.677 123.981 274.181 129.127 274.654 134.101C274.896 136.598 275.148 139.176 275.198 141.531C275.359 148.453 278.301 152.148 284.477 153.152C287.674 153.759 290.936 153.94 294.18 153.69H294.24C297.605 153.69 298.582 149.874 299.529 146.23C299.771 145.317 299.993 144.454 300.255 143.662C300.658 142.444 300.98 141.247 301.262 140.1C301.947 137.552 302.542 135.36 303.731 134.01C305.453 132.101 308.819 132.193 312.707 132.487C313.382 132.548 313.775 132.406 313.866 132.081C314.138 131.066 312.456 128.62 310.521 127.635C308.345 126.529 301.02 130.427 298.381 132.02C298.284 132.076 298.171 132.098 298.06 132.083C297.949 132.069 297.846 132.018 297.766 131.939C297.688 131.858 297.638 131.754 297.626 131.642C297.613 131.529 297.637 131.416 297.696 131.32C297.696 131.32 299.983 127.534 301.585 125.23C303.187 122.926 306.139 123.342 308.637 123.829L309.181 123.931C309.544 124.002 310.007 124.002 310.189 123.596C310.521 122.672 309.413 120.368 305.957 118.358C301.927 116.014 295.036 125.088 292.729 128.772C292.668 128.869 292.576 128.942 292.469 128.98C292.362 129.018 292.245 129.018 292.137 128.981C292.03 128.943 291.938 128.87 291.877 128.773C291.816 128.676 291.79 128.561 291.802 128.447C291.802 128.153 292.638 121.342 293.817 119.444C294.562 118.247 296.164 117.678 297.847 117.079C298.924 116.754 299.956 116.293 300.92 115.709C301.25 115.504 301.497 115.186 301.613 114.813C301.73 114.441 301.709 114.038 301.554 113.679C301.031 112.492 298.864 111.649 294.351 112.664C286.502 114.522 282.976 132.446 282.946 132.619C282.919 132.744 282.849 132.856 282.747 132.932C282.645 133.009 282.519 133.045 282.392 133.035C282.265 133.02 282.149 132.957 282.067 132.859C281.985 132.761 281.942 132.635 281.948 132.507C282.004 130.851 281.588 129.213 280.75 127.788C280.203 126.969 279.944 125.99 280.014 125.007C280.175 124.073 281.294 122.977 282.714 121.637C284.427 119.992 286.563 117.962 286.321 116.481C286.315 116.404 286.285 116.331 286.234 116.274C286.182 116.217 286.114 116.179 286.039 116.166C285.921 116.153 285.803 116.157 285.686 116.176Z" fill="#028380"/>
<path d="M107.591 214.803V164.622C107.591 164.622 135.448 183.166 177.108 179.024V227.968C177.108 227.968 149.825 236.321 107.591 214.803Z" fill="#C6FFF7"/>
<path d="M162.58 230.018C150.369 230.018 131.167 227.379 107.359 215.26C107.277 215.216 107.208 215.15 107.16 215.07C107.113 214.989 107.087 214.897 107.087 214.803V164.622C107.084 164.529 107.106 164.438 107.151 164.357C107.197 164.277 107.264 164.211 107.344 164.167C107.425 164.122 107.516 164.102 107.608 164.107C107.699 164.112 107.788 164.142 107.863 164.195C108.145 164.378 136.073 182.587 177.048 178.527C177.117 178.521 177.186 178.528 177.252 178.549C177.318 178.57 177.378 178.604 177.431 178.649C177.481 178.698 177.521 178.756 177.549 178.82C177.577 178.885 177.591 178.954 177.592 179.025V227.968C177.593 228.076 177.559 228.182 177.495 228.27C177.432 228.358 177.342 228.422 177.239 228.455C177.119 228.496 171.88 230.018 162.58 230.018ZM108.095 214.499C146.914 234.18 173.25 228.435 176.605 227.582V179.593C139.327 183.105 112.911 168.428 108.095 165.525V214.499Z" fill="#028380"/>
<path d="M237.267 185.734V114.014C237.267 114.014 299.973 111.639 325.927 85.9897V160.085C325.927 160.085 299.973 180.984 237.267 185.734Z" fill="#C6FFF7"/>
<path d="M237.266 186.241C237.14 186.24 237.019 186.193 236.924 186.109C236.874 186.061 236.833 186.003 236.806 185.938C236.778 185.874 236.763 185.804 236.763 185.734V114.014C236.763 113.883 236.813 113.757 236.903 113.662C236.993 113.568 237.116 113.512 237.246 113.507C237.871 113.507 300.054 110.837 325.554 85.6245C325.624 85.5548 325.713 85.5079 325.81 85.4898C325.907 85.4717 326.007 85.4833 326.098 85.523C326.197 85.559 326.282 85.6254 326.342 85.7128C326.401 85.8002 326.432 85.9042 326.43 86.0102V160.105C326.431 160.182 326.413 160.257 326.38 160.326C326.347 160.394 326.299 160.454 326.239 160.501C325.977 160.714 299.469 181.552 237.327 186.262L237.266 186.241ZM237.77 114.501V185.186C296.447 180.639 322.934 161.689 325.423 159.811V87.1775C300.366 110.725 243.614 114.197 237.77 114.501Z" fill="#028380"/>
<path d="M206.709 270.74V225.441C206.709 225.441 249.921 225.116 280.78 201.801V248.41C280.78 248.41 252.54 272.07 206.709 270.74Z" fill="#C6FFF7"/>
<path d="M210.296 271.339C209.107 271.339 207.918 271.339 206.699 271.339C206.568 271.334 206.444 271.278 206.352 271.184C206.26 271.09 206.208 270.964 206.205 270.831V225.441C206.208 225.307 206.262 225.179 206.355 225.085C206.449 224.99 206.576 224.936 206.709 224.933C207.142 224.933 250.112 224.344 280.478 201.395C280.554 201.342 280.642 201.311 280.734 201.305C280.826 201.298 280.918 201.316 281 201.358C281.083 201.399 281.153 201.462 281.202 201.54C281.252 201.618 281.28 201.709 281.284 201.801V248.41C281.283 248.485 281.266 248.559 281.235 248.627C281.204 248.696 281.159 248.756 281.103 248.806C280.821 249.06 253.689 271.339 210.296 271.339ZM207.213 270.324C250.142 271.4 277.738 250.217 280.276 248.227V202.857C251.492 224.091 212.099 225.847 207.213 225.979V270.324Z" fill="#028380"/>
</svg>
