<svg width="406" height="306" viewBox="0 0 406 306" fill="none" xmlns="http://www.w3.org/2000/svg">
<path d="M252.38 84.7214C252.38 84.7214 256.592 81.8084 272.781 95.4094C288.971 109.01 289.62 121.312 289.62 121.312V67.5172C289.62 67.5172 281.196 44.1722 254.004 35.1387L252.38 84.7214Z" fill="#D0D3D9"/>
<path d="M289.62 121.819C289.49 121.822 289.364 121.773 289.269 121.684C289.174 121.595 289.118 121.472 289.112 121.342C289.112 121.22 288.26 109.071 272.456 95.7943C256.998 82.8125 252.735 85.1267 252.654 85.147C252.574 85.1943 252.483 85.2193 252.39 85.2193C252.297 85.2193 252.206 85.1943 252.126 85.147C252.048 85.1018 251.983 85.0367 251.938 84.9581C251.894 84.8796 251.871 84.7907 251.872 84.7004L253.496 35.1582C253.497 35.0792 253.516 35.0015 253.552 34.9315C253.589 34.8614 253.642 34.8011 253.706 34.7554C253.771 34.7098 253.845 34.6802 253.923 34.669C254.001 34.6579 254.081 34.6655 254.156 34.6913C281.277 43.7248 290.016 67.1713 290.097 67.3743C290.106 67.4315 290.106 67.4897 290.097 67.5469V121.342C290.097 121.475 290.045 121.602 289.952 121.697C289.859 121.792 289.732 121.847 289.6 121.849L289.62 121.819ZM253.75 83.9797C256.216 83.9797 261.799 85.5631 273.106 95.0635C283.459 103.762 287.519 111.882 289.112 116.724V67.6585C285.847 60.2571 281.084 53.6122 275.124 48.1426C269.164 42.6731 262.135 38.4975 254.481 35.8789L252.907 83.9797C253.187 83.9505 253.47 83.9505 253.75 83.9797Z" fill="#4E5666"/>
<path d="M123.729 102.99V55.1129C142.328 48.6467 162.037 45.9854 181.685 47.2873V93.2262C181.685 93.2262 146.211 94.2006 123.729 102.99Z" fill="#D0D3D9"/>
<path d="M123.739 103.498C123.634 103.501 123.532 103.473 123.444 103.417C123.378 103.367 123.325 103.303 123.288 103.229C123.251 103.155 123.231 103.073 123.231 102.991V55.1132C123.229 55.0113 123.259 54.9113 123.315 54.8262C123.371 54.7411 123.451 54.6749 123.546 54.6361C142.235 48.1789 162.023 45.5082 181.756 46.78C181.883 46.7903 182.002 46.8482 182.089 46.9423C182.175 47.0364 182.223 47.1597 182.223 47.2875V93.2265C182.223 93.3576 182.172 93.4837 182.081 93.5783C181.991 93.6729 181.867 93.7287 181.736 93.734C181.38 93.734 146.058 94.8098 123.881 103.468C123.835 103.484 123.787 103.494 123.739 103.498ZM124.246 55.4583V102.25C145.125 94.3125 176.874 92.8814 181.208 92.7189V47.7646C161.901 46.5909 142.55 49.2045 124.246 55.4583Z" fill="#4E5666"/>
<path d="M101.5 129.655C101.5 129.655 84.2451 136.821 77.7186 157.994V115.608C77.7186 115.608 77.3431 95.0844 101.5 82.0518V129.655Z" fill="#D0D3D9"/>
<path d="M77.6677 158.461H77.5966C77.4755 158.442 77.3652 158.38 77.2853 158.287C77.2054 158.194 77.161 158.076 77.1602 157.953V115.608C77.1602 115.405 77.1602 94.6376 101.205 81.605C101.283 81.5624 101.371 81.54 101.459 81.54C101.548 81.54 101.635 81.5624 101.713 81.605C101.787 81.6513 101.848 81.7156 101.891 81.7919C101.934 81.8682 101.956 81.9541 101.957 82.0415V129.655C101.956 129.755 101.926 129.853 101.87 129.936C101.814 130.019 101.735 130.084 101.642 130.122C96.0282 132.934 91.0488 136.864 87.0098 141.671C82.9708 146.479 79.9574 152.061 78.1549 158.075C78.1279 158.184 78.0654 158.281 77.9772 158.351C77.889 158.421 77.7801 158.46 77.6677 158.461ZM100.942 82.9651C78.1549 95.6526 78.1549 115.445 78.1549 115.597V154.898C82.2634 143.809 90.3893 134.668 100.921 129.29L100.942 82.9651Z" fill="#4E5666"/>
<path d="M77.668 115.607C77.668 115.607 81.9005 134.02 98.1913 140.13V189.672C98.1913 189.672 79.6269 176.853 77.668 157.953V115.607Z" fill="white"/>
<path d="M98.1911 190.179C98.089 190.18 97.9894 190.148 97.9069 190.088C97.714 189.956 79.1192 176.893 77.1704 158.003V115.607C77.172 115.481 77.2192 115.361 77.3033 115.267C77.3873 115.174 77.5024 115.114 77.6272 115.099C77.7516 115.084 77.8772 115.116 77.9788 115.19C78.0804 115.263 78.1506 115.372 78.1753 115.495C78.1753 115.678 82.5499 133.765 98.3839 139.652C98.4801 139.689 98.5627 139.755 98.6207 139.84C98.6788 139.925 98.7094 140.026 98.7087 140.129V189.671C98.708 189.764 98.6821 189.854 98.6338 189.933C98.5855 190.012 98.5167 190.076 98.4347 190.118C98.3606 190.16 98.2763 190.181 98.1911 190.179ZM78.155 118.906V157.953C79.8297 174.122 94.1108 185.957 97.6633 188.667V140.474C85.7066 135.816 80.185 124.468 78.155 118.906Z" fill="#4E5666"/>
<path d="M211.759 138.364C211.759 138.364 231.369 204.613 239.296 207.932C247.223 211.251 259.434 202.36 260.459 196.706C261.484 191.053 245.518 125.524 245.518 125.524L211.759 138.364Z" fill="white"/>
<path d="M243.123 209.171C241.731 209.193 240.35 208.93 239.063 208.399C235.632 206.968 229.928 194.747 222.031 172.072C216.205 155.274 211.282 138.669 211.232 138.506C211.192 138.384 211.202 138.251 211.259 138.135C211.316 138.02 211.415 137.931 211.536 137.887L245.295 125.057C245.361 125.03 245.432 125.016 245.503 125.016C245.575 125.016 245.645 125.03 245.711 125.057C245.775 125.091 245.831 125.139 245.875 125.197C245.919 125.255 245.95 125.321 245.965 125.392C246.625 128.072 261.961 191.073 260.926 196.777C260.337 199.975 256.531 204.045 251.669 206.684C249.06 208.182 246.129 209.035 243.123 209.171ZM212.379 138.669C213.201 141.44 217.748 156.512 223.036 171.737C233.186 201.101 237.723 206.724 239.499 207.465C242.605 208.775 246.889 208.166 251.233 205.811C255.77 203.355 259.444 199.477 259.962 196.615C260.753 192.261 250.705 148.991 245.153 126.204L212.379 138.669Z" fill="#4E5666"/>
<path d="M245.63 193.6C244.798 172.133 278.181 142.597 278.181 142.597L296.451 154.188C296.451 154.188 282.86 192.91 269.493 205.953C262.885 212.419 246.087 206.795 245.63 193.6Z" fill="white"/>
<path d="M262.113 209.18C259.916 209.158 257.743 208.721 255.709 207.891C250.756 205.922 245.356 201.141 245.072 193.63C244.716 184.597 250.147 173.198 261.149 159.739C266.274 153.514 271.837 147.663 277.795 142.23C277.883 142.165 277.99 142.129 278.1 142.129C278.209 142.129 278.316 142.165 278.404 142.23L296.674 153.812C296.773 153.872 296.847 153.965 296.886 154.073C296.925 154.182 296.925 154.301 296.887 154.41C296.745 154.796 283.114 193.397 269.807 206.419C267.699 208.305 264.939 209.296 262.113 209.18ZM246.087 193.6C246.35 200.623 251.425 205.1 256.084 206.957C261.058 208.936 266.305 208.419 269.127 205.648C281.561 193.468 294.37 158.46 295.822 154.41L278.191 143.245C274.953 146.179 245.315 173.695 246.087 193.589V193.6Z" fill="#4E5666"/>
<path d="M260.063 205.303C259.958 205.303 259.856 205.271 259.769 205.212C259.66 205.133 259.587 205.014 259.564 204.882C259.541 204.749 259.571 204.613 259.647 204.502C259.911 204.136 286.037 167.383 290.828 146.362C290.842 146.297 290.87 146.235 290.908 146.18C290.947 146.125 290.996 146.078 291.052 146.043C291.109 146.007 291.172 145.982 291.238 145.971C291.304 145.96 291.372 145.962 291.437 145.977C291.502 145.991 291.564 146.018 291.618 146.057C291.673 146.095 291.719 146.145 291.754 146.201C291.789 146.258 291.812 146.322 291.822 146.388C291.832 146.454 291.829 146.521 291.813 146.586C286.971 167.799 260.743 204.725 260.479 205.09C260.433 205.157 260.371 205.212 260.298 205.249C260.225 205.286 260.145 205.305 260.063 205.303Z" fill="#D0D3D9"/>
<path d="M218.479 152.229C233.435 152.229 245.559 140.105 245.559 125.149C245.559 110.193 233.435 98.0684 218.479 98.0684C203.523 98.0684 191.398 110.193 191.398 125.149C191.398 140.105 203.523 152.229 218.479 152.229Z" fill="#4E5666"/>
<path d="M218.479 152.736C213.022 152.736 207.689 151.118 203.152 148.087C198.615 145.055 195.079 140.747 192.991 135.706C190.903 130.665 190.357 125.118 191.421 119.766C192.486 114.415 195.113 109.499 198.971 105.641C202.83 101.783 207.745 99.1551 213.097 98.0907C218.448 97.0262 223.995 97.5725 229.036 99.6605C234.077 101.749 238.386 105.285 241.417 109.821C244.449 114.358 246.067 119.692 246.067 125.148C246.058 132.462 243.149 139.475 237.977 144.647C232.805 149.819 225.793 152.728 218.479 152.736ZM218.479 98.5756C213.223 98.5756 208.086 100.134 203.716 103.054C199.346 105.974 195.94 110.124 193.929 114.979C191.918 119.835 191.391 125.178 192.417 130.332C193.442 135.487 195.973 140.222 199.689 143.938C203.405 147.654 208.14 150.185 213.295 151.21C218.449 152.236 223.792 151.709 228.648 149.698C233.503 147.687 237.653 144.281 240.573 139.911C243.493 135.541 245.052 130.404 245.052 125.148C245.041 118.104 242.238 111.351 237.257 106.37C232.276 101.389 225.523 98.5863 218.479 98.5756Z" fill="#4E5666"/>
<path d="M180.071 105.295C180.071 105.295 141.735 116.368 134.244 135.907C126.753 155.446 150.941 254.662 150.941 254.662C150.941 254.662 192.454 276.667 234.171 253.546C234.171 253.546 245.894 169.494 239.713 148.321C233.531 127.148 219.24 106.381 210.369 103.265C201.498 100.149 180.071 105.295 180.071 105.295Z" fill="white"/>
<path d="M192.931 264.477C178.331 264.456 163.914 261.23 150.697 255.028C150.634 254.995 150.578 254.949 150.534 254.893C150.49 254.837 150.459 254.772 150.443 254.703C150.382 254.459 144.353 229.582 139.278 202.643C132.488 166.398 130.63 143.875 133.767 135.653C136.903 127.432 145.663 119.718 159.741 112.735C166.251 109.541 173.001 106.86 179.929 104.716C180.802 104.503 201.569 99.6412 210.501 102.778C220.062 106.097 234.181 127.686 240.139 148.067C246.29 169.108 235.064 250.064 234.617 253.495C234.609 253.574 234.582 253.649 234.538 253.715C234.494 253.78 234.434 253.834 234.363 253.871C221.691 260.901 207.423 264.553 192.931 264.477ZM151.377 254.236C154.554 255.829 194.261 274.851 233.683 253.14C234.384 248.065 245.122 168.641 239.205 148.382C232.77 126.376 218.59 106.675 210.206 103.722C201.63 100.748 180.822 105.549 180.203 105.691C179.35 105.934 141.988 117.048 134.721 135.999C127.545 154.766 150.098 248.938 151.377 254.236Z" fill="#4E5666"/>
<path d="M216.104 259.869C215.972 259.867 215.846 259.814 215.751 259.721C215.657 259.629 215.601 259.504 215.596 259.372C215.596 258.286 213.668 151.132 212.551 142.647C211.313 133.512 191.429 125.676 191.236 125.595C191.113 125.543 191.014 125.445 190.961 125.322C190.908 125.199 190.905 125.06 190.952 124.935C190.976 124.873 191.011 124.817 191.057 124.769C191.102 124.722 191.157 124.683 191.217 124.657C191.278 124.63 191.343 124.616 191.409 124.615C191.475 124.614 191.54 124.626 191.602 124.651C192.444 124.976 212.257 132.771 213.566 142.515C214.703 151.021 216.55 254.906 216.611 259.321C216.613 259.388 216.601 259.454 216.577 259.516C216.552 259.578 216.516 259.635 216.47 259.683C216.424 259.731 216.368 259.77 216.307 259.796C216.246 259.823 216.181 259.837 216.114 259.839L216.104 259.869Z" fill="#D0D3D9"/>
<path d="M170.297 103.265L171.921 126.721C171.921 126.721 181.584 137.054 191.399 135.856C202.077 134.537 209.74 126.721 209.74 126.721L208.248 110.299L170.297 103.265Z" fill="#4E5666"/>
<path d="M189.805 136.466C180.487 136.466 171.981 127.493 171.606 127.087C171.523 127.002 171.473 126.891 171.464 126.773L169.85 103.316C169.843 103.24 169.854 103.164 169.882 103.093C169.91 103.023 169.955 102.96 170.012 102.91C170.07 102.856 170.139 102.816 170.215 102.795C170.291 102.774 170.372 102.772 170.449 102.788L208.4 109.782C208.508 109.803 208.606 109.86 208.679 109.942C208.752 110.024 208.797 110.128 208.806 110.238L210.298 126.661C210.303 126.735 210.293 126.809 210.269 126.879C210.244 126.949 210.206 127.013 210.155 127.067C209.831 127.392 202.238 135.045 191.51 136.364C190.944 136.434 190.375 136.468 189.805 136.466ZM172.469 126.519C173.615 127.686 182.537 136.456 191.388 135.36C200.909 134.182 208.095 127.635 209.262 126.519L207.831 110.715L170.905 103.905L172.469 126.519Z" fill="#4E5666"/>
<path d="M216.885 154.431C216.885 154.431 195.448 161.272 195.225 188.941C195.002 216.61 214.033 210.256 225.025 201.121C236.018 191.986 237.733 178.486 236.759 170.336C235.784 162.185 230.567 150.523 216.885 154.431Z" fill="white"/>
<path d="M207.425 209.465C205.706 209.503 204 209.156 202.432 208.45C197.225 205.973 194.626 199.427 194.718 188.992C194.941 161.263 216.51 154.056 216.733 153.985C221.646 152.584 225.868 153.031 229.339 155.325C235.49 159.385 236.952 167.88 237.246 170.377C238.373 179.766 235.845 192.9 225.34 201.609C220.488 205.598 213.515 209.465 207.425 209.465ZM217.038 154.919C216.571 155.071 195.956 162.146 195.723 188.962C195.631 198.97 198.037 205.202 202.828 207.496C209.283 210.541 218.621 205.791 224.66 200.787C234.81 192.342 237.307 179.583 236.211 170.448C235.927 168.063 234.536 159.984 228.74 156.127C225.594 154.015 221.646 153.599 217.038 154.919Z" fill="#4E5666"/>
<path d="M231.542 177.887C231.146 186.007 222.762 197.974 216.896 200.217C213.313 201.598 208.512 202.795 205.386 199.344C203.406 197.142 202.097 193.072 202.229 185.987C202.554 167.717 216.114 162.693 219.971 161.881C221.758 161.602 223.587 161.938 225.158 162.835C228.619 164.713 231.958 169.179 231.542 177.887Z" fill="white"/>
<path d="M210.816 202.136C209.732 202.169 208.654 201.968 207.655 201.546C206.657 201.123 205.761 200.49 205.03 199.69C202.726 197.132 201.62 192.514 201.741 185.977C202.107 165.352 219.169 161.536 219.89 161.384C221.792 161.093 223.737 161.45 225.411 162.399C228.111 163.84 232.516 167.748 232.07 177.888C231.654 186.474 223.016 198.401 217.098 200.695C215.11 201.555 212.98 202.043 210.816 202.136ZM221.148 162.307C220.807 162.31 220.467 162.348 220.133 162.419C219.433 162.561 203.132 166.205 202.787 186.028C202.675 192.311 203.69 196.685 205.832 199.05C208.826 202.349 213.515 201.08 216.784 199.781C222.366 197.609 230.72 185.906 231.105 177.867C231.562 168.286 227.472 164.672 225.015 163.322C223.831 162.667 222.502 162.318 221.148 162.307Z" fill="#4E5666"/>
<path d="M231.542 177.887C231.146 186.007 222.762 197.974 216.895 200.217C213.312 201.598 208.511 202.796 205.385 199.345C208.846 199.72 213.992 198.461 219.595 190.981C227.106 180.963 227.715 170.052 225.147 162.835C228.619 164.713 231.958 169.179 231.542 177.887Z" fill="#4E5666"/>
<path d="M210.816 202.136C209.732 202.17 208.654 201.969 207.655 201.546C206.657 201.124 205.761 200.491 205.03 199.69C204.959 199.615 204.912 199.519 204.897 199.416C204.882 199.313 204.899 199.208 204.945 199.115C204.992 199.022 205.066 198.946 205.157 198.896C205.249 198.846 205.353 198.826 205.456 198.838C208.694 199.183 213.688 198.046 219.22 190.718C226.873 180.507 227.066 169.728 224.701 163.039C224.667 162.944 224.663 162.841 224.688 162.743C224.714 162.645 224.767 162.557 224.843 162.491C224.919 162.423 225.015 162.38 225.116 162.367C225.217 162.355 225.32 162.373 225.411 162.42C228.111 163.861 232.516 167.769 232.07 177.908C231.653 186.495 223.016 198.422 217.098 200.715C215.108 201.569 212.979 202.05 210.816 202.136ZM206.756 199.944C209.719 202.076 213.779 200.908 216.703 199.782C222.285 197.61 230.638 185.907 231.024 177.868C231.42 169.646 228.466 165.799 226.051 164.033C228.03 171.017 227.401 181.441 219.961 191.327C214.947 198.087 210.207 199.853 206.766 199.944H206.756Z" fill="#4E5666"/>
<path d="M118.501 173.98C118.501 173.98 120.785 243 127.636 248.248C134.488 253.495 148.525 247.923 150.981 242.706C153.438 237.489 154.453 170.062 154.453 170.062L118.501 173.98Z" fill="white"/>
<path d="M134.721 250.856C132.08 250.953 129.48 250.179 127.322 248.653C124.358 246.4 121.902 233.124 119.993 209.2C118.583 191.478 117.963 174.162 117.963 173.99C117.963 173.862 118.009 173.739 118.093 173.644C118.177 173.548 118.294 173.487 118.42 173.472L154.321 169.564C154.392 169.556 154.463 169.562 154.532 169.583C154.6 169.604 154.663 169.639 154.717 169.686C154.77 169.735 154.813 169.795 154.843 169.861C154.873 169.927 154.888 169.999 154.889 170.072C154.889 172.833 153.813 237.671 151.367 242.928C149.997 245.872 145.277 248.856 139.918 250.186C138.217 250.61 136.473 250.834 134.721 250.856ZM119.029 174.426C119.131 177.319 119.729 193.051 121.059 209.119C123.526 240.097 126.459 246.674 127.981 247.841C130.671 249.871 134.954 250.379 139.755 249.201C144.77 247.963 149.296 245.141 150.525 242.492C152.392 238.483 153.57 194.077 153.945 170.63L119.029 174.426Z" fill="#4E5666"/>
<path d="M143.024 228.851C157.761 213.21 202.218 216.326 202.218 216.326L206.786 237.499C206.786 237.499 169.647 254.957 150.961 254.582C141.765 254.409 133.98 238.443 143.024 228.851Z" fill="white"/>
<path d="M151.519 255.099H150.931C146.515 255.018 142.202 251.475 139.938 246.096C137.908 241.173 137.502 233.977 142.648 228.516C148.85 221.929 160.776 217.798 178.102 216.225C186.132 215.519 194.201 215.386 202.249 215.829C202.36 215.833 202.466 215.875 202.551 215.946C202.635 216.018 202.693 216.116 202.716 216.225L207.284 237.397C207.308 237.51 207.293 237.628 207.241 237.732C207.19 237.835 207.104 237.918 206.999 237.966C206.634 238.128 170.307 255.099 151.519 255.099ZM193.348 216.59C179.655 216.59 153.763 218.143 143.389 229.196C138.578 234.271 138.933 241.072 140.872 245.69C142.953 250.623 146.962 254.003 150.951 254.074C168.308 254.46 202.3 239.011 206.208 237.205L201.803 216.803C200.757 216.742 197.651 216.59 193.348 216.59Z" fill="#4E5666"/>
<path d="M146.16 247.679C146.043 247.679 145.929 247.639 145.839 247.565C145.748 247.491 145.686 247.388 145.662 247.273C145.639 247.14 145.668 247.003 145.743 246.891C145.819 246.779 145.936 246.701 146.068 246.674C146.495 246.593 189.318 238.057 202.746 229.419C202.859 229.355 202.992 229.336 203.118 229.367C203.245 229.398 203.354 229.476 203.424 229.586C203.495 229.695 203.52 229.827 203.496 229.955C203.472 230.082 203.4 230.196 203.294 230.272C189.703 239.031 148.027 247.334 146.261 247.679H146.16Z" fill="#D0D3D9"/>
<path d="M201.031 219.686C201.031 219.686 210.349 210.957 214.49 207.506C218.631 204.055 226.873 199.274 226.67 203.446C226.467 207.617 218.783 209.668 218.489 210.784C218.489 210.784 234.181 208.358 241.499 210.784C248.817 213.21 250.776 215.169 248.604 216.367C246.432 217.564 238.393 214.733 234.699 215.169C231.004 215.605 227.533 216.367 227.533 216.367C227.533 216.367 240.352 217.128 244.473 219.726C248.594 222.325 250.34 224.943 247.731 225.816C245.123 226.689 237.094 220.386 229.279 221.472C229.279 221.472 246.016 226.902 245.569 231.236C245.123 235.571 243.306 234.931 241.509 233.845C239.713 232.759 230.994 229.054 227.086 228.405C227.086 228.405 244.93 242.757 240.139 243.63C235.348 244.503 225.249 233.642 225.249 233.642C225.249 233.642 205.832 242.777 201.051 237.337C196.271 231.896 201.031 219.686 201.031 219.686Z" fill="#4E5666"/>
<path d="M239.54 244.137C234.79 244.137 226.649 235.854 225.076 234.2C222.376 235.438 205.294 242.929 200.615 237.62C195.692 232.017 200.33 220.01 200.523 219.503C200.552 219.432 200.597 219.369 200.655 219.32C200.746 219.228 210.034 210.53 214.134 207.14C216.865 204.866 223.685 200.289 226.203 201.547C226.538 201.728 226.808 202.009 226.975 202.352C227.143 202.694 227.199 203.08 227.136 203.455C226.974 206.5 223.29 208.469 220.854 209.759L220.407 209.992C224.914 209.424 235.774 208.358 241.621 210.296C249.741 212.976 249.852 214.631 249.903 215.179C249.954 215.727 249.781 216.265 248.807 216.803C247.467 217.533 244.635 217.016 241.357 216.407C239.183 215.885 236.953 215.636 234.719 215.666C233.501 215.808 232.303 215.991 231.247 216.163C235.409 216.589 241.905 217.523 244.706 219.289C246.564 220.467 249.659 222.73 249.416 224.679C249.355 225.197 249.03 225.887 247.853 226.283C246.675 226.679 244.726 225.897 242.098 224.791C239.134 223.552 235.591 222.06 231.948 221.857C236.799 223.634 246.411 227.612 246.036 231.287C245.823 233.317 245.305 234.504 244.402 234.951C243.498 235.397 242.27 234.951 241.204 234.271C237.312 232.295 233.253 230.665 229.075 229.399C241.478 239.62 241.499 242.594 241.377 243.132C241.311 243.406 241.159 243.652 240.944 243.835C240.729 244.017 240.461 244.127 240.179 244.147C239.966 244.164 239.752 244.161 239.54 244.137ZM225.228 233.083C225.299 233.082 225.369 233.096 225.434 233.124C225.498 233.152 225.556 233.193 225.604 233.246C228.354 236.209 236.322 243.761 240.027 243.081C240.382 243.02 240.413 242.898 240.423 242.858C240.869 241.081 232.699 233.54 226.751 228.759C226.662 228.688 226.599 228.591 226.572 228.481C226.544 228.37 226.554 228.254 226.599 228.15C226.644 228.047 226.723 227.963 226.822 227.909C226.921 227.856 227.036 227.837 227.147 227.856C231.024 228.506 239.824 232.21 241.752 233.367C242.544 233.844 243.427 234.291 243.975 234.017C244.351 233.824 244.848 233.175 245.051 231.145C245.346 228.282 235.429 223.958 229.106 221.908C229.039 221.902 228.974 221.883 228.915 221.852C228.856 221.821 228.803 221.778 228.76 221.727C228.673 221.623 228.632 221.489 228.644 221.355C228.656 221.22 228.721 221.096 228.825 221.009C228.928 220.923 229.062 220.881 229.197 220.893C234.008 220.223 238.931 222.284 242.524 223.796C244.767 224.74 246.696 225.552 247.599 225.258C248.147 225.075 248.441 224.821 248.482 224.496C248.573 223.755 247.467 222.162 244.239 220.091C240.271 217.584 227.664 216.803 227.532 216.803C227.411 216.795 227.296 216.744 227.21 216.658C227.124 216.572 227.073 216.457 227.065 216.336C227.053 216.213 227.086 216.09 227.16 215.99C227.233 215.891 227.34 215.822 227.461 215.798C227.461 215.798 231.004 215.026 234.678 214.59C237.012 214.547 239.341 214.803 241.61 215.351C244.31 215.849 247.365 216.366 248.391 215.849C248.665 215.696 248.979 215.463 248.959 215.209C248.939 214.955 248.462 213.544 241.377 211.2C234.292 208.855 218.753 211.2 218.6 211.2C218.517 211.21 218.432 211.2 218.353 211.172C218.274 211.144 218.202 211.098 218.144 211.037C218.089 210.974 218.051 210.899 218.032 210.817C218.012 210.736 218.012 210.652 218.032 210.571C218.174 210.002 218.874 209.616 220.448 208.784C222.681 207.597 226.061 205.8 226.193 203.323C226.193 202.582 225.939 202.43 225.827 202.379C224.264 201.588 218.651 204.673 214.855 207.84C211.059 211.007 202.452 219.005 201.508 219.929C201.061 221.116 197.164 232.017 201.447 236.9C203.264 238.93 207.882 238.93 214.804 236.9C218.303 235.842 221.728 234.554 225.056 233.043C225.115 233.044 225.174 233.057 225.228 233.083Z" fill="#4E5666"/>
<path d="M218.621 58.9805C218.621 58.9805 221.442 86.1317 220.793 100.464C220.143 114.795 214.5 119.353 202.523 121.779C190.546 124.204 171.677 113.74 161.04 100.058C150.402 86.3753 149.205 79.179 152.727 58.9805H218.621Z" fill="white"/>
<path d="M199.021 122.55C187.268 122.55 170.601 113.13 160.675 100.311C150.108 86.7607 148.606 79.3918 152.25 58.8889C152.27 58.7715 152.33 58.6649 152.422 58.5886C152.513 58.5122 152.628 58.4711 152.747 58.4727H218.641C218.767 58.4721 218.889 58.5185 218.983 58.603C219.077 58.6874 219.136 58.8038 219.149 58.9295C219.149 59.2035 221.97 86.2736 221.321 100.484C220.62 115.78 214.216 119.931 202.675 122.245C201.47 122.464 200.246 122.566 199.021 122.55ZM153.153 59.4877C149.652 79.5339 151.123 86.3649 161.466 99.7121C172.317 113.658 191.084 123.524 202.452 121.25C213.505 119.038 219.626 115.069 220.286 100.443C220.884 87.319 218.53 63.1011 218.164 59.4877H153.153Z" fill="#4E5666"/>
<path d="M152.727 58.9807C152.727 58.9807 154.991 68.3187 178.011 69.8412C201.031 71.3637 218.611 65.2838 218.611 58.9807C218.611 52.6775 202.229 46.8007 185.664 46.3846C169.099 45.9684 153.671 53.114 152.727 58.9807Z" fill="white"/>
<path d="M185.278 70.5917C182.944 70.5917 180.511 70.5105 177.98 70.3481C154.849 68.8154 152.331 59.4977 152.25 59.1019C152.235 59.0351 152.235 58.9657 152.25 58.8989C153.265 52.6668 168.896 45.4501 185.745 45.8764C201.539 46.2926 219.189 51.9664 219.189 58.9801C219.143 59.743 218.939 60.488 218.59 61.1677C218.24 61.8474 217.753 62.447 217.159 62.9284C212.886 66.8565 201.447 70.5917 185.278 70.5917ZM153.265 58.9496C153.417 59.3962 154.219 61.3856 157.163 63.507C160.259 65.74 166.389 68.582 178.062 69.3331C196.9 70.5815 211.607 66.6738 216.408 62.2281C216.901 61.8408 217.309 61.3561 217.605 60.8042C217.902 60.2524 218.082 59.6452 218.134 59.0207C218.134 53.2453 202.361 47.3685 185.654 46.932C169.708 46.4245 154.351 53.2555 153.265 58.9496Z" fill="#4E5666"/>
<path d="M165.069 99.449C168.916 100.951 177.96 101.327 176.65 89.1163C175.341 76.9058 170.56 70.1561 162.258 70.1358C153.955 70.1155 153.854 79.9914 154.828 83.8992C155.802 87.8069 156.777 96.1604 165.069 99.449Z" fill="#4E5666"/>
<path d="M169.16 100.698C167.7 100.693 166.253 100.428 164.887 99.916C157.223 96.871 155.609 89.7051 154.645 85.3913C154.544 84.894 154.432 84.4372 154.331 84.0211C153.62 81.1791 153.508 75.7285 156.107 72.4095C156.829 71.4967 157.758 70.7686 158.817 70.2851C159.875 69.8016 161.034 69.5765 162.197 69.6284C170.591 69.6284 175.747 76.368 177.097 89.0656C177.604 93.8666 176.62 97.2668 174.143 99.1547C172.695 100.198 170.945 100.74 169.16 100.698ZM165.262 98.972C167.099 99.6927 170.936 100.373 173.595 98.3427C175.757 96.6883 176.64 93.6027 176.153 89.2077C174.844 76.9364 170.165 70.7043 162.258 70.684C161.243 70.6295 160.23 70.8185 159.303 71.2352C158.376 71.6519 157.562 72.2842 156.929 73.0794C154.564 76.1244 154.696 81.2704 155.335 83.8181C155.447 84.2342 155.549 84.7011 155.66 85.2086C156.574 89.2686 158.116 96.2112 165.282 99.0126L165.262 98.972Z" fill="#4E5666"/>
<path d="M171.921 92.1002C171.665 92.7627 171.256 93.3548 170.727 93.8278C170.197 94.3007 169.563 94.641 168.876 94.8204C163.334 96.1907 159.842 89.6033 158.858 86.264C157.873 82.9247 158.452 74.3581 163.344 75.0077C163.989 75.0197 164.624 75.1757 165.202 75.4644C166.97 76.3334 168.486 77.6402 169.607 79.2605C172.053 82.5085 173.464 88.5274 171.921 92.1002Z" fill="white"/>
<path d="M167.384 95.5108C162.745 95.5108 159.477 90.3038 158.33 86.3758C157.65 84.021 157.579 78.4893 159.873 75.8097C160.285 75.3093 160.819 74.9226 161.423 74.6864C162.027 74.4501 162.681 74.3721 163.324 74.4597C164.029 74.4737 164.722 74.6436 165.354 74.9571C167.205 75.8578 168.795 77.217 169.972 78.9054C172.438 82.1433 174.032 88.416 172.388 92.2628C172.101 93.0076 171.64 93.6727 171.043 94.2025C170.446 94.7323 169.731 95.1113 168.957 95.3078C168.443 95.4382 167.914 95.5064 167.384 95.5108ZM162.786 75.4849C162.375 75.48 161.969 75.5689 161.598 75.7448C161.227 75.9207 160.9 76.1789 160.644 76.4999C158.787 78.6618 158.614 83.7063 159.304 86.1017C160.106 88.8321 163.364 95.6326 168.713 94.3029C169.332 94.1506 169.905 93.8503 170.383 93.4277C170.86 93.0052 171.228 92.4731 171.454 91.8771C172.976 88.355 171.454 82.5492 169.16 79.5449C168.086 78.001 166.641 76.7516 164.958 75.9112C164.456 75.658 163.906 75.5161 163.344 75.495H163.243L162.786 75.4849Z" fill="#4E5666"/>
<path d="M152.727 58.9809C152.727 58.9809 155.945 38.6809 175.057 35.6359C191.602 32.9969 212.876 40.7109 218.621 58.9809C218.621 58.9809 220.793 71.3639 187.562 71.1609C154.331 70.9579 152.727 58.9809 152.727 58.9809Z" fill="#4E5666"/>
<path d="M188.414 71.6577H187.562C154.28 71.4344 152.25 59.5589 152.25 59.0514V58.8992C152.25 58.6962 155.752 38.2338 175.006 35.1685C192.17 32.4483 213.373 40.548 219.138 58.8281C219.219 59.8089 219.089 60.7956 218.756 61.7217C218.423 62.6479 217.896 63.4921 217.21 64.1975C214.327 67.618 206.989 71.6577 188.414 71.6577ZM153.265 58.9804C153.478 59.9142 156.625 70.4296 187.592 70.6326H188.445C206.563 70.6326 213.657 66.806 216.428 63.5276C217.011 62.934 217.464 62.2263 217.759 61.4489C218.054 60.6715 218.185 59.8414 218.144 59.0108C213.759 45.1256 196.474 32.7223 175.148 36.1124C157.234 39.0255 153.498 57.5898 153.265 58.9804Z" fill="#4E5666"/>
<path d="M138.091 190.017C153.047 190.017 165.171 177.893 165.171 162.937C165.171 147.981 153.047 135.856 138.091 135.856C123.135 135.856 111.011 147.981 111.011 162.937C111.011 177.893 123.135 190.017 138.091 190.017Z" fill="#4E5666"/>
<path d="M138.091 190.555C132.634 190.555 127.301 188.937 122.764 185.906C118.227 182.875 114.691 178.566 112.603 173.525C110.515 168.484 109.969 162.937 111.033 157.585C112.098 152.234 114.725 147.318 118.583 143.46C122.441 139.602 127.357 136.974 132.709 135.91C138.06 134.846 143.607 135.392 148.648 137.48C153.689 139.568 157.998 143.104 161.029 147.641C164.06 152.177 165.678 157.511 165.678 162.968C165.67 170.282 162.761 177.294 157.589 182.466C152.417 187.638 145.405 190.547 138.091 190.555ZM138.091 136.395C132.835 136.395 127.698 137.953 123.328 140.873C118.958 143.793 115.552 147.943 113.541 152.799C111.529 157.654 111.003 162.997 112.029 168.152C113.054 173.306 115.585 178.041 119.301 181.757C123.017 185.474 127.752 188.004 132.907 189.03C138.061 190.055 143.404 189.529 148.26 187.518C153.115 185.506 157.265 182.1 160.185 177.731C163.105 173.361 164.663 168.223 164.663 162.968C164.661 155.918 161.861 149.158 156.879 144.17C151.897 139.182 145.14 136.375 138.091 136.364V136.395Z" fill="#4E5666"/>
<path d="M202.594 93.0029C204.057 93.0029 205.243 91.2079 205.243 88.9936C205.243 86.7794 204.057 84.9844 202.594 84.9844C201.131 84.9844 199.945 86.7794 199.945 88.9936C199.945 91.2079 201.131 93.0029 202.594 93.0029Z" fill="#4E5666"/>
<path d="M214.399 86.2636C215.862 86.2636 217.048 84.4686 217.048 82.2544C217.048 80.0401 215.862 78.2451 214.399 78.2451C212.936 78.2451 211.75 80.0401 211.75 82.2544C211.75 84.4686 212.936 86.2636 214.399 86.2636Z" fill="#4E5666"/>
<path d="M172.55 94.9319C172.476 94.93 172.403 94.9118 172.336 94.8785C172.269 94.8451 172.211 94.7975 172.165 94.739L158.026 77.6972C157.983 77.6459 157.951 77.5867 157.931 77.5229C157.911 77.4592 157.904 77.3922 157.91 77.3257C157.916 77.2593 157.936 77.1947 157.967 77.1357C157.998 77.0766 158.04 77.0243 158.092 76.9816C158.143 76.939 158.202 76.9068 158.266 76.8871C158.33 76.8673 158.397 76.8603 158.463 76.8664C158.529 76.8725 158.594 76.8917 158.653 76.9228C158.712 76.9539 158.764 76.9963 158.807 77.0476L172.956 94.13C172.999 94.1809 173.031 94.2399 173.051 94.3035C173.071 94.3671 173.078 94.4341 173.071 94.5003C173.064 94.5666 173.045 94.6309 173.013 94.6893C172.981 94.7477 172.937 94.7992 172.885 94.8405C172.789 94.912 172.669 94.9446 172.55 94.9319Z" fill="#4E5666"/>
<path d="M296.441 154.197C293.123 154.46 289.784 154.276 286.514 153.649C280.16 152.634 276.902 148.879 276.74 141.55C276.578 134.222 274.466 124.62 276.74 122.083C279.014 119.545 288.473 113.526 288.92 116.46C289.367 119.393 282.891 123.25 282.566 125.148C282.241 127.046 284.687 128.518 284.525 132.588C284.525 132.588 288.077 114.186 296.4 112.227C304.723 110.268 305.535 114.673 303.414 116.135C301.293 117.596 297.527 117.931 296.4 119.718C295.274 121.504 294.462 128.518 294.462 128.518C294.462 128.518 303.089 114.836 308.469 117.931C313.848 121.027 314.001 124.935 311.392 124.448C308.783 123.96 305.86 123.189 304.226 125.524C302.592 127.858 300.318 131.614 300.318 131.614C300.318 131.614 310.123 125.747 313.036 127.208C315.949 128.67 318.568 133.298 314.985 133.024C311.402 132.75 307.971 132.588 306.347 134.374C304.723 136.161 304.226 139.916 302.927 143.824C301.628 147.732 301.141 154.147 296.441 154.197Z" fill="#4E5666"/>
<path d="M293.974 154.817C291.447 154.796 288.925 154.576 286.433 154.157C279.734 153.071 276.405 148.95 276.232 141.561C276.232 139.237 275.938 136.679 275.694 134.202C275.136 128.529 274.679 123.636 276.364 121.748C278.394 119.526 285.854 114.491 288.463 115.252C288.725 115.317 288.963 115.459 289.144 115.66C289.325 115.861 289.441 116.111 289.478 116.379C289.813 118.409 287.549 120.53 285.55 122.469C284.413 123.555 283.236 124.672 283.124 125.281C283.112 126.045 283.339 126.794 283.774 127.422C284.17 128.15 284.493 128.915 284.738 129.706C286.128 124.377 289.752 113.324 296.339 111.771C302.927 110.218 304.459 112.593 304.764 113.354C304.996 113.928 305.022 114.565 304.837 115.155C304.652 115.746 304.267 116.254 303.749 116.592C302.707 117.237 301.584 117.738 300.409 118.084C298.877 118.632 297.425 119.099 296.867 120.033C296.309 120.967 295.649 124.093 295.294 126.478C297.933 122.774 304.236 114.928 308.763 117.526C312.6 119.739 314.041 122.459 313.473 123.992C313.311 124.398 313.001 124.729 312.606 124.917C312.211 125.105 311.759 125.137 311.341 125.007L310.793 124.895C308.448 124.448 306.012 123.971 304.703 125.91C303.8 127.219 302.673 128.955 301.861 130.274C304.906 128.61 310.935 125.656 313.33 126.854C315.442 127.869 317.695 130.772 317.228 132.467C317.086 132.954 316.639 133.736 315.005 133.624C311.351 133.34 308.215 133.238 306.784 134.811C305.769 135.948 305.19 138.039 304.53 140.455C304.216 141.622 303.891 142.83 303.465 144.078C303.221 144.829 302.998 145.682 302.764 146.575C301.81 150.209 300.633 154.695 296.492 154.797C295.653 154.85 294.813 154.856 293.974 154.817ZM287.813 116.176C285.53 116.176 279.115 120.236 277.125 122.428C275.714 123.981 276.222 129.127 276.699 134.101C276.943 136.598 277.196 139.176 277.247 141.531C277.41 148.453 280.373 152.148 286.595 153.152C289.816 153.759 293.102 153.94 296.37 153.69H296.431C299.821 153.69 300.805 149.874 301.759 146.23C302.003 145.317 302.226 144.454 302.49 143.662C302.896 142.444 303.221 141.247 303.505 140.1C304.195 137.552 304.794 135.359 305.992 134.01C307.728 132.101 311.118 132.193 315.036 132.487C315.716 132.548 316.112 132.406 316.203 132.081C316.477 131.066 314.782 128.62 312.833 127.635C310.641 126.529 303.262 130.427 300.602 132.02C300.504 132.076 300.391 132.098 300.279 132.083C300.167 132.069 300.063 132.018 299.983 131.939C299.904 131.858 299.854 131.754 299.841 131.642C299.829 131.529 299.853 131.416 299.912 131.32C299.912 131.32 302.216 127.534 303.83 125.23C305.444 122.926 308.418 123.342 310.935 123.829L311.483 123.931C311.849 124.002 312.315 124.002 312.498 123.596C312.833 122.672 311.717 120.368 308.235 118.358C304.175 116.014 297.232 125.088 294.908 128.772C294.847 128.869 294.755 128.942 294.647 128.98C294.538 129.018 294.421 129.018 294.312 128.981C294.204 128.943 294.112 128.87 294.05 128.773C293.989 128.676 293.962 128.561 293.974 128.447C293.974 128.153 294.817 121.342 296.004 119.444C296.755 118.247 298.369 117.678 300.064 117.079C301.149 116.754 302.189 116.293 303.16 115.709C303.493 115.504 303.741 115.186 303.859 114.813C303.976 114.441 303.955 114.038 303.8 113.679C303.272 112.492 301.09 111.649 296.542 112.664C288.635 114.522 285.083 132.446 285.052 132.619C285.026 132.744 284.954 132.856 284.852 132.932C284.749 133.009 284.622 133.045 284.494 133.035C284.367 133.02 284.25 132.957 284.167 132.859C284.084 132.761 284.042 132.635 284.048 132.507C284.103 130.851 283.684 129.213 282.84 127.788C282.289 126.969 282.028 125.99 282.099 125.007C282.261 124.073 283.388 122.977 284.819 121.637C286.545 119.992 288.696 117.962 288.453 116.481C288.447 116.404 288.416 116.331 288.365 116.274C288.313 116.217 288.244 116.179 288.169 116.166C288.05 116.153 287.931 116.157 287.813 116.176Z" fill="#4E5666"/>
<path d="M108.392 214.804V164.622C108.392 164.622 136.456 183.166 178.427 179.025V227.968C178.427 227.968 150.94 236.322 108.392 214.804Z" fill="white"/>
<path d="M163.79 230.019C151.489 230.019 132.143 227.38 108.158 215.261C108.075 215.216 108.006 215.151 107.958 215.07C107.91 214.99 107.884 214.898 107.884 214.804V164.622C107.881 164.53 107.903 164.438 107.949 164.358C107.995 164.277 108.062 164.211 108.143 164.167C108.224 164.123 108.316 164.102 108.408 164.107C108.501 164.112 108.59 164.143 108.666 164.196C108.95 164.379 137.086 182.588 178.366 178.528C178.435 178.521 178.505 178.528 178.571 178.549C178.637 178.57 178.699 178.604 178.751 178.649C178.802 178.698 178.843 178.756 178.871 178.821C178.898 178.885 178.913 178.955 178.914 179.025V227.968C178.915 228.077 178.88 228.183 178.816 228.27C178.752 228.358 178.662 228.423 178.559 228.456C178.437 228.496 173.159 230.019 163.79 230.019ZM108.899 214.499C148.007 234.18 174.539 228.435 177.919 227.583V179.593C140.364 183.105 113.751 168.428 108.899 165.526V214.499Z" fill="#4E5666"/>
<path d="M239.033 185.734V114.014C239.033 114.014 302.206 111.639 328.353 85.9902V160.085C328.353 160.085 302.206 180.984 239.033 185.734Z" fill="#C4EAF5"/>
<path d="M239.032 186.241C238.905 186.24 238.783 186.193 238.687 186.109C238.637 186.061 238.596 186.003 238.568 185.938C238.54 185.874 238.526 185.804 238.525 185.734V114.014C238.525 113.883 238.575 113.757 238.666 113.662C238.757 113.568 238.881 113.512 239.012 113.507C239.641 113.507 302.287 110.837 327.977 85.6245C328.048 85.5548 328.138 85.5079 328.235 85.4898C328.333 85.4717 328.434 85.4833 328.525 85.523C328.625 85.559 328.711 85.6254 328.771 85.7128C328.831 85.8002 328.862 85.9042 328.86 86.0102V160.105C328.86 160.182 328.843 160.257 328.81 160.326C328.776 160.394 328.727 160.454 328.667 160.501C328.403 160.714 301.698 181.552 239.093 186.262L239.032 186.241ZM239.54 114.501V185.186C298.653 180.639 325.338 161.689 327.845 159.811V87.1775C302.602 110.725 245.427 114.197 239.54 114.501Z" fill="#4E5666"/>
<path d="M208.248 270.74V225.44C208.248 225.44 251.781 225.115 282.87 201.801V248.41C282.87 248.41 254.42 272.069 208.248 270.74Z" fill="#C4EAF5"/>
<path d="M211.861 271.338C210.663 271.338 209.466 271.338 208.238 271.338C208.106 271.333 207.981 271.278 207.888 271.184C207.796 271.089 207.743 270.963 207.74 270.831V225.44C207.743 225.306 207.797 225.179 207.892 225.084C207.986 224.99 208.114 224.935 208.248 224.933C208.684 224.933 251.974 224.344 282.566 201.395C282.642 201.342 282.731 201.311 282.824 201.304C282.917 201.297 283.009 201.316 283.092 201.357C283.175 201.399 283.246 201.462 283.296 201.54C283.346 201.618 283.375 201.708 283.378 201.801V248.41C283.377 248.485 283.36 248.559 283.329 248.627C283.297 248.695 283.252 248.756 283.195 248.805C282.911 249.059 255.577 271.338 211.861 271.338ZM208.755 270.323C252.004 271.399 279.805 250.216 282.363 248.227V202.856C253.364 224.09 213.678 225.846 208.755 225.978V270.323Z" fill="#4E5666"/>
</svg>
