<svg id="epi8d7mxo16r1" xmlns="http://www.w3.org/2000/svg" xmlns:xlink="http://www.w3.org/1999/xlink" viewBox="0 0 111 32" shape-rendering="geometricPrecision" text-rendering="geometricPrecision" width="111" height="32"><style><![CDATA[#epi8d7mxo16r6_to {animation: epi8d7mxo16r6_to__to 2000ms linear infinite normal forwards}@keyframes epi8d7mxo16r6_to__to { 0% {transform: translate(34.186899px,16.326950px)} 30% {transform: translate(34.186899px,16.326950px)} 40% {transform: translate(34.186899px,15.326950px)} 50% {transform: translate(34.186899px,14.326950px)} 60% {transform: translate(34.186899px,15.326950px)} 70% {transform: translate(34.186899px,16.326950px)} 80% {transform: translate(34.186899px,18.326950px)} 90% {transform: translate(34.186899px,17.326950px)} 100% {transform: translate(34.186899px,16.326950px)} }#epi8d7mxo16r7_to {animation: epi8d7mxo16r7_to__to 2000ms linear infinite normal forwards}@keyframes epi8d7mxo16r7_to__to { 0% {transform: translate(25.938350px,16.326950px)} 10% {transform: translate(25.938350px,16.326950px)} 20% {transform: translate(25.938350px,15.326950px)} 30% {transform: translate(25.938350px,14.326950px)} 40% {transform: translate(25.938350px,15.326950px)} 50% {transform: translate(25.938350px,16.326950px)} 60% {transform: translate(25.938350px,17.326950px)} 70% {transform: translate(25.938350px,18.326950px)} 80% {transform: translate(25.938350px,17.326950px)} 90% {transform: translate(25.938350px,16.326950px)} 100% {transform: translate(25.938350px,16.326950px)} }#epi8d7mxo16r8_to {animation: epi8d7mxo16r8_to__to 2000ms linear infinite normal forwards}@keyframes epi8d7mxo16r8_to__to { 0% {transform: translate(17.690300px,16.326950px)} 10% {transform: translate(17.690300px,15.326950px)} 20% {transform: translate(17.690300px,14.326950px)} 30% {transform: translate(17.690300px,15.326950px)} 40% {transform: translate(17.690300px,16.326950px)} 50% {transform: translate(17.690300px,17.326950px)} 60% {transform: translate(17.690300px,18.326950px)} 70% {transform: translate(17.690300px,17.326950px)} 80% {transform: translate(17.690300px,16.326950px)} 100% {transform: translate(17.690300px,16.326950px)} }#epi8d7mxo16r9_to {animation: epi8d7mxo16r9_to__to 2000ms linear infinite normal forwards}@keyframes epi8d7mxo16r9_to__to { 0% {transform: translate(9.431495px,16.326950px)} 10% {transform: translate(9.431495px,14.326950px)} 20% {transform: translate(9.431495px,15.326950px)} 30% {transform: translate(9.431495px,16.326950px)} 40% {transform: translate(9.431495px,17.326950px)} 50% {transform: translate(9.431495px,18.326950px)} 60% {transform: translate(9.431495px,17.326950px)} 70% {transform: translate(9.431495px,16.326950px)} 100% {transform: translate(9.431495px,16.326950px)} }]]></style><g id="epi8d7mxo16r2" clip-path="url(#epi8d7mxo16r14)"><g id="epi8d7mxo16r3"><path id="epi8d7mxo16r4" d="M34.844700,7.248510C34.649200,7.128440,34.426500,7.061450,34.198100,7.053980C33.969600,7.046520,33.743200,7.098840,33.540500,7.205900C33.486200,7.234550,33.434000,7.267030,33.384200,7.303100L33.376300,7.311090C33.262700,7.394440,33.156300,7.487540,33.058400,7.589380C32.278300,8.376290,31.021300,9.678500,30.245100,10.468100C30.189900,10.525600,30.131100,10.579400,30.069100,10.629200L30.069100,10.629200L30.048100,10.645200C29.990200,10.606100,29.936100,10.561500,29.886600,10.512000C29.710600,10.334900,29.537200,10.156500,29.361200,9.979420C29.219300,9.834290,29.078800,9.689160,28.935600,9.545350L28.462800,9.066010C27.972900,8.569360,27.483000,8.071380,26.987800,7.580060L26.969500,7.565410C26.845100,7.406290,26.686800,7.277850,26.506400,7.189750C26.325900,7.101650,26.128200,7.056180,25.927900,7.056780L25.913500,7.056780C25.706000,7.060040,25.502000,7.111510,25.317200,7.207240C25.262900,7.235880,25.210700,7.268360,25.160900,7.304430L25.151700,7.312420C25.038800,7.395680,24.932900,7.488320,24.835200,7.589380C24.475300,7.951540,24.014300,8.424230,23.546700,8.904900L21.970600,10.502700C21.921600,10.553200,21.869400,10.600300,21.814300,10.643800C21.759300,10.604700,21.708200,10.560100,21.662000,10.510700C21.486000,10.333600,21.312600,10.155200,21.136600,9.978090L20.711100,9.544020L20.238200,9.064680C19.748300,8.568030,19.258400,8.070050,18.761900,7.578720C18.535700,7.334440,18.243200,7.163490,17.921400,7.087400C17.896400,7.087400,17.870100,7.087400,17.845200,7.078080C17.799100,7.069770,17.752600,7.063990,17.706000,7.060770C17.702100,7.060100,17.698100,7.060100,17.694100,7.060770L17.670500,7.060770C17.654700,7.060770,17.639000,7.060770,17.621900,7.060770C17.600900,7.059400,17.579900,7.059400,17.558900,7.060770L17.549700,7.060770L17.516800,7.060770C17.480600,7.064480,17.444700,7.070260,17.409100,7.078080C17.384200,7.078080,17.360500,7.094060,17.335600,7.100720C17.092200,7.177970,16.871500,7.315220,16.693300,7.500170C16.449000,7.743830,16.168000,8.032770,15.872400,8.329690C15.272600,8.945730,14.666300,9.560000,14.053400,10.172500L13.629100,10.601200C13.612900,10.616400,13.595800,10.630700,13.577900,10.643800L13.558200,10.629200C13.522300,10.604000,13.488500,10.576000,13.457100,10.545300C13.399300,10.492100,13.342800,10.433500,13.287600,10.376200L12.385300,9.458800C11.763700,8.825010,11.140700,8.193430,10.516300,7.564080C10.160400,7.207240,9.782150,7.040800,9.397320,7.052780C9.375890,7.051420,9.354390,7.051420,9.332960,7.052780L9.325080,7.052780L9.292250,7.052780C9.256050,7.056490,9.220100,7.062270,9.184550,7.070090C9.159590,7.070090,9.135950,7.086070,9.111000,7.092730C8.867350,7.170240,8.646310,7.307440,8.467420,7.492180C8.224440,7.735840,7.942060,8.024780,7.647850,8.321700C7.042810,8.934190,6.437330,9.546680,5.831410,10.159200L4.976370,11.026000C4.897210,11.103800,4.823890,11.187400,4.757030,11.276300L4.436560,11.602500C4.187680,11.836100,4.035530,12.156700,4.010870,12.499600C3.986210,12.842500,4.090870,13.182100,4.303690,13.449700C4.516520,13.717400,4.821650,13.893200,5.157410,13.941600C5.493170,13.989900,5.834520,13.907300,6.112480,13.710300L6.120360,13.702300C6.233980,13.619000,6.340320,13.525900,6.438200,13.424000C7.223620,12.649100,8.477930,11.348200,9.255470,10.558600C9.311100,10.501200,9.369860,10.447000,9.431470,10.396200L9.456420,10.385500C9.514650,10.424200,9.568790,10.468800,9.617970,10.518700C9.793970,10.694400,9.967340,10.872900,10.143300,11.051300C10.285200,11.196400,10.425700,11.341500,10.568900,11.486700L11.041700,11.966000C11.531600,12.462700,12.021500,12.959300,12.516700,13.450600L12.535100,13.466600C12.660100,13.624900,12.818900,13.752500,12.999500,13.839600C13.180100,13.926800,13.377900,13.971400,13.577900,13.969900L13.592400,13.969900C13.798500,13.967200,14.001200,13.916100,14.184700,13.820800C14.239000,13.792200,14.291200,13.759700,14.341000,13.723600L14.348900,13.715600C14.462500,13.632300,14.568900,13.539200,14.666700,13.437300C15.025300,13.075200,15.486300,12.602500,15.953900,12.123100L17.530000,10.525300C17.579000,10.475300,17.631200,10.428600,17.686300,10.385500C17.741000,10.425000,17.792000,10.469600,17.838600,10.518700C18.014600,10.694400,18.188000,10.872900,18.364000,11.051300C18.505800,11.196400,18.646400,11.341500,18.789500,11.486700L19.262400,11.966000C19.752300,12.462700,20.242200,12.959300,20.737300,13.450600C20.964200,13.695100,21.257000,13.866400,21.579200,13.943300C21.604200,13.943300,21.630400,13.943300,21.655400,13.952600C21.701500,13.960600,21.747900,13.966000,21.794600,13.968600L21.802500,13.968600L21.827500,13.968600C21.843200,13.968600,21.859000,13.968600,21.874700,13.968600L21.939100,13.968600L21.948300,13.968600L21.981100,13.968600C22.017300,13.964700,22.053200,13.958900,22.088800,13.951300C22.113800,13.951300,22.137400,13.935300,22.162400,13.928700C22.405400,13.850600,22.625900,13.713500,22.804600,13.529200C23.047600,13.285500,23.330000,12.996600,23.622900,12.701000C24.229700,12.088500,24.836000,11.475600,25.442000,10.862200L25.866200,10.432100C25.884600,10.416200,25.903000,10.400200,25.916100,10.390900C25.923400,10.394800,25.930400,10.399300,25.937100,10.404200L25.937100,10.404200C25.972700,10.429200,26.006500,10.456800,26.038300,10.486700C26.096000,10.541300,26.152500,10.598600,26.207700,10.655800L27.110000,11.574600C27.731700,12.207500,28.354700,12.838600,28.979000,13.468000C29.333600,13.824800,29.713200,13.992600,30.098000,13.980600L30.161100,13.980600L30.170200,13.980600L30.203100,13.980600C30.239300,13.976900,30.275200,13.971100,30.310800,13.963300C30.335700,13.963300,30.359400,13.947300,30.384300,13.940600C30.627500,13.862900,30.848000,13.725700,31.026600,13.541200C31.270900,13.297500,31.552000,13.008600,31.844800,12.713000C32.451600,12.100500,33.058000,11.487600,33.663900,10.874200L34.520300,9.986080C34.599100,9.907460,34.672300,9.823370,34.739600,9.734430L35.060100,9.409540C35.212600,9.266450,35.330400,9.089390,35.403900,8.892330C35.477500,8.695260,35.504900,8.483570,35.484000,8.273930C35.463100,8.064290,35.394500,7.862430,35.283600,7.684260C35.172600,7.506080,35.022400,7.356460,34.844700,7.247180L34.844700,7.248510Z" fill="rgb(0,222,210)" stroke="none" stroke-width="1"/><path id="epi8d7mxo16r5" d="M34.844600,25.406700C34.649200,25.526800,34.426500,25.593800,34.198000,25.601300C33.969600,25.608700,33.743100,25.556400,33.540400,25.449300C33.486100,25.420700,33.433900,25.388200,33.384100,25.352100L33.376200,25.344200C33.262600,25.260800,33.156300,25.167700,33.058400,25.065900C32.278200,24.278900,31.021300,22.976700,30.245100,22.187200C30.189400,22.129700,30.130700,22.075500,30.069100,22.024700L30.048100,22.008700C29.989800,22.047400,29.935700,22.092000,29.886500,22.141900C29.710500,22.319000,29.537100,22.497400,29.361100,22.674500C29.219300,22.819600,29.078800,22.966100,28.935600,23.109900L28.462800,23.589200C27.972900,24.085900,27.483000,24.583900,26.987800,25.075200L26.969400,25.089800C26.844400,25.248100,26.685600,25.375700,26.505000,25.462900C26.324400,25.550000,26.126600,25.594600,25.926600,25.593100L25.912100,25.593100C25.704600,25.589900,25.500600,25.538400,25.315800,25.442700C25.261600,25.414000,25.209300,25.381600,25.159500,25.345500L25.150300,25.337500C25.037400,25.253800,24.931500,25.160700,24.833800,25.059200C24.473900,24.697000,24.012900,24.224400,23.545400,23.743700L21.969300,22.145900C21.920300,22.095400,21.868000,22.048300,21.813000,22.004700C21.757900,22.043900,21.706900,22.088500,21.660600,22.137900C21.484600,22.315000,21.311200,22.493400,21.135200,22.670500L20.709700,23.105900L20.236900,23.585200C19.747000,24.081900,19.257100,24.579900,18.760600,25.071200C18.534000,25.315000,18.241700,25.485900,17.920000,25.562500C17.895100,25.562500,17.868800,25.562500,17.843800,25.571800C17.796600,25.571800,17.750600,25.587800,17.704600,25.589100L17.692800,25.589100L17.669200,25.589100C17.653400,25.589100,17.637600,25.589100,17.620600,25.589100L17.557500,25.589100L17.548300,25.589100L17.515500,25.589100C17.479300,25.585400,17.443300,25.579700,17.407800,25.571800C17.382800,25.571800,17.359200,25.555900,17.334200,25.549200C17.091100,25.471400,16.870500,25.334300,16.692000,25.149800C16.447700,24.906100,16.166600,24.617200,15.871100,24.320200L14.053300,22.482800L13.629100,22.052700L13.577900,22.011400L13.558200,22.024700C13.522500,22.049700,13.488700,22.077300,13.457000,22.107300C13.399300,22.161900,13.342800,22.220400,13.287600,22.277700L12.385300,23.195100C11.764100,23.827600,11.142800,24.461400,10.516300,25.088500C10.160400,25.446700,9.782110,25.613100,9.397290,25.601100C9.374960,25.601100,9.353940,25.601100,9.332930,25.601100L9.325050,25.601100L9.292210,25.601100C9.256020,25.597400,9.220060,25.591600,9.184510,25.583800C9.159560,25.583800,9.135920,25.567800,9.110960,25.561200C8.867540,25.483200,8.646610,25.346000,8.467390,25.161700C8.224410,24.918100,7.942020,24.629100,7.647820,24.332200L5.831370,22.494700L4.976340,21.627900C4.897180,21.549700,4.823870,21.465500,4.757000,21.376300L4.440470,21.038100C4.191590,20.804500,4.039440,20.483900,4.014780,20.141000C3.990110,19.798100,4.094770,19.458500,4.307600,19.190900C4.520430,18.923200,4.825560,18.747400,5.161320,18.699000C5.497070,18.650700,5.838430,18.733300,6.116380,18.930300L6.124260,18.938300C6.237890,19.021600,6.344230,19.114700,6.442110,19.216600C7.223590,20.004800,8.477900,21.304400,9.255440,22.103300C9.311070,22.160700,9.369830,22.214900,9.431430,22.265700L9.431430,22.265700L9.452450,22.281700C9.510680,22.243100,9.564820,22.198500,9.614000,22.148500C9.789990,21.971500,9.963360,21.793000,10.139400,21.615900C10.281200,21.472100,10.421700,21.325700,10.564900,21.181900L11.037700,20.702500C11.527600,20.205900,12.017500,19.707900,12.512700,19.216600L12.531100,19.201900C12.656100,19.043600,12.814900,18.916100,12.995500,18.828900C13.176100,18.741700,13.373900,18.697200,13.573900,18.698600L13.588400,18.698600C13.795900,18.701900,13.999900,18.753400,14.184700,18.849100C14.239000,18.877700,14.291200,18.910200,14.341000,18.946300L14.348800,18.954300C14.462500,19.037600,14.568800,19.130700,14.666700,19.232600C15.025300,19.594700,15.486300,20.066100,15.953800,20.546700L17.529900,22.144600C17.578900,22.195000,17.631100,22.242200,17.686200,22.285700C17.741000,22.246200,17.792000,22.201600,17.838600,22.152500C18.014600,21.975500,18.188000,21.797000,18.363900,21.619900C18.505800,21.476100,18.646300,21.329700,18.789500,21.185900L19.262300,20.706500C19.752200,20.209900,20.242100,19.711900,20.737300,19.220600C20.964500,18.976900,21.257200,18.806100,21.579200,18.729300C21.604100,18.729300,21.630400,18.729200,21.655400,18.719900C21.701400,18.711500,21.747900,18.705700,21.794600,18.702600L21.802500,18.702600L21.827400,18.702600L21.874700,18.702600C21.897000,18.702600,21.919400,18.702600,21.939100,18.702600L21.948200,18.702600L21.981100,18.702600C22.017200,18.706500,22.053200,18.712300,22.088800,18.719900C22.113700,18.719900,22.137400,18.735900,22.162300,18.742600C22.405400,18.820600,22.625800,18.957800,22.804600,19.142000C23.047600,19.385700,23.330000,19.674600,23.622800,19.970200C24.229600,20.582700,24.836000,21.195600,25.441900,21.809000L25.866200,22.239100L25.916100,22.280400L25.937100,22.267000C25.972700,22.242000,26.006500,22.214400,26.038200,22.184500C26.096000,22.129900,26.152500,22.071300,26.207600,22.014100L27.110000,21.096700C27.731200,20.464200,28.352400,19.830400,28.978900,19.203300C29.333600,18.845100,29.713100,18.678700,30.098000,18.690600L30.161000,18.690600L30.170200,18.690600L30.203000,18.690600C30.239200,18.694300,30.275200,18.700100,30.310700,18.707900C30.335700,18.707900,30.359300,18.723900,30.384300,18.730600C30.627400,18.808300,30.848000,18.945500,31.026600,19.130000C31.270800,19.373700,31.551900,19.662600,31.844800,19.958200C32.451600,20.570700,33.058000,21.183700,33.663900,21.797000L34.518900,22.663800C34.597700,22.742500,34.671000,22.826500,34.738300,22.915500L35.058700,23.240400C35.211300,23.383500,35.329000,23.560500,35.402600,23.757600C35.476100,23.954700,35.503600,24.166300,35.482700,24.376000C35.461800,24.585600,35.393200,24.787500,35.282200,24.965700C35.171300,25.143800,35.021000,25.293500,34.843300,25.402700L34.844600,25.406700Z" fill="rgb(0,222,210)" stroke="none" stroke-width="1"/><g id="epi8d7mxo16r6_to" transform="translate(34.186899,16.326950)"><path id="epi8d7mxo16r6" d="M34.186900,17.689100C34.928900,17.689100,35.530500,17.079300,35.530500,16.327000C35.530500,15.574700,34.928900,14.964800,34.186900,14.964800C33.444800,14.964800,32.843300,15.574700,32.843300,16.327000C32.843300,17.079300,33.444800,17.689100,34.186900,17.689100Z" transform="translate(-34.186899,-16.326950)" fill="rgb(0,222,210)" stroke="none" stroke-width="1"/></g><g id="epi8d7mxo16r7_to" transform="translate(25.938350,16.326950)"><path id="epi8d7mxo16r7" d="M25.938300,17.689100C26.680400,17.689100,27.282000,17.079300,27.282000,16.327000C27.282000,15.574700,26.680400,14.964800,25.938300,14.964800C25.196300,14.964800,24.594700,15.574700,24.594700,16.327000C24.594700,17.079300,25.196300,17.689100,25.938300,17.689100Z" transform="translate(-25.938350,-16.326950)" fill="rgb(0,222,210)" stroke="none" stroke-width="1"/></g><g id="epi8d7mxo16r8_to" transform="translate(17.690300,16.326950)"><path id="epi8d7mxo16r8" d="M17.690300,17.689100C18.432400,17.689100,19.033900,17.079300,19.033900,16.327000C19.033900,15.574700,18.432400,14.964800,17.690300,14.964800C16.948200,14.964800,16.346700,15.574700,16.346700,16.327000C16.346700,17.079300,16.948200,17.689100,17.690300,17.689100Z" transform="translate(-17.690300,-16.326950)" fill="rgb(0,222,210)" stroke="none" stroke-width="1"/></g><g id="epi8d7mxo16r9_to" transform="translate(9.431495,16.326950)"><path id="epi8d7mxo16r9" d="M9.431510,17.689100C10.173600,17.689100,10.775100,17.079300,10.775100,16.327000C10.775100,15.574700,10.173600,14.964800,9.431510,14.964800C8.689450,14.964800,8.087890,15.574700,8.087890,16.327000C8.087890,17.079300,8.689450,17.689100,9.431510,17.689100Z" transform="translate(-9.431495,-16.326950)" fill="rgb(0,222,210)" stroke="none" stroke-width="1"/></g><path id="epi8d7mxo16r10" d="M70.317600,17.613000C71.151600,17.261500,72.287700,17.080400,73.677300,17.080400C74.452000,17.077300,75.225900,17.030600,75.995500,16.940600C78.054900,16.705000,79.427400,16.008600,80.198400,14.819600C80.623700,14.133500,80.861200,13.345000,80.886400,12.535100C80.911500,11.725200,80.723500,10.923100,80.341600,10.211200C79.977300,9.533210,79.470200,8.944930,78.856100,8.488260C78.204700,8.012460,77.476100,7.656010,76.703400,7.435040C74.515300,6.781270,72.165600,6.981000,70.267700,7.984950C68.272600,9.035510,66.753000,11.071400,66.098900,13.567900C65.324000,16.529200,65.920300,20.027100,67.619900,22.477000C68.991100,24.453000,71.311900,25.587400,73.989900,25.587400C75.242900,25.605000,76.482700,25.326400,77.611000,24.773900C78.454400,24.352700,79.222800,23.792000,79.884500,23.114800C79.989900,23.005600,80.074900,22.878000,80.135400,22.738000C80.252600,22.517700,80.311300,22.270400,80.305800,22.020200C80.300300,21.770000,80.230800,21.525500,80.104100,21.310700C79.977400,21.095900,79.797800,20.918200,79.582900,20.794900C79.368100,20.671700,79.125300,20.607100,78.878400,20.607600C78.591100,20.607000,78.310600,20.695800,78.074600,20.861900C78.041800,20.885400,78.010600,20.911200,77.981400,20.939100L77.924900,20.987100C77.901000,21.006200,77.878200,21.026600,77.856600,21.048300L77.829000,21.072300C77.523200,21.403500,77.180800,21.697900,76.808500,21.949800C76.402400,22.224500,75.966000,22.450200,75.508200,22.622200C74.461300,22.993500,73.317300,22.969400,72.286400,22.554300C71.724500,22.337000,71.200100,22.031000,70.732600,21.647500C70.294300,21.291300,69.920900,20.860100,69.629400,20.373300C69.376600,19.957400,69.240400,19.479600,69.235400,18.991200C69.234000,18.374700,69.588700,17.922000,70.317600,17.613000ZM74.158000,14.227000C73.693100,14.227000,73.154600,14.248300,72.555700,14.292300C71.955800,14.335800,71.360100,14.424800,70.773400,14.558600C70.195000,14.689600,69.632300,14.883300,69.094800,15.136500C68.945500,15.206800,68.800000,15.285000,68.658800,15.370800C68.703400,15.193700,68.746800,14.932700,68.800600,14.571900C68.828200,14.378800,68.853100,14.212400,68.872800,14.139200C69.002400,13.654100,69.189900,13.186800,69.431000,12.747700C69.895500,11.882600,70.571100,11.152800,71.393300,10.628000C72.170800,10.142000,73.285900,9.829080,74.391800,9.829080C75.686800,9.829080,76.968700,10.260500,77.675400,11.352300C78.024700,11.892900,78.154700,12.777000,77.704200,13.349600C77.222200,13.962100,76.270000,14.109900,75.594900,14.168500C75.116800,14.205700,74.633500,14.227000,74.158000,14.227000Z" fill="rgb(0,222,210)" stroke="none" stroke-width="1"/><path id="epi8d7mxo16r11" d="M63.569100,7.138640C63.226300,7.016910,62.849900,7.038160,62.522500,7.197710C62.195200,7.357250,61.943800,7.642050,61.823500,7.989470L57.681000,19.865100L53.912800,8.068030C53.888500,7.998670,53.859500,7.931050,53.826200,7.865640L53.815700,7.844340C53.801200,7.816380,53.785400,7.789750,53.767100,7.760460C53.607600,7.472670,53.351100,7.252840,53.044700,7.141310C52.874700,7.080130,52.694500,7.053550,52.514400,7.063090C52.334300,7.072620,52.157800,7.118080,51.995100,7.196870C51.832300,7.275660,51.686500,7.386220,51.565900,7.522230C51.445400,7.658240,51.352500,7.817020,51.292600,7.989470L47.151400,19.862500L43.357000,8.022760C43.244100,7.672270,42.998500,7.381590,42.674200,7.214660C42.350000,7.047740,41.973600,7.018240,41.627800,7.132650C41.282100,7.247070,40.995400,7.496030,40.830700,7.824770C40.666100,8.153500,40.637000,8.535090,40.749800,8.885580L45.789400,24.633300C45.876500,24.909900,46.047100,25.151900,46.277100,25.325100C46.507000,25.498300,46.784800,25.593900,47.071300,25.598600L47.093600,25.598600C47.377400,25.597500,47.653900,25.507200,47.885100,25.340300C48.116300,25.173500,48.290800,24.938100,48.384700,24.666500L52.536400,12.774900L56.324300,24.625300C56.411300,24.901700,56.581700,25.143600,56.811400,25.316700C57.041100,25.489900,57.318600,25.585700,57.604800,25.590600L57.627200,25.590600C57.911100,25.589400,58.187700,25.499100,58.419100,25.332300C58.650500,25.165400,58.825300,24.930100,58.919600,24.658500L64.407000,8.921530C64.528700,8.572430,64.508800,8.188670,64.351700,7.854430C64.194600,7.520190,63.913100,7.262770,63.569100,7.138640L63.569100,7.138640Z" fill="rgb(0,222,210)" stroke="none" stroke-width="1"/><path id="epi8d7mxo16r12" d="M103.354000,7.056640C102.980000,7.058750,102.622000,7.211000,102.358000,7.480030C102.095000,7.749050,101.948000,8.112940,101.948000,8.492000L101.948000,24.158500C101.948000,24.536300,102.096000,24.898700,102.360000,25.165900C102.623000,25.433100,102.981000,25.583200,103.354000,25.583200C103.726000,25.583200,104.084000,25.433100,104.347000,25.165900C104.611000,24.898700,104.759000,24.536300,104.759000,24.158500L104.759000,8.492000C104.760000,8.112940,104.612000,7.749050,104.349000,7.480030C104.085000,7.211000,103.727000,7.058750,103.354000,7.056640L103.354000,7.056640Z" fill="rgb(0,222,210)" stroke="none" stroke-width="1"/><path id="epi8d7mxo16r13" d="M91.064200,7.056990C87.071500,7.190150,83.823400,10.714600,83.823400,14.912900L83.823400,24.134800C83.817600,24.329200,83.850400,24.522800,83.919700,24.704100C83.989100,24.885400,84.093600,25.050800,84.227200,25.190300C84.360800,25.329900,84.520700,25.440900,84.697300,25.516700C84.874000,25.592400,85.063900,25.631500,85.255700,25.631500C85.447500,25.631500,85.637400,25.592400,85.814000,25.516700C85.990700,25.440900,86.150600,25.329900,86.284100,25.190300C86.417700,25.050800,86.522300,24.885400,86.591600,24.704100C86.661000,24.522800,86.693800,24.329200,86.688000,24.134800L86.688000,14.814300C86.688000,12.233900,88.672500,10.044900,91.111500,9.935700C91.738700,9.904750,92.365500,10.004800,92.953000,10.229800C93.540400,10.454700,94.076000,10.799700,94.526400,11.243200C94.981400,11.685100,95.343000,12.216300,95.589100,12.804300C95.835300,13.392400,95.960800,14.025100,95.958000,14.663900L95.958000,24.134800C95.958000,24.519800,96.108800,24.888900,96.377300,25.161100C96.645800,25.433300,97.009900,25.586200,97.389600,25.586200C97.769300,25.586200,98.133400,25.433300,98.401900,25.161100C98.670400,24.888900,98.821200,24.519800,98.821200,24.134800L98.821200,14.713100C98.825500,13.686900,98.625200,12.670400,98.232500,11.724500C97.839800,10.778700,97.262800,9.922970,96.535900,9.208700C95.816600,8.491030,94.960200,7.929970,94.019300,7.559960C93.078400,7.189950,92.072800,7.018790,91.064200,7.056990L91.064200,7.056990Z" fill="rgb(0,222,210)" stroke="none" stroke-width="1"/></g><clipPath id="epi8d7mxo16r14"><rect id="epi8d7mxo16r15" width="110.703000" height="32" rx="0" ry="0" fill="rgb(255,255,255)" stroke="none" stroke-width="1"/></clipPath></g></svg>