<svg width="85" height="24" viewBox="0 0 85 24" fill="none" xmlns="http://www.w3.org/2000/svg">
<g clip-path="url(#clip0)">
<path d="M26.5094 5.43663C26.3607 5.34658 26.1913 5.29633 26.0175 5.29073C25.8437 5.28514 25.6714 5.32438 25.5172 5.40467C25.4759 5.42615 25.4361 5.45051 25.3983 5.47757L25.3923 5.48356C25.3058 5.54607 25.2249 5.6159 25.1504 5.69228C24.5569 6.28246 23.6007 7.25912 23.0101 7.85131C22.9681 7.89441 22.9234 7.93477 22.8762 7.97214V7.97214L22.8602 7.98412C22.8162 7.95483 22.775 7.92139 22.7373 7.88426C22.6034 7.75144 22.4715 7.61763 22.3376 7.48481C22.2297 7.37596 22.1228 7.26711 22.0139 7.15926L21.6542 6.79975C21.2815 6.42727 20.9087 6.05378 20.532 5.68529L20.5181 5.6743C20.4234 5.55497 20.303 5.45863 20.1657 5.39256C20.0285 5.32648 19.878 5.29238 19.7257 5.29283H19.7147C19.5568 5.29527 19.4016 5.33388 19.261 5.40567C19.2197 5.42715 19.18 5.45151 19.1421 5.47857L19.1351 5.48456C19.0492 5.547 18.9687 5.61648 18.8943 5.69228C18.6205 5.9639 18.2698 6.31841 17.9141 6.67892L16.715 7.87727C16.6777 7.91511 16.638 7.95047 16.5961 7.98313C16.5542 7.95378 16.5154 7.92033 16.4802 7.88326C16.3463 7.75045 16.2144 7.61663 16.0805 7.48381L15.7568 7.15826L15.397 6.79875C15.0243 6.42627 14.6516 6.05278 14.2739 5.68429C14.1018 5.50108 13.8793 5.37286 13.6344 5.31579C13.6154 5.31579 13.5954 5.31579 13.5765 5.3088C13.5414 5.30257 13.506 5.29824 13.4705 5.29582C13.4676 5.29532 13.4645 5.29532 13.4615 5.29582H13.4436C13.4316 5.29582 13.4196 5.29582 13.4066 5.29582C13.3906 5.2948 13.3746 5.2948 13.3586 5.29582H13.3516H13.3266C13.2991 5.29861 13.2718 5.30294 13.2447 5.3088C13.2257 5.3088 13.2077 5.32079 13.1888 5.32578C13.0036 5.38372 12.8357 5.48666 12.7001 5.62537C12.5143 5.80812 12.3004 6.02482 12.0756 6.24751C11.6193 6.70954 11.158 7.17024 10.6917 7.62961L10.3689 7.95117C10.3566 7.96257 10.3436 7.97325 10.33 7.98313L10.315 7.97214C10.2877 7.95328 10.262 7.93224 10.238 7.90923C10.1941 7.86928 10.1511 7.82534 10.1091 7.7824L9.42268 7.09435C8.94972 6.619 8.47575 6.14532 8.00079 5.6733C7.73 5.40567 7.44222 5.28084 7.14945 5.28983C7.13315 5.28881 7.11679 5.28881 7.10049 5.28983H7.09449H7.06951C7.04198 5.29262 7.01462 5.29695 6.98758 5.30281C6.96859 5.30281 6.9506 5.3148 6.93162 5.31979C6.74626 5.37792 6.57809 5.48082 6.442 5.61938C6.25714 5.80213 6.04231 6.01883 5.81848 6.24152C5.35818 6.70089 4.89753 7.16026 4.43656 7.61963L3.78607 8.26973C3.72584 8.32807 3.67006 8.39082 3.6192 8.45747L3.37538 8.70214C3.18604 8.87729 3.07029 9.11775 3.05153 9.37492C3.03276 9.63209 3.11238 9.88679 3.2743 10.0875C3.43622 10.2883 3.66835 10.4201 3.92379 10.4564C4.17923 10.4927 4.43893 10.4307 4.65039 10.283L4.65639 10.277C4.74283 10.2145 4.82374 10.1446 4.8982 10.0683C5.49574 9.48706 6.44999 8.5114 7.04153 7.91921C7.08386 7.87614 7.12856 7.83547 7.17543 7.79738L7.19441 7.78939C7.23872 7.81836 7.2799 7.85182 7.31732 7.88925C7.45122 8.02107 7.58311 8.15489 7.71701 8.28871C7.82492 8.39756 7.93184 8.50641 8.04076 8.61526L8.40048 8.97476C8.77319 9.34725 9.1459 9.71974 9.5226 10.0882L9.53659 10.1002C9.63171 10.219 9.75251 10.3146 9.88992 10.38C10.0273 10.4454 10.1778 10.4788 10.33 10.4777H10.341C10.4978 10.4756 10.652 10.4374 10.7916 10.3658C10.8329 10.3444 10.8726 10.32 10.9105 10.2929L10.9165 10.287C11.003 10.2244 11.0839 10.1546 11.1583 10.0782C11.4311 9.80662 11.7818 9.45211 12.1376 9.0926L13.3366 7.89425C13.374 7.85675 13.4137 7.82172 13.4555 7.78939C13.4972 7.819 13.536 7.85243 13.5715 7.88925C13.7054 8.02107 13.8372 8.15489 13.9711 8.28871C14.0791 8.39756 14.186 8.50641 14.2949 8.61526L14.6546 8.97476C15.0273 9.34725 15.4 9.71974 15.7767 10.0882C15.9493 10.2716 16.1721 10.4001 16.4172 10.4577C16.4362 10.4577 16.4562 10.4577 16.4752 10.4647C16.5102 10.4707 16.5456 10.4747 16.5811 10.4767H16.5871H16.6061C16.6181 10.4767 16.6301 10.4767 16.6421 10.4767H16.691H16.698H16.723C16.7505 10.4738 16.7779 10.4694 16.8049 10.4637C16.8239 10.4637 16.8419 10.4517 16.8609 10.4467C17.0458 10.3882 17.2135 10.2853 17.3495 10.1471C17.5344 9.9644 17.7492 9.7477 17.972 9.526C18.4337 9.06664 18.895 8.60693 19.356 8.1469L19.6787 7.82434C19.6927 7.81236 19.7067 7.80038 19.7167 7.79339C19.7222 7.79635 19.7276 7.79969 19.7327 7.80337V7.80337C19.7598 7.82213 19.7855 7.84283 19.8096 7.86529C19.8536 7.90623 19.8965 7.94917 19.9385 7.99211L20.625 8.68117C21.0979 9.15585 21.5719 9.6292 22.0469 10.1012C22.3167 10.3688 22.6054 10.4947 22.8982 10.4857H22.9462H22.9532H22.9781C23.0057 10.4829 23.033 10.4786 23.0601 10.4727C23.0791 10.4727 23.097 10.4607 23.116 10.4557C23.301 10.3974 23.4688 10.2945 23.6047 10.1561C23.7905 9.97339 24.0043 9.75669 24.2272 9.53499C24.6888 9.07562 25.1501 8.61592 25.6111 8.15589L26.2626 7.4898C26.3225 7.43084 26.3783 7.36777 26.4295 7.30106L26.6733 7.0574C26.7893 6.95008 26.8789 6.81729 26.9349 6.66949C26.9908 6.52169 27.0117 6.36292 26.9958 6.20569C26.9799 6.04846 26.9277 5.89707 26.8433 5.76344C26.7589 5.6298 26.6446 5.51759 26.5094 5.43563V5.43663Z" fill="#009E96"/>
<path d="M26.5093 19.0546C26.3606 19.1446 26.1912 19.1949 26.0174 19.2005C25.8436 19.2061 25.6713 19.1668 25.5171 19.0865C25.4758 19.065 25.4361 19.0407 25.3982 19.0136L25.3922 19.0076C25.3058 18.9451 25.2248 18.8753 25.1504 18.7989C24.5568 18.2087 23.6006 17.2321 23.01 16.6399C22.9677 16.5968 22.923 16.5561 22.8762 16.518L22.8602 16.5061C22.8159 16.535 22.7747 16.5685 22.7373 16.6059C22.6034 16.7387 22.4715 16.8726 22.3376 17.0054C22.2297 17.1142 22.1227 17.2241 22.0138 17.3319L21.6541 17.6914C21.2814 18.0639 20.9087 18.4374 20.532 18.8059L20.518 18.8169C20.4229 18.9356 20.3021 19.0313 20.1647 19.0967C20.0272 19.162 19.8768 19.1954 19.7246 19.1944H19.7136C19.5558 19.1919 19.4006 19.1533 19.26 19.0815C19.2187 19.06 19.1789 19.0357 19.1411 19.0086L19.1341 19.0026C19.0481 18.9399 18.9676 18.8701 18.8933 18.7939C18.6195 18.5223 18.2687 18.1678 17.913 17.8073L16.7139 16.6089C16.6767 16.5711 16.6369 16.5357 16.595 16.5031C16.5532 16.5324 16.5143 16.5659 16.4791 16.6029C16.3452 16.7357 16.2133 16.8696 16.0794 17.0024L15.7557 17.3289L15.396 17.6884C15.0233 18.0609 14.6505 18.4344 14.2728 18.8029C14.1005 18.9858 13.8781 19.1139 13.6333 19.1714C13.6144 19.1714 13.5944 19.1714 13.5754 19.1784C13.5394 19.1784 13.5044 19.1904 13.4695 19.1914H13.4605H13.4425C13.4305 19.1914 13.4185 19.1914 13.4055 19.1914H13.3576H13.3506H13.3256C13.298 19.1886 13.2707 19.1843 13.2436 19.1784C13.2247 19.1784 13.2067 19.1664 13.1877 19.1614C13.0027 19.1031 12.8349 19.0002 12.6991 18.8618C12.5132 18.6791 12.2994 18.4624 12.0746 18.2397L10.6916 16.8616L10.3689 16.539L10.3299 16.5081L10.3149 16.518C10.2878 16.5368 10.2621 16.5575 10.238 16.58C10.194 16.6209 10.151 16.6648 10.1091 16.7078L9.42262 17.3958C8.94998 17.8702 8.47735 18.3455 8.00072 18.8159C7.72993 19.0845 7.44216 19.2093 7.14938 19.2004C7.1324 19.2004 7.11641 19.2004 7.10042 19.2004H7.09443H7.06944C7.04191 19.1976 7.01455 19.1932 6.98751 19.1874C6.96852 19.1874 6.95054 19.1754 6.93155 19.1704C6.74636 19.1119 6.57828 19.009 6.44193 18.8708C6.25708 18.6881 6.04224 18.4714 5.81842 18.2487L4.43649 16.8706L3.786 16.2205C3.72577 16.1618 3.67 16.0987 3.61913 16.0317L3.37831 15.7781C3.18897 15.6029 3.07322 15.3625 3.05446 15.1053C3.03569 14.8481 3.11531 14.5934 3.27723 14.3927C3.43915 14.1919 3.67128 14.0601 3.92672 14.0238C4.18216 13.9875 4.44186 14.0495 4.65332 14.1972L4.65932 14.2032C4.74576 14.2657 4.82667 14.3356 4.90113 14.4119C5.49567 15.0031 6.44993 15.9778 7.04147 16.577C7.08379 16.62 7.12849 16.6607 7.17536 16.6988V16.6988L7.19135 16.7108C7.23565 16.6818 7.27684 16.6484 7.31425 16.6109C7.44815 16.4781 7.58005 16.3443 7.71394 16.2115C7.82186 16.1036 7.92878 15.9938 8.03769 15.8859L8.39741 15.5264C8.77012 15.1539 9.14283 14.7804 9.51954 14.4119L9.53353 14.401C9.62864 14.2822 9.74945 14.1866 9.88686 14.1212C10.0243 14.0558 10.1747 14.0224 10.3269 14.0235H10.3379C10.4958 14.0259 10.651 14.0645 10.7916 14.1363C10.8328 14.1578 10.8726 14.1822 10.9105 14.2092L10.9165 14.2152C11.0029 14.2777 11.0838 14.3476 11.1583 14.4239C11.4311 14.6956 11.7818 15.0491 12.1375 15.4096L13.3366 16.6079C13.3739 16.6458 13.4136 16.6811 13.4555 16.7138C13.4971 16.6842 13.5359 16.6507 13.5714 16.6139C13.7053 16.4811 13.8372 16.3473 13.9711 16.2145C14.079 16.1066 14.1859 15.9968 14.2948 15.8889L14.6545 15.5294C15.0273 15.1569 15.4 14.7834 15.7767 14.4149C15.9496 14.2322 16.1722 14.1041 16.4172 14.0464C16.4362 14.0464 16.4561 14.0464 16.4751 14.0395C16.5102 14.0331 16.5455 14.0288 16.581 14.0265H16.587H16.606H16.642C16.659 14.0265 16.676 14.0265 16.691 14.0265H16.698H16.7229C16.7505 14.0294 16.7778 14.0337 16.8049 14.0395C16.8239 14.0395 16.8418 14.0514 16.8608 14.0564C17.0457 14.115 17.2135 14.2178 17.3495 14.356C17.5343 14.5388 17.7491 14.7555 17.972 14.9772C18.4336 15.4365 18.8949 15.8962 19.3559 16.3563L19.6786 16.6788L19.7166 16.7098L19.7326 16.6998C19.7597 16.681 19.7854 16.6603 19.8095 16.6379C19.8535 16.5969 19.8965 16.553 19.9384 16.5101L20.6249 15.822C21.0975 15.3477 21.5702 14.8723 22.0468 14.402C22.3166 14.1333 22.6054 14.0085 22.8981 14.0175H22.9461H22.9531H22.9781C23.0056 14.0203 23.033 14.0246 23.06 14.0305C23.079 14.0305 23.097 14.0425 23.116 14.0474C23.301 14.1058 23.4688 14.2087 23.6046 14.347C23.7904 14.5298 24.0043 14.7465 24.2271 14.9682C24.6887 15.4275 25.1501 15.8872 25.611 16.3473L26.2615 16.9974C26.3215 17.0564 26.3772 17.1194 26.4284 17.1861L26.6722 17.4298C26.7883 17.5371 26.8778 17.6699 26.9338 17.8177C26.9898 17.9655 27.0106 18.1243 26.9947 18.2815C26.9789 18.4387 26.9266 18.5901 26.8422 18.7238C26.7578 18.8574 26.6435 18.9696 26.5083 19.0516L26.5093 19.0546Z" fill="#009E96"/>
<path d="M7.17552 13.2668C7.74007 13.2668 8.19773 12.8094 8.19773 12.2452C8.19773 11.681 7.74007 11.2236 7.17552 11.2236C6.61098 11.2236 6.15332 11.681 6.15332 12.2452C6.15332 12.8094 6.61098 13.2668 7.17552 13.2668Z" fill="#009E96"/>
<path d="M13.4587 13.2668C14.0233 13.2668 14.4809 12.8094 14.4809 12.2452C14.4809 11.681 14.0233 11.2236 13.4587 11.2236C12.8942 11.2236 12.4365 11.681 12.4365 12.2452C12.4365 12.8094 12.8942 13.2668 13.4587 13.2668Z" fill="#009E96"/>
<path d="M19.7336 13.2668C20.2982 13.2668 20.7558 12.8094 20.7558 12.2452C20.7558 11.681 20.2982 11.2236 19.7336 11.2236C19.1691 11.2236 18.7114 11.681 18.7114 12.2452C18.7114 12.8094 19.1691 13.2668 19.7336 13.2668Z" fill="#009E96"/>
<path d="M26.009 13.2668C26.5736 13.2668 27.0312 12.8094 27.0312 12.2452C27.0312 11.681 26.5736 11.2236 26.009 11.2236C25.4445 11.2236 24.9868 11.681 24.9868 12.2452C24.9868 12.8094 25.4445 13.2668 26.009 13.2668Z" fill="#009E96"/>
<path d="M53.4964 13.2098C54.1309 12.9461 54.9953 12.8103 56.0524 12.8103C56.6418 12.808 57.2306 12.773 57.8161 12.7055C59.3829 12.5287 60.427 12.0064 61.0136 11.1147C61.3372 10.6001 61.5178 10.0087 61.537 9.4013C61.5561 8.79387 61.4131 8.1923 61.1225 7.65842C60.8454 7.14991 60.4595 6.7087 59.9924 6.36619C59.4968 6.00935 58.9425 5.74201 58.3547 5.57628C56.6899 5.08595 54.9023 5.23575 53.4584 5.98871C51.9406 6.77663 50.7845 8.30353 50.2869 10.176C49.6974 12.3969 50.151 15.0203 51.444 16.8578C52.4872 18.3397 54.2528 19.1906 56.2903 19.1906C57.2435 19.2037 58.1867 18.9948 59.0451 18.5804C59.6868 18.2645 60.2714 17.844 60.7748 17.3361C60.855 17.2542 60.9196 17.1585 60.9656 17.0535C61.0548 16.8883 61.0994 16.7028 61.0953 16.5151C61.0911 16.3275 61.0382 16.1441 60.9418 15.983C60.8454 15.8219 60.7088 15.6886 60.5453 15.5962C60.3819 15.5038 60.1972 15.4553 60.0094 15.4557C59.7908 15.4553 59.5774 15.5218 59.3978 15.6464C59.3728 15.664 59.3491 15.6834 59.3269 15.7044L59.2839 15.7403C59.2658 15.7546 59.2484 15.77 59.232 15.7862L59.211 15.8042C58.9783 16.0526 58.7178 16.2734 58.4346 16.4623C58.1256 16.6684 57.7936 16.8376 57.4454 16.9666C56.6488 17.2451 55.7785 17.2271 54.9943 16.9157C54.5668 16.7528 54.1678 16.5232 53.8122 16.2356C53.4787 15.9685 53.1946 15.6451 52.9728 15.2799C52.7805 14.968 52.6769 14.6097 52.6731 14.2434C52.6721 13.781 52.9418 13.4415 53.4964 13.2098ZM56.4182 10.6703C56.0644 10.6703 55.6547 10.6863 55.1991 10.7192C54.7428 10.7519 54.2895 10.8186 53.8431 10.9189C53.4031 11.0172 52.975 11.1625 52.5661 11.3523C52.4526 11.4051 52.3418 11.4638 52.2344 11.5281C52.2684 11.3953 52.3013 11.1995 52.3423 10.9289C52.3633 10.7841 52.3823 10.6593 52.3973 10.6044C52.4958 10.2406 52.6385 9.89011 52.8219 9.5608C53.1753 8.91197 53.6893 8.36458 54.3148 7.97099C54.9063 7.60649 55.7547 7.37181 56.596 7.37181C57.5813 7.37181 58.5565 7.69537 59.0941 8.51424C59.3599 8.91968 59.4588 9.58277 59.1161 10.0122C58.7493 10.4715 58.0249 10.5824 57.5113 10.6263C57.1476 10.6543 56.7799 10.6703 56.4182 10.6703Z" fill="#009E96"/>
<path d="M48.3622 5.35349C48.1014 5.2622 47.8151 5.27813 47.566 5.39779C47.317 5.51745 47.1257 5.73105 47.0342 5.99162L43.8827 14.8984L41.0159 6.05054C40.9974 5.99851 40.9754 5.9478 40.95 5.89875L40.942 5.88277C40.931 5.8618 40.919 5.84182 40.905 5.81985C40.7837 5.60401 40.5886 5.43914 40.3554 5.35549C40.2261 5.30961 40.089 5.28968 39.952 5.29683C39.815 5.30398 39.6807 5.33807 39.5569 5.39717C39.4331 5.45626 39.3221 5.53918 39.2304 5.64118C39.1387 5.74319 39.0681 5.86227 39.0225 5.99162L35.8719 14.8964L32.9852 6.01658C32.8993 5.75372 32.7125 5.53571 32.4658 5.41051C32.2191 5.28531 31.9327 5.26319 31.6697 5.349C31.4067 5.43481 31.1885 5.62153 31.0632 5.86809C30.938 6.11464 30.9158 6.40083 31.0017 6.66369L34.8357 18.4745C34.902 18.682 35.0318 18.8635 35.2067 18.9933C35.3817 19.1232 35.593 19.195 35.811 19.1985H35.828C36.0439 19.1976 36.2542 19.1299 36.4301 19.0048C36.606 18.8796 36.7388 18.7031 36.8102 18.4994L39.9687 9.58068L42.8505 18.4685C42.9167 18.6758 43.0463 18.8572 43.2211 18.9871C43.3959 19.1169 43.607 19.1888 43.8247 19.1925H43.8417C44.0577 19.1915 44.2682 19.1239 44.4442 18.9987C44.6202 18.8736 44.7532 18.6971 44.825 18.4934L48.9997 6.69066C49.0923 6.42884 49.0771 6.14101 48.9576 5.89034C48.8381 5.63966 48.624 5.44659 48.3622 5.35349V5.35349Z" fill="#009E96"/>
<path d="M78.6297 5.29248C78.3453 5.29407 78.073 5.40825 77.8726 5.61002C77.6722 5.81179 77.56 6.08471 77.5605 6.369V18.1188C77.5605 18.4022 77.6732 18.674 77.8737 18.8744C78.0742 19.0748 78.3462 19.1874 78.6297 19.1874C78.9133 19.1874 79.1852 19.0748 79.3857 18.8744C79.5862 18.674 79.6989 18.4022 79.6989 18.1188V6.369C79.6994 6.08471 79.5872 5.81179 79.3868 5.61002C79.1864 5.40825 78.9142 5.29407 78.6297 5.29248V5.29248Z" fill="#009E96"/>
<path d="M69.2802 5.2925C66.2426 5.39236 63.7715 8.03573 63.7715 11.1844V18.1009C63.7671 18.2467 63.792 18.3919 63.8448 18.5278C63.8975 18.6638 63.9771 18.7878 64.0787 18.8925C64.1803 18.9972 64.302 19.0804 64.4364 19.1373C64.5708 19.1941 64.7152 19.2234 64.8611 19.2234C65.0071 19.2234 65.1515 19.1941 65.2859 19.1373C65.4203 19.0804 65.542 18.9972 65.6436 18.8925C65.7452 18.7878 65.8248 18.6638 65.8775 18.5278C65.9303 18.3919 65.9552 18.2467 65.9508 18.1009V11.1105C65.9508 9.17516 67.4606 7.53342 69.3162 7.45153C69.7934 7.42832 70.2702 7.50339 70.7171 7.67208C71.164 7.84078 71.5715 8.0995 71.9142 8.43219C72.2604 8.7636 72.5354 9.16195 72.7227 9.603C72.9099 10.044 73.0054 10.5186 73.0033 10.9977V18.1009C73.0033 18.3896 73.1181 18.6664 73.3223 18.8706C73.5266 19.0747 73.8036 19.1894 74.0925 19.1894C74.3813 19.1894 74.6584 19.0747 74.8626 18.8706C75.0669 18.6664 75.1816 18.3896 75.1816 18.1009V11.0346C75.1848 10.2649 75.0325 9.50256 74.7337 8.79316C74.435 8.08377 73.9959 7.44198 73.443 6.90628C72.8957 6.36803 72.2442 5.94724 71.5284 5.66973C70.8125 5.39222 70.0475 5.26385 69.2802 5.2925V5.2925Z" fill="#009E96"/>
</g>
<defs>
<clipPath id="clip0">
<rect width="84.2209" height="24" fill="white"/>
</clipPath>
</defs>
</svg>
