<svg width="433" height="1010" viewBox="0 0 433 1010" fill="none" xmlns="http://www.w3.org/2000/svg">
<g clip-path="url(#clip0_1_7)">
<path d="M537.699 114H227.301C218.853 114 212 120.861 212 129.319V229.985C212 238.444 218.853 245.304 227.301 245.304H232.766V265C232.766 265.098 232.766 265.197 232.777 265.295C232.832 269.782 235.149 273.852 239.007 276.161V276.15C242.854 278.47 247.564 278.612 251.554 276.555C252.1 276.27 252.592 275.964 253.073 275.647L253.15 275.57C254.363 274.716 255.357 273.775 256.199 272.922C263.707 265.459 275.806 253.095 283.282 245.6C283.391 245.49 283.49 245.392 283.588 245.304H537.699C546.147 245.304 553 238.444 553 229.985V129.319C553 120.861 546.147 114 537.699 114ZM263.117 192.378C255.969 192.378 250.177 186.589 250.177 179.455C250.177 172.321 255.969 166.533 263.117 166.533C270.265 166.533 276.058 172.321 276.058 179.455C276.058 186.589 270.265 192.378 263.117 192.378ZM342.64 192.378C335.492 192.378 329.7 186.589 329.7 179.455C329.7 172.321 335.492 166.533 342.64 166.533C349.788 166.533 355.57 172.321 355.57 179.455C355.57 186.589 349.788 192.378 342.64 192.378ZM422.054 192.378C414.906 192.378 409.124 186.589 409.124 179.455C409.124 172.321 414.917 166.533 422.054 166.533C429.202 166.533 434.994 172.321 434.994 179.455C434.994 186.589 429.191 192.378 422.054 192.378ZM501.446 192.378C494.298 192.378 488.505 186.589 488.505 179.444C488.505 172.299 494.298 166.511 501.446 166.511C508.593 166.511 514.375 172.299 514.375 179.444C514.375 186.589 508.593 192.378 501.446 192.378Z" fill="#00DED2" fill-opacity="0.12"/>
<path d="M627.699 584H317.301C308.853 584 302 590.861 302 599.319V699.985C302 708.444 308.853 715.304 317.301 715.304H322.766V735C322.766 735.098 322.766 735.197 322.777 735.295C322.832 739.782 325.149 743.852 329.007 746.161V746.15C332.854 748.47 337.564 748.612 341.554 746.555C342.1 746.27 342.592 745.964 343.073 745.647L343.15 745.57C344.363 744.716 345.357 743.775 346.199 742.922C353.707 735.459 365.806 723.095 373.282 715.6C373.391 715.49 373.49 715.392 373.588 715.304H627.699C636.147 715.304 643 708.444 643 699.985V599.319C643 590.861 636.147 584 627.699 584ZM353.117 662.378C345.969 662.378 340.177 656.589 340.177 649.455C340.177 642.321 345.969 636.533 353.117 636.533C360.265 636.533 366.058 642.321 366.058 649.455C366.058 656.589 360.265 662.378 353.117 662.378ZM432.64 662.378C425.492 662.378 419.7 656.589 419.7 649.455C419.7 642.321 425.492 636.533 432.64 636.533C439.788 636.533 445.57 642.321 445.57 649.455C445.57 656.589 439.788 662.378 432.64 662.378ZM512.054 662.378C504.906 662.378 499.124 656.589 499.124 649.455C499.124 642.321 504.917 636.533 512.054 636.533C519.202 636.533 524.994 642.321 524.994 649.455C524.994 656.589 519.191 662.378 512.054 662.378ZM591.446 662.378C584.298 662.378 578.505 656.589 578.505 649.444C578.505 642.299 584.298 636.511 591.446 636.511C598.593 636.511 604.375 642.299 604.375 649.444C604.375 656.589 598.593 662.378 591.446 662.378Z" fill="#00DED2" fill-opacity="0.12"/>
<path d="M352.409 357H16.5561C7.41477 357 0 364.237 0 373.16V479.351C0 488.273 7.41477 495.51 16.5561 495.51H22.469V516.287C22.469 516.39 22.469 516.494 22.4808 516.598C22.54 521.331 25.047 525.624 29.2215 528.06V528.048C33.3842 530.495 38.4811 530.645 42.7975 528.475C43.3888 528.175 43.9209 527.852 44.4413 527.517L44.5241 527.437C45.8368 526.536 46.9129 525.544 47.8234 524.643C55.9478 516.771 69.039 503.728 77.1278 495.822C77.2461 495.706 77.3525 495.602 77.459 495.51H352.409C361.55 495.51 368.965 488.273 368.965 479.351V373.16C368.965 364.237 361.55 357 352.409 357ZM327.74 441.503L326.073 443.13C325.671 443.65 325.257 444.065 324.926 444.388L320.479 448.728C317.322 451.799 314.164 454.869 311.007 457.928C309.481 459.428 308.015 460.848 306.749 462.071C305.685 463.087 304.562 463.745 303.403 464.08C303.273 464.114 303.154 464.161 303.024 464.195C302.835 464.241 302.646 464.264 302.468 464.288C302.409 464.299 302.35 464.299 302.303 464.311H302.255C302.149 464.322 302.043 464.334 301.924 464.334C299.926 464.391 297.951 463.549 296.094 461.771C292.842 458.632 289.602 455.458 286.362 452.295L281.667 447.701C281.383 447.412 281.087 447.124 280.78 446.858C280.555 446.651 280.378 446.524 280.259 446.443C280.224 446.42 280.189 446.385 280.153 446.374C280.082 446.431 279.988 446.512 279.881 446.581L277.67 448.728C274.512 451.799 271.355 454.869 268.197 457.928C266.66 459.428 265.205 460.848 263.94 462.071C262.876 463.087 261.752 463.745 260.593 464.08C260.463 464.114 260.345 464.161 260.215 464.195C260.026 464.241 259.836 464.264 259.659 464.288C259.6 464.299 259.541 464.299 259.493 464.311H259.446C259.34 464.322 259.221 464.334 259.115 464.334C259.032 464.345 258.949 464.311 258.867 464.311C258.831 464.311 258.784 464.322 258.748 464.322C258.725 464.322 258.713 464.322 258.689 464.322C258.453 464.322 258.216 464.264 257.968 464.23C257.838 464.207 257.696 464.207 257.566 464.184C256.099 463.907 254.645 463.099 253.19 461.725C250.6 459.267 248.058 456.773 245.503 454.292L243.044 451.891C242.299 451.175 241.566 450.448 240.832 449.721C239.934 448.832 239.023 447.932 238.112 447.055C237.734 446.685 237.474 446.501 237.308 446.397C237.119 446.535 236.859 446.743 236.492 447.101L228.285 455.077C225.849 457.477 223.46 459.844 221.58 461.656C221.119 462.106 220.587 462.602 219.936 463.053L219.901 463.087C219.64 463.249 219.368 463.422 219.085 463.572C218.103 464.068 217.051 464.311 215.986 464.322C215.974 464.322 215.963 464.322 215.951 464.322C215.939 464.322 215.927 464.322 215.915 464.322C214.674 464.334 213.42 464.011 212.309 463.353C211.599 462.937 210.984 462.395 210.487 461.806C210.452 461.771 210.416 461.748 210.393 461.725C207.803 459.267 205.26 456.773 202.706 454.292L200.246 451.891C199.501 451.175 198.768 450.448 198.035 449.721C197.136 448.832 196.225 447.932 195.315 447.055C194.996 446.754 194.759 446.57 194.605 446.454L192.276 448.717C189.118 451.787 185.961 454.857 182.803 457.916C181.278 459.417 179.811 460.836 178.546 462.06C177.481 463.076 176.358 463.734 175.199 464.068C175.069 464.103 174.951 464.149 174.821 464.184C174.631 464.23 174.442 464.253 174.265 464.276C174.206 464.288 174.147 464.288 174.099 464.299H174.052C173.946 464.311 173.839 464.322 173.721 464.322C173.532 464.322 173.354 464.322 173.165 464.311C171.9 464.322 170.646 464.011 169.511 463.341C168.506 462.752 167.702 461.944 167.134 461.009C164.142 458.112 161.15 455.192 158.17 452.283L153.475 447.689C153.191 447.401 152.896 447.112 152.588 446.847C152.364 446.639 152.186 446.512 152.068 446.431C152.032 446.408 151.997 446.374 151.961 446.362C151.89 446.42 151.796 446.501 151.689 446.57L149.478 448.717C146.321 451.787 143.163 454.857 140.006 457.916C138.468 459.417 137.014 460.836 135.748 462.06C134.684 463.076 133.56 463.734 132.402 464.068C132.271 464.103 132.153 464.149 132.023 464.184C131.834 464.23 131.645 464.253 131.467 464.276C131.408 464.288 131.349 464.288 131.302 464.299H131.254C131.148 464.311 131.042 464.322 130.923 464.322C130.841 464.334 130.758 464.299 130.675 464.299C130.64 464.299 130.592 464.311 130.557 464.311C130.533 464.311 130.521 464.311 130.498 464.311C130.261 464.311 130.025 464.253 129.776 464.218C129.646 464.195 129.504 464.195 129.374 464.172C127.908 463.895 126.453 463.087 124.999 461.714C122.409 459.255 119.866 456.762 117.312 454.28L114.852 451.879C114.107 451.164 113.374 450.437 112.641 449.709C111.742 448.821 110.831 447.92 109.921 447.043C109.542 446.674 109.282 446.489 109.117 446.385C108.927 446.524 108.667 446.731 108.301 447.089L100.094 455.065C97.6574 457.466 95.2686 459.832 93.3883 461.644C92.9271 462.094 92.3949 462.591 91.7445 463.041L91.7091 463.076C91.4489 463.237 91.1769 463.41 90.893 463.56C89.9115 464.057 88.859 464.299 87.7947 464.311C87.7829 464.311 87.771 464.311 87.7592 464.311C87.7473 464.311 87.7356 464.311 87.7238 464.311C86.4821 464.322 85.2285 463.999 84.1169 463.341C83.4073 462.926 82.7923 462.383 82.2957 461.794C82.2602 461.76 82.2248 461.737 82.2011 461.714C79.6113 459.255 77.0687 456.762 74.5143 454.28L72.0546 451.879C71.3096 451.164 70.5764 450.437 69.8432 449.709C68.9444 448.821 68.0338 447.92 67.1232 447.043C66.7093 446.639 66.4374 446.454 66.2718 446.351C66.2481 446.374 66.2007 446.408 66.1653 446.431C65.9642 446.581 65.6687 446.835 65.2548 447.239C61.2104 451.187 54.6707 457.708 50.6145 461.644C50.1533 462.094 49.6211 462.591 48.9707 463.041L48.9351 463.076C48.675 463.237 48.4029 463.41 48.1191 463.56C45.955 464.645 43.4124 464.576 41.3311 463.353C39.2498 462.129 37.9963 459.994 37.9726 457.628C37.8898 455.838 38.6349 454.084 40.2195 452.549L41.887 450.921C42.2891 450.402 42.703 449.986 43.0341 449.663L47.4806 445.323C50.6263 442.253 53.7837 439.194 56.9412 436.135C58.4668 434.635 59.9331 433.204 61.2103 431.98C62.2746 430.964 63.398 430.306 64.557 429.972C64.6871 429.937 64.8054 429.879 64.9355 429.856C65.1247 429.81 65.3139 429.787 65.4913 429.764C65.5504 429.752 65.6095 429.752 65.6568 429.741H65.7042C65.8106 429.729 65.9169 429.718 66.0352 429.718C68.0338 429.66 70.0087 430.503 71.8654 432.28C75.1175 435.42 78.3577 438.594 81.598 441.757L86.2928 446.351C86.5766 446.639 86.8722 446.928 87.1797 447.193C87.4044 447.401 87.5819 447.528 87.712 447.609C87.7474 447.632 87.7829 447.666 87.8184 447.678C87.8893 447.62 87.9839 447.539 88.0903 447.47L90.3017 445.323C93.4474 442.253 96.6049 439.194 99.7624 436.135C101.3 434.635 102.754 433.204 104.031 431.98C105.096 430.964 106.219 430.306 107.378 429.972C107.508 429.937 107.627 429.879 107.757 429.856C107.946 429.81 108.135 429.787 108.312 429.764C108.372 429.752 108.431 429.752 108.49 429.741H108.537C108.644 429.729 108.75 429.718 108.868 429.718C108.963 429.706 109.046 429.741 109.117 429.741C109.152 429.741 109.199 429.729 109.235 429.729C109.259 429.729 109.27 429.729 109.294 429.729C109.531 429.729 109.767 429.787 110.015 429.822C110.145 429.845 110.287 429.845 110.417 429.868C111.884 430.145 113.338 430.953 114.793 432.326C117.383 434.785 119.925 437.278 122.48 439.76L124.94 442.161C125.685 442.876 126.418 443.603 127.151 444.331C128.05 445.219 128.96 446.12 129.871 446.997C130.249 447.366 130.509 447.551 130.675 447.655C130.864 447.516 131.124 447.309 131.491 446.951L139.698 438.986C142.134 436.586 144.535 434.219 146.403 432.407C146.865 431.957 147.397 431.461 148.047 431.011L148.083 430.976C148.343 430.814 148.615 430.641 148.899 430.491C149.88 429.995 150.944 429.752 152.009 429.741C152.021 429.741 152.032 429.741 152.044 429.741C152.056 429.741 152.068 429.741 152.08 429.741C153.333 429.729 154.587 430.052 155.698 430.71C156.408 431.126 157.023 431.657 157.52 432.257C157.543 432.292 157.579 432.315 157.602 432.338C160.192 434.796 162.735 437.29 165.289 439.771L167.749 442.172C168.494 442.888 169.227 443.615 169.96 444.342C170.859 445.231 171.77 446.131 172.68 447.008C173 447.32 173.236 447.493 173.402 447.609L175.731 445.335C178.877 442.264 182.034 439.206 185.192 436.147C186.729 434.646 188.184 433.215 189.461 431.992C190.525 430.976 191.649 430.318 192.808 429.983C192.938 429.949 193.056 429.891 193.186 429.868C193.375 429.822 193.565 429.799 193.742 429.775C193.801 429.764 193.86 429.764 193.908 429.752H193.955C194.061 429.741 194.18 429.729 194.286 429.729C194.475 429.729 194.653 429.729 194.842 429.741C196.107 429.729 197.361 430.041 198.496 430.71V430.699C199.513 431.288 200.317 432.107 200.897 433.054C203.889 435.951 206.869 438.859 209.849 441.768L214.544 446.362C214.827 446.651 215.123 446.939 215.431 447.205C215.655 447.412 215.833 447.539 215.963 447.62C215.998 447.643 216.034 447.678 216.069 447.689C216.14 447.632 216.235 447.551 216.341 447.482L218.553 445.335C221.698 442.264 224.856 439.206 228.013 436.147C229.551 434.646 231.005 433.215 232.282 431.992C233.347 430.976 234.47 430.318 235.629 429.983C235.759 429.949 235.877 429.891 236.007 429.868C236.197 429.822 236.386 429.799 236.563 429.775C236.622 429.764 236.681 429.764 236.741 429.752H236.788C236.894 429.741 237.001 429.729 237.119 429.729C237.214 429.718 237.296 429.752 237.367 429.752C237.415 429.752 237.45 429.741 237.486 429.741C237.509 429.741 237.521 429.741 237.545 429.741C237.781 429.741 238.018 429.799 238.266 429.833C238.396 429.856 238.538 429.856 238.668 429.879C240.135 430.156 241.589 430.964 243.044 432.338C245.634 434.796 248.176 437.29 250.731 439.771L253.19 442.172C253.935 442.888 254.668 443.615 255.402 444.342C256.3 445.231 257.211 446.131 258.122 447.008C258.5 447.378 258.76 447.562 258.926 447.666C259.115 447.528 259.375 447.32 259.742 446.962L267.949 438.998C270.385 436.597 272.786 434.231 274.654 432.419C275.115 431.969 275.647 431.472 276.298 431.022L276.333 430.987C276.594 430.826 276.865 430.653 277.149 430.503C278.131 430.006 279.195 429.764 280.259 429.752C280.271 429.752 280.283 429.752 280.295 429.752C280.307 429.752 280.319 429.752 280.331 429.752C281.584 429.741 282.837 430.064 283.949 430.722C284.659 431.137 285.274 431.668 285.77 432.269C285.794 432.303 285.829 432.326 285.853 432.349C288.443 434.808 290.985 437.301 293.54 439.783L296 442.184C296.745 442.899 297.478 443.626 298.211 444.354C299.11 445.242 300.02 446.143 300.931 447.02C301.345 447.424 301.617 447.609 301.782 447.713C301.806 447.689 301.853 447.655 301.889 447.632C302.09 447.482 302.386 447.228 302.811 446.824C306.856 442.876 313.395 436.355 317.452 432.419C317.913 431.969 318.445 431.472 319.095 431.022L319.131 430.987C319.391 430.826 319.663 430.653 319.947 430.503C322.111 429.418 324.654 429.487 326.735 430.71V430.699C328.816 431.922 330.07 434.058 330.093 436.424C330.07 438.213 329.313 439.967 327.74 441.503ZM327.74 389.561L326.073 391.189C325.671 391.708 325.257 392.124 324.926 392.447L320.479 396.787C317.322 399.857 314.164 402.928 311.007 405.986C309.481 407.487 308.015 408.907 306.749 410.13C305.685 411.146 304.562 411.804 303.403 412.139C303.273 412.173 303.154 412.219 303.024 412.254C302.835 412.3 302.646 412.323 302.468 412.346C302.409 412.358 302.35 412.358 302.303 412.369H302.255C302.149 412.381 302.043 412.392 301.924 412.392C299.926 412.45 297.951 411.608 296.094 409.83C292.842 406.69 289.602 403.516 286.362 400.354L281.667 395.76C281.383 395.471 281.087 395.183 280.78 394.917C280.555 394.709 280.378 394.582 280.259 394.502C280.224 394.479 280.189 394.444 280.153 394.432C280.082 394.49 279.988 394.571 279.881 394.64L277.67 396.787C274.512 399.857 271.355 402.928 268.197 405.986C266.66 407.487 265.205 408.907 263.94 410.13C262.876 411.146 261.752 411.804 260.593 412.139C260.463 412.173 260.345 412.219 260.215 412.254C260.026 412.3 259.836 412.323 259.659 412.346C259.6 412.358 259.541 412.358 259.493 412.369H259.446C259.34 412.381 259.221 412.392 259.115 412.392C259.032 412.404 258.949 412.369 258.867 412.369C258.831 412.369 258.784 412.381 258.748 412.381C258.725 412.381 258.713 412.381 258.689 412.381C258.453 412.381 258.216 412.323 257.968 412.289C257.838 412.265 257.696 412.265 257.566 412.242C256.099 411.965 254.645 411.157 253.19 409.784C250.6 407.325 248.058 404.832 245.503 402.35L243.044 399.95C242.299 399.234 241.566 398.507 240.832 397.78C239.934 396.891 239.023 395.991 238.112 395.113C237.734 394.744 237.474 394.559 237.308 394.455C237.119 394.594 236.859 394.802 236.492 395.16L228.285 403.135C225.849 405.536 223.46 407.902 221.58 409.715C221.119 410.165 220.587 410.661 219.936 411.111L219.901 411.146C219.64 411.307 219.368 411.481 219.085 411.631C218.103 412.127 217.051 412.369 215.986 412.381C215.974 412.381 215.963 412.381 215.951 412.381C215.939 412.381 215.927 412.381 215.915 412.381C214.674 412.392 213.42 412.069 212.309 411.411C211.599 410.996 210.984 410.453 210.487 409.865C210.452 409.83 210.416 409.807 210.393 409.784C207.803 407.325 205.26 404.832 202.706 402.35L200.246 399.95C199.501 399.234 198.768 398.507 198.035 397.78C197.136 396.891 196.225 395.991 195.315 395.113C194.996 394.813 194.759 394.629 194.605 394.513L192.276 396.775C189.118 399.846 185.961 402.916 182.803 405.975C181.278 407.475 179.811 408.895 178.546 410.119C177.481 411.134 176.358 411.792 175.199 412.127C175.069 412.162 174.951 412.208 174.821 412.242C174.631 412.289 174.442 412.312 174.265 412.335C174.206 412.346 174.147 412.346 174.099 412.358H174.052C173.946 412.369 173.839 412.381 173.721 412.381C173.532 412.381 173.354 412.381 173.165 412.369C171.9 412.381 170.646 412.069 169.511 411.4C168.506 410.811 167.702 410.003 167.134 409.068C164.142 406.171 161.15 403.251 158.17 400.342L153.475 395.748C153.191 395.46 152.896 395.171 152.588 394.906C152.364 394.698 152.186 394.571 152.068 394.49C152.032 394.467 151.997 394.432 151.961 394.421C151.89 394.479 151.796 394.559 151.689 394.629L149.478 396.775C146.321 399.846 143.163 402.916 140.006 405.975C138.468 407.475 137.014 408.895 135.748 410.119C134.684 411.134 133.56 411.792 132.402 412.127C132.271 412.162 132.153 412.208 132.023 412.242C131.834 412.289 131.645 412.312 131.467 412.335C131.408 412.346 131.349 412.346 131.302 412.358H131.254C131.148 412.369 131.042 412.381 130.923 412.381C130.841 412.392 130.758 412.358 130.675 412.358C130.64 412.358 130.592 412.369 130.557 412.369C130.533 412.369 130.521 412.369 130.498 412.369C130.261 412.369 130.025 412.312 129.776 412.277C129.646 412.254 129.504 412.254 129.374 412.231C127.908 411.954 126.453 411.146 124.999 409.772C122.409 407.314 119.866 404.821 117.312 402.339L114.852 399.938C114.107 399.222 113.374 398.495 112.641 397.768C111.742 396.879 110.831 395.979 109.921 395.102C109.542 394.732 109.282 394.548 109.117 394.444C108.927 394.582 108.667 394.79 108.301 395.148L100.094 403.124C97.6574 405.525 95.2686 407.891 93.3883 409.703C92.9271 410.153 92.3949 410.65 91.7445 411.1L91.7091 411.134C91.4489 411.296 91.1769 411.469 90.893 411.619C89.9115 412.115 88.859 412.358 87.7947 412.369C87.7829 412.369 87.771 412.369 87.7592 412.369C87.7473 412.369 87.7356 412.369 87.7238 412.369C86.4821 412.381 85.2285 412.058 84.1169 411.4C83.4073 410.984 82.7923 410.442 82.2957 409.853C82.2602 409.818 82.2248 409.795 82.2011 409.772C79.6113 407.314 77.0687 404.821 74.5143 402.339L72.0546 399.938C71.3096 399.222 70.5764 398.495 69.8432 397.768C68.9444 396.879 68.0338 395.979 67.1232 395.102C66.7093 394.698 66.4374 394.513 66.2718 394.409C66.2481 394.432 66.2007 394.467 66.1653 394.49C65.9642 394.64 65.6687 394.894 65.2548 395.298C61.2104 399.246 54.6707 405.767 50.6145 409.703C50.1533 410.153 49.6211 410.65 48.9707 411.1L48.9351 411.134C48.675 411.296 48.4029 411.469 48.1191 411.619C45.955 412.704 43.4124 412.635 41.3311 411.411C39.2498 410.188 37.9963 408.052 37.9726 405.686C37.8898 403.897 38.6349 402.143 40.2195 400.608L41.887 398.98C42.2891 398.461 42.703 398.045 43.0341 397.722L47.4806 393.382C50.6263 390.312 53.7837 387.253 56.9412 384.194C58.4668 382.694 59.9331 381.262 61.2103 380.039C62.2746 379.023 63.398 378.365 64.557 378.03C64.6871 377.996 64.8054 377.938 64.9355 377.915C65.1247 377.869 65.3139 377.846 65.4913 377.823C65.5504 377.811 65.6095 377.811 65.6568 377.8H65.7042C65.8106 377.788 65.9169 377.777 66.0352 377.777C68.0338 377.719 70.0087 378.561 71.8654 380.339C75.1175 383.478 78.3577 386.653 81.598 389.815L86.2928 394.409C86.5766 394.698 86.8722 394.986 87.1797 395.252C87.4044 395.46 87.5819 395.587 87.712 395.667C87.7474 395.69 87.7829 395.725 87.8184 395.737C87.8893 395.679 87.9839 395.598 88.0903 395.529L90.3017 393.382C93.4474 390.312 96.6049 387.253 99.7624 384.194C101.3 382.694 102.754 381.262 104.031 380.039C105.096 379.023 106.219 378.365 107.378 378.03C107.508 377.996 107.627 377.938 107.757 377.915C107.946 377.869 108.135 377.846 108.312 377.823C108.372 377.811 108.431 377.811 108.49 377.8H108.537C108.644 377.788 108.75 377.777 108.868 377.777C108.963 377.765 109.046 377.8 109.117 377.8C109.152 377.8 109.199 377.788 109.235 377.788C109.259 377.788 109.27 377.788 109.294 377.788C109.531 377.788 109.767 377.846 110.015 377.88C110.145 377.903 110.287 377.903 110.417 377.927C111.884 378.204 113.338 379.012 114.793 380.385C117.383 382.844 119.925 385.337 122.48 387.818L124.94 390.219C125.685 390.935 126.418 391.662 127.151 392.389C128.05 393.278 128.96 394.178 129.871 395.056C130.249 395.425 130.509 395.61 130.675 395.714C130.864 395.575 131.124 395.367 131.491 395.009L139.698 387.045C142.134 384.644 144.535 382.278 146.403 380.466C146.865 380.016 147.397 379.519 148.047 379.069L148.083 379.035C148.343 378.873 148.615 378.7 148.899 378.55C149.88 378.054 150.944 377.811 152.009 377.8C152.021 377.8 152.032 377.8 152.044 377.8C152.056 377.8 152.068 377.8 152.08 377.8C153.333 377.788 154.587 378.111 155.698 378.769C156.408 379.185 157.023 379.716 157.52 380.316C157.543 380.35 157.579 380.374 157.602 380.397C160.192 382.855 162.735 385.348 165.289 387.83L167.749 390.231C168.494 390.946 169.227 391.674 169.96 392.401C170.859 393.29 171.77 394.19 172.68 395.067C173 395.379 173.236 395.552 173.402 395.667L175.731 393.394C178.877 390.323 182.034 387.264 185.192 384.206C186.729 382.705 188.184 381.274 189.461 380.05C190.525 379.035 191.649 378.377 192.808 378.042C192.938 378.007 193.056 377.95 193.186 377.927C193.375 377.88 193.565 377.857 193.742 377.834C193.801 377.823 193.86 377.823 193.908 377.811H193.955C194.061 377.8 194.18 377.788 194.286 377.788C194.475 377.788 194.653 377.788 194.842 377.8C196.107 377.788 197.361 378.1 198.496 378.769V378.758C199.513 379.346 200.317 380.166 200.897 381.112C203.889 384.009 206.869 386.918 209.849 389.827L214.544 394.421C214.827 394.709 215.123 394.998 215.431 395.263C215.655 395.471 215.833 395.598 215.963 395.679C215.998 395.702 216.034 395.737 216.069 395.748C216.14 395.69 216.235 395.61 216.341 395.54L218.553 393.394C221.698 390.323 224.856 387.264 228.013 384.206C229.551 382.705 231.005 381.274 232.282 380.05C233.347 379.035 234.47 378.377 235.629 378.042C235.759 378.007 235.877 377.95 236.007 377.927C236.197 377.88 236.386 377.857 236.563 377.834C236.622 377.823 236.681 377.823 236.741 377.811H236.788C236.894 377.8 237.001 377.788 237.119 377.788C237.214 377.776 237.296 377.811 237.367 377.811C237.415 377.811 237.45 377.8 237.486 377.8C237.509 377.8 237.521 377.8 237.545 377.8C237.781 377.8 238.018 377.857 238.266 377.892C238.396 377.915 238.538 377.915 238.668 377.938C240.135 378.215 241.589 379.023 243.044 380.397C245.634 382.855 248.176 385.348 250.731 387.83L253.19 390.231C253.935 390.946 254.668 391.674 255.402 392.401C256.3 393.29 257.211 394.19 258.122 395.067C258.5 395.437 258.76 395.621 258.926 395.725C259.115 395.587 259.375 395.379 259.742 395.021L267.949 387.057C270.385 384.656 272.786 382.29 274.654 380.477C275.115 380.027 275.647 379.531 276.298 379.081L276.333 379.046C276.594 378.885 276.865 378.711 277.149 378.561C278.131 378.065 279.195 377.823 280.259 377.811C280.271 377.811 280.283 377.811 280.295 377.811C280.307 377.811 280.319 377.811 280.331 377.811C281.584 377.8 282.837 378.123 283.949 378.781C284.659 379.196 285.274 379.727 285.77 380.327C285.794 380.362 285.829 380.385 285.853 380.408C288.443 382.867 290.985 385.36 293.54 387.842L296 390.242C296.745 390.958 297.478 391.685 298.211 392.412C299.11 393.301 300.02 394.201 300.931 395.079C301.345 395.483 301.617 395.667 301.782 395.771C301.806 395.748 301.853 395.714 301.889 395.69C302.09 395.54 302.386 395.286 302.811 394.882C306.856 390.935 313.395 384.413 317.452 380.477C317.913 380.027 318.445 379.531 319.095 379.081L319.131 379.046C319.391 378.885 319.663 378.711 319.947 378.561C322.111 377.476 324.654 377.546 326.735 378.769V378.758C328.816 379.981 330.07 382.116 330.093 384.483C330.07 386.272 329.313 388.026 327.74 389.561Z" fill="#00DED2" fill-opacity="0.12"/>
<path d="M403.23 837H67.3777C58.2364 837 50.8216 844.237 50.8216 853.16V959.351C50.8216 968.273 58.2364 975.51 67.3777 975.51H73.2906V996.287C73.2906 996.39 73.2906 996.494 73.3024 996.598C73.3616 1001.33 75.8686 1005.62 80.0431 1008.06V1008.05C84.2058 1010.5 89.3027 1010.65 93.6191 1008.48C94.2104 1008.18 94.7425 1007.85 95.2629 1007.52L95.3457 1007.44C96.6584 1006.54 97.7344 1005.54 98.645 1004.64C106.769 996.771 119.861 983.728 127.949 975.822C128.068 975.706 128.174 975.602 128.281 975.51H403.23C412.372 975.51 419.786 968.273 419.786 959.351V853.16C419.786 844.237 412.372 837 403.23 837ZM378.562 921.503L376.894 923.13C376.492 923.65 376.078 924.065 375.747 924.388L371.301 928.728C368.143 931.799 364.986 934.869 361.828 937.928C360.303 939.428 358.836 940.848 357.571 942.071C356.507 943.087 355.383 943.745 354.224 944.08C354.094 944.114 353.976 944.161 353.846 944.195C353.657 944.241 353.467 944.264 353.29 944.288C353.231 944.299 353.172 944.299 353.124 944.311H353.077C352.971 944.322 352.864 944.334 352.746 944.334C350.747 944.391 348.772 943.549 346.916 941.771C343.664 938.632 340.423 935.458 337.183 932.295L332.488 927.701C332.205 927.412 331.909 927.124 331.601 926.858C331.377 926.651 331.199 926.524 331.081 926.443C331.046 926.42 331.01 926.385 330.975 926.374C330.904 926.431 330.809 926.512 330.703 926.581L328.491 928.728C325.334 931.799 322.176 934.869 319.019 937.928C317.481 939.428 316.027 940.848 314.761 942.071C313.697 943.087 312.574 943.745 311.415 944.08C311.285 944.114 311.166 944.161 311.036 944.195C310.847 944.241 310.658 944.264 310.48 944.288C310.421 944.299 310.362 944.299 310.315 944.311H310.268C310.161 944.322 310.043 944.334 309.937 944.334C309.854 944.345 309.771 944.311 309.688 944.311C309.653 944.311 309.606 944.322 309.57 944.322C309.546 944.322 309.534 944.322 309.511 944.322C309.274 944.322 309.038 944.264 308.789 944.23C308.659 944.207 308.518 944.207 308.387 944.184C306.921 943.907 305.466 943.099 304.012 941.725C301.422 939.267 298.879 936.773 296.325 934.292L293.865 931.891C293.12 931.175 292.387 930.448 291.654 929.721C290.755 928.832 289.845 927.932 288.934 927.055C288.556 926.685 288.295 926.501 288.13 926.397C287.941 926.535 287.68 926.743 287.314 927.101L279.107 935.077C276.671 937.477 274.282 939.844 272.401 941.656C271.94 942.106 271.408 942.602 270.758 943.053L270.722 943.087C270.462 943.249 270.19 943.422 269.906 943.572C268.925 944.068 267.872 944.311 266.808 944.322C266.796 944.322 266.784 944.322 266.772 944.322C266.761 944.322 266.749 944.322 266.737 944.322C265.495 944.334 264.242 944.011 263.13 943.353C262.421 942.937 261.806 942.395 261.309 941.806C261.273 941.771 261.238 941.748 261.214 941.725C258.624 939.267 256.082 936.773 253.528 934.292L251.068 931.891C250.323 931.175 249.589 930.448 248.856 929.721C247.958 928.832 247.047 927.932 246.136 927.055C245.817 926.754 245.581 926.57 245.427 926.454L243.097 928.717C239.94 931.787 236.782 934.857 233.625 937.916C232.099 939.417 230.633 940.836 229.367 942.06C228.303 943.076 227.18 943.734 226.021 944.068C225.891 944.103 225.772 944.149 225.642 944.184C225.453 944.23 225.264 944.253 225.086 944.276C225.027 944.288 224.968 944.288 224.921 944.299H224.874C224.767 944.311 224.661 944.322 224.543 944.322C224.353 944.322 224.176 944.322 223.987 944.311C222.721 944.322 221.468 944.011 220.332 943.341C219.327 942.752 218.523 941.944 217.955 941.009C214.964 938.112 211.972 935.192 208.992 932.283L204.297 927.689C204.013 927.401 203.717 927.112 203.41 926.847C203.185 926.639 203.008 926.512 202.889 926.431C202.854 926.408 202.819 926.374 202.783 926.362C202.712 926.42 202.618 926.501 202.511 926.57L200.3 928.717C197.142 931.787 193.985 934.857 190.827 937.916C189.29 939.417 187.835 940.836 186.57 942.06C185.506 943.076 184.382 943.734 183.223 944.068C183.093 944.103 182.975 944.149 182.845 944.184C182.656 944.23 182.466 944.253 182.289 944.276C182.23 944.288 182.171 944.288 182.123 944.299H182.076C181.97 944.311 181.863 944.322 181.745 944.322C181.662 944.334 181.579 944.299 181.497 944.299C181.461 944.299 181.414 944.311 181.378 944.311C181.355 944.311 181.343 944.311 181.319 944.311C181.083 944.311 180.846 944.253 180.598 944.218C180.468 944.195 180.326 944.195 180.196 944.172C178.729 943.895 177.275 943.087 175.82 941.714C173.23 939.255 170.688 936.762 168.133 934.28L165.674 931.879C164.929 931.164 164.195 930.437 163.462 929.709C162.564 928.821 161.653 927.92 160.742 927.043C160.364 926.674 160.104 926.489 159.938 926.385C159.749 926.524 159.489 926.731 159.122 927.089L150.915 935.065C148.479 937.466 146.09 939.832 144.21 941.644C143.749 942.094 143.216 942.591 142.566 943.041L142.531 943.076C142.271 943.237 141.998 943.41 141.715 943.56C140.733 944.057 139.681 944.299 138.616 944.311C138.604 944.311 138.593 944.311 138.581 944.311C138.569 944.311 138.557 944.311 138.545 944.311C137.304 944.322 136.05 943.999 134.938 943.341C134.229 942.926 133.614 942.383 133.117 941.794C133.082 941.76 133.046 941.737 133.023 941.714C130.433 939.255 127.89 936.762 125.336 934.28L122.876 931.879C122.131 931.164 121.398 930.437 120.665 929.709C119.766 928.821 118.855 927.92 117.945 927.043C117.531 926.639 117.259 926.454 117.093 926.351C117.07 926.374 117.022 926.408 116.987 926.431C116.786 926.581 116.49 926.835 116.076 927.239C112.032 931.187 105.492 937.708 101.436 941.644C100.975 942.094 100.443 942.591 99.7922 943.041L99.7567 943.076C99.4966 943.237 99.2245 943.41 98.9407 943.56C96.7766 944.645 94.234 944.576 92.1527 943.353C90.0713 942.129 88.8179 939.994 88.7942 937.628C88.7114 935.838 89.4565 934.084 91.0411 932.549L92.7086 930.921C93.1107 930.402 93.5246 929.986 93.8557 929.663L98.3022 925.323C101.448 922.253 104.605 919.194 107.763 916.135C109.288 914.635 110.755 913.204 112.032 911.98C113.096 910.964 114.22 910.306 115.379 909.972C115.509 909.937 115.627 909.879 115.757 909.856C115.946 909.81 116.135 909.787 116.313 909.764C116.372 909.752 116.431 909.752 116.478 909.741H116.526C116.632 909.729 116.739 909.718 116.857 909.718C118.855 909.66 120.83 910.503 122.687 912.28C125.939 915.42 129.179 918.594 132.42 921.757L137.114 926.351C137.398 926.639 137.694 926.928 138.001 927.193C138.226 927.401 138.403 927.528 138.534 927.609C138.569 927.632 138.604 927.666 138.64 927.678C138.711 927.62 138.805 927.539 138.912 927.47L141.123 925.323C144.269 922.253 147.426 919.194 150.584 916.135C152.121 914.635 153.576 913.204 154.853 911.98C155.917 910.964 157.041 910.306 158.2 909.972C158.33 909.937 158.448 909.879 158.578 909.856C158.767 909.81 158.957 909.787 159.134 909.764C159.193 909.752 159.252 909.752 159.311 909.741H159.359C159.465 909.729 159.572 909.718 159.69 909.718C159.785 909.706 159.867 909.741 159.938 909.741C159.974 909.741 160.021 909.729 160.056 909.729C160.08 909.729 160.092 909.729 160.116 909.729C160.352 909.729 160.589 909.787 160.837 909.822C160.967 909.845 161.109 909.845 161.239 909.868C162.705 910.145 164.16 910.953 165.615 912.326C168.204 914.785 170.747 917.278 173.301 919.76L175.761 922.161C176.506 922.876 177.239 923.603 177.973 924.331C178.871 925.219 179.782 926.12 180.692 926.997C181.071 927.366 181.331 927.551 181.497 927.655C181.686 927.516 181.946 927.309 182.313 926.951L190.52 918.986C192.956 916.586 195.357 914.219 197.225 912.407C197.686 911.957 198.218 911.461 198.869 911.011L198.904 910.976C199.164 910.814 199.436 910.641 199.72 910.491C200.702 909.995 201.766 909.752 202.83 909.741C202.842 909.741 202.854 909.741 202.866 909.741C202.878 909.741 202.889 909.741 202.901 909.741C204.155 909.729 205.408 910.052 206.52 910.71C207.23 911.126 207.844 911.657 208.341 912.257C208.365 912.292 208.4 912.315 208.424 912.338C211.014 914.796 213.556 917.29 216.111 919.771L218.57 922.172C219.315 922.888 220.049 923.615 220.782 924.342C221.681 925.231 222.591 926.131 223.502 927.008C223.821 927.32 224.058 927.493 224.223 927.609L226.553 925.335C229.699 922.264 232.856 919.206 236.013 916.147C237.551 914.646 239.005 913.215 240.283 911.992C241.347 910.976 242.47 910.318 243.629 909.983C243.759 909.949 243.878 909.891 244.008 909.868C244.197 909.822 244.386 909.799 244.564 909.775C244.623 909.764 244.682 909.764 244.729 909.752H244.776C244.883 909.741 245.001 909.729 245.108 909.729C245.297 909.729 245.474 909.729 245.663 909.741C246.929 909.729 248.182 910.041 249.318 910.71V910.699C250.335 911.288 251.139 912.107 251.718 913.054C254.71 915.951 257.69 918.859 260.67 921.768L265.365 926.362C265.649 926.651 265.945 926.939 266.252 927.205C266.477 927.412 266.654 927.539 266.784 927.62C266.82 927.643 266.855 927.678 266.891 927.689C266.962 927.632 267.056 927.551 267.163 927.482L269.374 925.335C272.52 922.264 275.677 919.206 278.835 916.147C280.372 914.646 281.827 913.215 283.104 911.992C284.168 910.976 285.292 910.318 286.451 909.983C286.581 909.949 286.699 909.891 286.829 909.868C287.018 909.822 287.207 909.799 287.385 909.775C287.444 909.764 287.503 909.764 287.562 909.752H287.609C287.716 909.741 287.822 909.729 287.941 909.729C288.035 909.718 288.118 909.752 288.189 909.752C288.236 909.752 288.272 909.741 288.307 909.741C288.331 909.741 288.343 909.741 288.366 909.741C288.603 909.741 288.839 909.799 289.088 909.833C289.218 909.856 289.36 909.856 289.49 909.879C290.956 910.156 292.411 910.964 293.865 912.338C296.455 914.796 298.998 917.29 301.552 919.771L304.012 922.172C304.757 922.888 305.49 923.615 306.223 924.342C307.122 925.231 308.033 926.131 308.943 927.008C309.322 927.378 309.582 927.562 309.747 927.666C309.937 927.528 310.197 927.32 310.563 926.962L318.77 918.998C321.206 916.597 323.607 914.231 325.476 912.419C325.937 911.969 326.469 911.472 327.119 911.022L327.155 910.987C327.415 910.826 327.687 910.653 327.971 910.503C328.952 910.006 330.017 909.764 331.081 909.752C331.093 909.752 331.105 909.752 331.117 909.752C331.128 909.752 331.14 909.752 331.152 909.752C332.406 909.741 333.659 910.064 334.771 910.722C335.48 911.137 336.095 911.668 336.592 912.269C336.616 912.303 336.651 912.326 336.675 912.349C339.265 914.808 341.807 917.301 344.361 919.783L346.821 922.184C347.566 922.899 348.299 923.626 349.033 924.354C349.931 925.242 350.842 926.143 351.753 927.02C352.166 927.424 352.438 927.609 352.604 927.713C352.628 927.689 352.675 927.655 352.71 927.632C352.912 927.482 353.207 927.228 353.633 926.824C357.677 922.876 364.217 916.355 368.273 912.419C368.734 911.969 369.267 911.472 369.917 911.022L369.952 910.987C370.213 910.826 370.485 910.653 370.769 910.503C372.933 909.418 375.475 909.487 377.557 910.71V910.699C379.638 911.922 380.891 914.058 380.915 916.424C380.891 918.213 380.134 919.967 378.562 921.503ZM378.562 869.561L376.894 871.189C376.492 871.708 376.078 872.124 375.747 872.447L371.301 876.787C368.143 879.857 364.986 882.928 361.828 885.986C360.303 887.487 358.836 888.907 357.571 890.13C356.507 891.146 355.383 891.804 354.224 892.139C354.094 892.173 353.976 892.219 353.846 892.254C353.657 892.3 353.467 892.323 353.29 892.346C353.231 892.358 353.172 892.358 353.124 892.369H353.077C352.971 892.381 352.864 892.392 352.746 892.392C350.747 892.45 348.772 891.608 346.916 889.83C343.664 886.69 340.423 883.516 337.183 880.354L332.488 875.76C332.205 875.471 331.909 875.183 331.601 874.917C331.377 874.709 331.199 874.582 331.081 874.502C331.046 874.479 331.01 874.444 330.975 874.432C330.904 874.49 330.809 874.571 330.703 874.64L328.491 876.787C325.334 879.857 322.176 882.928 319.019 885.986C317.481 887.487 316.027 888.907 314.761 890.13C313.697 891.146 312.574 891.804 311.415 892.139C311.285 892.173 311.166 892.219 311.036 892.254C310.847 892.3 310.658 892.323 310.48 892.346C310.421 892.358 310.362 892.358 310.315 892.369H310.268C310.161 892.381 310.043 892.392 309.937 892.392C309.854 892.404 309.771 892.369 309.688 892.369C309.653 892.369 309.606 892.381 309.57 892.381C309.546 892.381 309.534 892.381 309.511 892.381C309.274 892.381 309.038 892.323 308.789 892.289C308.659 892.265 308.518 892.265 308.387 892.242C306.921 891.965 305.466 891.157 304.012 889.784C301.422 887.325 298.879 884.832 296.325 882.35L293.865 879.95C293.12 879.234 292.387 878.507 291.654 877.78C290.755 876.891 289.845 875.991 288.934 875.113C288.556 874.744 288.295 874.559 288.13 874.455C287.941 874.594 287.68 874.802 287.314 875.16L279.107 883.135C276.671 885.536 274.282 887.902 272.401 889.715C271.94 890.165 271.408 890.661 270.758 891.111L270.722 891.146C270.462 891.307 270.19 891.481 269.906 891.631C268.925 892.127 267.872 892.369 266.808 892.381C266.796 892.381 266.784 892.381 266.772 892.381C266.761 892.381 266.749 892.381 266.737 892.381C265.495 892.392 264.242 892.069 263.13 891.411C262.421 890.996 261.806 890.453 261.309 889.865C261.273 889.83 261.238 889.807 261.214 889.784C258.624 887.325 256.082 884.832 253.528 882.35L251.068 879.95C250.323 879.234 249.589 878.507 248.856 877.78C247.958 876.891 247.047 875.991 246.136 875.113C245.817 874.813 245.581 874.629 245.427 874.513L243.097 876.775C239.94 879.846 236.782 882.916 233.625 885.975C232.099 887.475 230.633 888.895 229.367 890.119C228.303 891.134 227.18 891.792 226.021 892.127C225.891 892.162 225.772 892.208 225.642 892.242C225.453 892.289 225.264 892.312 225.086 892.335C225.027 892.346 224.968 892.346 224.921 892.358H224.874C224.767 892.369 224.661 892.381 224.543 892.381C224.353 892.381 224.176 892.381 223.987 892.369C222.721 892.381 221.468 892.069 220.332 891.4C219.327 890.811 218.523 890.003 217.955 889.068C214.964 886.171 211.972 883.251 208.992 880.342L204.297 875.748C204.013 875.46 203.717 875.171 203.41 874.906C203.185 874.698 203.008 874.571 202.889 874.49C202.854 874.467 202.819 874.432 202.783 874.421C202.712 874.479 202.618 874.559 202.511 874.629L200.3 876.775C197.142 879.846 193.985 882.916 190.827 885.975C189.29 887.475 187.835 888.895 186.57 890.119C185.506 891.134 184.382 891.792 183.223 892.127C183.093 892.162 182.975 892.208 182.845 892.242C182.656 892.289 182.466 892.312 182.289 892.335C182.23 892.346 182.171 892.346 182.123 892.358H182.076C181.97 892.369 181.863 892.381 181.745 892.381C181.662 892.392 181.579 892.358 181.497 892.358C181.461 892.358 181.414 892.369 181.378 892.369C181.355 892.369 181.343 892.369 181.319 892.369C181.083 892.369 180.846 892.312 180.598 892.277C180.468 892.254 180.326 892.254 180.196 892.231C178.729 891.954 177.275 891.146 175.82 889.772C173.23 887.314 170.688 884.821 168.133 882.339L165.674 879.938C164.929 879.222 164.195 878.495 163.462 877.768C162.564 876.879 161.653 875.979 160.742 875.102C160.364 874.732 160.104 874.548 159.938 874.444C159.749 874.582 159.489 874.79 159.122 875.148L150.915 883.124C148.479 885.525 146.09 887.891 144.21 889.703C143.749 890.153 143.216 890.65 142.566 891.1L142.531 891.134C142.271 891.296 141.998 891.469 141.715 891.619C140.733 892.115 139.681 892.358 138.616 892.369C138.604 892.369 138.593 892.369 138.581 892.369C138.569 892.369 138.557 892.369 138.545 892.369C137.304 892.381 136.05 892.058 134.938 891.4C134.229 890.984 133.614 890.442 133.117 889.853C133.082 889.818 133.046 889.795 133.023 889.772C130.433 887.314 127.89 884.821 125.336 882.339L122.876 879.938C122.131 879.222 121.398 878.495 120.665 877.768C119.766 876.879 118.855 875.979 117.945 875.102C117.531 874.698 117.259 874.513 117.093 874.409C117.07 874.432 117.022 874.467 116.987 874.49C116.786 874.64 116.49 874.894 116.076 875.298C112.032 879.246 105.492 885.767 101.436 889.703C100.975 890.153 100.443 890.65 99.7922 891.1L99.7567 891.134C99.4966 891.296 99.2245 891.469 98.9407 891.619C96.7766 892.704 94.234 892.635 92.1527 891.411C90.0713 890.188 88.8179 888.052 88.7942 885.686C88.7114 883.897 89.4565 882.143 91.0411 880.608L92.7086 878.98C93.1107 878.461 93.5246 878.045 93.8557 877.722L98.3022 873.382C101.448 870.312 104.605 867.253 107.763 864.194C109.288 862.694 110.755 861.262 112.032 860.039C113.096 859.023 114.22 858.365 115.379 858.03C115.509 857.996 115.627 857.938 115.757 857.915C115.946 857.869 116.135 857.846 116.313 857.823C116.372 857.811 116.431 857.811 116.478 857.8H116.526C116.632 857.788 116.739 857.777 116.857 857.777C118.855 857.719 120.83 858.561 122.687 860.339C125.939 863.478 129.179 866.653 132.42 869.815L137.114 874.409C137.398 874.698 137.694 874.986 138.001 875.252C138.226 875.46 138.403 875.587 138.534 875.667C138.569 875.69 138.604 875.725 138.64 875.737C138.711 875.679 138.805 875.598 138.912 875.529L141.123 873.382C144.269 870.312 147.426 867.253 150.584 864.194C152.121 862.694 153.576 861.262 154.853 860.039C155.917 859.023 157.041 858.365 158.2 858.03C158.33 857.996 158.448 857.938 158.578 857.915C158.767 857.869 158.957 857.846 159.134 857.823C159.193 857.811 159.252 857.811 159.311 857.8H159.359C159.465 857.788 159.572 857.777 159.69 857.777C159.785 857.765 159.867 857.8 159.938 857.8C159.974 857.8 160.021 857.788 160.056 857.788C160.08 857.788 160.092 857.788 160.116 857.788C160.352 857.788 160.589 857.846 160.837 857.88C160.967 857.903 161.109 857.903 161.239 857.927C162.705 858.204 164.16 859.012 165.615 860.385C168.204 862.844 170.747 865.337 173.301 867.818L175.761 870.219C176.506 870.935 177.239 871.662 177.973 872.389C178.871 873.278 179.782 874.178 180.692 875.056C181.071 875.425 181.331 875.61 181.497 875.714C181.686 875.575 181.946 875.367 182.313 875.009L190.52 867.045C192.956 864.644 195.357 862.278 197.225 860.466C197.686 860.016 198.218 859.519 198.869 859.069L198.904 859.035C199.164 858.873 199.436 858.7 199.72 858.55C200.702 858.054 201.766 857.811 202.83 857.8C202.842 857.8 202.854 857.8 202.866 857.8C202.878 857.8 202.889 857.8 202.901 857.8C204.155 857.788 205.408 858.111 206.52 858.769C207.23 859.185 207.844 859.716 208.341 860.316C208.365 860.35 208.4 860.374 208.424 860.397C211.014 862.855 213.556 865.348 216.111 867.83L218.57 870.231C219.315 870.946 220.049 871.674 220.782 872.401C221.681 873.29 222.591 874.19 223.502 875.067C223.821 875.379 224.058 875.552 224.223 875.667L226.553 873.394C229.699 870.323 232.856 867.264 236.013 864.206C237.551 862.705 239.005 861.274 240.283 860.05C241.347 859.035 242.47 858.377 243.629 858.042C243.759 858.007 243.878 857.95 244.008 857.927C244.197 857.88 244.386 857.857 244.564 857.834C244.623 857.823 244.682 857.823 244.729 857.811H244.776C244.883 857.8 245.001 857.788 245.108 857.788C245.297 857.788 245.474 857.788 245.663 857.8C246.929 857.788 248.182 858.1 249.318 858.769V858.758C250.335 859.346 251.139 860.166 251.718 861.112C254.71 864.009 257.69 866.918 260.67 869.827L265.365 874.421C265.649 874.709 265.945 874.998 266.252 875.263C266.477 875.471 266.654 875.598 266.784 875.679C266.82 875.702 266.855 875.737 266.891 875.748C266.962 875.69 267.056 875.61 267.163 875.54L269.374 873.394C272.52 870.323 275.677 867.264 278.835 864.206C280.372 862.705 281.827 861.274 283.104 860.05C284.168 859.035 285.292 858.377 286.451 858.042C286.581 858.007 286.699 857.95 286.829 857.927C287.018 857.88 287.207 857.857 287.385 857.834C287.444 857.823 287.503 857.823 287.562 857.811H287.609C287.716 857.8 287.822 857.788 287.941 857.788C288.035 857.776 288.118 857.811 288.189 857.811C288.236 857.811 288.272 857.8 288.307 857.8C288.331 857.8 288.343 857.8 288.366 857.8C288.603 857.8 288.839 857.857 289.088 857.892C289.218 857.915 289.36 857.915 289.49 857.938C290.956 858.215 292.411 859.023 293.865 860.397C296.455 862.855 298.998 865.348 301.552 867.83L304.012 870.231C304.757 870.946 305.49 871.674 306.223 872.401C307.122 873.29 308.033 874.19 308.943 875.067C309.322 875.437 309.582 875.621 309.747 875.725C309.937 875.587 310.197 875.379 310.563 875.021L318.77 867.057C321.206 864.656 323.607 862.29 325.476 860.477C325.937 860.027 326.469 859.531 327.119 859.081L327.155 859.046C327.415 858.885 327.687 858.711 327.971 858.561C328.952 858.065 330.017 857.823 331.081 857.811C331.093 857.811 331.105 857.811 331.117 857.811C331.128 857.811 331.14 857.811 331.152 857.811C332.406 857.8 333.659 858.123 334.771 858.781C335.48 859.196 336.095 859.727 336.592 860.327C336.616 860.362 336.651 860.385 336.675 860.408C339.265 862.867 341.807 865.36 344.361 867.842L346.821 870.242C347.566 870.958 348.299 871.685 349.033 872.412C349.931 873.301 350.842 874.201 351.753 875.079C352.166 875.483 352.438 875.667 352.604 875.771C352.628 875.748 352.675 875.714 352.71 875.69C352.912 875.54 353.207 875.286 353.633 874.882C357.677 870.935 364.217 864.413 368.273 860.477C368.734 860.027 369.267 859.531 369.917 859.081L369.952 859.046C370.213 858.885 370.485 858.711 370.769 858.561C372.933 857.476 375.475 857.546 377.557 858.769V858.758C379.638 859.981 380.891 862.116 380.915 864.483C380.891 866.272 380.134 868.026 378.562 869.561Z" fill="#00DED2" fill-opacity="0.12"/>
</g>
<defs>
<clipPath id="clip0_1_7">
<rect width="433" height="1010" fill="white"/>
</clipPath>
</defs>
</svg>
