<svg width="443" height="416" viewBox="0 0 443 416" fill="none" xmlns="http://www.w3.org/2000/svg">
<g clip-path="url(#clip0_7933_2967)">
<path d="M346.712 243H16.2885C7.2949 243 0 250.237 0 259.16V365.351C0 374.273 7.2949 381.51 16.2885 381.51H22.1058V402.287C22.1058 402.39 22.1058 402.494 22.1174 402.598C22.1756 407.331 24.6421 411.624 28.7491 414.06V414.048C32.8445 416.495 37.859 416.645 42.1056 414.475C42.6873 414.175 43.2109 413.852 43.7228 413.517L43.8044 413.437C45.0958 412.536 46.1545 411.544 47.0503 410.643C55.0433 402.771 67.9229 389.728 75.8809 381.822C75.9973 381.706 76.102 381.602 76.2067 381.51H346.712C355.705 381.51 363 374.273 363 365.351V259.16C363 250.237 355.705 243 346.712 243ZM322.442 327.503L320.801 329.13C320.406 329.65 319.998 330.065 319.673 330.388L315.298 334.728C312.192 337.799 309.085 340.869 305.979 343.928C304.478 345.428 303.035 346.848 301.79 348.071C300.743 349.087 299.638 349.745 298.498 350.08C298.37 350.114 298.253 350.161 298.125 350.195C297.939 350.241 297.753 350.264 297.579 350.288C297.52 350.299 297.462 350.299 297.416 350.311H297.369C297.264 350.322 297.16 350.334 297.043 350.334C295.077 350.391 293.134 349.549 291.308 347.771C288.108 344.632 284.92 341.458 281.732 338.295L277.113 333.701C276.834 333.412 276.543 333.124 276.241 332.858C276.02 332.651 275.845 332.524 275.729 332.443C275.694 332.42 275.659 332.385 275.624 332.374C275.554 332.431 275.461 332.512 275.356 332.581L273.181 334.728C270.074 337.799 266.968 340.869 263.861 343.928C262.349 345.428 260.918 346.848 259.673 348.071C258.626 349.087 257.521 349.745 256.38 350.08C256.252 350.114 256.136 350.161 256.008 350.195C255.822 350.241 255.636 350.264 255.461 350.288C255.403 350.299 255.345 350.299 255.298 350.311H255.252C255.147 350.322 255.031 350.334 254.926 350.334C254.845 350.345 254.763 350.311 254.682 350.311C254.647 350.311 254.6 350.322 254.565 350.322C254.542 350.322 254.53 350.322 254.507 350.322C254.275 350.322 254.042 350.264 253.798 350.23C253.67 350.207 253.53 350.207 253.402 350.184C251.959 349.907 250.528 349.099 249.097 347.725C246.549 345.267 244.048 342.773 241.535 340.292L239.115 337.891C238.382 337.175 237.66 336.448 236.939 335.721C236.055 334.832 235.159 333.932 234.263 333.055C233.891 332.685 233.635 332.501 233.472 332.397C233.286 332.535 233.03 332.743 232.669 333.101L224.595 341.077C222.198 343.477 219.848 345.844 217.998 347.656C217.544 348.106 217.02 348.602 216.381 349.053L216.346 349.087C216.09 349.249 215.822 349.422 215.543 349.572C214.577 350.068 213.542 350.311 212.495 350.322C212.483 350.322 212.471 350.322 212.46 350.322C212.448 350.322 212.436 350.322 212.425 350.322C211.203 350.334 209.97 350.011 208.876 349.353C208.178 348.937 207.573 348.395 207.085 347.806C207.05 347.771 207.015 347.748 206.991 347.725C204.444 345.267 201.942 342.773 199.429 340.292L197.009 337.891C196.276 337.175 195.555 336.448 194.833 335.721C193.949 334.832 193.053 333.932 192.157 333.055C191.843 332.754 191.611 332.57 191.459 332.454L189.167 334.717C186.061 337.787 182.954 340.857 179.848 343.916C178.347 345.417 176.904 346.836 175.659 348.06C174.612 349.076 173.507 349.734 172.367 350.068C172.239 350.103 172.122 350.149 171.994 350.184C171.808 350.23 171.622 350.253 171.448 350.276C171.39 350.288 171.331 350.288 171.285 350.299H171.238C171.134 350.311 171.029 350.322 170.913 350.322C170.726 350.322 170.552 350.322 170.366 350.311C169.121 350.322 167.887 350.011 166.771 349.341C165.782 348.752 164.99 347.944 164.432 347.009C161.488 344.112 158.545 341.192 155.613 338.283L150.994 333.689C150.715 333.401 150.424 333.112 150.121 332.847C149.9 332.639 149.726 332.512 149.609 332.431C149.575 332.408 149.54 332.374 149.505 332.362C149.435 332.42 149.342 332.501 149.237 332.57L147.062 334.717C143.955 337.787 140.849 340.857 137.742 343.916C136.23 345.417 134.799 346.836 133.554 348.06C132.507 349.076 131.401 349.734 130.261 350.068C130.133 350.103 130.017 350.149 129.889 350.184C129.703 350.23 129.517 350.253 129.342 350.276C129.284 350.288 129.226 350.288 129.179 350.299H129.133C129.028 350.311 128.923 350.322 128.807 350.322C128.725 350.334 128.644 350.299 128.563 350.299C128.528 350.299 128.481 350.311 128.446 350.311C128.423 350.311 128.411 350.311 128.388 350.311C128.155 350.311 127.923 350.253 127.678 350.218C127.55 350.195 127.411 350.195 127.283 350.172C125.84 349.895 124.409 349.087 122.978 347.714C120.43 345.255 117.928 342.762 115.415 340.28L112.995 337.879C112.262 337.164 111.541 336.437 110.82 335.709C109.935 334.821 109.04 333.92 108.144 333.043C107.771 332.674 107.516 332.489 107.353 332.385C107.166 332.524 106.91 332.731 106.55 333.089L98.4754 341.065C96.0787 343.466 93.7284 345.832 91.8785 347.644C91.4248 348.094 90.9012 348.591 90.2613 349.041L90.2265 349.076C89.9705 349.237 89.7029 349.41 89.4236 349.56C88.458 350.057 87.4225 350.299 86.3754 350.311C86.3637 350.311 86.3521 350.311 86.3404 350.311C86.3288 350.311 86.3173 350.311 86.3056 350.311C85.084 350.322 83.8507 349.999 82.757 349.341C82.0589 348.926 81.4539 348.383 80.9653 347.794C80.9303 347.76 80.8955 347.737 80.8722 347.714C78.3242 345.255 75.8228 342.762 73.3097 340.28L70.8898 337.879C70.1568 337.164 69.4355 336.437 68.7141 335.709C67.8299 334.821 66.934 333.92 66.0381 333.043C65.6309 332.639 65.3633 332.454 65.2004 332.351C65.1772 332.374 65.1305 332.408 65.0956 332.431C64.8978 332.581 64.6071 332.835 64.1999 333.239C60.2208 337.187 53.7869 343.708 49.7962 347.644C49.3425 348.094 48.8189 348.591 48.179 349.041L48.144 349.076C47.8881 349.237 47.6204 349.41 47.3412 349.56C45.212 350.645 42.7106 350.576 40.6629 349.353C38.6152 348.129 37.382 345.994 37.3587 343.628C37.2773 341.838 38.0103 340.084 39.5693 338.549L41.2099 336.921C41.6054 336.402 42.0126 335.986 42.3384 335.663L46.713 331.323C49.8078 328.253 52.9143 325.194 56.0207 322.135C57.5216 320.635 58.9642 319.204 60.2208 317.98C61.2679 316.964 62.3731 316.306 63.5133 315.972C63.6413 315.937 63.7577 315.879 63.8857 315.856C64.0719 315.81 64.258 315.787 64.4325 315.764C64.4907 315.752 64.5489 315.752 64.5954 315.741H64.642C64.7467 315.729 64.8513 315.718 64.9677 315.718C66.9339 315.66 68.8769 316.503 70.7036 318.28C73.9031 321.42 77.091 324.594 80.2788 327.757L84.8978 332.351C85.177 332.639 85.4679 332.928 85.7704 333.193C85.9914 333.401 86.166 333.528 86.294 333.609C86.3289 333.632 86.3638 333.666 86.3987 333.678C86.4685 333.62 86.5615 333.539 86.6662 333.47L88.8419 331.323C91.9367 328.253 95.0432 325.194 98.1496 322.135C99.6621 320.635 101.093 319.204 102.35 317.98C103.397 316.964 104.502 316.306 105.642 315.972C105.77 315.937 105.887 315.879 106.015 315.856C106.201 315.81 106.387 315.787 106.561 315.764C106.62 315.752 106.678 315.752 106.736 315.741H106.783C106.887 315.729 106.992 315.718 107.108 315.718C107.201 315.706 107.283 315.741 107.353 315.741C107.388 315.741 107.434 315.729 107.469 315.729C107.492 315.729 107.504 315.729 107.527 315.729C107.76 315.729 107.993 315.787 108.237 315.822C108.365 315.845 108.504 315.845 108.632 315.868C110.075 316.145 111.506 316.953 112.937 318.326C115.485 320.785 117.987 323.278 120.5 325.76L122.92 328.161C123.653 328.876 124.374 329.603 125.095 330.331C125.98 331.219 126.875 332.12 127.771 332.997C128.144 333.366 128.4 333.551 128.563 333.655C128.749 333.516 129.005 333.309 129.365 332.951L137.44 324.986C139.836 322.586 142.198 320.219 144.037 318.407C144.49 317.957 145.014 317.461 145.654 317.011L145.689 316.976C145.945 316.814 146.212 316.641 146.491 316.491C147.457 315.995 148.504 315.752 149.551 315.741C149.563 315.741 149.575 315.741 149.586 315.741C149.598 315.741 149.609 315.741 149.621 315.741C150.854 315.729 152.088 316.052 153.181 316.71C153.879 317.126 154.484 317.657 154.973 318.257C154.996 318.292 155.031 318.315 155.055 318.338C157.603 320.796 160.104 323.29 162.617 325.771L165.037 328.172C165.77 328.888 166.491 329.615 167.213 330.342C168.097 331.231 168.993 332.131 169.889 333.008C170.203 333.32 170.435 333.493 170.598 333.609L172.89 331.335C175.985 328.264 179.092 325.206 182.198 322.147C183.711 320.646 185.142 319.215 186.398 317.992C187.445 316.976 188.551 316.318 189.691 315.983C189.819 315.949 189.935 315.891 190.063 315.868C190.249 315.822 190.435 315.799 190.61 315.775C190.668 315.764 190.726 315.764 190.773 315.752H190.819C190.924 315.741 191.04 315.729 191.145 315.729C191.331 315.729 191.506 315.729 191.692 315.741C192.937 315.729 194.17 316.041 195.287 316.71V316.699C196.288 317.288 197.079 318.107 197.649 319.054C200.592 321.951 203.524 324.859 206.456 327.768L211.075 332.362C211.354 332.651 211.645 332.939 211.948 333.205C212.169 333.412 212.343 333.539 212.471 333.62C212.506 333.643 212.541 333.678 212.576 333.689C212.646 333.632 212.739 333.551 212.844 333.482L215.019 331.335C218.114 328.264 221.221 325.206 224.327 322.147C225.84 320.646 227.271 319.215 228.527 317.992C229.574 316.976 230.68 316.318 231.82 315.983C231.948 315.949 232.064 315.891 232.192 315.868C232.378 315.822 232.564 315.799 232.739 315.775C232.797 315.764 232.855 315.764 232.913 315.752H232.96C233.065 315.741 233.169 315.729 233.286 315.729C233.379 315.718 233.46 315.752 233.53 315.752C233.577 315.752 233.611 315.741 233.646 315.741C233.67 315.741 233.681 315.741 233.705 315.741C233.937 315.741 234.17 315.799 234.414 315.833C234.542 315.856 234.682 315.856 234.81 315.879C236.252 316.156 237.684 316.964 239.115 318.338C241.663 320.796 244.164 323.29 246.677 325.771L249.097 328.172C249.83 328.888 250.551 329.615 251.273 330.342C252.157 331.231 253.053 332.131 253.949 333.008C254.321 333.378 254.577 333.562 254.74 333.666C254.926 333.528 255.182 333.32 255.543 332.962L263.617 324.998C266.014 322.597 268.376 320.231 270.214 318.419C270.668 317.969 271.191 317.472 271.831 317.022L271.866 316.987C272.122 316.826 272.39 316.653 272.669 316.503C273.635 316.006 274.682 315.764 275.729 315.752C275.74 315.752 275.752 315.752 275.764 315.752C275.775 315.752 275.787 315.752 275.799 315.752C277.032 315.741 278.265 316.064 279.359 316.722C280.057 317.137 280.662 317.668 281.151 318.269C281.174 318.303 281.209 318.326 281.232 318.349C283.78 320.808 286.281 323.301 288.794 325.783L291.214 328.184C291.947 328.899 292.669 329.626 293.39 330.354C294.274 331.242 295.17 332.143 296.066 333.02C296.473 333.424 296.741 333.609 296.904 333.713C296.927 333.689 296.974 333.655 297.009 333.632C297.206 333.482 297.497 333.228 297.916 332.824C301.895 328.876 308.329 322.355 312.32 318.419C312.773 317.969 313.297 317.472 313.937 317.022L313.972 316.987C314.228 316.826 314.495 316.653 314.775 316.503C316.904 315.418 319.405 315.487 321.453 316.71V316.699C323.501 317.922 324.734 320.058 324.757 322.424C324.734 324.213 323.989 325.967 322.442 327.503ZM322.442 275.561L320.801 277.189C320.406 277.708 319.998 278.124 319.673 278.447L315.298 282.787C312.192 285.857 309.085 288.928 305.979 291.986C304.478 293.487 303.035 294.907 301.79 296.13C300.743 297.146 299.638 297.804 298.498 298.139C298.37 298.173 298.253 298.219 298.125 298.254C297.939 298.3 297.753 298.323 297.579 298.346C297.52 298.358 297.462 298.358 297.416 298.369H297.369C297.264 298.381 297.16 298.392 297.043 298.392C295.077 298.45 293.134 297.608 291.308 295.83C288.108 292.69 284.92 289.516 281.732 286.354L277.113 281.76C276.834 281.471 276.543 281.183 276.241 280.917C276.02 280.709 275.845 280.582 275.729 280.502C275.694 280.479 275.659 280.444 275.624 280.432C275.554 280.49 275.461 280.571 275.356 280.64L273.181 282.787C270.074 285.857 266.968 288.928 263.861 291.986C262.349 293.487 260.918 294.907 259.673 296.13C258.626 297.146 257.521 297.804 256.38 298.139C256.252 298.173 256.136 298.219 256.008 298.254C255.822 298.3 255.636 298.323 255.461 298.346C255.403 298.358 255.345 298.358 255.298 298.369H255.252C255.147 298.381 255.031 298.392 254.926 298.392C254.845 298.404 254.763 298.369 254.682 298.369C254.647 298.369 254.6 298.381 254.565 298.381C254.542 298.381 254.53 298.381 254.507 298.381C254.275 298.381 254.042 298.323 253.798 298.289C253.67 298.265 253.53 298.265 253.402 298.242C251.959 297.965 250.528 297.157 249.097 295.784C246.549 293.325 244.048 290.832 241.535 288.35L239.115 285.95C238.382 285.234 237.66 284.507 236.939 283.78C236.055 282.891 235.159 281.991 234.263 281.113C233.891 280.744 233.635 280.559 233.472 280.455C233.286 280.594 233.03 280.802 232.669 281.16L224.595 289.135C222.198 291.536 219.848 293.902 217.998 295.715C217.544 296.165 217.02 296.661 216.381 297.111L216.346 297.146C216.09 297.307 215.822 297.481 215.543 297.631C214.577 298.127 213.542 298.369 212.495 298.381C212.483 298.381 212.471 298.381 212.46 298.381C212.448 298.381 212.436 298.381 212.425 298.381C211.203 298.392 209.97 298.069 208.876 297.411C208.178 296.996 207.573 296.453 207.085 295.865C207.05 295.83 207.015 295.807 206.991 295.784C204.444 293.325 201.942 290.832 199.429 288.35L197.009 285.95C196.276 285.234 195.555 284.507 194.833 283.78C193.949 282.891 193.053 281.991 192.157 281.113C191.843 280.813 191.611 280.629 191.459 280.513L189.167 282.775C186.061 285.846 182.954 288.916 179.848 291.975C178.347 293.475 176.904 294.895 175.659 296.119C174.612 297.134 173.507 297.792 172.367 298.127C172.239 298.162 172.122 298.208 171.994 298.242C171.808 298.289 171.622 298.312 171.448 298.335C171.39 298.346 171.331 298.346 171.285 298.358H171.238C171.134 298.369 171.029 298.381 170.913 298.381C170.726 298.381 170.552 298.381 170.366 298.369C169.121 298.381 167.887 298.069 166.771 297.4C165.782 296.811 164.99 296.003 164.432 295.068C161.488 292.171 158.545 289.251 155.613 286.342L150.994 281.748C150.715 281.46 150.424 281.171 150.121 280.906C149.9 280.698 149.726 280.571 149.609 280.49C149.575 280.467 149.54 280.432 149.505 280.421C149.435 280.479 149.342 280.559 149.237 280.629L147.062 282.775C143.955 285.846 140.849 288.916 137.742 291.975C136.23 293.475 134.799 294.895 133.554 296.119C132.507 297.134 131.401 297.792 130.261 298.127C130.133 298.162 130.017 298.208 129.889 298.242C129.703 298.289 129.517 298.312 129.342 298.335C129.284 298.346 129.226 298.346 129.179 298.358H129.133C129.028 298.369 128.923 298.381 128.807 298.381C128.725 298.392 128.644 298.358 128.563 298.358C128.528 298.358 128.481 298.369 128.446 298.369C128.423 298.369 128.411 298.369 128.388 298.369C128.155 298.369 127.923 298.312 127.678 298.277C127.55 298.254 127.411 298.254 127.283 298.231C125.84 297.954 124.409 297.146 122.978 295.772C120.43 293.314 117.928 290.821 115.415 288.339L112.995 285.938C112.262 285.222 111.541 284.495 110.82 283.768C109.935 282.879 109.04 281.979 108.144 281.102C107.771 280.732 107.516 280.548 107.353 280.444C107.166 280.582 106.91 280.79 106.55 281.148L98.4754 289.124C96.0787 291.525 93.7284 293.891 91.8785 295.703C91.4248 296.153 90.9012 296.65 90.2613 297.1L90.2265 297.134C89.9705 297.296 89.7029 297.469 89.4236 297.619C88.458 298.115 87.4225 298.358 86.3754 298.369C86.3637 298.369 86.3521 298.369 86.3404 298.369C86.3288 298.369 86.3173 298.369 86.3056 298.369C85.084 298.381 83.8507 298.058 82.757 297.4C82.0589 296.984 81.4539 296.442 80.9653 295.853C80.9303 295.818 80.8955 295.795 80.8722 295.772C78.3242 293.314 75.8228 290.821 73.3097 288.339L70.8898 285.938C70.1568 285.222 69.4355 284.495 68.7141 283.768C67.8299 282.879 66.934 281.979 66.0381 281.102C65.6309 280.698 65.3633 280.513 65.2004 280.409C65.1772 280.432 65.1305 280.467 65.0956 280.49C64.8978 280.64 64.6071 280.894 64.1999 281.298C60.2208 285.246 53.7869 291.767 49.7962 295.703C49.3425 296.153 48.8189 296.65 48.179 297.1L48.144 297.134C47.8881 297.296 47.6204 297.469 47.3412 297.619C45.212 298.704 42.7106 298.635 40.6629 297.411C38.6152 296.188 37.382 294.052 37.3587 291.686C37.2773 289.897 38.0103 288.143 39.5693 286.608L41.2099 284.98C41.6054 284.461 42.0126 284.045 42.3384 283.722L46.713 279.382C49.8078 276.312 52.9143 273.253 56.0207 270.194C57.5216 268.694 58.9642 267.262 60.2208 266.039C61.2679 265.023 62.3731 264.365 63.5133 264.03C63.6413 263.996 63.7577 263.938 63.8857 263.915C64.0719 263.869 64.258 263.846 64.4325 263.823C64.4907 263.811 64.5489 263.811 64.5954 263.8H64.642C64.7467 263.788 64.8513 263.777 64.9677 263.777C66.9339 263.719 68.8769 264.561 70.7036 266.339C73.9031 269.478 77.091 272.653 80.2788 275.815L84.8978 280.409C85.177 280.698 85.4679 280.986 85.7704 281.252C85.9914 281.46 86.166 281.587 86.294 281.667C86.3289 281.69 86.3638 281.725 86.3987 281.737C86.4685 281.679 86.5615 281.598 86.6662 281.529L88.8419 279.382C91.9367 276.312 95.0432 273.253 98.1496 270.194C99.6621 268.694 101.093 267.262 102.35 266.039C103.397 265.023 104.502 264.365 105.642 264.03C105.77 263.996 105.887 263.938 106.015 263.915C106.201 263.869 106.387 263.846 106.561 263.823C106.62 263.811 106.678 263.811 106.736 263.8H106.783C106.887 263.788 106.992 263.777 107.108 263.777C107.201 263.765 107.283 263.8 107.353 263.8C107.388 263.8 107.434 263.788 107.469 263.788C107.492 263.788 107.504 263.788 107.527 263.788C107.76 263.788 107.993 263.846 108.237 263.88C108.365 263.903 108.504 263.903 108.632 263.927C110.075 264.204 111.506 265.012 112.937 266.385C115.485 268.844 117.987 271.337 120.5 273.818L122.92 276.219C123.653 276.935 124.374 277.662 125.095 278.389C125.98 279.278 126.875 280.178 127.771 281.056C128.144 281.425 128.4 281.61 128.563 281.714C128.749 281.575 129.005 281.367 129.365 281.009L137.44 273.045C139.836 270.644 142.198 268.278 144.037 266.466C144.49 266.016 145.014 265.519 145.654 265.069L145.689 265.035C145.945 264.873 146.212 264.7 146.491 264.55C147.457 264.054 148.504 263.811 149.551 263.8C149.563 263.8 149.575 263.8 149.586 263.8C149.598 263.8 149.609 263.8 149.621 263.8C150.854 263.788 152.088 264.111 153.181 264.769C153.879 265.185 154.484 265.716 154.973 266.316C154.996 266.35 155.031 266.374 155.055 266.397C157.603 268.855 160.104 271.348 162.617 273.83L165.037 276.231C165.77 276.946 166.491 277.674 167.213 278.401C168.097 279.29 168.993 280.19 169.889 281.067C170.203 281.379 170.435 281.552 170.598 281.667L172.89 279.394C175.985 276.323 179.092 273.264 182.198 270.206C183.711 268.705 185.142 267.274 186.398 266.05C187.445 265.035 188.551 264.377 189.691 264.042C189.819 264.007 189.935 263.95 190.063 263.927C190.249 263.88 190.435 263.857 190.61 263.834C190.668 263.823 190.726 263.823 190.773 263.811H190.819C190.924 263.8 191.04 263.788 191.145 263.788C191.331 263.788 191.506 263.788 191.692 263.8C192.937 263.788 194.17 264.1 195.287 264.769V264.758C196.288 265.346 197.079 266.166 197.649 267.112C200.592 270.009 203.524 272.918 206.456 275.827L211.075 280.421C211.354 280.709 211.645 280.998 211.948 281.263C212.169 281.471 212.343 281.598 212.471 281.679C212.506 281.702 212.541 281.737 212.576 281.748C212.646 281.69 212.739 281.61 212.844 281.54L215.019 279.394C218.114 276.323 221.221 273.264 224.327 270.206C225.84 268.705 227.271 267.274 228.527 266.05C229.574 265.035 230.68 264.377 231.82 264.042C231.948 264.007 232.064 263.95 232.192 263.927C232.378 263.88 232.564 263.857 232.739 263.834C232.797 263.823 232.855 263.823 232.913 263.811H232.96C233.065 263.8 233.169 263.788 233.286 263.788C233.379 263.776 233.46 263.811 233.53 263.811C233.577 263.811 233.611 263.8 233.646 263.8C233.67 263.8 233.681 263.8 233.705 263.8C233.937 263.8 234.17 263.857 234.414 263.892C234.542 263.915 234.682 263.915 234.81 263.938C236.252 264.215 237.684 265.023 239.115 266.397C241.663 268.855 244.164 271.348 246.677 273.83L249.097 276.231C249.83 276.946 250.551 277.674 251.273 278.401C252.157 279.29 253.053 280.19 253.949 281.067C254.321 281.437 254.577 281.621 254.74 281.725C254.926 281.587 255.182 281.379 255.543 281.021L263.617 273.057C266.014 270.656 268.376 268.29 270.214 266.477C270.668 266.027 271.191 265.531 271.831 265.081L271.866 265.046C272.122 264.885 272.39 264.711 272.669 264.561C273.635 264.065 274.682 263.823 275.729 263.811C275.74 263.811 275.752 263.811 275.764 263.811C275.775 263.811 275.787 263.811 275.799 263.811C277.032 263.8 278.265 264.123 279.359 264.781C280.057 265.196 280.662 265.727 281.151 266.327C281.174 266.362 281.209 266.385 281.232 266.408C283.78 268.867 286.281 271.36 288.794 273.842L291.214 276.242C291.947 276.958 292.669 277.685 293.39 278.412C294.274 279.301 295.17 280.201 296.066 281.079C296.473 281.483 296.741 281.667 296.904 281.771C296.927 281.748 296.974 281.714 297.009 281.69C297.206 281.54 297.497 281.286 297.916 280.882C301.895 276.935 308.329 270.413 312.32 266.477C312.773 266.027 313.297 265.531 313.937 265.081L313.972 265.046C314.228 264.885 314.495 264.711 314.775 264.561C316.904 263.476 319.405 263.546 321.453 264.769V264.758C323.501 265.981 324.734 268.116 324.757 270.483C324.734 272.272 323.989 274.026 322.442 275.561Z" fill="#00DED2" fill-opacity="0.12"/>
<path d="M547.699 0H237.301C228.853 0 222 6.86065 222 15.3188V115.985C222 124.444 228.853 131.304 237.301 131.304H242.766V151C242.766 151.098 242.766 151.197 242.777 151.295C242.832 155.782 245.149 159.852 249.007 162.161V162.15C252.854 164.47 257.564 164.612 261.554 162.555C262.1 162.27 262.592 161.964 263.073 161.647L263.15 161.57C264.363 160.716 265.357 159.775 266.199 158.922C273.707 151.459 285.806 139.095 293.282 131.6C293.391 131.49 293.49 131.392 293.588 131.304H547.699C556.147 131.304 563 124.444 563 115.985V15.3188C563 6.86065 556.147 0 547.699 0ZM273.117 78.3777C265.969 78.3777 260.177 72.5894 260.177 65.4552C260.177 58.321 265.969 52.5327 273.117 52.5327C280.265 52.5327 286.058 58.321 286.058 65.4552C286.058 72.5894 280.265 78.3777 273.117 78.3777ZM352.64 78.3777C345.492 78.3777 339.7 72.5894 339.7 65.4552C339.7 58.321 345.492 52.5327 352.64 52.5327C359.788 52.5327 365.57 58.321 365.57 65.4552C365.57 72.5894 359.788 78.3777 352.64 78.3777ZM432.054 78.3777C424.906 78.3777 419.124 72.5894 419.124 65.4552C419.124 58.321 424.917 52.5327 432.054 52.5327C439.202 52.5327 444.994 58.321 444.994 65.4552C444.994 72.5894 439.191 78.3777 432.054 78.3777ZM511.446 78.3777C504.298 78.3777 498.505 72.5894 498.505 65.4442C498.505 58.2991 504.298 52.5108 511.446 52.5108C518.593 52.5108 524.375 58.2991 524.375 65.4442C524.375 72.5894 518.593 78.3777 511.446 78.3777Z" fill="#00DED2" fill-opacity="0.12"/>
</g>
<defs>
<clipPath id="clip0_7933_2967">
<rect width="443" height="416" fill="white"/>
</clipPath>
</defs>
</svg>
