<svg width="406" height="306" viewBox="0 0 406 306" fill="none" xmlns="http://www.w3.org/2000/svg">
<path d="M109.123 78.0225H304.216C308.087 78.0225 311.799 79.5603 314.537 82.2975C317.274 85.0347 318.812 88.7472 318.812 92.6182V211.769H94.4966V92.6182C94.4966 90.6989 94.8751 88.7984 95.6105 87.0256C96.3459 85.2528 97.4238 83.6424 98.7823 82.2867C100.141 80.931 101.754 79.8565 103.528 79.1248C105.302 78.3931 107.203 78.0185 109.123 78.0225Z" fill="white"/>
<path d="M318.811 212.226H94.4963C94.3752 212.226 94.259 212.178 94.1733 212.092C94.0877 212.006 94.0396 211.89 94.0396 211.769V92.6183C94.0422 88.6242 95.63 84.7946 98.4542 81.9704C101.278 79.1462 105.108 77.5584 109.102 77.5557H304.216C308.209 77.561 312.037 79.1497 314.861 81.9733C317.684 84.797 319.273 88.6251 319.278 92.6183V211.769C319.276 211.891 319.225 212.007 319.138 212.093C319.051 212.178 318.933 212.226 318.811 212.226ZM94.9835 211.302H318.344V92.6183C318.342 88.8719 316.852 85.2797 314.203 82.6307C311.554 79.9816 307.962 78.4922 304.216 78.4895H109.122C105.375 78.4921 101.782 79.9813 99.1313 82.63C96.4806 85.2788 94.9889 88.871 94.9835 92.6183V211.302Z" fill="#4E5666"/>
<path d="M304.794 90.0098H108.544V211.769H304.794V90.0098Z" fill="#C4EAF5"/>
<path d="M337.508 212.286H75.8207C75.7422 212.309 75.6595 212.313 75.5792 212.298C75.4989 212.283 75.4231 212.249 75.3579 212.2C75.2927 212.151 75.2398 212.087 75.2033 212.014C75.1669 211.941 75.1479 211.86 75.1479 211.779C75.1479 211.697 75.1669 211.617 75.2033 211.543C75.2398 211.47 75.2927 211.407 75.3579 211.357C75.4231 211.308 75.4989 211.275 75.5792 211.26C75.6595 211.245 75.7422 211.249 75.8207 211.271H337.508C337.587 211.249 337.669 211.245 337.75 211.26C337.83 211.275 337.906 211.308 337.971 211.357C338.036 211.407 338.089 211.47 338.125 211.543C338.162 211.617 338.181 211.697 338.181 211.779C338.181 211.86 338.162 211.941 338.125 212.014C338.089 212.087 338.036 212.151 337.971 212.2C337.906 212.249 337.83 212.283 337.75 212.298C337.669 212.313 337.587 212.309 337.508 212.286Z" fill="#4E5666"/>
<path d="M71.1922 211.769H342.136C342.136 216.076 340.425 220.206 337.38 223.252C334.334 226.298 330.203 228.009 325.896 228.009H87.3713C83.0642 228.009 78.9335 226.298 75.8879 223.252C72.8423 220.206 71.1313 216.076 71.1313 211.769H71.1922Z" fill="white"/>
<path d="M325.927 228.445H87.4016C82.9822 228.437 78.7462 226.677 75.6221 223.551C72.498 220.425 70.7407 216.188 70.7354 211.769C70.7353 211.647 70.7831 211.529 70.8685 211.442C70.9539 211.355 71.07 211.304 71.1921 211.302H342.136C342.259 211.304 342.376 211.354 342.463 211.441C342.55 211.528 342.601 211.646 342.603 211.769C342.598 216.19 340.839 220.428 337.713 223.555C334.586 226.681 330.348 228.44 325.927 228.445ZM71.6691 212.205C71.7931 216.299 73.5056 220.184 76.4441 223.037C79.3825 225.89 83.3161 227.488 87.4118 227.491H325.937C330.032 227.485 333.964 225.887 336.902 223.034C339.84 220.182 341.553 216.298 341.679 212.205H71.6691Z" fill="#4E5666"/>
<path d="M228.639 211.769H184.7V215.818H228.639V211.769Z" fill="#4E5666"/>
<path d="M117.72 102.139C119.53 102.139 120.998 100.671 120.998 98.8605C120.998 97.0498 119.53 95.582 117.72 95.582C115.909 95.582 114.441 97.0498 114.441 98.8605C114.441 100.671 115.909 102.139 117.72 102.139Z" fill="#4E5666"/>
<path d="M128.824 102.139C130.634 102.139 132.102 100.671 132.102 98.8605C132.102 97.0498 130.634 95.582 128.824 95.582C127.013 95.582 125.545 97.0498 125.545 98.8605C125.545 100.671 127.013 102.139 128.824 102.139Z" fill="white"/>
<path d="M139.938 102.139C141.749 102.139 143.217 100.671 143.217 98.8605C143.217 97.0498 141.749 95.582 139.938 95.582C138.127 95.582 136.66 97.0498 136.66 98.8605C136.66 100.671 138.127 102.139 139.938 102.139Z" fill="white"/>
<path d="M171.271 149.011C171.051 149.013 170.832 148.97 170.629 148.887C170.425 148.803 170.24 148.68 170.084 148.524C169.772 148.207 169.598 147.781 169.598 147.337C169.598 146.892 169.772 146.466 170.084 146.149L182.812 133.421C183.127 133.107 183.553 132.932 183.998 132.933C184.442 132.934 184.868 133.111 185.182 133.426C185.495 133.741 185.671 134.168 185.67 134.612C185.669 135.057 185.492 135.482 185.177 135.796L172.449 148.524C172.294 148.679 172.11 148.801 171.908 148.885C171.706 148.968 171.49 149.011 171.271 149.011Z" fill="white"/>
<path d="M183.999 149.011C183.555 149.012 183.128 148.837 182.812 148.524L170.084 135.796C169.769 135.482 169.591 135.057 169.59 134.612C169.589 134.168 169.765 133.741 170.079 133.426C170.392 133.111 170.818 132.934 171.263 132.933C171.707 132.932 172.134 133.107 172.449 133.421L185.177 146.149C185.412 146.383 185.572 146.681 185.638 147.006C185.703 147.33 185.671 147.667 185.545 147.974C185.419 148.28 185.205 148.542 184.929 148.727C184.654 148.912 184.331 149.011 183.999 149.011Z" fill="white"/>
<path d="M229.39 149.011C229.058 149.013 228.733 148.915 228.456 148.731C228.179 148.547 227.964 148.285 227.836 147.978C227.709 147.672 227.676 147.334 227.741 147.008C227.806 146.682 227.967 146.383 228.202 146.149L240.93 133.421C241.086 133.266 241.271 133.143 241.475 133.059C241.678 132.975 241.896 132.932 242.117 132.933C242.337 132.933 242.554 132.977 242.758 133.062C242.961 133.146 243.145 133.27 243.3 133.426C243.456 133.582 243.579 133.767 243.663 133.97C243.746 134.174 243.789 134.392 243.789 134.612C243.788 134.832 243.745 135.05 243.66 135.253C243.575 135.456 243.451 135.641 243.295 135.796L230.567 148.524C230.413 148.679 230.229 148.801 230.027 148.885C229.825 148.968 229.609 149.011 229.39 149.011Z" fill="white"/>
<path d="M242.067 149.011C241.847 149.013 241.628 148.97 241.425 148.887C241.221 148.803 241.036 148.68 240.88 148.524L228.152 135.796C227.996 135.641 227.872 135.456 227.787 135.253C227.703 135.05 227.659 134.832 227.658 134.612C227.658 134.392 227.701 134.174 227.784 133.97C227.868 133.767 227.991 133.582 228.147 133.426C228.302 133.27 228.486 133.146 228.689 133.062C228.893 132.977 229.11 132.933 229.33 132.933C229.551 132.932 229.769 132.975 229.972 133.059C230.176 133.143 230.361 133.266 230.517 133.421L243.245 146.149C243.48 146.383 243.64 146.681 243.705 147.006C243.771 147.33 243.739 147.667 243.613 147.974C243.487 148.28 243.272 148.542 242.997 148.727C242.722 148.912 242.399 149.011 242.067 149.011Z" fill="white"/>
<path d="M304.652 107.407H108.676C108.541 107.407 108.412 107.353 108.317 107.258C108.222 107.163 108.168 107.034 108.168 106.899C108.168 106.765 108.222 106.635 108.317 106.54C108.412 106.445 108.541 106.392 108.676 106.392H304.652C304.787 106.392 304.916 106.445 305.011 106.54C305.106 106.635 305.16 106.765 305.16 106.899C305.16 107.034 305.106 107.163 305.011 107.258C304.916 107.353 304.787 107.407 304.652 107.407Z" fill="white"/>
<path d="M148.789 177.685C148.281 177.749 147.767 177.618 147.351 177.319C146.935 177.02 146.647 176.575 146.546 176.073C146.444 175.571 146.536 175.049 146.804 174.611C147.071 174.174 147.494 173.855 147.987 173.716C166.543 165.824 186.5 161.757 206.664 161.757C226.828 161.757 246.786 165.824 265.341 173.716C265.591 173.822 265.818 173.975 266.009 174.168C266.199 174.361 266.35 174.589 266.452 174.841C266.554 175.092 266.606 175.361 266.605 175.632C266.603 175.903 266.548 176.171 266.443 176.421C266.337 176.671 266.184 176.898 265.991 177.088C265.798 177.279 265.569 177.43 265.318 177.532C265.067 177.634 264.798 177.686 264.527 177.684C264.256 177.683 263.988 177.628 263.738 177.522C245.688 169.849 226.277 165.894 206.664 165.894C187.051 165.894 167.64 169.849 149.591 177.522C149.336 177.626 149.064 177.681 148.789 177.685Z" fill="white"/>
<path d="M97.6227 78.5297C97.5158 78.5305 97.4119 78.4947 97.3283 78.4282C97.2213 78.3473 97.1498 78.228 97.129 78.0955C97.1081 77.9629 97.1396 77.8275 97.2167 77.7177C99.0335 75.2309 101.277 71.6277 99.6019 68.7654C99.5504 68.6737 99.4927 68.5855 99.4294 68.5015C97.584 70.7305 95.3904 72.6465 92.9334 74.1753C91.6334 75.1163 90.0342 75.5495 88.4369 75.3933C88.0977 75.3245 87.7761 75.1874 87.4916 74.9902C87.2072 74.793 86.9659 74.5399 86.7825 74.2464C86.5495 73.826 86.405 73.3624 86.3578 72.8842C86.3107 72.4059 86.362 71.923 86.5084 71.4653C86.5923 71.1394 86.7008 70.8205 86.8332 70.5112C84.6983 72.6465 82.2844 74.4834 79.6572 75.9719C79.0894 76.3372 78.4239 76.5213 77.749 76.4997C77.2068 76.3871 76.7158 76.1016 76.3498 75.6862C75.9837 75.2707 75.7624 74.7476 75.719 74.1956C75.6622 73.2075 75.8726 72.2222 76.328 71.3435C78.114 67.4806 80.8832 64.1546 84.3585 61.6982C87.8338 59.2418 91.8932 57.7412 96.1306 57.3466C96.8858 55.4515 96.9893 53.3591 96.425 51.3987C96.1485 50.4441 95.629 49.5775 94.9174 48.8836C94.2058 48.1898 93.3263 47.6925 92.365 47.4402C90.5299 47.2214 88.672 47.576 87.0464 48.4552C78.2967 52.4374 71.1449 59.2531 66.7464 67.8011C66.4053 68.3385 66.2224 68.9611 66.2186 69.5977C66.2353 69.7412 66.2808 69.8799 66.3523 70.0054C66.4238 70.131 66.5199 70.2408 66.6347 70.3285C66.6939 70.3799 66.7637 70.4175 66.8392 70.4386C66.9147 70.4597 66.994 70.4636 67.0712 70.4503C67.2058 70.4247 67.345 70.4536 67.4583 70.5307C67.5715 70.6078 67.6495 70.7267 67.6751 70.8613C67.7007 70.9959 67.6717 71.1352 67.5946 71.2484C67.5176 71.3617 67.3986 71.4397 67.264 71.4653C67.0421 71.5155 66.812 71.517 66.5894 71.4697C66.3669 71.4224 66.1573 71.3274 65.975 71.1912C65.5315 70.8412 65.2435 70.3308 65.1731 69.7702C65.1459 68.9326 65.3685 68.1058 65.8126 67.3951C70.3235 58.6307 77.6577 51.6433 86.6302 47.562C88.3963 46.7703 90.4771 45.9989 92.5477 46.4252C93.6997 46.7054 94.7579 47.2832 95.6165 48.1008C96.475 48.9184 97.1039 49.9471 97.44 51.0841C98.0207 53.1191 97.9461 55.2853 97.2268 57.2756C97.8967 57.2756 98.5666 57.2756 99.2568 57.2756C99.909 57.2795 100.55 57.4433 101.124 57.7526C102.444 58.5748 102.515 60.3206 102.444 61.2848C102.237 63.5713 101.416 65.7594 100.069 67.6184C100.222 67.8073 100.361 68.0075 100.485 68.2173C102.454 71.5668 100.038 75.5659 98.049 78.2861C98.0051 78.3601 97.9427 78.4214 97.868 78.4641C97.7933 78.5068 97.7087 78.5294 97.6227 78.5297ZM95.684 58.4022C91.7121 58.8606 87.9251 60.334 84.6878 62.6806C81.4506 65.0273 78.8721 68.168 77.2009 71.8002C76.8277 72.5166 76.6459 73.3173 76.6731 74.1246C76.6927 74.4563 76.8189 74.7727 77.0329 75.0269C77.2468 75.2811 77.5372 75.4595 77.8606 75.5354C78.3306 75.5313 78.7892 75.3902 79.1801 75.1294C83.3518 72.866 86.7013 69.3541 89.929 65.9944C91.9996 63.6802 94.3239 61.2848 95.684 58.4022ZM94.8416 66.5222C94.3235 66.5206 93.8066 66.5716 93.2988 66.6745C91.9614 66.9135 90.7144 67.5121 89.6916 68.4062C88.6687 69.3003 87.9087 70.4561 87.493 71.7495C87.3821 72.081 87.3385 72.4312 87.3646 72.7798C87.3908 73.1284 87.4862 73.4682 87.6452 73.7795C87.7558 73.9599 87.9035 74.1148 88.0785 74.2338C88.2535 74.3528 88.4518 74.4332 88.6602 74.4697C89.9825 74.578 91.3008 74.2188 92.3853 73.4547C94.8071 71.9175 96.9547 69.986 98.7392 67.7402C97.6256 66.8796 96.2484 66.4313 94.8416 66.4715V66.5222ZM94.8416 65.5072C96.4702 65.4621 98.0649 65.9781 99.3583 66.9688C100.525 65.2866 101.225 63.3255 101.388 61.2848C101.388 60.6961 101.388 59.2548 100.546 58.6966C100.115 58.4774 99.6383 58.3659 99.1553 58.3718C98.3745 58.3261 97.5916 58.3261 96.8107 58.3718C95.4607 61.5487 93.0146 64.1573 90.812 66.4918C91.5288 66.1411 92.2854 65.8786 93.0653 65.7102C93.6403 65.5652 94.2288 65.4801 94.8213 65.4565L94.8416 65.5072Z" fill="#D0D3D9"/>
</svg>
