<svg width="1230" height="152" viewBox="0 0 1230 152" fill="none" xmlns="http://www.w3.org/2000/svg">
<!-- <rect width="1230" height="152" rx="8" fill="#F4F6F8"/> -->
<path opacity="0.16" d="M78.9725 -12.1087C82.9573 -12.8967 87.3557 -13.4458 92.1678 -13.7562C97.4063 -14.0409 102.193 -13.9248 106.527 -13.4079C110.009 -12.9421 114.944 -11.7471 121.334 -9.82277C126.375 -8.23625 131.625 -5.86677 137.086 -2.71432C144.2 1.39341 150.163 6.15956 154.973 11.5841C159.783 17.0087 163.206 22.7351 165.241 28.7635C167.416 35.3138 168.145 41.6918 167.431 47.8975C166.595 54.6951 164.362 61.2377 160.731 67.5252C157.484 73.1508 153.386 77.9551 148.439 81.9381C144.11 85.6157 139.536 88.3798 134.717 90.2305C130.942 91.8015 126.209 92.9298 120.518 93.6154L107.323 95.2629C103.529 95.7199 99.8055 96.438 96.1517 97.417C92.8288 98.5871 90.2026 100.27 88.2733 102.465L74.8346 118.864L53.9866 106.827L63.3596 85.4339L64.6493 83.2001C66.6554 79.7255 69.3804 77.1071 72.8245 75.3451C76.6251 73.3477 80.3395 72.0727 83.9677 71.5201C86.4821 70.9862 90.75 70.4721 96.7715 69.9775C98.6684 69.749 102.997 68.9388 109.757 67.547C114.977 66.1484 118.965 64.5902 121.722 62.8726C125.452 60.6142 128.655 57.1685 131.33 52.5356C132.763 50.0537 133.712 47.072 134.178 43.5905C134.592 40.9618 134.25 38.1165 133.149 35.0546C132.189 32.5146 130.554 29.8058 128.245 26.928C126.17 24.4068 123.396 22.1432 119.921 20.1371C115.785 17.7488 111.479 16.0353 107.005 14.9963C103.715 14.1996 100.316 13.7816 96.8086 13.7423L89.0941 13.9213C87.0318 14.0543 85.2561 13.6909 83.7669 12.8311C80.7887 11.1116 79.3541 8.62878 79.4634 5.38265L78.9725 -12.1087ZM17.7595 147.794C19.288 145.146 21.1695 143.034 23.4042 141.456C25.7343 139.712 28.2044 138.491 30.8143 137.792C33.6851 137.023 36.4827 136.763 39.2068 137.012C42.0965 137.356 44.8649 138.293 47.5123 139.821C50.3251 141.445 52.5205 143.375 54.0983 145.609C55.8416 147.939 57.0629 150.409 57.7622 153.019C58.4615 155.629 58.6388 158.379 58.2942 161.269C58.0451 163.993 57.1085 166.761 55.4846 169.574C53.9561 172.221 52.0268 174.417 49.6966 176.16C47.3664 177.903 44.8964 179.125 42.2865 179.824C40.1986 180.383 37.4966 180.478 34.1805 180.108C31.4564 179.859 28.6879 178.922 25.8751 177.298C23.2277 175.77 21.0324 173.84 19.2891 171.51C17.3104 168.824 16.0414 166.436 15.4819 164.348C14.7826 161.738 14.6052 158.989 14.9499 156.099C15.2945 153.209 16.2311 150.441 17.7595 147.794Z" fill="#D0D3D9"/>
<path opacity="0.16" d="M-30.2169 8.09835C-28.4878 6.58539 -26.4886 5.07244 -24.2191 3.55948C-21.7336 1.93846 -19.356 0.641644 -17.0866 -0.330971C-15.2495 -1.08745 -12.4937 -1.89796 -8.8194 -2.7625C-5.90155 -3.41091 -2.6595 -3.73512 0.906747 -3.73512C5.55368 -3.73512 9.82238 -3.08671 13.7128 -1.78989C17.6033 -0.493071 20.8994 1.34409 23.6011 3.72158C26.5189 6.31523 28.6803 9.23307 30.0852 12.4751C31.5981 16.0414 32.3546 19.8778 32.3546 23.9844C32.3546 27.6587 31.7062 31.1709 30.4094 34.521C29.3287 37.547 27.8698 40.1946 26.0326 42.4641C24.6277 44.3012 22.6285 46.1924 20.0348 48.1376L14.037 52.6765C12.3079 53.9733 10.6869 55.3782 9.17397 56.8912C7.87715 58.4041 7.06664 59.9711 6.74243 61.5921L4.7972 73.4256H-8.8194L-10.2783 60.2953V58.8364C-10.2783 56.567 -9.68394 54.5137 -8.49519 52.6765C-7.19837 50.6232 -5.73945 48.9482 -4.11843 47.6513C-3.03774 46.6787 -1.09251 45.2198 1.71726 43.2746C2.58181 42.6262 4.473 41.0051 7.39084 38.4115C9.55221 36.2501 11.0652 34.3589 11.9297 32.7379C13.1185 30.5765 13.7128 27.9829 13.7128 24.957C13.7128 23.336 13.3346 21.6069 12.5781 19.7697C12.0378 18.3648 11.0652 17.068 9.66028 15.8793C8.47153 14.9067 6.90454 14.0421 4.95931 13.2856C3.23022 12.6372 1.23095 12.313 -1.03848 12.313C-3.74019 12.313 -6.33383 12.6913 -8.8194 13.4477C-10.6566 13.9881 -12.4397 14.7446 -14.1688 15.7172L-17.8971 17.9866C-18.8697 18.635 -19.8424 18.9592 -20.815 18.9592C-22.7602 18.9592 -24.1651 18.1487 -25.0296 16.5277L-30.2169 8.09835ZM-14.9793 103.739C-14.9793 102.01 -14.6551 100.443 -14.0067 99.0378C-13.3583 97.5248 -12.4937 96.228 -11.413 95.1473C-10.2243 93.9586 -8.92746 93.04 -7.52258 92.3916C-6.00962 91.7432 -4.3886 91.419 -2.65951 91.419C-0.822344 91.419 0.798679 91.7432 2.20357 92.3916C3.71652 93.04 5.01334 93.9045 6.09402 94.9852C7.17471 96.0659 8.03925 97.3627 8.68766 98.8757C9.33607 100.281 9.66028 101.902 9.66028 103.739C9.66028 105.468 9.33607 107.089 8.68766 108.602C8.03925 110.115 7.17471 111.412 6.09402 112.492C5.22948 113.357 3.93266 114.167 2.20357 114.924C0.798679 115.572 -0.822344 115.896 -2.65951 115.896C-4.3886 115.896 -6.00962 115.572 -7.52258 114.924C-9.25167 114.167 -10.5485 113.357 -11.413 112.492C-12.4937 111.412 -13.3583 110.115 -14.0067 108.602C-14.6551 107.089 -14.9793 105.468 -14.9793 103.739Z" fill="#D0D3D9"/>
<path opacity="0.16" d="M185.395 84.9574C187.57 85.6984 189.88 86.6733 192.325 87.8822C194.972 89.2243 197.283 90.6349 199.26 92.1139C200.834 93.3267 202.914 95.308 205.5 98.0578C207.52 100.261 209.422 102.906 211.205 105.995C213.529 110.019 215.101 114.04 215.924 118.058C216.746 122.075 216.803 125.848 216.095 129.377C215.307 133.201 213.861 136.531 211.756 139.369C209.424 142.462 206.48 145.036 202.923 147.089C199.741 148.926 196.375 150.121 192.826 150.673C189.665 151.25 186.642 151.31 183.758 150.854C181.465 150.556 178.828 149.77 175.846 148.496L168.916 145.572C166.929 144.723 164.902 144.021 162.835 143.467C160.876 143.101 159.114 143.182 157.548 143.712L146.327 147.944L139.519 136.152L150.161 128.323L151.424 127.594C153.39 126.459 155.465 125.947 157.65 126.058C160.077 126.155 162.257 126.58 164.191 127.336C165.573 127.785 167.809 128.741 170.899 130.201C171.893 130.626 174.242 131.453 177.947 132.683C180.9 133.474 183.294 133.839 185.13 133.777C187.596 133.726 190.14 132.944 192.76 131.431C194.164 130.621 195.472 129.428 196.685 127.855C197.632 126.684 198.268 125.194 198.595 123.383C198.843 121.867 198.809 120.077 198.491 118.015C198.188 116.193 197.469 114.299 196.334 112.334C194.984 109.994 193.359 107.937 191.461 106.163C190.075 104.842 188.528 103.676 186.821 102.665L182.992 100.571C181.944 100.053 181.177 99.3725 180.69 98.5302C179.718 96.8456 179.717 95.2236 180.689 93.6644L185.395 84.9574ZM110.187 145.974C111.684 145.109 113.204 144.607 114.745 144.466C116.379 144.271 117.934 144.371 119.411 144.767C121.034 145.202 122.478 145.865 123.742 146.758C125.06 147.744 126.152 148.986 127.016 150.483C127.935 152.074 128.465 153.64 128.605 155.181C128.8 156.815 128.7 158.371 128.304 159.847C127.909 161.323 127.218 162.72 126.232 164.038C125.34 165.302 124.098 166.394 122.507 167.312C121.009 168.177 119.443 168.707 117.809 168.902C116.175 169.096 114.619 168.996 113.143 168.601C111.962 168.284 110.612 167.566 109.092 166.447C107.828 165.555 106.737 164.313 105.818 162.722C104.954 161.224 104.424 159.659 104.229 158.024C104.019 156.148 104.073 154.62 104.389 153.439C104.785 151.963 105.476 150.566 106.462 149.248C107.448 147.93 108.69 146.838 110.187 145.974Z" fill="#D0D3D9"/>
</svg>
