<svg width="709" height="120" viewBox="0 0 709 120" fill="none" xmlns="http://www.w3.org/2000/svg">
<g clip-path="url(#clip0)">
<g clip-path="url(#clip1)">
<path d="M709 -61H0V438H709V-61Z" fill="url(#paint0_linear)"/>
<path opacity="0.1" d="M377.504 -140.151C175.756 -140.151 12.2068 24.2877 12.2068 227.134C12.2068 429.98 175.756 594.419 377.504 594.419C579.254 594.419 742.803 429.98 742.803 227.134C742.803 24.2877 579.254 -140.151 377.504 -140.151Z" fill="white"/>
<path opacity="0.1" d="M377.504 -2.66016C251.279 -2.66016 148.955 100.222 148.955 227.133C148.955 354.045 251.279 456.926 377.504 456.926C503.73 456.926 606.055 354.045 606.055 227.133C606.055 100.222 503.73 -2.66016 377.504 -2.66016Z" fill="white"/>
<path opacity="0.93" d="M592.689 36.2212L591.914 36.8682L591.103 36.2563L591.747 37.0362L591.138 37.851L591.941 37.2318L592.724 37.8159L592.108 37.0641L592.689 36.2212Z" fill="white"/>
<path opacity="0.93" d="M526.518 41.7603L526.082 42.3998L525.613 41.7804L525.988 42.566L525.648 43.3748L526.101 42.7634L526.553 43.3549L526.195 42.5974L526.518 41.7603Z" fill="white"/>
<path opacity="0.93" d="M477.396 67.8965L476.62 68.5435L475.81 67.9316L476.454 68.7113L475.845 69.5263L476.648 68.9071L477.431 69.4909L476.815 68.7394L477.396 67.8965Z" fill="white"/>
<path opacity="0.93" d="M171.211 112.854L170.436 113.501L169.625 112.889L170.269 113.669L169.661 114.484L170.464 113.865L171.247 114.448L170.631 113.697L171.211 112.854Z" fill="white"/>
<path opacity="0.93" d="M346.184 35.7148L345.408 36.3621L344.598 35.7502L345.242 36.5298L344.633 37.3446L345.437 36.7257L346.219 37.3095L345.603 36.5577L346.184 35.7148Z" fill="white"/>
<path opacity="0.93" d="M393.712 46.9973L393.068 46.2174L393.677 45.4023L392.901 46.0496L392.09 45.4377L392.706 46.2455L392.126 47.0324L392.873 46.4132L393.712 46.9973Z" fill="white"/>
<path opacity="0.93" d="M632.321 95.2526L631.678 94.4729L632.286 93.6582L631.511 94.3052L630.7 93.6935L631.316 94.5008L630.735 95.2879L631.483 94.6688L632.321 95.2526Z" fill="white"/>
<path opacity="0.93" d="M683.928 78.5205L683.284 77.7408L683.893 76.9258L683.117 77.5728L682.307 76.9611L682.923 77.7687L682.342 78.5556L683.09 77.9367L683.928 78.5205Z" fill="white"/>
<path opacity="0.93" d="M39.6947 115.264L39.0512 114.484L39.6597 113.669L38.8842 114.316L38.0737 113.704L38.6894 114.512L38.1088 115.299L38.8564 114.68L39.6947 115.264Z" fill="white"/>
<path opacity="0.93" d="M88.9885 112.226L88.3449 111.447L88.9534 110.632L88.1779 111.279L87.3674 110.667L87.9832 111.475L87.4025 112.262L88.1501 111.642L88.9885 112.226Z" fill="white"/>
<path opacity="0.93" d="M100.548 118.077L99.9044 117.297L100.513 116.482L99.7373 117.129L98.927 116.517L99.5427 117.325L98.9618 118.112L99.7096 117.493L100.548 118.077Z" fill="white"/>
<path opacity="0.93" d="M142.994 83.459L142.351 82.6793L142.959 81.8643L142.184 82.5115L141.373 81.8996L141.989 82.7072L141.408 83.494L142.156 82.8749L142.994 83.459Z" fill="white"/>
<path opacity="0.93" d="M550.36 74.8762L549.717 74.0967L550.325 73.2817L549.55 73.929L548.739 73.3171L549.355 74.1249L548.774 74.9117L549.522 74.2926L550.36 74.8762Z" fill="white"/>
<path opacity="0.93" d="M563.164 80.944L562.521 80.1643L563.129 79.3496L562.354 79.9964L561.543 79.3847L562.159 80.1922L561.578 80.9791L562.326 80.3604L563.164 80.944Z" fill="white"/>
<path opacity="0.93" d="M516.918 98.5583L516.274 97.7786L516.883 96.9639L516.107 97.6107L515.297 96.999L515.912 97.8065L515.332 98.5934L516.08 97.9745L516.918 98.5583Z" fill="white"/>
<path opacity="0.93" d="M463.149 25.3142L462.505 24.5345L463.114 23.7197L462.338 24.3668L461.528 23.7548L462.144 24.5626L461.563 25.3495L462.31 24.7303L463.149 25.3142Z" fill="white"/>
<path opacity="0.93" d="M542.539 4.8223L541.896 4.04258L542.504 3.22754L541.729 3.8746L540.918 3.26263L541.534 4.07046L540.954 4.85738L541.701 4.2382L542.539 4.8223Z" fill="white"/>
<path opacity="0.93" d="M447.944 99.9868L446.784 100.955L445.572 100.04L446.534 101.206L445.624 102.425L446.826 101.499L447.997 102.372L447.076 101.248L447.944 99.9868Z" fill="white"/>
<path opacity="0.93" d="M281.099 9.02686L280.324 9.67364L279.513 9.06194L280.157 9.84162L279.548 10.6564L280.351 10.0375L281.134 10.621L280.519 9.86949L281.099 9.02686Z" fill="white"/>
<path opacity="0.93" d="M214.929 14.5654L214.492 15.205L214.024 14.5853L214.399 15.3712L214.059 16.1802L214.512 15.5688L214.964 16.1601L214.606 15.4026L214.929 14.5654Z" fill="white"/>
<path opacity="0.93" d="M161.324 115.605L159.837 116.847L158.282 115.673L159.517 117.169L158.349 118.732L159.89 117.545L161.392 118.665L160.21 117.223L161.324 115.605Z" fill="white"/>
<path opacity="0.93" d="M165.808 40.7017L165.032 41.3484L164.222 40.7368L164.865 41.5164L164.257 42.3314L165.06 41.7123L165.843 42.2961L165.227 41.5443L165.808 40.7017Z" fill="white"/>
<path opacity="0.93" d="M258.861 94.7188L257.701 95.6868L256.488 94.7715L257.451 95.9379L256.541 97.157L257.742 96.2308L258.913 97.1043L257.992 95.9799L258.861 94.7188Z" fill="white"/>
<path opacity="0.93" d="M320.732 68.0583L320.089 67.2789L320.697 66.4639L319.921 67.1109L319.111 66.499L319.727 67.3067L319.146 68.0936L319.894 67.4745L320.732 68.0583Z" fill="white"/>
<path opacity="0.93" d="M372.338 51.3261L371.694 50.5465L372.303 49.7314L371.528 50.3785L370.717 49.7668L371.333 50.5743L370.752 51.3612L371.5 50.7421L372.338 51.3261Z" fill="white"/>
<path opacity="0.93" d="M356.86 103.136L356.216 102.356L356.825 101.541L356.049 102.188L355.239 101.576L355.854 102.384L355.274 103.171L356.021 102.552L356.86 103.136Z" fill="white"/>
<path opacity="0.93" d="M366.327 96.7187L365.683 95.939L366.291 95.124L365.516 95.7711L364.706 95.1594L365.321 95.9669L364.741 96.7541L365.488 96.1349L366.327 96.7187Z" fill="white"/>
<path opacity="0.93" d="M238.77 47.6816L238.127 46.9019L238.736 46.0869L237.96 46.7339L237.15 46.122L237.765 46.93L237.185 47.7169L237.932 47.0978L238.77 47.6816Z" fill="white"/>
<path opacity="0.93" d="M251.575 53.75L250.931 52.9703L251.54 52.1553L250.764 52.8026L249.954 52.1906L250.569 52.9984L249.989 53.7853L250.736 53.1661L251.575 53.75Z" fill="white"/>
<path opacity="0.93" d="M205.33 71.3641L204.686 70.5845L205.295 69.7695L204.519 70.4168L203.709 69.8049L204.324 70.6126L203.744 71.3995L204.491 70.7804L205.33 71.3641Z" fill="white"/>
<path opacity="0.93" d="M136.355 72.792L135.195 73.76L133.982 72.8447L134.945 74.0111L134.035 75.2302L135.237 74.304L136.407 75.1772L135.486 74.0529L136.355 72.792Z" fill="white"/>
<path opacity="0.93" d="M191.519 -0.562012L190.744 0.0847674L189.933 -0.526921L190.577 0.252747L189.968 1.0675L190.771 0.448598L191.554 1.03241L190.939 0.280618L191.519 -0.562012Z" fill="white"/>
<path opacity="0.93" d="M125.349 4.97705L124.913 5.61662L124.444 4.99721L124.819 5.78286L124.479 6.5919L124.932 5.98046L125.384 6.57175L125.026 5.81422L125.349 4.97705Z" fill="white"/>
<path opacity="0.93" d="M71.7439 106.015L70.2565 107.256L68.7014 106.083L69.9361 107.578L68.7688 109.142L70.3095 107.954L71.8113 109.074L70.6299 107.632L71.7439 106.015Z" fill="white"/>
<path opacity="0.93" d="M19.0837 117.546L18.3083 118.193L17.4976 117.581L18.1414 118.361L17.5326 119.176L18.3359 118.557L19.1186 119.141L18.5028 118.389L19.0837 117.546Z" fill="white"/>
<path opacity="0.93" d="M76.2273 31.1128L75.4516 31.7598L74.6411 31.1479L75.2847 31.9276L74.6764 32.7426L75.4795 32.1234L76.2621 32.7073L75.6464 31.9557L76.2273 31.1128Z" fill="white"/>
<path opacity="0.93" d="M169.281 85.1304L168.121 86.0987L166.908 85.1831L167.871 86.3495L166.961 87.5687L168.163 86.6427L169.333 87.516L168.412 86.3916L169.281 85.1304Z" fill="white"/>
<path opacity="0.93" d="M231.152 58.4695L230.509 57.69L231.117 56.875L230.342 57.5221L229.531 56.9103L230.147 57.7179L229.567 58.5048L230.314 57.8859L231.152 58.4695Z" fill="white"/>
<path opacity="0.93" d="M282.758 41.7353L282.114 40.9556L282.723 40.1406L281.947 40.7879L281.137 40.176L281.753 40.9835L281.172 41.7706L281.92 41.1515L282.758 41.7353Z" fill="white"/>
<path opacity="0.93" d="M267.28 93.5471L266.637 92.7676L267.245 91.9526L266.47 92.5997L265.659 91.9877L266.275 92.7955L265.694 93.5824L266.442 92.9632L267.28 93.5471Z" fill="white"/>
<path opacity="0.93" d="M276.747 87.1282L276.103 86.3485L276.712 85.5337L275.936 86.1808L275.126 85.5688L275.741 86.3766L275.161 87.1635L275.908 86.5443L276.747 87.1282Z" fill="white"/>
<path opacity="0.93" d="M149.191 38.091L148.547 37.3113L149.156 36.4966L148.381 37.1436L147.57 36.5317L148.186 37.3395L147.605 38.1263L148.353 37.5072L149.191 38.091Z" fill="white"/>
<path opacity="0.93" d="M161.995 44.1611L161.351 43.3812L161.96 42.5664L161.184 43.2134L160.374 42.6017L160.989 43.4093L160.409 44.1962L161.156 43.577L161.995 44.1611Z" fill="white"/>
<path opacity="0.93" d="M115.749 61.7739L115.105 60.9939L115.714 60.1792L114.938 60.8262L114.128 60.2143L114.744 61.0221L114.163 61.8089L114.911 61.1898L115.749 61.7739Z" fill="white"/>
<path opacity="0.93" d="M46.7746 63.2017L45.6146 64.1697L44.4019 63.2544L45.3648 64.4208L44.4546 65.64L45.6562 64.714L46.8271 65.5872L45.9059 64.4626L46.7746 63.2017Z" fill="white"/>
<path opacity="0.93" d="M409.587 92.6264L410.363 91.9794L411.173 92.5911L410.529 91.8116L411.138 90.9966L410.334 91.6158L409.552 91.0317L410.167 91.7835L409.587 92.6264Z" fill="white"/>
<path opacity="0.93" d="M475.757 87.0872L476.194 86.4479L476.661 87.0674L476.287 86.2817L476.627 85.4727L476.174 86.0839L475.722 85.4928L476.08 86.2501L475.757 87.0872Z" fill="white"/>
<path opacity="0.93" d="M524.879 60.9501L525.655 60.3031L526.466 60.9148L525.822 60.1351L526.43 59.3203L525.627 59.9392L524.844 59.3554L525.46 60.1072L524.879 60.9501Z" fill="white"/>
<path opacity="0.93" d="M431.826 6.9337L432.986 5.96588L434.199 6.88094L433.236 5.71453L434.146 4.49561L432.944 5.42162L431.773 4.54811L432.694 5.67272L431.826 6.9337Z" fill="white"/>
<path opacity="0.93" d="M369.954 33.5932L370.598 34.3731L369.989 35.1876L370.765 34.5408L371.575 35.1525L370.96 34.345L371.54 33.5581L370.792 34.1768L369.954 33.5932Z" fill="white"/>
<path opacity="0.93" d="M318.348 50.3273L318.992 51.1068L318.383 51.9218L319.159 51.275L319.969 51.8867L319.354 51.0789L319.934 50.292L319.187 50.9109L318.348 50.3273Z" fill="white"/>
<path opacity="0.93" d="M333.827 -1.48419L334.471 -0.704765L333.862 0.110249L334.638 -0.536788L335.448 0.074911L334.832 -0.732637L335.413 -1.51953L334.666 -0.900618L333.827 -1.48419Z" fill="white"/>
<path opacity="0.93" d="M324.36 4.9345L325.003 5.71418L324.394 6.52919L325.17 5.88216L325.981 6.49385L325.365 5.6863L325.946 4.89941L325.198 5.51832L324.36 4.9345Z" fill="white"/>
<path opacity="0.93" d="M451.915 53.9699L452.559 54.7496L451.95 55.5646L452.726 54.9175L453.536 55.5292L452.921 54.7217L453.501 53.9346L452.754 54.5537L451.915 53.9699Z" fill="white"/>
<path opacity="0.93" d="M439.111 47.9013L439.755 48.681L439.146 49.496L439.922 48.849L440.733 49.4607L440.117 48.6531L440.698 47.8662L439.95 48.4851L439.111 47.9013Z" fill="white"/>
<path opacity="0.93" d="M485.358 30.2892L486.001 31.0689L485.392 31.8839L486.168 31.2366L486.978 31.8486L486.363 31.0408L486.944 30.2539L486.196 30.8731L485.358 30.2892Z" fill="white"/>
<path opacity="0.93" d="M539.127 103.532L539.77 104.312L539.162 105.127L539.938 104.479L540.748 105.091L540.132 104.283L540.713 103.497L539.965 104.116L539.127 103.532Z" fill="white"/>
<path opacity="0.93" d="M554.331 28.8612L555.492 27.8931L556.704 28.8084L555.741 27.642L556.651 26.4229L555.45 27.3489L554.279 26.4759L555.2 27.6002L554.331 28.8612Z" fill="white"/>
<path opacity="0.1" d="M377.504 105.079C310.46 105.079 256.11 159.724 256.11 227.133C256.11 294.541 310.46 349.186 377.504 349.186C444.548 349.186 498.898 294.541 498.898 227.133C498.898 159.724 444.548 105.079 377.504 105.079Z" fill="white"/>
<path d="M709.001 149.979C707.616 148.931 693.372 118.541 692.317 117.553C691.262 116.565 677.893 87.5683 677.893 87.5683L648.098 71.4209L582.944 140.763L562.491 110.404L548.775 99.79L530.851 137.989L499.805 146.932L470.912 168.439L461.528 195.318L441.139 258.103L709 268.854" fill="url(#paint1_linear)"/>
<path d="M71.3443 290.071L332.311 279.319L310.578 216.535L294 167.639L279.549 157.686L256.858 170.145L261.236 159.206L230.854 113.772L203.419 116.824L185.926 145.264L145.399 92.5633L104.503 108.785C104.503 108.785 90.2522 137.782 89.1275 138.77L67.2945 67.2788L51.552 79.3494C51.552 79.3494 44.6227 101.734 43.7632 101.204C41.7927 99.9892 18.6519 85.1299 18.6519 85.1299L0.000976562 107.579" fill="url(#paint2_linear)"/>
<path d="M250.629 244.863C252.205 256.89 253.664 268.925 255.058 280.965L0.000497544 288.238L0 96.2764L10.7201 114.841L28.1291 103.702L59.6294 126.775L63.4664 103.702L83.2712 71.4209L137.786 152.222L157.776 133.665L184.089 161.06L214.836 126.775L256.559 165.32L264.005 188.499H276.553L323.878 258.788" fill="url(#paint3_linear)"/>
<path d="M542.54 143.704L552.859 135.542L575.444 160.471L604.037 130.086L631.737 71.4209L657.068 88.5518L709 155.146C705.907 170.647 710.933 279.13 709 294.288C706.208 316.188 661.878 257.94 658.989 279.826C657.272 292.841 660.502 266.796 658.989 279.826L460.828 274.175L453.537 249.986L482.962 184.883L519.315 127.137L542.54 143.704Z" fill="url(#paint4_linear)"/>
<path opacity="0.12" d="M631.736 71.4209L623.362 135.155L637.273 205.274L612.128 257.578L575.444 160.47L604.037 130.086" fill="white"/>
<path opacity="0.12" d="M83.37 71.4209L90.4083 124.985L108.844 133.936L78.3399 145.203L74.3777 162.226L107.086 172.834L91.6109 174.248L92.3146 198.648L78.5981 246.625L131.922 257.578L154.322 177.261" fill="white"/>
<path opacity="0.24" d="M28.1296 103.703L59.6299 126.776L30.0641 232.241L40.5608 157.954L34.988 153.562L43.8799 133.937L37.1459 128.721L28.1296 103.703Z" fill="black"/>
<path opacity="0.82" d="M261.352 44.5293C263.12 44.5293 264.554 43.088 264.554 41.31C264.554 39.5321 263.12 38.0908 261.352 38.0908C259.584 38.0908 258.151 39.5321 258.151 41.31C258.151 43.088 259.584 44.5293 261.352 44.5293Z" fill="white"/>
<path opacity="0.16" d="M259.266 44.1285L222.457 25.8477L263.448 38.8796L259.266 44.1285Z" fill="url(#paint5_linear)"/>
<path opacity="0.82" d="M294.585 42.7364C296.941 42.7364 298.851 40.8157 298.851 38.4465C298.851 36.0774 296.941 34.1567 294.585 34.1567C292.228 34.1567 290.318 36.0774 290.318 38.4465C290.318 40.8157 292.228 42.7364 294.585 42.7364Z" fill="white"/>
<path opacity="0.16" d="M291.697 40.8695L202.485 1.06787L295.879 35.6203L291.697 40.8695Z" fill="url(#paint6_linear)"/>
</g>
<g clip-path="url(#clip2)">
<path d="M708.894 -165.654H-0.147949V214.777H708.894V-165.654Z" fill="#EBD1C6"/>
<path opacity="0.6" d="M674.055 -26.211C670.341 -29.8594 665.235 -32.1371 659.6 -32.1371C658.292 -32.1371 657.026 -32.0105 655.781 -31.7785C651.687 -37.9366 644.681 -42.0069 636.726 -42.0069C634.785 -42.0069 632.907 -41.7749 631.134 -41.3109C624.972 -54.2176 611.784 -63.1594 596.506 -63.1594C582.874 -63.1594 570.909 -56.0523 564.115 -45.339C560.337 -47.1316 556.117 -48.1439 551.665 -48.1439C541.768 -48.1439 533.032 -43.1879 527.798 -35.6379C524.148 -37.1774 520.138 -38.021 515.939 -38.021C505.916 -38.021 497.053 -33.1704 491.503 -25.747C488.232 -27.4341 484.519 -28.3832 480.594 -28.3832C478.547 -28.3832 476.563 -28.1301 474.664 -27.645C472.258 -31.0193 468.945 -33.6977 465.105 -35.3848C459.998 -55.1666 442.019 -69.8026 420.643 -69.8026C406.99 -69.8026 394.751 -63.8554 386.353 -54.4285C381.056 -56.7061 375.232 -57.9293 369.113 -57.9293L369.028 -56.432V-57.9293C351.64 -57.9293 336.848 -47.1316 330.897 -31.9051C326.846 -35.8699 321.296 -38.3584 315.155 -38.3584C313.72 -38.3584 312.349 -38.2319 310.998 -37.9788C306.546 -44.6852 298.928 -49.114 290.255 -49.114C288.145 -49.114 286.098 -48.8609 284.157 -48.3547C277.446 -62.4213 263.076 -72.1435 246.469 -72.1435C231.634 -72.1435 218.593 -64.4037 211.208 -52.7413C207.114 -54.7026 202.493 -55.7993 197.66 -55.7993C186.877 -55.7993 177.382 -50.4004 171.663 -42.1756C167.696 -43.8627 163.328 -44.7696 158.749 -44.7696C147.839 -44.7696 138.174 -39.4972 132.139 -31.3989C128.573 -33.2337 124.543 -34.2671 120.259 -34.2671C118.043 -34.2671 115.87 -33.9929 113.802 -33.4446C111.185 -37.1141 107.577 -40.0455 103.399 -41.8803C97.8488 -63.4336 78.2663 -79.335 54.9699 -79.335C40.1142 -79.335 26.7779 -72.8605 17.6408 -62.6111C11.88 -65.0786 6.54122 -64.6357 -0.126953 -64.6357V117.281H709.084V-50.1684C693.11 -50.1052 679.499 -40.1932 674.055 -26.211Z" fill="url(#paint7_linear)"/>
<path opacity="0.8" d="M709.253 107.516L708.937 -23.8491C690.283 -23.8491 679.521 -8.72807 679.521 9.91489C679.521 10.0625 679.521 10.189 679.521 10.3367C676.482 8.54408 672.979 7.51071 669.202 7.51071C666.48 7.51071 663.884 8.03793 661.521 9.02913C657.469 3.27174 650.801 -0.46107 643.226 -0.46107C640.124 -0.46107 637.191 0.150524 634.489 1.28935C630.628 -4.27823 624.213 -7.92668 616.933 -7.92668C613.641 -7.92668 610.539 -7.18856 607.775 -5.85993C602.773 -13.7473 593.974 -18.9775 583.951 -18.9775C568.378 -18.9775 555.759 -6.36608 555.759 9.19784C555.759 9.472 555.759 9.76726 555.78 10.0414C551.96 7.04674 547.128 5.27523 541.895 5.27523C536.493 5.27523 531.513 7.19437 527.63 10.3789C524.254 -1.05156 513.682 -9.38184 501.168 -9.38184V-9.33967C496.652 -9.33967 492.39 -8.41174 488.507 -6.74568C482.324 -13.6841 473.314 -18.0496 463.29 -18.0496C444.636 -18.0496 429.506 -2.92851 429.506 15.7145C429.506 15.8621 429.506 15.9886 429.506 16.1362C426.468 14.3436 422.965 13.3103 419.188 13.3103C416.465 13.3103 413.87 13.8375 411.507 14.8287C407.455 9.0713 400.787 5.33849 393.211 5.33849C390.109 5.33849 387.176 5.95009 384.475 7.08891C380.613 1.52133 374.199 -2.12711 366.918 -2.12711C363.627 -2.12711 360.525 -1.389 357.76 -0.0603678C352.759 -7.94777 343.96 -13.1779 333.936 -13.1779C318.363 -13.1779 305.744 -0.566513 305.744 14.9974C305.744 15.2716 305.744 15.5668 305.765 15.841C301.946 12.8463 297.114 11.0748 291.88 11.0748C286.478 11.0748 281.498 12.9939 277.615 16.1784C274.239 4.74801 263.667 -3.60337 251.154 -3.60337V-3.54011C235.391 -3.54011 235.201 5.76029 231.318 7.42635C225.135 0.487961 216.125 -3.87753 206.101 -3.87753C187.447 -3.87753 179.492 2.87105 179.492 21.514C179.492 21.6616 172.317 30.1606 172.317 30.2872C169.279 28.4946 172.95 19.0887 169.173 19.0887C166.451 19.0887 163.856 19.616 161.492 20.6072C157.441 14.8498 150.772 11.117 143.197 11.117C140.095 11.117 137.162 11.7286 134.461 12.8674C130.599 7.2998 124.184 3.65136 116.904 3.65136C113.612 3.65136 110.51 4.38947 107.746 5.7181C102.745 -2.1693 93.9452 -7.39944 83.9219 -7.39944C68.3487 -7.39944 55.7298 5.21196 55.7298 20.7759C55.7298 21.05 55.7298 21.3453 55.7509 21.6195C51.9315 18.6248 47.0992 16.8533 41.8659 16.8533C36.4639 16.8533 31.4838 18.7724 27.6011 21.9569C24.2248 10.5265 13.6528 2.1751 1.1394 2.1751V107.495H709.253V107.516Z" fill="url(#paint8_linear)"/>
<path opacity="0.3" d="M196.057 8.14331C237.849 8.14331 271.728 -25.7158 271.728 -67.483C271.728 -109.25 237.849 -143.109 196.057 -143.109C154.265 -143.109 120.386 -109.25 120.386 -67.483C120.386 -25.7158 154.265 8.14331 196.057 8.14331Z" fill="white"/>
<path d="M233.703 66.6026L194.053 36.3605L218.193 14.4065L194.2 -32.2642L4.64258 133.055V215.578H58.9798L233.703 66.6026Z" fill="#D3B5BB"/>
<path d="M290.277 51.5663L194.306 -32.0318L218.193 14.4069L194.052 36.3609L233.703 66.603L58.9795 215.578H41.8871L40.8953 216.738L98.651 215.43L450.693 -85.5776L290.277 51.5663Z" fill="#C3A8BA"/>
<path d="M507.604 17.7179L451.579 1.85875L480.615 -25.1989L450.883 -85.5776L99.031 215.494V215.578H599.397H638.562L507.604 17.7179Z" fill="#D3B5BB"/>
<path d="M451.031 -85.3042L480.616 -25.1996L451.58 1.85801L507.605 17.7172L638.563 215.577H708.938V134.784L451.031 -85.3042Z" fill="#C3A8BA"/>
<path d="M368.564 95.9379L336.447 139.382C333.113 143.895 327.437 144.022 323.849 139.677L261.346 61.6045L170.123 151.804C166.704 156.274 161.007 156.338 157.462 151.951L142.627 111.249C139.989 107.832 140.58 108.317 137.731 111.207L114.583 135.417C110.594 139.487 104.876 138.96 101.879 134.257L37.6243 48.4658L-0.105713 98.3421V244.175H471.478L368.564 95.9379Z" fill="#736C9D"/>
<path d="M693.976 85.3091L611.088 192.253C606.783 197.779 599.883 197.673 595.789 192.021L560.971 144.043L520.814 198.011C516.636 203.62 509.546 203.789 505.072 198.369L426.299 102.56L332.312 224.562C328.049 230.108 320.917 230.193 316.464 224.752L263.52 159.67L231.466 193.097C226.486 198.158 219.332 197.504 215.576 191.663L147.206 85.3513L33.2566 244.133H709.021L709.253 105.808L693.976 85.3091Z" fill="#4C4588"/>
<path d="M682.855 123.228L689.924 124.303L672.979 113.063V112.325L679.943 114.75L678.698 112.852L683.024 113.864L680.323 110.363L683.382 111.123L681.589 109.161L687.835 110.195L672.831 99.5235V99.397L678.634 101.569L677.6 99.9031L681.188 100.789L679.584 98.8275L681.504 99.3548L680.027 97.6044L685.176 98.5323L672.747 89.0421L672.726 88.5992L677.305 90.7714L676.461 89.1054L679.289 89.97L677.664 87.4604L679.563 88.1142L678.381 86.3637L682.433 87.2706L672.599 77.7382V77.6538L675.743 79.826L675.195 78.16L677.136 79.0457L675.954 76.515L677.326 77.1899L676.524 75.4606L679.331 76.3885L672.473 66.7718V66.0336L674.709 67.763L673.718 64.4519L675.849 65.6329L672.388 57.3237L668.928 65.6329L670.89 64.5363L669.919 67.763L672.283 65.9493L672.262 66.7929L665.425 76.3885L668.231 75.4606L667.429 77.1899L668.632 76.5994L667.493 79.0457L669.434 78.16L668.885 79.826L672.156 77.5695L672.135 77.7382L662.323 87.2706L666.395 86.3637L665.193 88.1142L666.923 87.5026L665.34 89.97L668.168 89.1054L667.324 90.7714L672.03 88.5359V89.0421L659.579 98.5323L664.749 97.6044L663.251 99.3548L665.003 98.8697L663.441 100.789L667.028 99.9031L665.994 101.569L671.903 99.3548V99.5235L656.921 110.195L663.167 109.161L661.373 111.123L664.264 110.406L661.605 113.864L665.931 112.852L664.686 114.75L671.797 112.261L671.776 113.063L654.832 124.303L661.901 123.228L659.854 125.295L662.513 124.662L660.149 127.404L665.066 126.37L663.631 128.353L671.65 125.78L671.629 126.391L671.27 146.384H673.507L673.127 126.391V125.822L680.998 128.353L679.563 126.37L684.48 127.404L682.074 124.641L684.902 125.295L682.855 123.228Z" fill="#4C4588"/>
<path d="M453.014 125.674L460.083 126.75L443.138 115.509V114.771L450.102 117.196L448.857 115.298L453.183 116.311L450.482 112.81L453.541 113.569L451.748 111.608L457.994 112.641L442.991 101.97V101.843L448.794 104.015L447.76 102.349L451.347 103.235L449.743 101.274L451.663 101.801L450.165 100.072L455.335 101L442.906 91.4884L442.885 91.0455L447.464 93.2177L446.62 91.5517L449.448 92.4163L447.823 89.9067L449.722 90.5605L448.54 88.8311L452.592 89.7169L442.737 80.1845V80.1001L445.903 82.2723L445.354 80.6063L447.295 81.492L446.114 78.9613L447.485 79.6362L446.683 77.9068L449.49 78.8348L442.632 69.218L442.611 68.501L444.869 70.2303L443.877 66.8982L446.008 68.0792L442.547 59.77L439.087 68.0792L441.049 66.9826L440.079 70.2303L442.421 68.4166V69.2391L435.584 78.8348L438.39 77.9068L437.589 79.6362L438.791 79.0457L437.652 81.492L439.593 80.6063L439.045 82.2723L442.294 80.0369V80.1845L432.482 89.7169L436.533 88.8311L435.352 90.5605L437.082 89.97L435.499 92.4163L438.306 91.5517L437.483 93.2177L442.189 90.9822V91.4884L429.739 101L434.909 100.072L433.41 101.801L435.162 101.316L433.6 103.235L437.188 102.349L436.154 104.015L442.062 101.822V101.97L427.08 112.641L433.326 111.608L431.532 113.569L434.423 112.852L431.764 116.311L436.09 115.298L434.845 117.196L441.957 114.729L441.935 115.509L424.991 126.75L432.06 125.674L430.013 127.741L432.672 127.129L430.308 129.871L435.204 128.838L433.79 130.82L441.788 128.226V128.859L441.429 148.83H443.666L443.286 128.859V128.268L451.157 130.82L449.722 128.838L454.639 129.871L452.233 127.087L455.061 127.741L453.014 125.674Z" fill="#4C4588"/>
<path d="M127.603 149.927L134.672 151.002L117.727 139.762V139.002L124.691 141.449L123.467 139.551L127.771 140.542L125.092 137.041L128.151 137.821L126.358 135.839L132.583 136.893L117.579 126.222V126.096L123.403 128.247L122.369 126.581L125.936 127.488L124.332 125.526L126.273 126.032L124.775 124.303L129.945 125.231L117.495 115.72V115.298L122.053 117.449L121.23 115.783L124.036 116.648L122.412 114.138L124.332 114.792L123.129 113.063L127.181 113.948L117.347 104.416V104.353L120.512 106.504L119.943 104.838L121.884 105.723L120.702 103.193L122.095 103.889L121.293 102.159L124.079 103.066L117.221 93.4495V92.7324L119.478 94.4618L118.466 91.1296L120.597 92.3107L117.136 84.0015L113.675 92.3107L115.638 91.2351L114.667 94.4618L117.031 92.6481V93.4917L110.194 103.066L113 102.159L112.177 103.889L113.401 103.277L112.262 105.723L114.203 104.838L113.633 106.504L116.904 104.268V104.416L107.092 113.948L111.143 113.063L109.94 114.792L111.671 114.201L110.109 116.648L112.916 115.783L112.093 117.449L116.799 115.214L116.777 115.72L104.348 125.231L109.497 124.303L107.999 126.032L109.772 125.569L108.21 127.488L111.776 126.581L110.742 128.247L116.672 126.054L116.651 126.222L101.69 136.893L107.915 135.839L106.121 137.821L109.012 137.083L106.353 140.542L110.679 139.551L109.434 141.449L116.545 138.96V139.762L99.6006 151.002L106.67 149.927L104.602 151.972L107.282 151.361L104.918 154.102L109.814 153.069L108.379 155.051L116.398 152.457V153.09L116.018 173.062H118.276L117.875 153.09V152.5L125.746 155.051L124.332 153.069L129.228 154.102L126.822 151.319L129.671 151.972L127.603 149.927Z" fill="#4C4588"/>
<path d="M295.468 85.6253L299.899 86.3002L289.285 79.2564V78.7924L293.653 80.3108L292.872 79.1298L295.573 79.7625L293.885 77.5692L295.805 78.0543L294.687 76.81L298.591 77.4638L289.2 70.7785V70.7152L292.83 72.0649L292.176 71.0104L294.413 71.5798L293.421 70.3567L294.624 70.673L293.695 69.5764L296.924 70.1669L289.137 64.2197V63.9455L291.986 65.2952L291.479 64.2618L293.231 64.7891L292.218 63.2285L293.421 63.6292L292.661 62.5536L295.214 63.1019L289.053 57.1337L289.032 57.0915L291.015 58.4412L290.678 57.4078L291.88 57.9561L291.142 56.3744L292.007 56.7962L291.501 55.7207L293.252 56.2901L288.968 50.2796V49.8157L290.361 50.9123L289.749 48.8245L291.079 49.5626L288.905 44.3535L286.753 49.5626L287.977 48.8877L287.365 50.9123L288.842 49.7735V50.3007L284.558 56.2901L286.31 55.7207L285.803 56.7962L286.563 56.4377L285.845 57.9561L287.069 57.4078L286.71 58.4412L288.757 57.0493V57.1337L282.617 63.1019L285.149 62.5536L284.41 63.6292L285.487 63.2706L284.516 64.7891L286.267 64.2618L285.74 65.2952L288.694 63.9033V64.2197L280.907 70.1669L284.136 69.5764L283.208 70.673L284.305 70.3778L283.313 71.5798L285.55 71.0104L284.917 72.0649L288.61 70.673V70.7785L279.24 77.4638L283.144 76.81L282.026 78.0543L283.82 77.5903L282.174 79.7625L284.875 79.1298L284.094 80.3108L288.546 78.7713V79.2564L277.932 86.3002L282.363 85.6253L281.076 86.9118L282.743 86.5322L281.266 88.2404L284.326 87.5866L283.44 88.8309L288.441 87.207V87.6077L288.209 100.114H289.623L289.369 87.6077V87.2492L294.307 88.8309L293.421 87.5866L296.481 88.2404L294.982 86.5111L296.755 86.9118L295.468 85.6253Z" fill="#736C9D"/>
<path d="M571.163 13.0783L573.927 13.5001L567.323 9.11353V8.83937L570.045 9.76731L569.559 9.02917L571.226 9.42987L570.192 8.05906L571.374 8.37541L570.678 7.59509L573.104 7.9958L567.259 3.84119V3.79902L569.538 4.6426L569.116 3.98882L570.509 4.34735L569.897 3.56704L570.636 3.77793L570.066 3.10307L572.07 3.46159L567.238 -0.229048L567.217 -0.397751L569.011 0.44581L568.673 -0.207954L569.77 0.129483L569.137 -0.861719L569.897 -0.608657L569.433 -1.28352L571.015 -0.924984L567.175 -4.63671V-4.6789L568.399 -3.83532L568.188 -4.46799L568.947 -4.13057L568.483 -5.12177L569.011 -4.8476L568.715 -5.52246L569.791 -5.16395L567.133 -8.91785V-9.19202L567.998 -8.51716L567.618 -9.80361L568.441 -9.36072L567.09 -12.5874L565.74 -9.36072L566.5 -9.78252L566.12 -8.51716L567.048 -9.2131V-8.89677L564.389 -5.16395L565.466 -5.52246L565.17 -4.8476L565.634 -5.07959L565.191 -4.13057L565.951 -4.46799L565.719 -3.83532L567.006 -4.69998V-4.63671L563.165 -0.924984L564.748 -1.28352L564.284 -0.608657L564.959 -0.819547L564.347 0.129483L565.444 -0.207954L565.128 0.44581L566.964 -0.439938L566.943 -0.229048L562.11 3.46159L564.115 3.10307L563.545 3.77793L564.221 3.58813L563.609 4.34735L565.001 3.98882L564.6 4.6426L566.9 3.77793V3.84119L561.076 7.9958L563.503 7.59509L562.807 8.37541L563.925 8.08016L562.891 9.42987L564.579 9.02917L564.094 9.76731L566.858 8.81828V9.11353L560.253 13.5001L563.018 13.0783L562.216 13.8797L563.25 13.6477L562.321 14.7022L564.242 14.3015L563.672 15.0818L566.795 14.0695V14.3226L566.647 22.1046H567.534L567.386 14.3226V14.0906L570.446 15.0818L569.897 14.3015L571.796 14.7022L570.868 13.6266L571.965 13.8797L571.163 13.0783Z" fill="#C3A8BA"/>
<path d="M136.402 32.8602L139.146 33.2609L132.562 28.8954L132.541 28.6001L135.263 29.5491L134.777 28.811L136.466 29.2117L135.411 27.8409L136.613 28.1361L135.917 27.3769L138.344 27.7776L132.498 23.623V23.5808L134.756 24.4033L134.355 23.7707L135.748 24.1081L135.115 23.3489L135.875 23.5598L135.284 22.8849L137.31 23.2434L132.456 19.5317V19.363L134.229 20.2066L133.912 19.5528L135.01 19.8902L134.377 18.9201L135.115 19.1732L134.651 18.4983L136.233 18.8568L132.393 15.124V15.1029L133.638 15.9465L133.406 15.2927L134.166 15.6513L133.701 14.6601L134.25 14.9131L133.933 14.2383L135.031 14.6179L132.351 10.864V10.5898L133.237 11.2436L132.836 9.95713L133.659 10.4211L132.33 7.17334L130.979 10.4211L131.739 9.99932L131.359 11.2436L132.287 10.5476L132.266 10.864L129.608 14.6179L130.705 14.2383L130.388 14.9131L130.853 14.6811L130.409 15.6513L131.169 15.2927L130.958 15.9465L132.224 15.0818V15.124L128.405 18.8568L129.987 18.4983L129.523 19.1732L130.198 18.9412L129.586 19.8902L130.684 19.5528L130.346 20.2066L132.182 19.3419V19.5317L127.329 23.2434L129.354 22.8849L128.763 23.5598L129.439 23.37L128.848 24.1081L130.241 23.7707L129.84 24.4033L132.14 23.5598V23.623L126.295 27.7776L128.721 27.3769L128.025 28.1361L129.164 27.862L128.13 29.2117L129.797 28.811L129.312 29.5491L132.098 28.579V28.8954L125.493 33.2609L128.236 32.8602L127.434 33.6615L128.489 33.4085L127.561 34.484L129.46 34.0833L128.911 34.8426L132.034 33.8514V34.0833L131.887 41.8653H132.752L132.604 34.0833V33.8514L135.685 34.8426L135.115 34.0833L137.035 34.484L136.086 33.3874L137.204 33.6615L136.402 32.8602Z" fill="#D3B5BB"/>
<path d="M217.328 -8.20091L220.071 -7.80021L213.466 -12.1657V-12.4609L216.188 -11.5119L215.703 -12.2501L217.391 -11.8494L216.336 -13.2202L217.539 -12.9249L216.842 -13.6841L219.269 -13.2834L213.424 -17.438V-17.4802L215.682 -16.6577L215.281 -17.2904L216.673 -16.953L216.04 -17.7122L216.8 -17.5013L216.209 -18.1972L218.235 -17.8176L213.382 -21.5294V-21.6981L215.154 -20.8545L214.838 -21.5083L215.935 -21.1708L215.302 -22.1409L216.04 -21.8879L215.576 -22.5627L217.159 -22.2042L213.318 -25.937V-25.9581L214.563 -25.1145L214.331 -25.7683L215.091 -25.4098L214.627 -26.401L215.175 -26.1479L214.859 -26.8228L215.956 -26.4432L213.276 -30.1971V-30.4712L214.141 -29.8175L213.761 -31.1039L214.584 -30.6399L213.234 -33.8877L211.904 -30.6399L212.664 -31.0617L212.284 -29.8175L213.192 -30.5134V-30.1971L210.533 -26.4432L211.63 -26.8228L211.314 -26.1479L211.778 -26.3799L211.335 -25.4098L212.094 -25.7683L211.883 -25.1145L213.149 -25.9792V-25.937L209.33 -22.2042L210.913 -22.5627L210.448 -21.8879L211.124 -22.1199L210.512 -21.1708L211.588 -21.5083L211.271 -20.8545L213.107 -21.7192V-21.5294L208.254 -17.8176L210.258 -18.1972L209.689 -17.5013L210.364 -17.6911L209.752 -16.953L211.145 -17.2904L210.744 -16.6577L213.065 -17.5013V-17.438L207.22 -13.2834L209.647 -13.6841L208.95 -12.9249L210.09 -13.1991L209.035 -11.8494L210.723 -12.2501L210.237 -11.5119L213.002 -12.482V-12.1657L206.418 -7.80021L209.161 -8.20091L208.359 -7.39951L209.393 -7.65259L208.486 -6.57703L210.385 -6.97773L209.836 -6.21851L212.959 -7.20971V-6.97773L212.812 0.80423H213.677L213.529 -6.97773V-7.20971L216.589 -6.21851L216.04 -6.97773L217.961 -6.57703L217.011 -7.67368L218.129 -7.39951L217.328 -8.20091Z" fill="#C3A8BA"/>
<path d="M26.9472 71.306L31.3575 71.9809L20.7644 64.9371V64.4731L25.1114 65.9915L24.3517 64.8105L27.0527 65.4432L25.3646 63.2499L27.2849 63.7139L26.1454 62.4907L30.0492 63.1445L20.6589 56.4591V56.3748L24.3095 57.7456L23.6554 56.6911L25.8921 57.2605L24.9004 56.0163L26.1032 56.3537L25.1747 55.257L28.4033 55.8475L20.6167 49.9003L20.5956 49.6262L23.4654 50.9759L22.9379 49.9425L24.7104 50.4698L23.6976 48.9091L24.8793 49.3098L24.1407 48.2343L26.6729 48.7826L20.5112 42.8143V42.7721L22.4948 44.1219L22.136 43.0885L23.3599 43.6368L22.6214 42.0551L23.4865 42.4769L22.9801 41.4013L24.7315 41.9707L20.4479 35.9603L20.4268 35.4963L21.8406 36.593L21.2286 34.5051L22.5581 35.2432L20.3846 30.0342L18.2111 35.2432L19.4561 34.5684L18.8441 36.593L20.3213 35.4541V35.9814L16.0376 41.9707L17.789 41.4013L17.2826 42.4769L18.0423 42.1184L17.3248 43.6368L18.5487 43.0885L18.19 44.1219L20.2369 42.73V42.8143L14.0962 48.7826L16.6284 48.2343L15.8899 49.3098L16.9661 48.9513L15.9743 50.4698L17.7468 49.9425L17.2193 50.9759L20.1736 49.584L20.1524 49.9003L12.3659 55.8475L15.5945 55.257L14.666 56.3537L15.7633 56.0584L14.7926 57.2605L17.0294 56.6911L16.3752 57.7456L20.0891 56.3537V56.4591L10.7199 63.1445L14.6238 62.4907L13.4843 63.7139L15.299 63.271L13.632 65.4432L16.3541 64.8105L15.5734 65.9915L20.0047 64.4309V64.9371L9.41162 71.9809L13.8219 71.306L12.5347 72.5925L14.2228 72.2129L12.7246 73.9211L15.8055 73.2674L14.8981 74.5116L19.9203 72.8877V73.2884L19.6882 85.7944H21.102L20.8488 73.2884V72.9299L25.7866 74.5116L24.8793 73.2674L27.9601 73.9211L26.4619 72.1707L28.2344 72.5925L26.9472 71.306Z" fill="#736C9D"/>
<path d="M65.6054 90.0754L70.0157 90.7503L59.4226 83.7276V83.2636L63.7696 84.782L63.0099 83.601L65.7109 84.2126L64.0228 82.0193L65.9431 82.5044L64.8036 81.2812L68.7074 81.935L59.3171 75.2496V75.1653L62.9677 76.515L62.3135 75.4816L64.5503 76.03L63.5586 74.8068L64.7614 75.1231L63.8329 74.0475L67.0615 74.638L59.2749 68.6698L59.2538 68.4167L62.1236 69.7664L61.5961 68.712L63.3686 69.2603L62.3558 67.6786L63.5375 68.1004L62.7989 67.0037L65.3311 67.5731L59.1694 61.6048V61.5627L61.1529 62.9124L60.7942 61.8579L62.0181 62.4273L61.2796 60.8456L62.1447 61.2674L61.6383 60.1919L63.3897 60.7613L59.1061 54.7297L59.085 54.2869L60.4988 55.3624L59.8868 53.2957L61.2163 54.0338L59.0428 48.8247L56.8693 54.0338L58.1143 53.3378L57.5023 55.3624L58.9795 54.2447V54.7508L54.6958 60.7613L56.4472 60.1919L55.9408 61.2674L56.7005 60.8878L55.983 62.4273L57.2069 61.8579L56.8482 62.9124L58.8951 61.4994V61.6048L52.7544 67.5731L55.2866 67.0037L54.5481 68.1004L55.6243 67.7207L54.6325 69.2603L56.405 68.712L55.8775 69.7664L58.8317 68.3745L58.8106 68.6698L51.0241 74.638L54.2527 74.0475L53.3242 75.1231L54.4215 74.8279L53.4508 76.03L55.6876 75.4816L55.0334 76.515L58.7473 75.1442V75.2496L49.3781 81.935L53.282 81.2812L52.1425 82.5044L53.9572 82.0615L52.2902 84.2126L54.9912 83.601L54.2316 84.782L58.6629 83.2214V83.7276L48.0698 90.7503L52.4801 90.0754L51.1929 91.383L52.881 90.9823L51.3828 92.7116L54.4637 92.0578L53.5563 93.3021L58.5785 91.6782V92.0789L58.3464 104.585H59.7602L59.507 92.0789V91.6993L64.4448 93.3021L63.5375 92.0578L66.6183 92.7116L65.099 90.9612L66.8926 91.383L65.6054 90.0754Z" fill="#736C9D"/>
<path d="M499.121 156.106L508.596 157.54L485.911 142.482L485.89 141.491L495.238 144.739L493.571 142.208L499.353 143.558L495.745 138.855L499.839 139.888L497.454 137.252L505.789 138.644L485.7 124.367V124.198L493.487 127.087L492.094 124.852L496.884 126.054L494.753 123.418L497.328 124.114L495.323 121.794L502.244 123.038L485.574 110.3V109.731L491.693 112.62L490.575 110.406L494.352 111.544L492.179 108.191L494.732 109.056L493.128 106.736L498.573 107.938L485.384 95.179V95.0736L489.604 97.9628L488.866 95.7273L491.461 96.9294L489.879 93.5341L491.736 94.462L490.659 92.1211L494.416 93.3653L485.215 80.4798V79.5097L488.233 81.8295L486.882 77.3796L489.731 78.9613L485.11 67.8262L480.467 78.9613L483.105 77.5062L481.797 81.8295L484.962 79.4042L484.941 80.5219L475.804 93.3653L479.56 92.1211L478.463 94.462L480.087 93.6606L478.568 96.9294L481.164 95.7273L480.425 97.9628L484.793 94.9681V95.179L471.647 107.938L477.07 106.736L475.466 109.056L477.787 108.276L475.677 111.544L479.454 110.406L478.336 112.62L484.645 109.646L484.624 110.3L467.975 123.038L474.875 121.794L472.871 124.114L475.234 123.481L473.145 126.054L477.935 124.852L476.542 127.087L484.477 124.135L484.455 124.367L464.409 138.644L472.765 137.252L470.359 139.888L474.221 138.918L470.676 143.558L476.458 142.208L474.791 144.739L484.308 141.428V142.482L461.623 157.54L471.077 156.106L468.334 158.869L471.9 158.025L468.735 161.695L475.297 160.324L473.377 162.981L484.118 159.523L484.097 160.345L483.611 187.107H486.608L486.101 160.345V159.565L496.652 162.981L494.732 160.324L501.295 161.695L498.087 157.983L501.886 158.869L499.121 156.106Z" fill="#4C4588"/>
<path d="M257.843 166.018L265.799 167.22L246.723 154.567V153.723L254.573 156.465L253.18 154.335L258.033 155.473L254.995 151.509L258.455 152.394L256.43 150.159L263.456 151.34L246.554 139.319V139.171L253.095 141.618L251.935 139.741L255.965 140.753L254.172 138.539L256.345 139.129L254.657 137.168L260.46 138.201L246.448 127.509V127.024L251.597 129.449L250.669 127.593L253.834 128.563L251.998 125.716L254.151 126.455L252.8 124.514L257.379 125.527L246.301 114.792L246.28 114.687L249.846 117.133L249.213 115.256L251.407 116.247L250.078 113.4L251.639 114.181L250.732 112.219L253.876 113.274L246.153 102.434V101.611L248.685 103.552L247.567 99.8187L249.951 101.147L246.047 91.7837L242.165 101.147L244.38 99.9242L243.283 103.552L245.942 101.527L245.921 102.476L238.219 113.274L241.384 112.219L240.477 114.181L241.848 113.506L240.561 116.247L242.734 115.256L242.123 117.133L245.794 114.602V114.792L234.737 125.527L239.295 124.514L237.965 126.455L239.907 125.801L238.134 128.563L241.3 127.593L240.371 129.449L245.668 126.94L245.647 127.509L231.635 138.201L237.459 137.168L235.771 139.129L237.754 138.581L235.982 140.753L240.012 139.741L238.852 141.618L245.52 139.129V139.319L228.66 151.34L235.665 150.159L233.661 152.394L236.91 151.572L233.914 155.473L238.788 154.335L237.396 156.465L245.393 153.681V154.567L226.296 167.22L234.273 166.018L231.951 168.338L234.948 167.642L232.289 170.721L237.797 169.561L236.193 171.797L245.224 168.886V169.582L244.802 192.084H247.335L246.892 169.582V168.928L255.754 171.797L254.151 169.561L259.679 170.721L256.978 167.6L260.165 168.338L257.843 166.018Z" fill="#4C4588"/>
<path d="M419.546 135.523L422.923 135.586L417.563 125.758H420.201L415.706 117.259H417.331L413.87 110.258H415.41L412.477 103.72L414.039 103.699L410.979 96.4021L412.203 96.381C409.65 90.9611 408.088 82.209 408.088 82.209C408.088 82.209 406.527 90.9611 403.973 96.381L405.197 96.4021L402.137 103.699L403.699 103.72L400.766 110.258H402.306L398.846 117.259H400.47L395.976 125.758H398.613L393.254 135.586L396.63 135.523L389.856 147.48H408.067H426.278L419.546 135.523Z" fill="#4C4588"/>
<path d="M217.391 119.474L219.944 119.516L215.893 112.093H217.897L214.5 105.66H215.724L213.107 100.367H214.268L212.052 95.411L213.234 95.3899L210.934 89.8645L211.862 89.8434C209.921 85.7309 208.76 79.1089 208.76 79.1089C208.76 79.1089 207.579 85.7309 205.658 89.8434L206.587 89.8645L204.287 95.3899L205.468 95.411L203.253 100.367H204.413L201.797 105.66H203.021L199.623 112.093H201.628L197.576 119.516L200.13 119.474L195.002 128.521H208.781H222.561L217.391 119.474Z" fill="#736C9D"/>
<path d="M334.401 135.08L336.954 135.122L332.902 127.699H334.907L331.51 121.267H332.733L330.117 115.973H331.277L329.062 111.017L330.243 110.996L327.943 105.471L328.872 105.45C326.93 101.337 325.77 94.7153 325.77 94.7153C325.77 94.7153 324.588 101.337 322.668 105.45L323.596 105.471L321.296 110.996L322.478 111.017L320.262 115.973H321.423L318.806 121.267H320.03L316.633 127.699H318.637L314.586 135.122L317.139 135.08L312.011 144.128H325.791H339.57L334.401 135.08Z" fill="#736C9D"/>
<path d="M363.627 124.64L366.18 124.683L362.128 117.259H364.133L360.736 110.827H361.96L359.343 105.533H360.504L358.288 100.577L359.47 100.556L357.169 95.031L358.098 95.0099C356.157 90.8974 354.996 84.2754 354.996 84.2754C354.996 84.2754 353.814 90.8974 351.894 95.0099L352.822 95.031L350.522 100.556L351.704 100.577L349.488 105.533H350.649L348.032 110.827H349.256L345.859 117.259H347.864L343.812 124.683L346.365 124.64L341.238 133.688H355.017H368.797L363.627 124.64Z" fill="#736C9D"/>
<path d="M50.0113 69.5134L52.5647 69.5556L48.5131 62.1322H50.5178L47.1204 55.6999H48.3443L45.7277 50.4065H46.8883L44.6726 45.4505L45.8543 45.4294L43.5542 39.904L44.4827 39.8829C42.5413 35.7705 41.3807 29.1484 41.3807 29.1484C41.3807 29.1484 40.199 35.7705 38.2787 39.8829L39.2072 39.904L36.9071 45.4294L38.0888 45.4505L35.8731 50.4065H37.0337L34.4171 55.6999H35.641L32.2436 62.1322H34.2483L30.1967 69.5556L32.7501 69.5134L27.6223 78.5608H41.4018H55.1813L50.0113 69.5134Z" fill="#736C9D"/>
<path d="M551.39 -3.01297L553.247 -2.97079L550.314 -8.34857H551.77L549.301 -13.0093H550.188L548.288 -16.8476H549.133L547.529 -20.4327L548.373 -20.4538L546.706 -24.4397L547.381 -24.4608C545.988 -27.4344 545.123 -32.2217 545.123 -32.2217C545.123 -32.2217 544.279 -27.4344 542.865 -24.4608L543.541 -24.4397L541.874 -20.4538L542.718 -20.4327L541.114 -16.8476H541.958L540.059 -13.0093H540.945L538.476 -8.34857H539.932L536.999 -2.97079L538.856 -3.01297L535.142 3.54581H545.102H555.062L551.39 -3.01297Z" fill="#C3A8BA"/>
</g>
<g clip-path="url(#clip3)">
<path d="M708.552 -128H0.0449219V372H708.552V-128Z" fill="url(#paint9_linear)"/>
<g opacity="0.65">
<g opacity="0.65">
<path opacity="0.65" d="M232.746 20.8514C231.023 18.769 228.272 26.8226 184.377 25.3097C168.006 24.7462 180.718 14.8553 147.312 19.2055C113.964 23.5488 51.1811 2.38904 51.1811 2.38904C51.1811 2.38904 49.8173 -6.60106 42.9114 -10.607C28.1702 -19.1586 13.4811 -24.2757 0.329102 -27.2876V7.81067C65.6339 38.9516 150.446 36.3296 226.463 25.8821C228.271 25.6163 230.062 25.2998 231.847 24.9575C233.573 23.6718 233.946 22.2998 232.746 20.8514Z" fill="#F3F9F2"/>
</g>
<g opacity="0.65">
<path opacity="0.65" d="M226.463 25.8835C150.446 36.3309 65.6349 38.953 0.329102 7.81201V31.6702C14.2728 35.949 66.0701 38.3786 125.245 37.0799C178.964 35.9014 223.06 31.5135 231.847 24.9619C230.062 25.3002 228.271 25.6186 226.463 25.8835Z" fill="#E6EEE8"/>
</g>
</g>
<path d="M260.049 144.324L247.634 148.187L228.686 128.578H215.619L207.779 120.853L197.325 125.013L139.828 72.1275L135.254 75.0987L120.88 68.562L113.693 72.1275L80.9731 33.6274C92.0207 51.441 97.2693 76.8428 117.3 85.4916C130.101 90.4519 138.963 92.8468 146.841 106.736C154.719 120.625 167.52 131.127 172.444 147C176.383 157.912 184.261 166.841 187.215 177.754C203.757 224.775 227.038 268.221 253.433 309.6L346.295 295.552L260.049 144.324Z" fill="#5B8197"/>
<path d="M144.343 89.9549C144.343 92.9133 130.099 90.4529 117.298 85.4926C97.2674 76.8448 92.0198 51.4429 80.9712 33.6284L79.3514 31.7227L69.9148 101.84L116.525 330.314L282.532 304.965C256.137 263.587 144.343 73.9588 144.343 89.9549Z" fill="#507487"/>
<path d="M43.4449 87.4771C29.774 94.0356 13.9534 97.9949 0.24707 105.083V136.089C11.5536 117.532 29.64 103.581 43.4449 87.4771Z" fill="#D3DDD7"/>
<path d="M140.159 229.305L152.633 213.551H134.497L179.794 168.986L143.688 191.566L166.008 140.464L144.344 144.326L149.596 133.334L132.528 139.276L153.535 99.4649H144.344V89.9579L97.0777 83.4212V75.697L87.2305 76.8854L82.6348 70.943V62.0303L79.3527 31.7227L0.24707 82.5273V105.083C13.9534 97.9946 29.774 94.0353 43.4449 87.4767C29.6391 103.581 11.5536 117.53 0.24707 136.09V153.124C16.3207 143.047 29.1575 127.549 48.3685 124.183C42.4601 141.048 23.7504 147.001 16.8574 163.866C31.6282 154.937 46.399 143.032 64.124 142.04C59.2004 155.929 46.399 162.874 38.5212 174.779C51.3226 172.794 61.1699 163.866 72.9865 161.882C69.0476 180.731 50.3379 189.659 45.4143 206.525C64.124 208.509 78.8948 191.644 98.5893 194.62C99.574 195.612 101.543 197.596 101.543 198.588C70.8359 249.063 32.1767 290.19 0.24707 337.311V356.458L163.793 297.632L184.8 214.442L140.159 229.305Z" fill="#DCE3DF"/>
<path d="M354.623 95.8599L426.691 126.119L468.455 145.81L506.392 114.064L546.52 130.929L578.669 114.064L616.747 130.929L645.947 106.738L685.254 129.687L709 117.198V223.055C709 223.055 629.232 255.115 538.255 269.295C440.082 284.596 332.114 281.636 331.306 280.907C327.097 277.11 232.488 120.41 246.582 140.543L354.623 95.8599Z" fill="#507487"/>
<path d="M325.943 139.727L354.623 95.8599L260.802 130.978C271.644 128.423 282.785 127.548 293.564 128.152C281.86 139.037 268.513 146.613 256.526 156.929L258.378 160.087C265.105 158.547 269.848 150.738 277.809 153.945C273.87 158.906 265.992 162.874 266.977 167.834C266.977 173.787 277.809 162.874 279.778 167.834C281.403 173.562 275.659 177.941 271.939 183.197L273.894 186.531C278.051 185.138 282.485 181.225 284.702 185.691C286.54 189.396 279.8 193.965 280.498 197.785L281.547 199.571C284.809 202.641 291.004 197.755 295.534 199.58C304.396 202.557 296.518 210.493 295.534 214.461C295.534 216.445 299.472 216.445 299.472 219.422C298.964 221.98 298.311 224.479 297.611 226.95L301.068 232.84L335.79 180.576L300.34 173.03L346.294 139.726H325.943V139.727Z" fill="#DCE3DF"/>
<path d="M354.623 95.8599L528.678 229.479L325.314 273.869L301.067 232.841L335.79 180.576L300.34 173.031L346.294 139.727H325.943L354.623 95.8599Z" fill="#5B8197"/>
<g opacity="0.76">
<g opacity="0.76">
<path opacity="0.76" d="M706.488 23.0772V-33.5112C706.488 -33.5112 669.804 1.20015 664.437 7.04441C659.07 12.8887 657.909 23.3669 657.909 23.3669C657.909 23.3669 604.026 53.7846 574.536 51.1437C544.994 48.4989 556.695 59.4403 542.369 61.3957C503.955 66.6408 501.092 57.1388 499.697 59.7856C498.726 61.6259 499.129 63.2519 500.715 64.6715C502.299 64.9443 503.889 65.1874 505.489 65.3669C574.233 72.1953 650.594 68.4711 706.488 23.0772Z" fill="#F3F9F2"/>
</g>
<g opacity="0.76">
<path opacity="0.76" d="M500.715 64.672C508.787 71.8922 547.707 73.7494 594.887 70.9855C651.344 67.6799 699.924 59.7434 706.489 53.1283V23.0767C650.594 68.4706 574.234 72.1948 505.489 65.3664C503.889 65.1878 502.3 64.9438 500.715 64.672Z" fill="#E6EEE8"/>
</g>
</g>
<g opacity="0.69">
<g opacity="0.69">
<g opacity="0.69">
<g opacity="0.69">
<path opacity="0.69" d="M258.733 11.0072C258.733 11.0072 271.732 6.42977 272.768 16.4417C273.165 20.2781 264.932 7.63216 258.733 11.0072Z" fill="#5B8197"/>
</g>
</g>
<g opacity="0.69">
<g opacity="0.69">
<path opacity="0.69" d="M260.257 10.481C260.257 10.481 260.393 1.84508 254.319 3.19132C251.99 3.70621 261.021 6.12784 260.257 10.481Z" fill="#5B8197"/>
</g>
</g>
</g>
<g opacity="0.69">
<g opacity="0.69">
<g opacity="0.69">
<path opacity="0.69" d="M258.452 43.9177C258.452 43.9177 266.3 41.1538 266.926 47.1985C267.166 49.516 262.196 41.88 258.452 43.9177Z" fill="#5B8197"/>
</g>
</g>
<g opacity="0.69">
<g opacity="0.69">
<path opacity="0.69" d="M259.373 43.6008C259.373 43.6008 259.455 38.3864 255.787 39.1999C254.381 39.5105 259.834 40.9728 259.373 43.6008Z" fill="#5B8197"/>
</g>
</g>
</g>
</g>
<path d="M197.324 125.013L218.853 114.063L228.468 122.812L228.686 128.578L211.715 145.81L197.324 125.013Z" fill="#DCE3DF"/>
<path d="M506.393 114.063L468.456 145.81L493.424 156.929L495.563 136.527L506.393 114.063Z" fill="#D3DDD7"/>
<path d="M578.669 114.063L545.834 130.929L567.007 136.114V127.968L578.669 114.063Z" fill="#D3DDD7"/>
<path d="M645.948 106.737L615.903 130.928L645.037 129.606L635.601 124.182L647.455 116.125L645.948 106.737Z" fill="#D3DDD7"/>
<path d="M685.254 129.685L697.375 130.928L709 125.295V117.197L685.254 129.685Z" fill="#D3DDD7"/>
<path d="M506.392 114.063L493.424 136.527V156.929L577.911 175.737L545.834 130.929L506.392 114.063Z" fill="#5B8197"/>
<path d="M578.669 114.063L567.007 127.968V136.114L633.45 148.786L615.902 130.929L578.669 114.063Z" fill="#5B8197"/>
<path d="M645.948 106.737L647.455 116.125L635.601 124.182L645.037 129.606L696.762 144.9L685.255 129.685L645.948 106.737Z" fill="#5B8197"/>
</g>
<g clip-path="url(#clip4)">
<path d="M709 -101.001H0V209.539H709V-101.001Z" fill="#D1DFE0"/>
<path d="M515.867 112.3L573.784 91.4395L639.472 117.593L684.61 68.5684L709 85.6046V141.608L550.069 151.205L515.867 112.3Z" fill="#95BAB3"/>
<path d="M255.958 112.3L200.447 133.007H183.299L35.771 188.888L136.252 195.302L233.315 148.538L255.958 112.3Z" fill="#87B1A8"/>
<path d="M361.214 61.9443L335.252 73.7092H318.343L266.898 113.241L277.615 136.301L332.633 99.1229L361.214 61.9443Z" fill="#87B1A8"/>
<path d="M384.029 72.486L361.214 61.9443L349.998 76.5331H340.984L299.543 104.3L325.98 95.3581L306.688 113.241L294.54 117.006L278.821 136.301L268.104 113.241L255.958 112.3L225.947 133.949L241.666 131.596L233.315 148.538L136.252 195.302L192.349 197.875L261.881 150.891L302.401 141.008L384.029 72.486Z" fill="#F1EBEC"/>
<path d="M410.278 59.875L384.777 71.8271L299.04 142.163L261.881 150.891L192.998 197.437L223.244 197.875L256.8 197.026L328.65 152.01L369.224 135.004L417.789 113.139L433.773 100.992L428.854 98.562L435.849 85.6043L420.48 89.2495L406.955 88.0341L376.831 107.065L405.725 82.3658L410.278 59.875Z" fill="#88B8B0"/>
<path d="M410.278 59.875L405.725 82.3658L376.832 107.065L406.955 88.0341L420.48 89.2495L435.849 85.6043L510.848 107.065L435.849 78.599L410.278 59.875Z" fill="#75A09B"/>
<path d="M416.791 117.593L420.957 143.458L446.56 145.187L426.013 199.048L256.8 197.026L325.807 152.01L416.791 117.593Z" fill="#95BAB3"/>
<path d="M-0.0383301 98.8588L13.2062 58.4663L16.0245 78.6625L19.9693 67.4426L25.6058 89.8825L28.4241 78.6625L33.4964 114.238L41.387 65.7597L45.3318 80.3455L52.6591 53.4175L63.3679 123.038L73.5126 85.3943V113.655L80.8389 92.6877V117.933L91.5477 81.4678L98.234 134.108L107.892 94.3706L111.838 133.079L118.038 106.713V145.128L127.056 106.151L135.51 151.593L145.654 121.49L151.854 159.447L159.181 133.641V166.178L171.017 136.445L176.265 173.773L182.772 160.067L188.013 177.931L198.586 178.346L205.452 165.38L211.711 181.643L296.436 193.091L338.127 198.155L354.5 213.632L262.256 222.351L183.727 216.469L-0.0383301 202.083V98.8588Z" fill="#334441"/>
<path opacity="0.3" d="M-0.0383301 -51.6661C-0.0383301 -51.0731 38.5401 -12.4596 75.8089 -4.61825C110.084 2.59281 228.332 34.3854 321.019 -6.15711C404.082 -42.4888 329.206 -38.9416 352.38 -69.8647C367.506 -90.0482 515.924 -79.1106 553.414 -100.574H709V-74.2676C709 -74.2676 633.906 -73.5766 611.618 -35.9835C589.329 1.6097 490.281 -23.0826 449.22 -20.9546C408.161 -18.8267 321.07 24.2936 283.893 40.4124C246.715 56.5312 190.695 43.8331 170.191 38.6148C149.685 33.3964 15.2121 7.59948 7.4086e-05 17.9284L-0.0383301 -51.6661Z" fill="white"/>
<path d="M573.295 91.4395L578.298 99.1229L563.918 103.528L575.735 107.065L548.162 114.963L535.193 132.456L515.867 112.3L573.295 91.4395Z" fill="#87B1A8"/>
<path d="M534.667 132.391L540.284 128.325L510.847 107.065L435.848 85.6045L426.012 98.5613L430.929 100.991L415.711 111.662L369.87 135.341L415.754 117.984C416.412 125.232 417.158 167.935 417.552 188.588C475.005 189.74 533.298 182.266 575.111 159.812L534.667 132.391Z" fill="#EADEE0"/>
<path d="M709 104.687L695.755 68.0803L692.937 86.3838L688.991 76.2156L683.356 96.553L680.538 86.3838L676.01 115.161L667.575 74.6905L667.045 99.2867L656.303 63.5049L647.095 117.757L635.449 92.4853V118.099L628.122 99.0946V121.975L617.413 88.9264L613.621 136.439L601.068 100.621L597.124 135.703L590.924 111.806V146.622L581.906 111.298L573.452 152.481L563.306 125.198L557.107 159.599L549.78 136.21V165.7L537.945 138.753L532.619 173.695L517.655 166.717L506.434 177.419L499.254 172.343L493.715 179.068L480.914 180.17L475.867 175.529L471.928 181.41L398.161 190.965L338.127 198.319L350.99 210.478L709 198.24V104.687Z" fill="#334441"/>
</g>
<rect width="709" height="120" rx="4" fill="#F4F6F8" fill-opacity="0.32"/>
</g>
<defs>
<linearGradient id="paint0_linear" x1="354.5" y1="266.543" x2="354.5" y2="-64.8754" gradientUnits="userSpaceOnUse">
<stop offset="0.168" stop-color="#D7E7F7"/>
<stop offset="0.2743" stop-color="#C2D9EC"/>
<stop offset="0.4943" stop-color="#8BB3D0"/>
<stop offset="0.8064" stop-color="#3478A2"/>
<stop offset="0.9534" stop-color="#095B8C"/>
</linearGradient>
<linearGradient id="paint1_linear" x1="367.62" y1="228.457" x2="802.003" y2="147.038" gradientUnits="userSpaceOnUse">
<stop stop-color="#D7E7F7"/>
<stop offset="0.1797" stop-color="#C2D4EB"/>
<stop offset="0.5515" stop-color="#8BA4CC"/>
<stop offset="0.9529" stop-color="#4A6AA6"/>
</linearGradient>
<linearGradient id="paint2_linear" x1="416.252" y1="243.748" x2="-133.271" y2="140.748" gradientUnits="userSpaceOnUse">
<stop stop-color="#D7E7F7"/>
<stop offset="0.1797" stop-color="#C2D4EB"/>
<stop offset="0.5515" stop-color="#8BA4CC"/>
<stop offset="0.9529" stop-color="#4A6AA6"/>
</linearGradient>
<linearGradient id="paint3_linear" x1="0.0399527" y1="180.957" x2="337.675" y2="171.815" gradientUnits="userSpaceOnUse">
<stop offset="0.035" stop-color="#1C306B"/>
<stop offset="0.7637" stop-color="#1BA0D1"/>
</linearGradient>
<linearGradient id="paint4_linear" x1="706.153" y1="186.126" x2="426.195" y2="180.5" gradientUnits="userSpaceOnUse">
<stop offset="0.035" stop-color="#1C306B"/>
<stop offset="0.7637" stop-color="#2FA9D6"/>
</linearGradient>
<linearGradient id="paint5_linear" x1="222.457" y1="34.9881" x2="263.448" y2="34.9881" gradientUnits="userSpaceOnUse">
<stop stop-color="white"/>
<stop offset="1" stop-color="white"/>
</linearGradient>
<linearGradient id="paint6_linear" x1="202.485" y1="20.9687" x2="295.879" y2="20.9687" gradientUnits="userSpaceOnUse">
<stop stop-color="white"/>
<stop offset="1" stop-color="white"/>
</linearGradient>
<linearGradient id="paint7_linear" x1="354.463" y1="-79.2877" x2="354.463" y2="117.334" gradientUnits="userSpaceOnUse">
<stop stop-color="white"/>
<stop offset="0.00809998" stop-color="white" stop-opacity="0.9919"/>
<stop offset="1" stop-color="white" stop-opacity="0"/>
</linearGradient>
<linearGradient id="paint8_linear" x1="355.173" y1="-23.8409" x2="355.173" y2="107.52" gradientUnits="userSpaceOnUse">
<stop stop-color="white"/>
<stop offset="0.00809998" stop-color="white" stop-opacity="0.9919"/>
<stop offset="1" stop-color="white" stop-opacity="0"/>
</linearGradient>
<linearGradient id="paint9_linear" x1="158.284" y1="464.04" x2="554.699" y2="-217.49" gradientUnits="userSpaceOnUse">
<stop stop-color="#9BD6E5"/>
<stop offset="0.6375" stop-color="#D0EFF9"/>
<stop offset="0.7623" stop-color="#DDF3FB"/>
<stop offset="0.9909" stop-color="#FEFFFF"/>
<stop offset="0.9975" stop-color="white"/>
</linearGradient>
<clipPath id="clip0">
<rect width="709" height="120" rx="4" fill="white"/>
</clipPath>
<clipPath id="clip1">
<rect width="709" height="499" fill="white" transform="translate(0 -61)"/>
</clipPath>
<clipPath id="clip2">
<rect width="709" height="496" fill="white" transform="translate(0 -165)"/>
</clipPath>
<clipPath id="clip3">
<rect width="709" height="500" fill="white" transform="translate(0 -128)"/>
</clipPath>
<clipPath id="clip4">
<rect width="709" height="494" fill="white" transform="translate(0 -101)"/>
</clipPath>
</defs>
</svg>
