<svg width="709" height="120" viewBox="0 0 709 120" fill="none" xmlns="http://www.w3.org/2000/svg">
<g clip-path="url(#clip0)">
<rect width="709" height="120" rx="4" fill="#F4F6F8"/>
<path d="M623.816 110.066C628.878 105.769 635.758 95.2898 639.773 92.4749C655.355 81.5246 675.654 79.3011 691.966 90.0697C701.934 96.6481 706.318 110.89 707.187 122.308C707.177 122.99 707.325 123.665 707.62 124.28C708.022 124.84 708.547 125.3 709.154 125.625C717.399 130.934 720.932 140.859 720.484 150.534C720.186 156.967 718.231 163.226 715.821 169.213C712.627 177.141 707.483 186.552 699.091 189.882C698.611 190.036 698.16 190.269 697.757 190.573C697.105 191.291 696.694 192.194 696.579 193.158C692.901 207.405 677.327 207.208 666.021 203.174C667.048 220.193 650.3 227.969 637.096 232.746C629.319 235.552 621.1 236.929 612.834 236.812C610.637 236.791 589.497 232.636 589.69 232.388C586.243 236.694 581.922 240.218 577.014 242.728C572.106 245.237 566.722 246.676 561.217 246.948C556.104 247.238 550.991 246.354 546.27 244.364C545.198 243.91 533.25 236.49 534.357 235.698C518.128 247.677 492.41 243.587 480.658 227.169C474.604 218.702 472.831 205.603 480.581 198.68C468.633 194.122 462.384 179.757 464.358 167.109C466.756 151.693 479.808 136.986 493.867 130.706C507.926 124.427 524.756 116.546 540.611 119.018C545.748 113.444 551.043 107.618 557.814 104.195C564.584 100.773 573.349 100.043 579.58 104.437C584.26 99.6953 591.718 98.6274 598.214 100.161C604.315 101.554 615.374 112.643 620.555 111.883C621.784 111.577 622.909 110.95 623.816 110.066V110.066Z" fill="white"/>
<path d="M564.052 247.115C563.119 247.23 562.187 247.346 561.252 247.366C556.066 247.659 550.882 246.764 546.093 244.748C545.549 244.522 535.743 238.7 534.091 236.404C526.313 241.908 516.029 244.135 505.75 242.491C495.218 240.827 485.934 235.328 480.3 227.404C472.581 216.608 474.038 204.575 479.822 198.809C467.566 193.703 462.124 178.764 463.96 167.021C466.251 152.411 478.766 136.978 493.717 130.329L495.536 129.518C509.467 123.315 525.24 116.28 540.437 118.583C545.28 113.278 550.772 107.307 557.654 103.81C565.234 99.969 573.783 100.008 579.563 103.888C584.766 98.849 592.656 98.4259 598.343 99.7404C601.141 100.377 604.755 102.888 608.646 105.545C613.122 108.621 617.748 111.799 620.461 111.464L620.528 111.456C621.665 111.15 622.703 110.556 623.542 109.73C625.987 107.652 628.871 104.106 631.672 100.666C634.664 97.0204 637.433 93.5923 639.523 92.1187C656.347 80.2907 676.532 79.3659 692.204 89.6962C704.852 98.0468 707.196 116.739 707.621 122.272C707.612 122.887 707.74 123.495 707.996 124.053C708.352 124.541 708.813 124.941 709.345 125.223C717.114 130.228 721.457 139.674 720.912 150.517C720.651 156.066 719.16 162.043 716.223 169.328C711.603 180.691 706.089 187.527 699.256 190.242L699.12 190.258C698.729 190.384 698.36 190.572 698.028 190.816C697.496 191.411 697.156 192.153 697.052 192.945L696.987 193.186C695.75 198.011 693.104 201.527 689.123 203.639C683.511 206.626 675.081 206.65 666.474 203.705C667.048 220.124 651.191 228.006 637.24 233.074C629.406 235.909 621.122 237.298 612.792 237.172C611.611 237.154 605.608 236.068 600.381 235.059C593.196 233.67 590.674 233.103 589.778 232.817C583.377 240.743 574.154 245.869 564.052 247.115V247.115ZM534.732 235.876C535.424 237.23 545.127 243.402 546.427 243.965C551.097 245.928 556.151 246.798 561.206 246.51C566.65 246.245 571.976 244.826 576.83 242.345C581.684 239.864 585.957 236.378 589.365 232.118V232.118C589.434 232.03 589.535 231.974 589.646 231.96C589.757 231.946 589.869 231.977 589.958 232.045C591.363 232.552 610.732 236.374 612.867 236.386C621.082 236.506 629.25 235.137 636.978 232.347C663.334 222.799 666.135 211.755 665.62 203.198C665.614 203.128 665.627 203.057 665.657 202.993C665.686 202.929 665.732 202.874 665.79 202.833C665.847 202.792 665.913 202.766 665.982 202.757C666.052 202.748 666.123 202.757 666.188 202.783C674.776 205.851 683.217 205.921 688.757 202.978C692.511 200.979 694.982 197.648 696.188 193.06L696.246 192.829C696.387 191.862 696.826 190.964 697.503 190.26C697.904 189.951 698.355 189.712 698.835 189.552L698.971 189.535C705.574 186.91 710.969 180.226 715.463 169.102C718.361 161.909 719.87 156.016 720.058 150.57C720.544 140.019 716.383 130.853 708.927 126.085C708.255 125.722 707.68 125.201 707.251 124.568C706.93 123.925 706.763 123.217 706.763 122.499C705.462 105.35 698.17 94.7347 691.727 90.5051C676.359 80.3355 656.538 81.2842 640.007 92.9036C638.012 94.3052 635.247 97.6983 632.326 101.292C629.406 104.885 626.589 108.345 624.089 110.464C623.135 111.405 621.944 112.07 620.644 112.39L620.559 112.4C617.525 112.775 612.974 109.648 608.159 106.338C604.537 103.837 600.786 101.266 598.149 100.678C592.58 99.4094 584.87 99.8275 579.915 104.853C579.848 104.928 579.756 104.975 579.656 104.988C579.557 105 579.456 104.976 579.372 104.92C573.84 101.026 565.475 100.948 558.042 104.719C551.22 108.148 545.751 114.168 540.932 119.462C540.886 119.515 540.827 119.555 540.76 119.578C540.694 119.601 540.622 119.607 540.553 119.595C525.529 117.227 509.79 124.257 495.908 130.438L494.081 131.25C479.398 137.779 467.065 152.94 464.828 167.293C463.009 178.896 468.478 193.702 480.77 198.399C480.839 198.423 480.902 198.465 480.949 198.521C480.997 198.578 481.029 198.646 481.041 198.719C481.054 198.791 481.048 198.866 481.023 198.936C480.999 199.005 480.957 199.067 480.901 199.115C474.941 204.438 473.356 216.331 481.012 227.04C486.546 234.778 495.617 240.148 505.903 241.783C516.19 243.417 526.472 241.112 534.105 235.471C534.197 235.403 534.312 235.375 534.426 235.391C534.539 235.408 534.641 235.469 534.71 235.56C534.756 235.659 534.764 235.772 534.732 235.876V235.876Z" fill="#4E5666"/>
<path d="M555.848 130.074L552.027 120.745C552.027 120.745 521.297 129.713 516.996 133.762C512.695 137.81 511.991 140.613 507.056 140.162L506.98 140.171C504.589 139.691 502.385 137.386 500.647 135.782C497.5 132.883 494.532 129.795 491.76 126.535C489.309 123.699 487.086 120.673 485.109 117.487C484.529 116.55 480.087 109.082 484.181 109.973C482.844 108.414 485.428 108.155 486.374 108.917C486.226 108.784 486.109 108.62 486.03 108.437C485.952 108.254 485.914 108.056 485.919 107.857C485.925 107.658 485.973 107.462 486.061 107.284C486.149 107.105 486.275 106.948 486.43 106.823C486.584 106.698 486.764 106.608 486.957 106.559C487.15 106.51 487.351 106.504 487.546 106.541C487.742 106.577 487.927 106.656 488.089 106.771C488.251 106.886 488.387 107.036 488.486 107.208C488.401 107.095 488.34 106.966 488.309 106.828C488.277 106.69 488.275 106.547 488.303 106.409C488.331 106.27 488.387 106.139 488.469 106.024C488.551 105.909 488.656 105.813 488.778 105.741C489.036 105.613 489.323 105.555 489.61 105.572C489.898 105.589 490.176 105.682 490.416 105.84C490.887 106.17 491.303 106.573 491.648 107.033C493.758 109.552 496.106 111.86 498.66 113.925C500.565 115.414 502.969 118.082 505.431 118.442C508.254 118.86 512.808 116.229 515.435 115.344C519.669 113.959 523.881 112.456 528.117 111.018C535.113 108.646 542.115 106.263 549.18 104.106C551.768 103.321 554.364 102.535 556.998 101.916C558.077 101.662 559.837 101.005 560.948 101.428C564.548 102.708 575.015 122.103 575.015 122.103" fill="white"/>
<path d="M509.017 140.576C508.341 140.655 507.658 140.661 506.98 140.595L506.861 140.61C504.673 140.173 502.652 138.302 501.03 136.804L500.331 136.158C497.182 133.262 494.214 130.174 491.444 126.912C488.988 124.034 486.764 120.965 484.795 117.734C483.934 116.34 481.216 111.685 482.366 110.06C482.491 109.889 482.654 109.748 482.842 109.65C483.03 109.553 483.238 109.499 483.45 109.495C483.413 109.339 483.415 109.176 483.456 109.021C483.497 108.865 483.575 108.722 483.684 108.604C483.942 108.402 484.242 108.259 484.561 108.186C484.88 108.112 485.212 108.109 485.533 108.178C485.522 108.093 485.511 107.999 485.499 107.906C485.497 107.639 485.552 107.375 485.662 107.132C485.771 106.89 485.933 106.674 486.134 106.5C486.346 106.336 486.591 106.222 486.852 106.166C487.113 106.11 487.384 106.113 487.643 106.176L487.929 106.261C488.038 105.922 488.265 105.634 488.569 105.449C488.892 105.279 489.254 105.2 489.618 105.218C489.982 105.237 490.335 105.353 490.639 105.556C491.109 105.875 491.524 106.269 491.867 106.723C493.974 109.242 496.319 111.55 498.871 113.616C499.265 113.946 499.689 114.316 500.134 114.71C501.766 116.154 503.611 117.78 505.425 118.047C507.239 118.314 510.234 117.065 512.577 116.043C513.549 115.621 514.464 115.223 515.233 114.973C517.728 114.131 520.204 113.282 522.663 112.426L527.864 110.646C534.711 108.326 541.796 105.916 548.944 103.731C551.348 102.995 554.077 102.166 556.795 101.529C557.007 101.503 557.245 101.413 557.495 101.347C558.594 101.048 559.993 100.668 560.984 101.028C564.584 102.308 574.197 119.869 575.278 121.865C575.31 121.914 575.331 121.97 575.34 122.028C575.349 122.086 575.346 122.146 575.331 122.203C575.316 122.259 575.29 122.313 575.253 122.359C575.217 122.405 575.171 122.443 575.12 122.471C575.068 122.499 575.011 122.516 574.952 122.52C574.894 122.525 574.835 122.518 574.779 122.499C574.724 122.48 574.673 122.449 574.629 122.41C574.586 122.37 574.551 122.321 574.528 122.268C571.631 116.928 563.523 102.844 560.697 101.84C559.931 101.564 558.709 101.904 557.73 102.206L556.989 102.401C554.304 103.026 551.592 103.852 549.196 104.588C542.056 106.763 534.988 109.171 528.15 111.498L522.949 113.279L515.469 115.832C514.74 116.069 513.826 116.466 512.878 116.876C510.315 117.995 507.409 119.276 505.26 118.938C503.11 118.6 501.249 116.916 499.531 115.405C499.096 115.019 498.68 114.648 498.289 114.334C495.711 112.238 493.342 109.898 491.213 107.347C490.901 106.922 490.521 106.552 490.088 106.253C489.913 106.134 489.712 106.062 489.502 106.043C489.292 106.023 489.08 106.058 488.887 106.143C488.807 106.195 488.74 106.265 488.69 106.348C488.641 106.43 488.61 106.522 488.601 106.618C488.595 106.681 488.602 106.745 488.624 106.804C488.686 106.88 488.737 106.963 488.776 107.053C488.816 107.143 488.824 107.244 488.799 107.339C488.773 107.435 488.716 107.518 488.636 107.576C488.556 107.633 488.458 107.661 488.36 107.655C488.261 107.649 488.168 107.609 488.096 107.542C488.012 107.459 487.942 107.363 487.889 107.257C487.745 107.112 487.562 107.011 487.363 106.969C487.227 106.936 487.087 106.933 486.951 106.961C486.814 106.988 486.685 107.044 486.573 107.127C486.474 107.223 486.394 107.338 486.34 107.465C486.286 107.593 486.259 107.73 486.259 107.868C486.259 108.007 486.287 108.144 486.342 108.271C486.396 108.398 486.476 108.513 486.576 108.609C486.654 108.683 486.701 108.784 486.708 108.892C486.715 109 486.681 109.106 486.613 109.19C486.545 109.274 486.448 109.328 486.341 109.343C486.235 109.358 486.126 109.332 486.038 109.27C485.768 109.091 485.456 108.986 485.134 108.967C484.811 108.948 484.489 109.015 484.2 109.161C484.078 109.288 484.371 109.64 484.431 109.71C484.494 109.774 484.534 109.857 484.545 109.946C484.555 110.035 484.537 110.125 484.492 110.203C484.447 110.28 484.379 110.342 484.297 110.378C484.215 110.414 484.123 110.424 484.035 110.406C483.655 110.323 483.16 110.281 482.968 110.537C482.374 111.378 483.792 114.634 485.417 117.269C487.367 120.46 489.566 123.492 491.993 126.335C494.761 129.571 497.726 132.634 500.87 135.505L501.579 136.159C503.115 137.59 505.038 139.361 507.002 139.799C510.485 140.127 511.729 138.776 513.943 136.356C514.699 135.512 515.555 134.57 516.649 133.539C520.955 129.455 550.586 120.786 551.849 120.423C551.95 120.39 552.06 120.397 552.155 120.443C552.251 120.489 552.325 120.571 552.362 120.67L556.182 129.999C556.203 130.053 556.214 130.111 556.213 130.169C556.212 130.227 556.2 130.284 556.177 130.338C556.154 130.391 556.121 130.439 556.079 130.479C556.037 130.52 555.988 130.552 555.934 130.573C555.881 130.594 555.823 130.605 555.765 130.604C555.707 130.603 555.65 130.591 555.597 130.568C555.544 130.545 555.495 130.511 555.455 130.47C555.415 130.428 555.383 130.379 555.362 130.325L551.671 121.35C548.177 122.385 521.088 130.465 517.182 134.162C516.118 135.156 515.273 136.122 514.521 136.931C512.803 138.833 511.5 140.269 509.017 140.576Z" fill="#4E5666"/>
<path d="M636.178 111.16L645.727 113.023L660.952 102.599L654.349 99.1653L658.221 90.7995C658.221 90.7995 692.541 96.2658 696.226 102.483C705.914 118.768 671.375 116.621 654.28 132.663C654.28 132.663 638.375 157.644 618.327 173.741C618.327 173.741 596.714 157.671 586.136 141.634L601.358 117.746C601.358 117.746 588.143 87.9492 601.691 73.3537C605.646 69.0808 634.446 82.7976 634.446 82.7976L628.688 89.4052L618.153 88.5431L619.421 98.8083C619.421 98.8083 631.612 104.362 636.178 111.16Z" fill="#C4EAF5"/>
<path d="M659.324 87.5335L659.308 87.4062C659.148 86.9528 658.855 86.5587 658.466 86.2758C658.078 85.9929 657.613 85.8345 657.134 85.8215C657.082 84.0635 656.668 82.3352 655.916 80.7455C655.164 79.1559 654.091 77.7395 652.766 76.5859C651.456 75.4547 649.939 74.599 648.612 73.4699C647.921 72.9431 647.346 72.2797 646.922 71.5209C646.498 70.7621 646.235 69.9241 646.148 69.0591C645.502 69.8044 645.016 70.6745 644.72 71.6155C644.423 72.5566 644.322 73.5487 644.423 74.5305C642.752 72.8964 641.715 70.721 641.496 68.3924C638.211 71.4706 634.383 73.0047 634 77.5C633.232 75.8046 633.319 75.8911 633.652 74.0596C631.084 75.7733 630.386 79.1783 629.911 82.2282C629.514 84.377 629.294 86.555 629.253 88.7402C629.272 91.0566 630.132 92.4417 631.164 94.4606C632.934 97.9227 635.21 101.228 638.38 103.482C642.388 106.323 648.766 107.526 652.583 103.874C656.354 100.26 658.776 95.4618 659.448 90.2767C659.619 89.3652 659.577 88.4261 659.324 87.5335Z" fill="white"/>
<path d="M647.869 106.466C644.418 106.771 640.972 105.83 638.153 103.813C635.325 101.818 632.941 98.8191 630.806 94.6348L630.488 94.0104C629.584 92.2686 628.864 90.8922 628.846 88.7307C628.886 86.5608 629.102 84.3978 629.493 82.2633L629.478 82.1444C629.949 78.9916 630.728 75.4731 633.399 73.6949C633.469 73.6473 633.55 73.6213 633.635 73.6201C633.719 73.619 633.801 73.6427 633.872 73.6882C633.942 73.736 633.997 73.8034 634.03 73.8821C634.062 73.9608 634.071 74.0473 634.056 74.131C633.841 75.3219 633.755 74.88 634.03 76.0587C635.016 72.3422 638.041 71.0095 641.193 68.034C641.256 67.9844 641.331 67.953 641.41 67.9432C641.489 67.9334 641.569 67.9456 641.642 67.9785C641.718 68.0066 641.784 68.0555 641.833 68.1196C641.882 68.1837 641.912 68.2604 641.919 68.3408C642.096 70.1869 642.806 71.9416 643.963 73.3898C644.054 71.6955 644.701 70.0792 645.804 68.7918C645.86 68.7252 645.935 68.6779 646.019 68.6567C646.103 68.6355 646.191 68.6415 646.272 68.6738C646.352 68.7031 646.421 68.7556 646.471 68.8247C646.521 68.8938 646.549 68.9763 646.552 69.0615C646.592 70.9185 648.017 72.4234 648.865 73.1549C649.51 73.713 650.226 74.2108 650.923 74.7022C651.648 75.1882 652.348 75.7118 653.018 76.2708C654.336 77.4235 655.413 78.8265 656.186 80.3985C656.959 81.9705 657.414 83.6804 657.523 85.4293C658.015 85.5247 658.473 85.7477 658.852 86.0761C659.231 86.4044 659.517 86.8266 659.682 87.3004L659.699 87.4362C659.977 88.3838 660.033 89.3831 659.861 90.3556C659.191 95.6415 656.723 100.534 652.873 104.21C651.493 105.484 649.737 106.276 647.869 106.466ZM633.121 75.0654C631.363 76.7825 630.786 79.5691 630.358 82.3029L630.372 82.4133C629.99 84.5021 629.776 86.6184 629.734 88.7418C629.753 90.7048 630.395 91.9357 631.278 93.6456L631.604 94.269C633.68 98.3227 635.991 101.218 638.722 103.13C642.646 105.913 648.777 107.06 652.38 103.564C656.092 100.024 658.47 95.3093 659.113 90.2154C659.265 89.3775 659.224 88.5155 658.991 87.6961L658.978 87.5942C658.85 87.2051 658.603 86.8662 658.272 86.6255C657.941 86.3848 657.543 86.2545 657.134 86.2531C657.02 86.2584 656.907 86.22 656.82 86.1454C656.778 86.1072 656.744 86.0605 656.721 86.0083C656.699 85.9561 656.687 85.8997 656.688 85.8428C656.636 84.1385 656.233 82.4631 655.505 80.9215C654.777 79.3799 653.74 78.0051 652.457 76.8832C651.808 76.3587 651.132 75.8668 650.434 75.4092C649.697 74.9153 648.987 74.3813 648.309 73.8097C647.144 72.8714 646.286 71.6053 645.846 70.1745C645.047 71.4589 644.695 72.9726 644.846 74.4789C644.854 74.566 644.836 74.6535 644.793 74.7298C644.75 74.806 644.685 74.8671 644.606 74.905C644.528 74.9457 644.439 74.9601 644.352 74.946C644.265 74.9319 644.185 74.8901 644.123 74.8268C642.586 73.3276 641.558 71.3834 641.182 69.2681C637.924 72.3601 634.932 73.2218 634.611 77.2439C634.604 77.3393 634.565 77.4295 634.5 77.5C634.435 77.5705 634.349 77.6172 634.255 77.6327C634.162 77.6471 634.067 77.6311 633.984 77.5869C633.901 77.5428 633.834 77.473 633.794 77.3879C633.148 75.9368 633.009 76.6498 633.121 75.0654Z" fill="#4E5666"/>
<path d="M626.428 105.64L621.879 112.003C621.879 112.003 620.661 117.188 627.658 119.22C634.655 121.252 638.067 116.693 638.067 116.693L647.85 103.864C647.85 103.864 644.645 98.8207 651.681 89.6761C645.43 88.9516 639.487 86.5566 634.475 82.7419C634.475 82.7419 625.555 91.8866 623.572 97.0796C621.589 102.273 626.428 105.64 626.428 105.64Z" fill="white"/>
<path d="M632.394 120.092C630.76 120.272 629.107 120.115 627.536 119.632C620.234 117.508 621.425 111.965 621.461 111.909C621.479 111.855 621.501 111.803 621.528 111.754L625.843 105.721C624.73 104.79 621.382 101.514 623.137 96.9182C625.127 91.7072 633.769 82.8124 634.136 82.4395C634.205 82.3619 634.299 82.3121 634.402 82.2993C634.505 82.2866 634.609 82.3119 634.695 82.3704C639.655 86.1282 645.526 88.4918 651.701 89.2172C651.778 89.2229 651.853 89.2488 651.917 89.2923C651.981 89.3357 652.033 89.3953 652.067 89.465C652.097 89.5366 652.108 89.615 652.098 89.692C652.088 89.769 652.057 89.8419 652.009 89.9032C645.346 98.6569 648.172 103.558 648.204 103.605C648.25 103.679 648.273 103.765 648.268 103.853C648.264 103.94 648.232 104.023 648.178 104.091L638.404 116.919C636.871 118.696 634.725 119.829 632.394 120.092V120.092ZM622.278 112.179C622.159 112.823 621.655 117.031 627.77 118.81C634.384 120.734 637.591 116.606 637.724 116.434L647.352 103.814C646.795 102.65 645.145 97.8629 650.896 90.0149C644.96 89.1639 639.325 86.8576 634.492 83.3006C633.023 84.8527 625.684 92.6642 623.941 97.2241C622.102 102.046 626.654 105.251 626.658 105.284C626.751 105.351 626.816 105.451 626.839 105.564C626.85 105.619 626.849 105.676 626.836 105.731C626.824 105.786 626.8 105.838 626.766 105.883L622.278 112.179Z" fill="#4E5666"/>
<path d="M642.129 106.251C642.572 106.85 643.128 107.355 643.766 107.738C644.404 108.121 645.111 108.374 645.847 108.481C646.88 108.599 647.925 108.448 648.883 108.045C649.842 107.641 650.68 106.998 651.319 106.176C651.847 105.607 652.239 104.925 652.466 104.181C652.574 103.811 652.601 103.422 652.545 103.041C652.489 102.659 652.351 102.295 652.141 101.971C651.519 101.26 650.678 100.776 649.751 100.594C648.435 100.179 647.937 100.672 646.71 100.91C646.828 100.895 647.06 100.746 647.178 100.731" fill="white"/>
<path d="M647.321 108.93C646.806 108.992 646.285 108.987 645.77 108.915C644.981 108.796 644.222 108.523 643.537 108.111C642.853 107.698 642.256 107.155 641.782 106.511C641.715 106.42 641.687 106.306 641.704 106.194C641.72 106.082 641.781 105.981 641.872 105.914C641.916 105.879 641.967 105.854 642.022 105.84C642.076 105.826 642.133 105.823 642.189 105.832C642.245 105.84 642.298 105.86 642.346 105.889C642.394 105.919 642.435 105.958 642.468 106.004C643.3 107.111 644.531 107.85 645.898 108.063C646.855 108.168 647.824 108.025 648.71 107.647C649.596 107.269 650.37 106.668 650.957 105.903C651.44 105.374 651.795 104.74 651.993 104.051C652.09 103.743 652.12 103.417 652.08 103.097C652.04 102.776 651.932 102.467 651.764 102.192C651.2 101.569 650.45 101.144 649.626 100.982C649.018 100.78 648.358 100.806 647.768 101.056C647.468 101.154 647.162 101.235 646.852 101.299L646.758 101.31C646.646 101.324 646.533 101.293 646.443 101.223C646.354 101.153 646.296 101.051 646.282 100.938C646.268 100.825 646.3 100.712 646.369 100.623C646.439 100.533 646.541 100.475 646.654 100.461L646.704 100.455L646.798 100.443C646.915 100.383 647.04 100.339 647.169 100.311L647.321 100.293L647.542 100.265C648.299 99.9582 649.142 99.9337 649.917 100.196C650.915 100.411 651.817 100.943 652.488 101.714C652.729 102.086 652.888 102.504 652.956 102.941C653.023 103.379 652.997 103.826 652.879 104.252C652.643 105.054 652.228 105.792 651.665 106.411C650.589 107.772 649.036 108.673 647.321 108.93V108.93Z" fill="#4E5666"/>
<path d="M622.568 111.039C624.77 112.032 627.254 112.208 629.573 111.535C633.745 110.477 634.819 108.163 634.819 108.163C634.819 108.163 629.988 108.76 626.427 105.64L622.568 111.039Z" fill="#4E5666"/>
<path d="M628.111 112.242C626.161 112.535 624.167 112.245 622.381 111.407C622.329 111.378 622.283 111.339 622.248 111.291C622.212 111.243 622.187 111.189 622.174 111.131C622.16 111.072 622.158 111.01 622.17 110.95C622.182 110.891 622.207 110.835 622.244 110.786L626.094 105.388C626.13 105.341 626.174 105.301 626.225 105.271C626.276 105.241 626.333 105.221 626.391 105.213C626.45 105.203 626.51 105.207 626.568 105.224C626.625 105.241 626.677 105.27 626.722 105.31C630.098 108.264 634.769 107.764 634.769 107.764C634.843 107.756 634.918 107.767 634.987 107.796C635.055 107.825 635.115 107.872 635.16 107.932C635.208 107.992 635.238 108.064 635.247 108.141C635.257 108.217 635.245 108.294 635.213 108.365C635.166 108.465 634.034 110.872 629.687 111.97C629.169 112.097 628.642 112.188 628.111 112.242V112.242ZM623.217 110.864C625.225 111.593 627.409 111.684 629.471 111.126C631.189 110.776 632.758 109.905 633.964 108.631C631.282 108.701 628.655 107.866 626.503 106.26L623.217 110.864Z" fill="#4E5666"/>
<path d="M637.277 91.9129C637.277 91.9129 631.206 94.6628 631.452 95.9514C631.697 97.24 634.131 97.9995 634.131 97.9995" fill="white"/>
<path d="M591.209 144.653C591.209 144.653 577.488 117.177 576.444 116.6C575.401 116.022 551.492 129.639 551.492 129.639L565.056 163.375C565.056 163.375 593.131 159.242 591.209 144.653Z" fill="#4E5666"/>
<path d="M565.099 163.793C565.005 163.805 564.911 163.786 564.83 163.738C564.749 163.69 564.687 163.616 564.653 163.529L551.088 129.793C551.048 129.698 551.045 129.592 551.079 129.495C551.114 129.398 551.183 129.318 551.273 129.27C562.28 123.005 575.623 115.667 576.631 116.233C577.638 116.798 588.32 137.994 591.563 144.464C591.573 144.508 591.578 144.554 591.58 144.6C592.412 150.781 588.056 156.06 578.994 159.878C574.517 161.692 569.855 163.005 565.09 163.794L565.099 163.793ZM552.013 129.825L565.315 162.895C568.434 162.372 592.438 157.889 590.768 144.786C585.489 134.232 577.421 118.454 576.238 117.022C574.492 117.307 560.697 124.89 552.013 129.825Z" fill="#4E5666"/>
<path d="M643.171 116.7C643.055 116.711 642.939 116.676 642.849 116.602C642.805 116.568 642.768 116.526 642.74 116.477C642.712 116.429 642.694 116.375 642.688 116.32C642.681 116.265 642.685 116.209 642.7 116.155C642.715 116.101 642.741 116.051 642.776 116.008C650.242 106.793 667.322 98.7775 667.477 98.7067C667.527 98.6817 667.583 98.6673 667.639 98.6641C667.695 98.661 667.751 98.6693 667.804 98.6885C667.857 98.7077 667.906 98.7375 667.947 98.7759C667.988 98.8144 668.022 98.8608 668.044 98.9124C668.092 99.0151 668.098 99.1326 668.059 99.2392C668.021 99.3458 667.942 99.4327 667.839 99.4808C667.668 99.5538 650.758 107.487 643.436 116.547C643.368 116.628 643.275 116.682 643.171 116.7V116.7Z" fill="#4E5666"/>
<path d="M618.198 88.9068C618.088 88.9107 617.98 88.8756 617.893 88.8075C617.805 88.7394 617.745 88.6428 617.722 88.5346C617.485 86.1287 616.544 83.846 615.018 81.9725C614.94 81.8907 614.897 81.7811 614.899 81.6677C614.901 81.5543 614.948 81.4463 615.03 81.3677C615.111 81.289 615.221 81.246 615.334 81.2482C615.447 81.2504 615.555 81.2975 615.633 81.3793C617.314 83.3877 618.34 85.863 618.575 88.4724C618.577 88.5787 618.54 88.6822 618.47 88.7625C618.401 88.8429 618.304 88.8943 618.198 88.9068Z" fill="#4E5666"/>
<path d="M656.001 144.148C657.227 137.17 659.984 130.553 664.071 124.773C666.504 121.274 669.542 117.864 673.71 115.729C680.687 112.169 689.487 112.978 695.968 116.056" fill="white"/>
<path d="M656.053 144.572L655.926 144.588C655.815 144.568 655.717 144.505 655.653 144.413C655.588 144.321 655.562 144.207 655.581 144.096C656.828 137.059 659.608 130.385 663.724 124.548C666.793 120.135 669.9 117.216 673.518 115.364C679.944 112.079 688.823 112.206 696.145 115.681C696.197 115.704 696.243 115.737 696.282 115.778C696.321 115.819 696.351 115.868 696.37 115.921C696.39 115.974 696.398 116.031 696.395 116.087C696.392 116.144 696.378 116.199 696.353 116.25C696.329 116.301 696.296 116.347 696.255 116.385C696.213 116.423 696.165 116.453 696.112 116.472C696.059 116.492 696.003 116.5 695.947 116.498C695.891 116.495 695.836 116.482 695.785 116.458C688.691 113.085 680.104 112.956 673.913 116.126C670.425 117.91 667.41 120.739 664.432 125.055C660.383 130.784 657.649 137.338 656.426 144.25C656.404 144.336 656.356 144.412 656.289 144.469C656.223 144.527 656.14 144.563 656.053 144.572V144.572Z" fill="#D0D3D9"/>
</g>
<defs>
<clipPath id="clip0">
<rect width="709" height="120" rx="4" fill="white"/>
</clipPath>
</defs>
</svg>
