<svg width="522" height="98" viewBox="0 0 522 98" fill="none" xmlns="http://www.w3.org/2000/svg">
<g clip-path="url(#clip0_6340_12608)">
<g opacity="0.16" filter="url(#filter0_f_6340_12608)">
<ellipse cx="129.783" cy="128.173" rx="129.783" ry="128.173" transform="matrix(-1 0 0 1 208.401 -58.5997)" fill="#8416DE"/>
</g>
<g opacity="0.24" filter="url(#filter1_f_6340_12608)">
<ellipse cx="129.769" cy="100.105" rx="129.769" ry="100.105" transform="matrix(-1 0 0 1 86.2928 23.3579)" fill="#C4EAF5"/>
</g>
<g opacity="0.16" filter="url(#filter2_f_6340_12608)">
<ellipse cx="147.754" cy="185.287" rx="147.754" ry="185.287" transform="matrix(-1 0 0 1 670.375 -140)" fill="#F4691F"/>
</g>
<g opacity="0.24" filter="url(#filter3_f_6340_12608)">
<ellipse cx="147.738" cy="144.712" rx="147.738" ry="144.712" transform="matrix(-1 0 0 1 531.359 -21.5217)" fill="#FBF7C9"/>
</g>
<g opacity="0.16" filter="url(#filter4_f_6340_12608)">
<ellipse cx="175.899" cy="220.581" rx="175.899" ry="220.581" transform="matrix(-1 0 0 1 470.364 -58.5997)" fill="#00DED3"/>
</g>
<g opacity="0.16" filter="url(#filter5_f_6340_12608)">
<ellipse cx="229.774" cy="93.3977" rx="229.774" ry="93.3977" transform="matrix(-1 0 0 1 208.547 182.564)" fill="#00DED3"/>
</g>
<g opacity="0.24" filter="url(#filter6_f_6340_12608)">
<ellipse cx="175.88" cy="172.277" rx="175.88" ry="172.277" transform="matrix(-1 0 0 1 304.867 82.4465)" fill="#D1FCC9"/>
</g>
<g clip-path="url(#clip1_6340_12608)">
<path d="M515.961 57.6759C515.754 61.0672 514.674 64.3468 512.826 67.1949C512.692 67.4059 512.517 67.5883 512.312 67.7316C512.108 67.8748 511.877 67.9761 511.633 68.0297C511.389 68.0832 511.137 68.088 510.891 68.0436C510.646 67.9993 510.411 67.9067 510.201 67.7712C509.309 67.2036 509.037 66.0428 509.626 65.1139C510.674 63.4776 511.425 61.668 511.845 59.7691C513.688 51.353 508.254 42.8638 499.841 41.0281C495.849 40.1439 491.671 40.8481 488.187 42.9925C484.702 45.1368 482.184 48.5537 481.163 52.5231C479.172 60.1906 483.303 68.2942 490.674 71.1568C493.791 72.3681 497.208 72.5913 500.442 71.7268C501.367 71.4792 502.284 71.3882 502.957 72.2016C503.189 72.4847 503.338 72.8265 503.388 73.1893C503.438 73.5521 503.387 73.9217 503.24 74.2571C502.912 75.0109 502.084 75.2173 501.347 75.3965C495.356 76.8594 488.669 75.6864 483.934 71.5969C483.427 71.1588 482.946 70.6918 482.493 70.1984C477.12 64.3491 475.662 57.5159 478.236 50.0118C481.762 39.7293 493.258 34.3955 503.435 38.2606C508.7 40.2604 512.585 44.0855 514.656 49.323C515.699 51.9772 516.144 54.8293 515.961 57.6759Z" fill="#D0D3D9"/>
<path d="M494.521 53.1736C494.521 51.1442 494.512 49.1114 494.526 47.0802C494.532 46.2807 494.922 45.6887 495.648 45.353C496.36 45.0265 497.044 45.1315 497.652 45.6226C497.87 45.792 498.046 46.0099 498.166 46.259C498.285 46.5081 498.346 46.7817 498.342 47.0582C498.348 51.1467 498.348 55.2347 498.342 59.322C498.34 59.8295 498.137 60.3153 497.777 60.6726C497.418 61.03 496.932 61.2295 496.425 61.2273C495.919 61.2252 495.435 61.0215 495.078 60.6612C494.722 60.3008 494.523 59.8133 494.525 59.3058C494.513 57.2619 494.521 55.2175 494.521 53.1736Z" fill="#D0D3D9"/>
<path d="M498.345 65.8398C498.339 66.2171 498.221 66.5842 498.008 66.8949C497.794 67.2056 497.494 67.4461 497.144 67.586C496.795 67.726 496.412 67.7592 496.043 67.6814C495.675 67.6037 495.338 67.4185 495.074 67.1491C494.811 66.8798 494.633 66.5383 494.562 66.1676C494.492 65.7969 494.532 65.4136 494.678 65.0659C494.824 64.7181 495.07 64.4215 495.384 64.2133C495.697 64.0051 496.066 63.8945 496.442 63.8956C496.695 63.8974 496.944 63.9491 497.177 64.0479C497.409 64.1467 497.62 64.2905 497.796 64.4712C497.973 64.6518 498.113 64.8657 498.207 65.1006C498.301 65.3355 498.348 65.5867 498.345 65.8398Z" fill="#D0D3D9"/>
</g>
</g>
<defs>
<filter id="filter0_f_6340_12608" x="-301.165" y="-308.6" width="759.566" height="756.346" filterUnits="userSpaceOnUse" color-interpolation-filters="sRGB">
<feFlood flood-opacity="0" result="BackgroundImageFix"/>
<feBlend mode="normal" in="SourceGraphic" in2="BackgroundImageFix" result="shape"/>
<feGaussianBlur stdDeviation="125" result="effect1_foregroundBlur_6340_12608"/>
</filter>
<filter id="filter1_f_6340_12608" x="-423.245" y="-226.642" width="759.537" height="700.21" filterUnits="userSpaceOnUse" color-interpolation-filters="sRGB">
<feFlood flood-opacity="0" result="BackgroundImageFix"/>
<feBlend mode="normal" in="SourceGraphic" in2="BackgroundImageFix" result="shape"/>
<feGaussianBlur stdDeviation="125" result="effect1_foregroundBlur_6340_12608"/>
</filter>
<filter id="filter2_f_6340_12608" x="124.866" y="-390" width="795.509" height="870.574" filterUnits="userSpaceOnUse" color-interpolation-filters="sRGB">
<feFlood flood-opacity="0" result="BackgroundImageFix"/>
<feBlend mode="normal" in="SourceGraphic" in2="BackgroundImageFix" result="shape"/>
<feGaussianBlur stdDeviation="125" result="effect1_foregroundBlur_6340_12608"/>
</filter>
<filter id="filter3_f_6340_12608" x="-14.1172" y="-271.522" width="795.476" height="789.423" filterUnits="userSpaceOnUse" color-interpolation-filters="sRGB">
<feFlood flood-opacity="0" result="BackgroundImageFix"/>
<feBlend mode="normal" in="SourceGraphic" in2="BackgroundImageFix" result="shape"/>
<feGaussianBlur stdDeviation="125" result="effect1_foregroundBlur_6340_12608"/>
</filter>
<filter id="filter4_f_6340_12608" x="-131.434" y="-308.6" width="851.798" height="941.163" filterUnits="userSpaceOnUse" color-interpolation-filters="sRGB">
<feFlood flood-opacity="0" result="BackgroundImageFix"/>
<feBlend mode="normal" in="SourceGraphic" in2="BackgroundImageFix" result="shape"/>
<feGaussianBlur stdDeviation="125" result="effect1_foregroundBlur_6340_12608"/>
</filter>
<filter id="filter5_f_6340_12608" x="-348.129" y="85.4344" width="653.805" height="381.054" filterUnits="userSpaceOnUse" color-interpolation-filters="sRGB">
<feFlood flood-opacity="0" result="BackgroundImageFix"/>
<feBlend mode="normal" in="SourceGraphic" in2="BackgroundImageFix" result="shape"/>
<feGaussianBlur stdDeviation="48.5646" result="effect1_foregroundBlur_6340_12608"/>
</filter>
<filter id="filter6_f_6340_12608" x="-296.892" y="-167.553" width="851.759" height="844.554" filterUnits="userSpaceOnUse" color-interpolation-filters="sRGB">
<feFlood flood-opacity="0" result="BackgroundImageFix"/>
<feBlend mode="normal" in="SourceGraphic" in2="BackgroundImageFix" result="shape"/>
<feGaussianBlur stdDeviation="125" result="effect1_foregroundBlur_6340_12608"/>
</filter>
<clipPath id="clip0_6340_12608">
<rect width="522" height="98" fill="white"/>
</clipPath>
<clipPath id="clip1_6340_12608">
<rect width="39" height="39" fill="white" transform="translate(477 37)"/>
</clipPath>
</defs>
</svg>
