<svg width="522" height="98" viewBox="0 0 522 98" fill="none" xmlns="http://www.w3.org/2000/svg">
<g clip-path="url(#clip0_4044_6499)">
<rect width="522" height="98" rx="8" fill="url(#paint0_linear_4044_6499)"/>
<path d="M53.1551 -15.9664C53.7269 -18.1002 55.9202 -19.3666 58.0541 -18.7948L115.444 -3.41718C117.578 -2.84542 118.844 -0.652067 118.273 1.4818L116.4 8.471L51.2823 -8.97717L53.1551 -15.9664Z" fill="#0C5554"/>
<path d="M45.8553 11.2769C45.2836 13.4108 46.5499 15.6041 48.6838 16.1759L106.074 31.5535C108.208 32.1253 110.401 30.859 110.973 28.7251L116.4 8.47122L51.2824 -8.97695L45.8553 11.2769Z" fill="#028380"/>
<path d="M91.4371 48.5746C92.0088 46.4408 94.2022 45.1744 96.3361 45.7462L153.726 61.1238C155.86 61.6956 157.126 63.8889 156.555 66.0228L154.682 73.012L89.5643 55.5638L91.4371 48.5746Z" fill="#0C5554"/>
<path d="M84.1374 75.8179C83.5656 77.9518 84.832 80.1451 86.9658 80.7169L144.356 96.0945C146.49 96.6663 148.683 95.4 149.255 93.2661L154.682 73.0122L89.5644 55.5641L84.1374 75.8179Z" fill="#028380"/>
<path d="M10.5969 65.6869C11.1686 63.5531 13.362 62.2868 15.4958 62.8585L72.8859 78.2361C75.0198 78.8079 76.2861 81.0013 75.7143 83.1351L73.8416 90.1243L8.72411 72.6762L10.5969 65.6869Z" fill="#0C5554"/>
<path d="M3.29712 92.9302C2.72535 95.0641 3.99168 97.2575 6.12554 97.8292L63.5156 113.207C65.6495 113.779 67.8428 112.512 68.4146 110.378L73.8416 90.1245L8.72413 72.6764L3.29712 92.9302Z" fill="#028380"/>
<path d="M77.3788 23.8647L75.117 32.3059L122.146 44.9074L120.692 50.3338" stroke="#028380"/>
<path d="M115.338 89.6113L103.706 133.023L32.5587 113.959L34.0128 108.533" stroke="#028380"/>
</g>
<defs>
<linearGradient id="paint0_linear_4044_6499" x1="-52.5" y1="-29" x2="551.5" y2="114" gradientUnits="userSpaceOnUse">
<stop stop-color="#00A49F"/>
<stop offset="1" stop-color="#067371"/>
</linearGradient>
<clipPath id="clip0_4044_6499">
<rect width="522" height="98" rx="8" fill="white"/>
</clipPath>
</defs>
</svg>
